<svg width="121" height="174" viewBox="0 0 121 174" fill="none" xmlns="http://www.w3.org/2000/svg">
<path d="M121 168.497C115.553 171.616 108.11 173.487 100.833 173.487C93.5566 173.487 86.114 171.616 80.667 168.497C75.2199 171.616 67.7766 173.487 60.5 173.487C53.2234 173.487 45.7801 171.616 40.333 168.497C34.886 171.616 27.4434 173.487 20.167 173.487C12.8904 173.487 5.44708 171.616 0 168.497V164.88C4.82337 167.624 11.7261 169.828 20.167 169.828C28.6076 169.828 35.5097 167.624 40.333 164.88C45.1564 167.624 52.0592 169.828 60.5 169.828C68.9409 169.828 75.8436 167.624 80.667 164.88C85.4903 167.624 92.3924 169.828 100.833 169.828C109.274 169.828 116.177 167.624 121 164.88V168.497ZM99.1416 164.88H92.9277V153.229H28.0723V164.88H21.8584V145.364H99.1416V164.88ZM86.7471 80.6738L87.7637 89.002H94.458V96.0273H88.6211L89.4785 103.054H94.458V110.079H90.3359L91.1934 117.104H94.458V124.131H92.0508L92.9082 131.156H94.458V138.183H93.7656L94.4355 143.671L87.5732 141.832L87.124 138.183H34.2549L33.8057 141.832L26.9443 143.671L27.6143 138.183H27.3223V131.156H28.4717L29.3291 124.131H27.3223V117.104H30.1865L31.0439 110.079H27.3223V103.054H31.9014L32.7588 96.0273H27.3223V89.002H33.6162L34.6328 80.6738L41.5693 78.8145L40.3145 89.002H81.0645L79.8096 78.8145L86.7471 80.6738ZM35.1211 131.156H86.2578L85.3926 124.131H35.9863L35.1211 131.156ZM36.8525 117.104H84.5264L83.6611 110.079H37.7178L36.8525 117.104ZM38.583 103.054H82.7959L81.9307 96.0273H39.4482L38.583 103.054ZM84.3096 75.8867H80.4805V69.8281H40.5195V75.8867H36.6904V65.7383H84.3096V75.8867ZM36.5674 24.4756C38.7668 11.2869 47.2492 2.03223 60 2.03223C74.9231 2.03223 84 14.7086 84 31.5322C84 48.3558 74.9231 61.0322 60 61.0322C46.5702 61.0322 37.8761 50.7656 36.2705 36.4492L12.1182 60.6025L7.05469 55.5391L29.5479 33.0459H0V25.8848H27.8496L7.05469 5.08984L12.1182 0.0263672L36.5674 24.4756ZM60 11.7354C51.6154 11.7354 46.4619 19.2471 46.4619 31.5322C46.4619 43.8174 51.6154 51.3291 60 51.3291C68.3846 51.3291 73.4619 43.8174 73.4619 31.5322C73.4619 19.2471 68.3846 11.7354 60 11.7354ZM108.254 17.0654L97.332 27.9873H111.959V31.749H96.4404L108.254 43.5625L105.594 46.2217L91.1211 31.749H90.2285V27.9873H92.0137L105.594 14.4062L108.254 17.0654Z" fill="#184BFF"/>
</svg>
