<svg width="193" height="214" viewBox="0 0 193 214" fill="none" xmlns="http://www.w3.org/2000/svg">
<path d="M75.0342 205.674L78.1143 198.58L93.4346 183.368V192.038L71.7178 213.714L50 192.038V183.368L65.3994 198.58L68.4004 205.517V160.904H75.0342V205.674ZM142.799 182.389L142.798 191.059L127.398 175.847L124.397 168.911V213.522H117.764V168.753L114.685 175.847L99.3633 191.059V182.389L121.081 160.714L142.799 182.389ZM116.346 70.3867C117.634 74.3792 118.792 81.9781 118.792 89.5762C118.792 101.889 115.337 112.353 108.926 120.25C110.545 121 112.305 121.635 114.199 122.143C134.302 127.529 152.765 117.542 157.725 99.0322C159.511 92.3648 159.431 86.6897 158.938 83.3574L167.704 83.6797C168.152 86.7864 168.263 93.5369 166.156 101.398C159.73 125.382 136.128 137.831 111.349 131.191C107.764 130.231 104.524 128.875 101.662 127.182C93.5907 133.143 82.8788 136.454 69.9824 136.454C40.3617 136.454 21.6877 116.363 21.6875 89.4473C21.6875 81.4632 23.2327 74.7664 24.5205 71.1602L35.7246 71.2881C34.6943 74.3791 33.0206 81.3339 33.0205 89.0605C33.0207 110.439 47.3162 124.349 69.9824 124.349C78.9229 124.349 86.4939 122.471 92.4414 118.896C87.1887 111.661 85.5266 102.164 88.3193 91.7412C89.7592 86.3678 92.0882 81.659 93.75 79.4375L103.141 79.8203C100.967 82.7577 98.7517 86.644 97.2852 92.1172C95.059 100.426 96.0323 107.464 99.7041 112.768C104.741 106.848 107.459 98.7732 107.459 88.8037C107.459 81.0768 106.3 74.3791 105.012 70.3867H116.346ZM99.8604 0.712891C120.668 0.712922 135.786 9.33446 143.304 23.7969C144.751 23.6407 146.241 23.5605 147.771 23.5605C173.424 23.5607 193 41.6937 193 66.5234C193 74.6625 191.146 81.1543 189.909 84.0391L181.357 82.0811C182.697 78.9903 184.242 73.5296 184.242 66.627C184.242 47.4636 168.994 33.0392 148.183 33.0391C147.738 33.0391 147.298 33.0476 146.863 33.0635C148.053 37.5424 148.67 42.4034 148.67 47.5928C148.67 55.1906 147.511 62.7889 146.224 66.7812H134.89C136.177 62.789 137.337 56.0921 137.337 48.3652C137.337 43.7525 136.755 39.5445 135.632 35.7686C128.308 39.5124 124.073 47.0113 124.073 57.6631C124.073 63.3292 125.207 67.6568 126.546 71.0566L117.377 68.9961C116.347 66.4204 115.317 61.2692 115.316 55.7061C115.316 42.3994 121.492 32.2043 131.638 27.126C125.461 17.8396 114.493 12.8203 99.8604 12.8203C77.194 12.8203 62.8985 26.7289 62.8984 48.1074C62.8985 55.8344 64.5732 62.7891 65.6035 65.8799L54.3984 66.0088C54.285 65.6912 54.1709 65.3487 54.0547 64.9844L49.8408 65.9316C50.8452 63.3819 51.6952 60.1361 51.6953 55.8867C51.6953 44.0641 44.7404 37.419 33.6133 37.4189C18.0044 37.4189 6.56836 48.2368 6.56836 62.6094C6.56846 67.7863 7.72696 71.8821 8.73145 74.2002L2.31836 75.668C1.39114 73.5044 0.000125986 68.6363 0 62.5322C-8.14009e-07 43.9099 14.6814 30.3098 33.9219 30.3096C41.716 30.3096 48.1525 33.0688 52.4453 37.8691C56.4613 16.0473 73.9833 0.712892 99.8604 0.712891Z" fill="#184BFF"/>
</svg>
