<svg width="223" height="144" viewBox="0 0 223 144" fill="none" xmlns="http://www.w3.org/2000/svg">
<path d="M79.4375 132.319C69.9664 138.522 56.7671 142.693 43.6657 143.478C30.5643 144.263 16.9614 141.697 6.81763 136.669L6.42744 130.156C15.4079 134.577 28.0733 137.8 43.271 136.889C58.4687 135.979 70.6588 131.267 79.0473 125.805L79.4375 132.319ZM222.409 123.379C212.938 129.581 199.738 133.753 186.637 134.538C173.536 135.323 159.933 132.757 149.789 127.729L149.399 121.216C158.379 125.636 171.045 128.86 186.242 127.949C201.44 127.039 213.63 122.327 222.019 116.865L222.409 123.379ZM150.217 116.058C140.746 122.26 127.546 126.432 114.445 127.217C101.344 128.002 87.7407 125.435 77.5969 120.408L77.2067 113.894C86.1871 118.315 98.8526 121.538 114.05 120.628C129.248 119.718 141.438 115.005 149.827 109.544L150.217 116.058ZM78.0666 109.435C68.5956 115.638 55.3963 119.81 42.2949 120.594C29.1935 121.379 15.5906 118.813 5.44683 113.786L5.05664 107.272C14.0371 111.693 26.7025 114.916 41.9002 114.006C57.0979 113.095 69.288 108.383 77.6765 102.922L78.0666 109.435ZM221.038 100.495C211.567 106.698 198.368 110.869 185.266 111.654C172.165 112.439 158.562 109.873 148.418 104.845L148.028 98.3318C157.008 102.753 169.674 105.976 184.871 105.066C200.069 104.155 212.259 99.443 220.648 93.9816L221.038 100.495ZM148.846 93.174C139.375 99.3764 126.176 103.548 113.074 104.333C99.9728 105.118 86.3699 102.552 76.2261 97.5241L75.8359 91.0104C84.8163 95.4313 97.4818 98.6546 112.679 97.7442C127.877 96.8338 140.067 92.1216 148.456 86.6603L148.846 93.174ZM76.6958 86.5516C67.2248 92.754 54.0255 96.9258 40.9241 97.7106C27.8227 98.4954 14.2198 95.9291 4.07602 90.9018L3.68583 84.388C12.6663 88.8089 25.3317 92.0322 40.5294 91.1218C55.7271 90.2114 67.9172 85.4993 76.3057 80.0379L76.6958 86.5516ZM219.667 77.6116C210.196 83.8139 196.997 87.9857 183.895 88.7705C170.794 89.5553 157.191 86.9891 147.047 81.9617L146.657 75.448C155.637 79.8689 168.303 83.0921 183.501 82.1817C198.698 81.2714 210.888 76.5592 219.277 71.0978L219.667 77.6116ZM147.475 70.2902C138.004 76.4926 124.805 80.6644 111.703 81.4492C98.602 82.234 84.999 79.6677 74.8553 74.6404L74.4651 68.1266C83.4455 72.5476 96.111 75.7708 111.309 74.8604C126.506 73.95 138.696 69.2379 147.085 63.7765L147.475 70.2902ZM75.325 63.6678C65.854 69.8702 52.6547 74.042 39.5533 74.8268C26.4519 75.6116 12.849 73.0453 2.70522 68.018L2.31503 61.5043C11.2954 65.9252 23.9609 69.1484 39.1586 68.238C54.3563 67.3276 66.5464 62.6155 74.9349 57.1541L75.325 63.6678ZM218.296 54.7278C208.825 60.9301 195.626 65.1019 182.525 65.8867C169.423 66.6715 155.82 64.1053 145.676 59.0779L145.286 52.5642C154.267 56.9851 166.932 60.2083 182.13 59.298C197.328 58.3876 209.518 53.6754 217.906 48.2141L218.296 54.7278ZM146.104 47.4064C136.633 53.6088 123.434 57.7806 110.333 58.5654C97.2312 59.3502 83.6282 56.784 73.4845 51.7566L73.0943 45.2429C82.0747 49.6638 94.7402 52.887 109.938 51.9766C125.136 51.0662 137.326 46.3541 145.714 40.8927L146.104 47.4064ZM73.9542 40.7841C64.4832 46.9864 51.2839 51.1582 38.1825 51.943C25.0811 52.7278 11.4782 50.1616 1.33441 45.1342L0.944224 38.6205C9.92464 43.0414 22.5901 46.2646 37.7878 45.3542C52.9855 44.4439 65.1756 39.7317 73.564 34.2703L73.9542 40.7841ZM216.925 31.844C207.454 38.0463 194.255 42.2181 181.154 43.003C168.052 43.7878 154.449 41.2215 144.306 36.1941L143.915 29.6804C152.896 34.1013 165.561 37.3246 180.759 36.4142C195.957 35.5038 208.147 30.7916 216.535 25.3303L216.925 31.844ZM179.029 7.54113C192.131 6.75632 205.734 9.32255 215.878 14.35L216.268 20.8637C207.287 16.4427 194.622 13.2195 179.424 14.1299C164.815 15.0051 152.985 19.3933 144.639 24.5831C135.175 30.7517 122.02 34.8994 108.962 35.6816C96.3534 36.4369 83.2811 34.0871 73.274 29.4284L73.2965 29.8037C64.3161 25.3828 51.6507 22.1596 36.4529 23.07C21.2552 23.9804 9.0651 28.6925 0.676661 34.1539L0.286471 27.6402C9.75754 21.4377 22.9567 17.266 36.0582 16.4812C48.6665 15.7259 61.7388 18.0748 71.7459 22.7334L71.7235 22.3591C80.7039 26.78 93.3694 30.0032 108.567 29.0928C123.181 28.2175 135.013 23.826 143.358 18.6344C152.822 12.4683 165.974 8.32318 179.029 7.54113ZM106.838 0.2198C119.939 -0.565016 133.542 2.00121 143.686 7.02863L144.076 13.5423C135.095 9.12142 122.43 5.89819 107.232 6.80857C92.0344 7.71897 79.8444 12.4311 71.4559 17.8925L71.0658 11.3788C80.5368 5.17635 93.736 1.00462 106.838 0.2198Z" fill="#184BFF"/>
</svg>
