<svg width="173" height="125" viewBox="0 0 173 125" fill="none" xmlns="http://www.w3.org/2000/svg">
<path d="M172.75 103.07C149.42 116.427 117.719 124.976 86.375 124.976C55.0307 124.976 23.3301 116.427 0 103.07V91.1377C20.8369 103.07 50.4003 112.865 86.375 112.865C122.35 112.865 151.913 103.07 172.75 91.1377V103.07ZM86.375 0.713867C117.719 0.71387 149.42 9.26221 172.75 22.6191V34.5518C153.006 23.2455 125.427 13.8591 91.9834 12.9053C117.515 15.616 133.629 35.4564 133.629 61.7422C133.629 90.0587 114.928 110.896 85.8994 110.896C56.6928 110.895 37.9934 90.0584 37.9932 61.7422C37.9932 35.5949 53.9375 15.8249 79.376 12.9492C46.5577 14.1196 19.4694 23.4026 0 34.5518V22.6191C23.3301 9.26221 55.0307 0.713866 86.375 0.713867ZM85.8994 26.8359C64.885 26.8363 54.0215 42.5084 54.0215 61.7422C54.0217 80.9757 64.8851 96.6481 85.8994 96.6484C106.736 96.6484 117.6 80.976 117.601 61.7422C117.601 42.5082 106.736 26.8359 85.8994 26.8359ZM86.1963 43.6357C96.6442 43.6357 104.956 51.9466 104.956 62.3945C104.956 72.605 96.6442 80.917 86.1963 80.917C75.9861 80.9166 67.6751 72.6048 67.6748 62.3945C67.675 51.9469 75.9861 43.6361 86.1963 43.6357Z" fill="#184BFF"/>
</svg>
