<svg width="163" height="163" viewBox="0 0 163 163" fill="none" xmlns="http://www.w3.org/2000/svg">
<path d="M81.5701 1.81388L82.2398 13.2797C115.298 13.9277 141.245 38.8947 145.067 72.5408L162.402 71.5284L160.664 81.598L145.54 82.4813C144.938 115.728 122.278 142.587 90.0487 146.991L90.9504 162.431L80.8798 160.693L80.1163 147.619C47.2779 147.313 21.3265 123.173 16.8279 89.9982L0.0478969 90.9782L1.78604 80.9086L16.1395 80.0703C16.0188 45.9812 39.1913 18.0188 72.3018 13.8121L71.4995 0.0757893L81.5701 1.81388ZM28.9557 89.29C33.0401 119.356 54.5575 135.396 79.4292 135.855L78.5624 121.012C60.6043 119.965 46.491 106.676 43.3754 88.4478L28.9557 89.29ZM118.993 84.0317C118.032 102.269 105.857 116.97 88.4927 120.348L89.3615 135.224C113.699 131.636 132.861 113.256 133.412 83.1896L118.993 84.0317ZM76.9859 48.5581C61.1902 50.3849 48.7812 62.8385 49.9633 83.079C51.0845 102.277 63.4062 112.917 78.154 114.02L78.0754 112.673L84.9669 113.862C100.682 111.982 113.008 99.7345 111.825 79.4662C110.726 60.6529 98.7482 49.8876 84.2956 48.4824L84.3746 49.8336L76.9859 48.5581ZM79.8103 62.7173C90.3971 62.0992 98.8435 69.8352 99.4483 80.189C100.056 90.5904 92.5609 99.2087 81.9776 99.827C71.3942 100.445 62.9463 92.7576 62.3387 82.3563C61.7342 72.0024 69.2235 63.3357 79.8103 62.7173ZM81.146 94.9511C81.3273 94.9477 81.5093 94.9426 81.6917 94.932L81.146 94.9511ZM80.2102 69.565C77.0205 69.7514 74.2333 70.994 72.3089 73.0463C70.4026 75.0794 69.2142 78.0433 69.4418 81.9415C69.6709 85.863 71.1966 88.6534 73.3194 90.432C75.4643 92.2287 78.3759 93.1222 81.5751 92.9354C84.7744 92.7485 87.5621 91.5224 89.4833 89.488C91.3847 87.4744 92.5741 84.5256 92.3452 80.6039C92.1174 76.7058 90.593 73.9003 88.4631 72.1029C86.3129 70.2886 83.3999 69.3788 80.2102 69.565ZM70.0658 89.8629C70.1564 89.9864 70.2499 90.107 70.3443 90.2262C70.2446 90.1004 70.1463 89.9729 70.0509 89.8422L70.0658 89.8629ZM72.9785 25.3998C47.8892 28.8441 28.1461 48.1721 28.2683 79.362L42.7972 78.5135C43.7817 60.1204 56.2455 45.217 73.9524 42.0755L72.9785 25.3998ZM83.8925 41.5791C101.527 42.9253 115.33 56.1696 118.411 74.0976L132.939 73.2491C129.46 42.5288 107.953 25.6521 82.9167 24.8713L83.8925 41.5791ZM72.5032 70.2088C72.4692 70.234 72.4357 70.2597 72.402 70.2852C72.52 70.1961 72.6393 70.1086 72.7604 70.0236L72.5032 70.2088ZM77.4407 67.9533C77.3272 67.9801 77.2145 68.0088 77.1023 68.0386C77.2523 67.9991 77.4036 67.9628 77.5556 67.928L77.4407 67.9533Z" fill="#184BFF"/>
</svg>
