<svg width="192" height="228" viewBox="0 0 192 228" fill="none" xmlns="http://www.w3.org/2000/svg">
<path d="M49.5106 213.799C51.0215 208.16 56.655 204.907 62.4647 206.464C68.1032 207.975 71.5263 213.654 70.0154 219.293C68.4587 225.102 62.6082 228.48 56.9695 226.969C51.1603 225.412 47.9541 219.608 49.5106 213.799ZM148.085 178.05C153.07 173.064 161.171 172.999 166.242 178.069C171.311 183.138 171.551 191.342 166.464 196.429C161.244 201.648 153.138 201.241 148.104 196.207C143.068 191.171 142.966 183.169 148.085 178.05ZM150.929 192.763V192.762V192.763ZM150.386 192.104C150.423 192.154 150.464 192.203 150.503 192.253C150.464 192.203 150.423 192.154 150.386 192.104ZM150.146 191.766C150.192 191.833 150.239 191.899 150.287 191.965C150.239 191.899 150.192 191.833 150.146 191.766ZM149.924 191.418C149.948 191.458 149.974 191.497 149.999 191.536C149.974 191.497 149.948 191.458 149.924 191.418ZM149.535 190.7C149.561 190.754 149.589 190.807 149.616 190.86C149.589 190.807 149.561 190.754 149.535 190.7ZM149.357 190.308C149.391 190.388 149.428 190.468 149.465 190.548C149.428 190.468 149.391 190.388 149.357 190.308ZM149.217 189.95C149.247 190.034 149.281 190.116 149.314 190.199C149.281 190.116 149.247 190.034 149.217 189.95ZM149.089 189.575C149.11 189.642 149.133 189.708 149.156 189.774C149.133 189.708 149.11 189.642 149.089 189.575ZM117.934 30.4873L104.73 79.7627C106.552 80.6728 108.32 81.7312 110.022 82.9346L131.936 61.0215L142.527 71.6123L120.499 93.6407C126.275 102.202 128.421 112.386 126.937 122.155L161.593 131.441L159.228 140.267L124.545 130.973C123.554 133.46 122.306 135.873 120.799 138.173L149.823 167.197L137.231 179.789L108.07 150.628C100.056 155.63 90.7479 157.558 81.7352 156.413L72.8309 189.646L61.8953 186.716L70.8172 153.415C66.2359 151.426 61.9316 148.545 58.1551 144.769C54.0062 140.62 50.9382 135.834 48.9471 130.743L31.4988 135.419L29.1795 126.762L46.6336 122.084C45.0247 111.36 47.7895 100.14 54.9266 91.1221L28.7235 64.919L35.1834 58.459L61.3416 84.6182C69.2209 78.2059 78.8435 75.1879 88.3651 75.5616L101.615 26.1143L117.934 30.4873ZM148.977 189.187C148.995 189.255 149.014 189.323 149.034 189.391C149.014 189.323 148.995 189.255 148.977 189.187ZM148.885 188.794C148.899 188.861 148.915 188.927 148.93 188.993C148.915 188.927 148.899 188.861 148.885 188.794ZM148.815 188.421C148.826 188.486 148.838 188.55 148.85 188.614C148.838 188.55 148.826 188.486 148.815 188.421ZM148.762 188.03C148.768 188.091 148.777 188.151 148.785 188.212C148.777 188.151 148.768 188.091 148.762 188.03ZM148.727 187.647C148.73 187.689 148.734 187.73 148.737 187.772C148.734 187.73 148.73 187.689 148.727 187.647ZM148.711 187.231C148.712 187.294 148.713 187.356 148.716 187.418C148.713 187.356 148.712 187.294 148.711 187.231ZM148.715 186.826C148.712 186.904 148.71 186.982 148.71 187.06C148.71 186.982 148.712 186.904 148.715 186.826ZM148.738 186.426C148.732 186.501 148.727 186.576 148.722 186.651C148.727 186.576 148.732 186.501 148.738 186.426ZM148.779 186.044C148.769 186.121 148.76 186.198 148.752 186.274C148.76 186.198 148.769 186.121 148.779 186.044ZM148.837 185.67C148.826 185.73 148.816 185.79 148.806 185.85C148.816 185.79 148.826 185.73 148.837 185.67ZM148.921 185.262C148.905 185.331 148.889 185.401 148.875 185.471C148.889 185.401 148.905 185.331 148.921 185.262ZM149.022 184.868C149.002 184.941 148.981 185.014 148.963 185.088C148.981 185.014 149.002 184.941 149.022 184.868ZM149.147 184.471C149.121 184.549 149.093 184.626 149.069 184.704C149.093 184.626 149.121 184.549 149.147 184.471ZM149.268 184.134C149.244 184.197 149.22 184.259 149.197 184.322C149.22 184.259 149.244 184.197 149.268 184.134ZM149.457 183.69C149.42 183.772 149.383 183.853 149.348 183.935C149.383 183.853 149.42 183.772 149.457 183.69ZM149.631 183.333C149.586 183.419 149.543 183.504 149.502 183.591C149.543 183.504 149.586 183.419 149.631 183.333ZM149.845 182.943C149.792 183.032 149.742 183.122 149.693 183.212C149.742 183.122 149.792 183.032 149.845 182.943ZM150.054 182.605C149.998 182.691 149.943 182.777 149.89 182.864C149.943 182.777 149.998 182.691 150.054 182.605ZM152.176 180.348C152.089 180.412 152.004 180.479 151.919 180.547C152.004 180.479 152.089 180.412 152.176 180.348ZM161.923 180.204C161.882 180.176 161.843 180.146 161.802 180.119C161.843 180.146 161.882 180.176 161.923 180.204ZM152.85 179.897C152.794 179.931 152.738 179.968 152.682 180.003C152.738 179.968 152.794 179.931 152.85 179.897ZM161.575 179.976C161.535 179.951 161.495 179.925 161.454 179.9C161.495 179.925 161.535 179.951 161.575 179.976ZM153.211 179.694C153.137 179.733 153.065 179.775 152.993 179.816C153.065 179.775 153.137 179.733 153.211 179.694ZM153.572 179.514C153.498 179.549 153.425 179.586 153.351 179.623C153.425 179.586 153.498 179.549 153.572 179.514ZM160.881 179.588C160.828 179.562 160.776 179.535 160.723 179.51C160.776 179.535 160.828 179.562 160.881 179.588ZM153.942 179.35C153.866 179.381 153.79 179.415 153.715 179.449C153.79 179.415 153.866 179.381 153.942 179.35ZM160.492 179.407C160.45 179.389 160.408 179.37 160.366 179.353C160.408 179.37 160.45 179.389 160.492 179.407ZM154.302 179.21C154.235 179.234 154.17 179.26 154.104 179.285C154.17 179.26 154.235 179.234 154.302 179.21ZM160.154 179.27C160.09 179.245 160.027 179.22 159.963 179.197C160.027 179.22 160.09 179.245 160.154 179.27ZM159.809 179.146C159.735 179.121 159.661 179.096 159.586 179.073C159.661 179.096 159.735 179.121 159.809 179.146ZM154.688 179.081C154.628 179.1 154.568 179.12 154.509 179.14C154.568 179.12 154.628 179.1 154.688 179.081ZM155.059 178.977C154.999 178.992 154.939 179.009 154.879 179.026C154.939 179.009 154.999 178.992 155.059 178.977ZM159.4 179.02C159.336 179.002 159.272 178.984 159.207 178.968C159.272 178.984 159.336 179.002 159.4 179.02ZM155.468 178.883C155.402 178.896 155.337 178.91 155.272 178.925C155.337 178.91 155.402 178.896 155.468 178.883ZM158.988 178.916C158.935 178.904 158.882 178.893 158.829 178.882C158.882 178.893 158.935 178.904 158.988 178.916ZM155.85 178.814C155.779 178.825 155.708 178.837 155.638 178.85C155.708 178.837 155.779 178.825 155.85 178.814ZM158.616 178.842C158.546 178.829 158.476 178.817 158.405 178.807C158.476 178.817 158.546 178.829 158.616 178.842ZM158.257 178.786C158.174 178.775 158.091 178.764 158.009 178.756C158.091 178.764 158.174 178.775 158.257 178.786ZM156.225 178.764C156.172 178.77 156.118 178.776 156.064 178.783C156.118 178.776 156.172 178.77 156.225 178.764ZM156.635 178.729C156.576 178.732 156.517 178.736 156.458 178.741C156.517 178.736 156.576 178.732 156.635 178.729ZM157.836 178.74C157.772 178.735 157.708 178.73 157.643 178.727C157.708 178.73 157.772 178.735 157.836 178.74ZM157.038 178.713C156.969 178.714 156.901 178.716 156.832 178.719C156.901 178.716 156.969 178.714 157.038 178.713ZM157.42 178.717C157.359 178.715 157.299 178.714 157.238 178.713C157.299 178.714 157.359 178.715 157.42 178.717ZM175.164 139.808C176.383 135.258 180.965 132.495 185.515 133.714C190.204 134.97 192.929 139.691 191.71 144.241C190.453 148.929 185.771 151.516 181.083 150.26C176.533 149.041 173.908 144.496 175.164 139.808ZM6.20002 128.859C10.5663 127.69 14.9489 130.285 16.1815 134.884C17.3776 139.348 14.9161 143.923 10.5496 145.093C6.05084 146.298 1.49966 143.603 0.303533 139.139C-0.928805 134.539 1.70125 130.065 6.20002 128.859ZM138.278 50.8858C142.268 46.8957 148.748 46.7471 152.775 50.7744C156.904 54.9032 156.618 61.315 152.663 65.2705C148.673 69.2603 142.332 69.2722 138.305 65.2451C134.379 61.3199 134.254 54.9099 138.278 50.8858ZM145.272 63.836C145.335 63.8386 145.399 63.8404 145.462 63.8409C145.399 63.8404 145.335 63.8386 145.272 63.836ZM145.546 63.8409C145.599 63.8405 145.653 63.8389 145.706 63.8369C145.653 63.8389 145.599 63.8404 145.546 63.8409ZM145.823 63.8321C145.88 63.8288 145.936 63.8244 145.993 63.8194C145.936 63.8244 145.88 63.8288 145.823 63.8321ZM145.013 63.8184C145.067 63.8232 145.121 63.8279 145.176 63.8311C145.121 63.8279 145.067 63.8232 145.013 63.8184ZM146.088 63.8096C146.141 63.804 146.194 63.7972 146.247 63.7901C146.194 63.7972 146.141 63.804 146.088 63.8096ZM144.753 63.7891C144.804 63.7961 144.856 63.8031 144.907 63.8086C144.856 63.8031 144.804 63.7961 144.753 63.7891ZM146.359 63.7744C146.415 63.7658 146.471 63.7555 146.526 63.7451C146.471 63.7555 146.415 63.7658 146.359 63.7744ZM144.498 63.7491C144.541 63.7569 144.584 63.7647 144.627 63.7715C144.584 63.7647 144.541 63.7569 144.498 63.7491ZM146.619 63.7276C146.68 63.715 146.741 63.7012 146.803 63.6866C146.741 63.7012 146.68 63.715 146.619 63.7276ZM144.227 63.6924C144.27 63.7023 144.312 63.7118 144.354 63.7207C144.312 63.7118 144.27 63.7023 144.227 63.6924ZM146.874 63.67C146.943 63.6524 147.012 63.6326 147.081 63.6123C147.012 63.6326 146.943 63.6524 146.874 63.67ZM143.927 63.6133C143.987 63.631 144.047 63.6475 144.107 63.6631C144.047 63.6475 143.987 63.631 143.927 63.6133ZM147.138 63.5957C147.196 63.5778 147.254 63.558 147.312 63.5381C147.254 63.558 147.196 63.5778 147.138 63.5957ZM143.689 63.5381C143.743 63.5566 143.797 63.5741 143.851 63.5909C143.797 63.5741 143.743 63.5566 143.689 63.5381ZM147.406 63.5069C147.463 63.4862 147.52 63.464 147.576 63.4414C147.52 63.464 147.463 63.4862 147.406 63.5069ZM143.443 63.4463C143.487 63.4634 143.529 63.4811 143.573 63.4971C143.529 63.4811 143.487 63.4634 143.443 63.4463ZM147.66 63.4082C147.713 63.3861 147.765 63.3617 147.817 63.3379C147.765 63.3617 147.713 63.3861 147.66 63.4082ZM143.147 63.3203C143.207 63.3478 143.266 63.3752 143.326 63.4004C143.266 63.3752 143.207 63.3478 143.147 63.3203ZM147.92 63.291C147.963 63.2705 148.005 63.2483 148.048 63.2266C148.005 63.2483 147.963 63.2705 147.92 63.291ZM142.907 63.2032C142.963 63.2322 143.019 63.2601 143.076 63.2871C143.019 63.2601 142.963 63.2322 142.907 63.2032ZM148.165 63.167C148.234 63.1296 148.303 63.0903 148.371 63.0498C148.303 63.0903 148.234 63.1296 148.165 63.167ZM142.61 63.0381C142.682 63.0808 142.754 63.1219 142.827 63.1612C142.754 63.1219 142.682 63.0808 142.61 63.0381ZM148.402 63.0313C148.475 62.9875 148.547 62.9419 148.618 62.8946C148.547 62.9419 148.475 62.9875 148.402 63.0313ZM142.387 62.8975C142.45 62.9395 142.514 62.9804 142.579 63.0196C142.514 62.9804 142.45 62.9395 142.387 62.8975ZM148.642 62.8789C148.708 62.8347 148.773 62.7885 148.838 62.7412C148.773 62.7885 148.708 62.8347 148.642 62.8789ZM142.156 62.7373C142.219 62.7835 142.283 62.8288 142.347 62.8721C142.283 62.8288 142.219 62.7835 142.156 62.7373ZM148.874 62.7149C148.918 62.6817 148.962 62.6469 149.006 62.6123C148.962 62.6469 148.918 62.6817 148.874 62.7149ZM141.977 62.6016C142.019 62.6343 142.06 62.6669 142.102 62.6983C142.06 62.6669 142.019 62.6343 141.977 62.6016ZM141.431 62.1182C141.571 62.2576 141.715 62.3883 141.863 62.5108C141.715 62.3883 141.571 62.2576 141.431 62.1182ZM140.861 61.4561C140.897 61.5047 140.935 61.552 140.972 61.5996C140.935 61.552 140.897 61.5047 140.861 61.4561ZM140.569 61.0196C140.584 61.0448 140.6 61.0697 140.616 61.0948C140.6 61.0697 140.584 61.0448 140.569 61.0196ZM140.428 60.7735C140.448 60.8112 140.47 60.8484 140.491 60.8858C140.47 60.8484 140.448 60.8112 140.428 60.7735ZM140.296 60.5147C140.318 60.5618 140.341 60.6087 140.365 60.6553C140.341 60.6087 140.318 60.5618 140.296 60.5147ZM140.198 60.2998C140.211 60.3299 140.225 60.3597 140.238 60.3897C140.225 60.3597 140.211 60.3299 140.198 60.2998ZM140.093 60.0342C140.106 60.0711 140.12 60.1079 140.135 60.1446C140.12 60.1079 140.106 60.0711 140.093 60.0342ZM140.009 59.792C140.02 59.8279 140.032 59.8638 140.044 59.8994C140.032 59.8638 140.02 59.8279 140.009 59.792ZM139.869 59.2754C139.878 59.3142 139.886 59.353 139.895 59.3916C139.886 59.353 139.878 59.3142 139.869 59.2754ZM139.811 58.9756C139.819 59.0239 139.828 59.0721 139.837 59.1201C139.828 59.0721 139.819 59.0239 139.811 58.9756ZM139.737 57.8018C139.74 57.7285 139.745 57.6552 139.751 57.5821C139.745 57.6552 139.74 57.7285 139.737 57.8018ZM139.784 57.2774C139.777 57.3291 139.771 57.3808 139.765 57.4326C139.771 57.3808 139.777 57.3291 139.784 57.2774ZM139.827 57.0078C139.817 57.0621 139.808 57.1165 139.8 57.1709C139.808 57.1165 139.817 57.0621 139.827 57.0078ZM139.881 56.75C139.868 56.8026 139.858 56.8554 139.847 56.9082C139.858 56.8554 139.868 56.8026 139.881 56.75ZM140.027 56.2325C140.013 56.2747 139.999 56.3169 139.986 56.3594C139.999 56.3169 140.013 56.2747 140.027 56.2325ZM140.117 55.9834C140.102 56.0213 140.089 56.0596 140.075 56.0977C140.089 56.0596 140.102 56.0213 140.117 55.9834ZM140.214 55.751C140.199 55.7855 140.183 55.8198 140.169 55.8545C140.183 55.8198 140.199 55.7855 140.214 55.751ZM140.334 55.4961C140.316 55.5309 140.299 55.5656 140.282 55.6006C140.299 55.5656 140.316 55.5309 140.334 55.4961ZM140.466 55.2481C140.444 55.2863 140.423 55.3247 140.402 55.3633C140.423 55.3247 140.444 55.2863 140.466 55.2481ZM140.621 54.9903C140.591 55.0372 140.561 55.0843 140.533 55.1319C140.561 55.0843 140.591 55.0372 140.621 54.9903ZM140.791 54.7393C140.754 54.7914 140.717 54.8435 140.681 54.8965C140.717 54.8435 140.754 54.7914 140.791 54.7393ZM140.983 54.4844C140.934 54.5456 140.886 54.6073 140.84 54.67C140.886 54.6073 140.934 54.5456 140.983 54.4844ZM141.405 54.0127C141.335 54.0832 141.267 54.1555 141.201 54.2285C141.125 54.3122 141.053 54.3977 140.983 54.4844C141.114 54.3218 141.255 54.164 141.406 54.0127H141.405ZM9.03986 38.7764C12.4718 35.3445 17.8218 35.4451 21.2537 38.877C24.5847 42.2079 24.5841 47.4568 21.1522 50.8887C17.8213 54.2194 12.4724 54.3207 9.14142 50.9903C5.70956 47.5584 5.70902 42.1074 9.03986 38.7764ZM142.586 53.0909H142.585H142.586ZM102.472 9.30765C104.199 2.86395 110.75 -0.99673 117.164 0.72171C123.746 2.48536 127.309 9.10615 125.596 15.503C123.876 21.9182 117.411 25.571 110.969 23.8448C104.694 22.1636 100.741 15.7691 102.472 9.30765ZM114.183 19.8467C114.241 19.8467 114.297 19.848 114.354 19.8467C114.297 19.848 114.241 19.8467 114.183 19.8467ZM113.728 19.834C113.822 19.8395 113.915 19.8446 114.009 19.8467C113.915 19.8446 113.822 19.8395 113.728 19.834ZM114.576 19.8369C114.629 19.8342 114.683 19.832 114.736 19.8282C114.683 19.832 114.629 19.8342 114.576 19.8369ZM113.423 19.8096C113.495 19.8167 113.567 19.8241 113.638 19.8291C113.567 19.8241 113.495 19.8167 113.423 19.8096ZM114.905 19.8125C114.968 19.8065 115.031 19.8015 115.094 19.794C115.031 19.8015 114.968 19.8065 114.905 19.8125ZM113.174 19.7823C113.195 19.7851 113.217 19.7884 113.239 19.791C113.217 19.7884 113.195 19.7851 113.174 19.7823ZM115.267 19.7696C115.333 19.7601 115.398 19.7504 115.463 19.7393C115.398 19.7504 115.333 19.7601 115.267 19.7696ZM115.612 19.7119C115.679 19.6991 115.745 19.6855 115.811 19.6709C115.745 19.6855 115.679 19.6991 115.612 19.7119ZM115.974 19.6319C116.032 19.6177 116.09 19.6044 116.147 19.5889C116.09 19.6044 116.032 19.6177 115.974 19.6319ZM116.344 19.5323C116.388 19.5189 116.432 19.5054 116.476 19.4912C116.432 19.5054 116.388 19.5189 116.344 19.5323ZM116.694 19.418C116.731 19.4049 116.768 19.3917 116.805 19.378C116.768 19.3917 116.731 19.4049 116.694 19.418ZM117.004 19.2998C117.057 19.2781 117.11 19.2554 117.163 19.2325C117.11 19.2554 117.057 19.2781 117.004 19.2998ZM111.05 19.2032C111.117 19.2323 111.186 19.2598 111.255 19.2871C111.186 19.2598 111.117 19.2323 111.05 19.2032ZM117.292 19.1748C117.358 19.1444 117.425 19.1135 117.49 19.0811C117.425 19.1135 117.358 19.1444 117.292 19.1748ZM110.731 19.0567C110.78 19.0804 110.829 19.1033 110.879 19.126C110.829 19.1033 110.78 19.0804 110.731 19.0567ZM117.609 19.0205C117.678 18.9851 117.745 18.9487 117.812 18.9112C117.745 18.9487 117.678 18.9851 117.609 19.0205ZM110.394 18.8828C110.448 18.912 110.501 18.9398 110.555 18.9678C110.501 18.9398 110.448 18.912 110.394 18.8828ZM117.916 18.8516C117.981 18.8139 118.045 18.776 118.109 18.7364C118.045 18.776 117.981 18.8139 117.916 18.8516ZM110.078 18.7002C110.135 18.7354 110.194 18.769 110.253 18.8028C110.194 18.769 110.135 18.7354 110.078 18.7002ZM118.228 18.6602C118.283 18.6243 118.338 18.5881 118.392 18.5508C118.338 18.5881 118.283 18.6243 118.228 18.6602ZM109.785 18.5108C109.837 18.5463 109.891 18.5809 109.944 18.6153C109.891 18.5809 109.837 18.5463 109.785 18.5108ZM118.525 18.4571C118.572 18.4234 118.617 18.3883 118.663 18.3535C118.617 18.3883 118.572 18.4234 118.525 18.4571ZM109.504 18.3116C109.55 18.3463 109.598 18.3803 109.645 18.4141C109.598 18.3803 109.55 18.3463 109.504 18.3116ZM118.806 18.2422C118.85 18.2071 118.893 18.1709 118.936 18.1348C118.893 18.1709 118.85 18.2071 118.806 18.2422ZM109.226 18.0938C109.266 18.1261 109.305 18.1579 109.346 18.1895C109.305 18.1579 109.266 18.1261 109.226 18.0938ZM119.074 18.0166C119.114 17.9816 119.153 17.9462 119.192 17.9102C119.153 17.9462 119.114 17.9816 119.074 18.0166ZM108.952 17.8565C108.996 17.8962 109.04 17.9359 109.085 17.9746C109.04 17.9359 108.996 17.8962 108.952 17.8565ZM119.338 17.7744C119.379 17.7338 119.419 17.6911 119.46 17.6494C119.419 17.6911 119.379 17.7338 119.338 17.7744ZM108.677 17.5957C108.725 17.644 108.773 17.6922 108.823 17.7393C108.773 17.6922 108.725 17.644 108.677 17.5957ZM119.575 17.5313C119.627 17.4752 119.679 17.4182 119.729 17.3604C119.679 17.4182 119.627 17.4752 119.575 17.5313ZM108.421 17.3272C108.477 17.3889 108.534 17.4499 108.592 17.5098C108.534 17.4499 108.477 17.3889 108.421 17.3272ZM119.807 17.2715C119.865 17.2031 119.921 17.1323 119.976 17.0616C119.921 17.1323 119.865 17.2031 119.807 17.2715ZM108.205 17.0782C108.251 17.1343 108.298 17.1903 108.347 17.2451C108.298 17.1903 108.251 17.1343 108.205 17.0782ZM120.028 16.9971C120.068 16.9449 120.107 16.8913 120.145 16.8379C120.107 16.8913 120.068 16.9449 120.028 16.9971ZM107.934 16.7344C107.993 16.814 108.053 16.8924 108.115 16.9698C108.053 16.8924 107.993 16.814 107.934 16.7344ZM107.192 15.4893C107.398 15.9268 107.647 16.344 107.934 16.7344C107.647 16.344 107.398 15.9268 107.192 15.4893ZM120.262 16.6758C120.28 16.6489 120.297 16.621 120.315 16.5938C120.297 16.621 120.28 16.6489 120.262 16.6758ZM120.443 16.3965C120.48 16.3371 120.515 16.2766 120.551 16.2159C120.515 16.2766 120.48 16.3371 120.443 16.3965ZM120.624 16.0899C120.677 15.9946 120.728 15.8981 120.777 15.7998C120.728 15.8981 120.677 15.9946 120.624 16.0899ZM120.794 15.7666C120.844 15.6657 120.891 15.563 120.936 15.459C120.891 15.563 120.844 15.6657 120.794 15.7666ZM120.948 15.4326C120.988 15.3401 121.027 15.2463 121.063 15.1514C121.027 15.2463 120.988 15.3401 120.948 15.4326ZM107.049 15.166C107.084 15.2509 107.122 15.3345 107.16 15.418C107.122 15.3345 107.084 15.2509 107.049 15.166ZM106.927 14.8506C106.954 14.9271 106.984 15.0027 107.014 15.0782C106.984 15.0027 106.954 14.9271 106.927 14.8506ZM121.323 14.3584C121.29 14.4834 121.254 14.6069 121.215 14.7285L121.323 14.3584C121.357 14.2334 121.388 14.1084 121.415 13.9834L121.417 13.9707C121.389 14.0998 121.358 14.2293 121.323 14.3584ZM106.816 14.5186C106.837 14.5864 106.86 14.6536 106.883 14.7207C106.86 14.6536 106.837 14.5864 106.816 14.5186ZM106.717 14.167C106.736 14.2449 106.758 14.3224 106.78 14.3994C106.758 14.3224 106.736 14.2449 106.717 14.167ZM106.637 13.8164C106.654 13.9009 106.673 13.9848 106.693 14.0684C106.673 13.9848 106.654 13.9009 106.637 13.8164ZM106.578 13.4893C106.589 13.5606 106.602 13.6314 106.615 13.7022C106.602 13.6314 106.589 13.5606 106.578 13.4893ZM106.533 13.1485C106.54 13.2157 106.548 13.2828 106.557 13.3496C106.548 13.2828 106.54 13.2157 106.533 13.1485ZM106.504 12.7979C106.508 12.8622 106.512 12.9263 106.517 12.9903C106.512 12.9263 106.508 12.8622 106.504 12.7979ZM121.573 12.919C121.575 12.8955 121.577 12.8721 121.579 12.8487C121.577 12.8721 121.575 12.8955 121.573 12.919ZM106.492 12.4336C106.493 12.4923 106.493 12.5509 106.495 12.6094C106.493 12.5509 106.493 12.4923 106.492 12.4336ZM121.593 12.6094C121.595 12.5641 121.597 12.5189 121.598 12.4737C121.597 12.5189 121.595 12.5641 121.593 12.6094ZM106.5 12.0166C106.496 12.1047 106.492 12.1926 106.491 12.2803C106.492 12.1926 106.496 12.1047 106.5 12.0166ZM121.599 12.2285C121.599 12.179 121.6 12.1295 121.598 12.0801C121.6 12.1295 121.599 12.179 121.599 12.2285ZM106.526 11.6475C106.517 11.7368 106.51 11.826 106.505 11.9151C106.51 11.826 106.517 11.7368 106.526 11.6475ZM121.592 11.9151C121.589 11.8485 121.586 11.7821 121.581 11.7159C121.586 11.7821 121.589 11.8485 121.592 11.9151ZM106.653 10.8272C106.601 11.073 106.561 11.3188 106.534 11.5635C106.561 11.3187 106.602 11.0731 106.654 10.8272H106.653ZM121.565 11.5303C121.56 11.4735 121.554 11.4169 121.548 11.3604C121.554 11.4169 121.56 11.4735 121.565 11.5303ZM121.517 11.1426C121.511 11.098 121.505 11.0533 121.498 11.0088C121.505 11.0533 121.511 11.098 121.517 11.1426ZM121.461 10.8047C121.45 10.7473 121.439 10.6899 121.427 10.6328C121.439 10.6899 121.45 10.7473 121.461 10.8047ZM121.384 10.4512C121.371 10.3977 121.358 10.3442 121.344 10.291C121.358 10.3442 121.371 10.3977 121.384 10.4512ZM121.293 10.1114C121.275 10.0502 121.257 9.98932 121.237 9.92874C121.257 9.98932 121.275 10.0502 121.293 10.1114ZM121.19 9.78714C121.168 9.7217 121.145 9.65652 121.121 9.59183C121.145 9.65652 121.168 9.7217 121.19 9.78714ZM121.059 9.43362C121.037 9.37732 121.014 9.32134 120.99 9.26566C121.014 9.32134 121.037 9.37732 121.059 9.43362ZM120.919 9.10355C120.894 9.04878 120.868 8.99456 120.842 8.94046C120.868 8.99456 120.894 9.04879 120.919 9.10355ZM120.763 8.78226C120.734 8.7272 120.705 8.6725 120.676 8.61819C120.705 8.67249 120.734 8.72721 120.763 8.78226ZM120.596 8.47562C120.562 8.41676 120.527 8.3587 120.491 8.30081C120.527 8.3587 120.562 8.41677 120.596 8.47562ZM120.409 8.16898C120.374 8.1148 120.339 8.0611 120.303 8.00784C120.339 8.0611 120.374 8.11481 120.409 8.16898ZM120.203 7.86331C120.165 7.80994 120.125 7.75748 120.086 7.70511C120.125 7.75748 120.165 7.80994 120.203 7.86331ZM119.991 7.58206C119.947 7.52599 119.901 7.47087 119.855 7.41605C119.901 7.47087 119.947 7.52599 119.991 7.58206ZM119.759 7.30276C119.723 7.26232 119.687 7.22235 119.651 7.18265C119.687 7.22235 119.723 7.26233 119.759 7.30276ZM119.519 7.04105C119.465 6.98503 119.41 6.9304 119.354 6.87601C119.41 6.9304 119.465 6.98504 119.519 7.04105ZM119.284 6.80765C119.219 6.74585 119.152 6.68557 119.085 6.62601C119.152 6.68557 119.219 6.74585 119.284 6.80765ZM119.003 6.55374C118.951 6.50958 118.898 6.4667 118.846 6.42386C118.898 6.46669 118.951 6.50959 119.003 6.55374ZM118.715 6.31839C118.662 6.27806 118.609 6.23927 118.555 6.20023C118.609 6.23927 118.662 6.27806 118.715 6.31839ZM118.42 6.10257C118.351 6.05464 118.281 6.00871 118.21 5.96292C118.281 6.0087 118.351 6.05465 118.42 6.10257ZM118.125 5.90726C118.041 5.85487 117.956 5.80525 117.87 5.75589C117.956 5.80524 118.041 5.85488 118.125 5.90726ZM117.804 5.71683C117.711 5.66498 117.617 5.61568 117.521 5.56741C117.617 5.61567 117.711 5.66499 117.804 5.71683ZM117.473 5.54202C117.392 5.50133 117.308 5.46282 117.224 5.42483C117.308 5.46282 117.392 5.50134 117.473 5.54202ZM116.402 5.10648C116.649 5.18589 116.888 5.27619 117.12 5.37698C116.888 5.27618 116.649 5.1859 116.402 5.10648ZM114.515 4.75101V4.75003V4.75101Z" fill="#184BFF"/>
</svg>
