<svg width="147" height="187" viewBox="0 0 147 187" fill="none" xmlns="http://www.w3.org/2000/svg">
<path d="M42 0.0307617C101.75 0.0307617 144 47.641 144 108.079C144 122.298 141.191 135.064 136.01 145.95L146.506 156.055L138.524 164.037L130.424 155.659C117.28 174.799 95.3506 186.031 68 186.031C55 186.031 43 183.564 36.5 181.097L32.75 164.323C41.5 167.776 51.25 170.49 64.5 170.49C90.1648 170.49 108.713 160.66 118.786 143.624L109.131 133.638L116.044 126.725L123.378 133.787C126.099 126.186 127.5 117.565 127.5 108.079C127.5 54.0547 90.25 15.5718 42 15.5718C24.25 15.5718 10.75 19.5192 3.5 22.7261L0 7.43115C7.50003 4.22426 23 0.030762 42 0.0307617ZM61 131.231V143.981L21.8496 155.531V148.63L60.8496 137.606L21.8496 126.581V119.681L61 131.231ZM67.3008 85.2612C79.2368 73.3253 95.4233 73.4541 107.016 85.0464C117.114 95.1444 118.511 108.727 110.814 119.951C110.882 122.125 110.08 124.326 108.406 126C106.811 127.595 104.701 128.384 102.594 128.358C91.203 136.592 77.3015 135.332 67.0156 125.046C55.4234 113.454 55.294 97.2682 67.3008 85.2612ZM97.9209 94.1411C91.123 87.3432 82.0615 85.6705 74.8857 92.8462C67.7103 100.022 69.3828 109.083 76.1807 115.881C81.5907 121.291 88.4343 123.455 94.6201 120.496C94.5725 118.36 95.3601 116.202 96.9844 114.578C98.5823 112.98 100.66 112.175 102.729 112.156C105.393 106.083 103.208 99.4279 97.9209 94.1411ZM9.8252 111.731H32.7754L31.3496 118.031H1.5752L13.5752 63.731H20.4004L9.8252 111.731ZM73.9336 56.0601C66.5147 60.3074 56.3774 62.856 46.4668 62.856C36.5561 62.8559 26.4189 60.3075 19 56.0601V51.1323C25.5694 54.8701 34.9704 57.8716 46.4668 57.8716C57.9632 57.8716 67.3642 54.8701 73.9336 51.1323V56.0601ZM46.4668 36.0308C56.3774 36.0308 66.5147 38.5793 73.9336 42.8267V47.7534C67.3642 44.0158 57.963 41.0142 46.4668 41.0142C34.9705 41.0142 25.5694 44.0157 19 47.7534V42.8267C26.4189 38.5792 36.5561 36.0308 46.4668 36.0308Z" fill="#184BFF"/>
</svg>
