<svg width="165" height="163" viewBox="0 0 165 163" fill="none" xmlns="http://www.w3.org/2000/svg">
<path d="M82.1045 0.487305C77.3376 8.8116 72.8735 18.6502 69.3184 29.7969C71.3269 31.8065 72.6855 34.5042 73.0537 37.5469C79.11 38.4572 85.1398 39.6965 91.0615 41.2832C92.4949 41.6673 93.9236 42.0723 95.3467 42.4971C99.3618 41.0271 103.409 39.7132 107.458 38.5547C103.628 23.7541 98.1251 10.9293 92.1455 0.487305H101.338C107.325 10.9451 112.358 23.1951 115.983 36.3447C127.673 33.6301 139.215 32.2351 149.909 32.1963L154.505 40.1572C143.627 40.1957 131.256 41.5456 118.097 44.8213C118.612 47.1319 119.081 49.4637 119.506 51.8115C129.164 56.3982 138.257 61.7971 146.45 67.7041C151.633 61.3194 155.975 54.9526 159.525 48.8535L164.122 56.8145C160.998 62.1808 157.333 67.5647 153.206 72.8535C157.054 75.9561 160.65 79.1651 163.951 82.4424L161.572 91.3213C157.541 87.3188 152.97 83.2814 147.867 79.3418C141.418 86.7841 134.078 93.9304 126.066 100.442C127.088 102.007 127.764 103.809 127.996 105.753C139.431 105.17 149.87 103.425 158.974 101.021L156.594 109.899C147.117 112.402 136.657 113.988 125.743 114.546C123.892 117.116 121.078 118.973 117.782 119.651C114.119 135.483 108.39 150.288 101.338 162.605H92.1455C98.9226 150.771 105.086 135.874 108.897 118.511C107.284 117.7 105.875 116.573 104.75 115.214C104.623 115.288 104.496 115.363 104.368 115.437C93.043 121.975 80.8343 127.114 68.5498 130.816C72.2193 142.988 76.9872 153.669 82.1045 162.605H72.9121C67.9039 153.858 63.564 143.855 60.1562 133.122C47.6131 136.232 35.1823 137.832 23.7236 137.874L19.127 129.913C30.6032 129.873 43.7396 128.37 57.7119 124.689C55.8241 117.502 54.3586 110.063 53.3877 102.516C49.7811 101.045 46.2354 99.4548 42.7656 97.7617C40.5507 99.4799 37.758 100.498 34.7021 100.498C32.8797 100.498 31.1508 100.136 29.582 99.4795C23.3249 106.826 18.1914 114.199 14.1064 121.217L9.51074 113.256C13.3215 106.711 17.9338 100.137 23.2119 93.7451C22.1852 91.8711 21.6036 89.7104 21.6035 87.3994C21.6035 86.7957 21.6428 86.2019 21.7197 85.6211C13.6115 80.1497 6.27335 74.1684 0 67.9404L2.37891 59.0615C8.78517 65.4227 16.5571 71.8712 25.6582 77.876C27.9998 75.6535 31.1765 74.2999 34.7021 74.2998C36.8086 74.2998 38.7904 74.7834 40.5439 75.6465C44.452 72.1128 48.5563 68.7213 52.8252 65.5166C53.3088 60.6372 54.003 55.7899 54.8896 51.0127C52.1867 49.6578 50.0381 47.3424 48.8428 44.4805C32.308 44.0275 17.4014 46.0806 4.97852 49.3623L7.35742 40.4834C19.7172 37.2197 33.7475 35.5142 48.2783 35.6162C49.7755 30.1054 54.6308 26.1289 60.4785 26.1289C60.7934 26.1289 61.1053 26.1404 61.4141 26.1631C64.6082 16.8697 68.501 8.19203 72.9121 0.487305H82.1045ZM63.1162 106.139C63.9119 111.713 64.9564 117.076 66.2061 122.209C73.899 119.738 81.786 116.591 89.7393 112.656C84.0728 111.765 78.4336 110.585 72.8896 109.1C69.6035 108.219 66.3425 107.228 63.1162 106.139ZM95.3311 52.2598C88.2738 55.1338 81.1132 58.5997 73.9434 62.7393C69.6634 65.2103 65.5935 67.7992 61.7275 70.4785C61.4997 74.0939 61.3799 77.7843 61.3799 81.5459C61.3799 86.4579 61.584 91.2485 61.9668 95.9092C66.2538 97.4326 70.7029 98.8244 75.3125 100.06C84.5145 102.525 93.4735 104.132 102.084 105.038C103.005 99.8805 107.086 95.8455 112.367 94.8301C112.695 90.5099 112.87 86.0797 112.87 81.5459C112.87 73.3777 112.306 65.5457 111.292 58.0879C106.227 55.9498 100.905 53.9918 95.3311 52.2598ZM52.0684 77.6846C50.2339 79.1565 48.4546 80.6477 46.7285 82.1533C47.4188 83.7553 47.8018 85.528 47.8018 87.3994C47.8017 88.3034 47.7118 89.1843 47.542 90.0342C49.1271 90.7655 50.7389 91.4805 52.3779 92.1758C52.1427 88.6372 52.0205 85.0891 52.0205 81.5459C52.0205 80.2592 52.0367 78.9719 52.0684 77.6846ZM121.111 62.6055C121.843 68.8801 122.229 75.2207 122.229 81.5459C122.229 85.0757 122.107 88.6104 121.874 92.1357C129.018 86.3761 135.33 80.3342 140.854 74.2305C134.877 70.1209 128.293 66.1917 121.111 62.6055ZM71.0186 46.5586C69.3673 49.1065 66.8702 51.0061 63.9229 51.8477C63.5427 54.0342 63.2012 56.256 62.9004 58.5117C64.9919 57.1696 67.1138 55.875 69.2637 54.6338C73.1022 52.4176 77.0427 50.3623 81.0527 48.4688C77.6682 47.7207 74.3215 47.0874 71.0186 46.5586ZM109.178 47.3086C109.285 47.3512 109.392 47.3937 109.499 47.4365C109.485 47.3655 109.469 47.2946 109.455 47.2236C109.363 47.252 109.27 47.28 109.178 47.3086Z" fill="#184BFF"/>
</svg>
