<svg width="148" height="153" viewBox="0 0 148 153" fill="none" xmlns="http://www.w3.org/2000/svg">
<path d="M74.54 0C116.355 0 147.667 33.5329 147.667 76.1562C147.667 118.982 116.356 152.313 74.54 152.313C47.3759 152.313 24.645 138.247 12.0508 116.649C7.65849 118.474 3.63044 120.473 0 122.552V115.886C2.88638 114.233 5.96126 112.681 9.18848 111.247C4.18858 100.811 1.41406 88.904 1.41406 76.1562C1.41409 65.6875 3.30406 55.7677 6.77344 46.7578C4.42062 45.6423 2.15736 44.4646 0 43.2295V36.5635C2.81841 38.1774 5.87624 39.7434 9.1582 41.2168C20.9443 16.5687 45.1471 0.000150371 74.54 0ZM58.7842 107.522C54.5374 107.522 50.4158 107.732 46.4297 108.122C49.1968 118.523 53.0981 127.555 57.3281 134.941H51.8896C58.9143 137.614 66.578 138.98 74.54 138.98C90.9091 138.98 106.019 133.209 116.901 122.174C112.821 119.879 108.255 117.692 103.247 115.737C100.894 122.697 98.0047 129.193 94.7139 134.941H88.0479C91.5151 128.887 94.7579 121.726 97.3398 113.612C90.7986 111.46 83.6194 109.736 75.8838 108.679V121.973H69.46V107.97C65.9984 107.678 62.4376 107.522 58.7842 107.522ZM40.0371 108.914C34.5505 109.739 29.3527 110.898 24.4736 112.303C30.7305 122.532 39.7466 129.939 50.3105 134.315C46.1209 126.864 42.5949 118.198 40.0371 108.914ZM75.8838 50.4355C84.3314 49.2814 92.1156 47.332 99.1299 44.8975C96.3531 34.1991 92.3731 24.9261 88.0479 17.373H94.7139C98.9414 24.7571 102.512 33.3742 105.124 42.625C109.669 40.7571 113.83 38.7042 117.568 36.5635V43.2295C114.174 45.173 110.518 46.9764 106.66 48.6133C108.713 57.5126 109.865 66.858 109.865 76.1572C109.865 76.2144 109.864 76.272 109.864 76.3291H126.901V82.7529H109.675C109.146 92.0162 107.529 101.209 105.078 109.846C109.52 111.652 113.713 113.678 117.568 115.886V121.484C127.65 110.89 133.931 95.6401 133.931 76.1562C133.931 36.3195 107.416 13.766 75.8838 13.1436V50.4355ZM75.8838 101.983C83.9253 103.143 91.769 105.071 99.084 107.595C101.067 100.001 102.445 91.6848 102.906 82.7529H75.8838V101.983ZM15.3994 82.7529C16.0893 91.7344 18.1921 99.7061 21.4238 106.62C26.8802 104.89 32.5969 103.493 38.4434 102.494C37.0276 96.0717 36.0833 89.4303 35.7021 82.7529H15.3994ZM42.4697 82.7529C42.812 89.3765 43.6567 95.6616 44.8799 101.564C49.4853 101.021 54.1405 100.734 58.7842 100.734C62.3452 100.734 65.913 100.904 69.46 101.228V82.7529H42.4697ZM19.0156 51.7012C16.5231 58.9214 15.1504 67.0914 15.1504 76.1562C15.1504 76.2138 15.1513 76.2716 15.1514 76.3291H35.5127C35.5126 76.272 35.5117 76.2144 35.5117 76.1572C35.5117 69.5342 36.0952 62.8875 37.1729 56.3955C30.905 55.2597 24.7988 53.6664 19.0156 51.7012ZM43.6914 57.4023C42.7999 63.3295 42.2988 69.594 42.2988 76.1572C42.2988 76.2144 42.2997 76.272 42.2998 76.3291H69.46V57.8857C65.913 58.2094 62.3453 58.3799 58.7842 58.3799C53.7406 58.3799 48.6836 58.0398 43.6914 57.4023ZM100.547 51.002C92.8189 53.7796 84.4643 55.8929 75.8838 57.1299V76.3291H103.076C103.076 76.272 103.077 76.2144 103.077 76.1572C103.077 67.1803 102.138 58.7628 100.547 51.002ZM69.46 13.3213C63.181 13.7977 57.1418 15.162 51.5186 17.373H57.3281C52.2222 26.2894 47.5958 37.6022 44.8643 50.8281C49.334 51.322 53.9789 51.5928 58.7842 51.5928C62.4377 51.5928 65.9984 51.4351 69.46 51.1436V13.3213ZM50.4082 17.8203C37.8947 23.0417 27.5443 32.5366 21.3643 45.8682C26.6568 47.5504 32.3544 48.9514 38.416 49.9453C41.0103 38.1211 45.2014 27.0335 50.4082 17.8203Z" fill="#184BFF"/>
</svg>
