<svg width="172" height="137" viewBox="0 0 172 137" fill="none" xmlns="http://www.w3.org/2000/svg">
<path d="M143.813 0.626857L143.813 25.5503L136.117 25.5503L136.117 8.1879L7.94965 8.18791L7.94965 25.5503L0.253693 25.5503L0.253692 0.626863L143.813 0.626857Z" fill="#184BFF"/>
<path d="M143.531 106.73L0 103.875L0.535395 76.9625L8.22983 77.1156L7.85686 95.8633L135.999 98.4126L136.372 79.6649L144.066 79.818L143.531 106.73Z" fill="#184BFF"/>
<path d="M42.1249 124.247V116.272H100.944V124.247H42.1249Z" fill="#184BFF"/>
<path d="M70.0978 99.3237L68.0452 116.272H63.0605L66.5791 99.3237H70.0978ZM81.0054 99.3237L78.9529 116.272H73.9682L77.4868 99.3237H81.0054Z" fill="#184BFF"/>
<rect x="120.343" y="53.4258" width="45.1793" height="77.242" transform="rotate(-1.21948 120.343 53.4258)" fill="white"/>
<path d="M172 135.007L155.898 135.35L155.798 130.646L167.015 130.408L165.347 52.0719L154.131 52.3107L154.031 47.6069L170.132 47.2642L172 135.007Z" fill="#184BFF"/>
<path d="M117.002 136.178L115.134 48.4346L131.236 48.0918L131.336 52.7956L120.119 53.0344L121.787 131.37L133.003 131.131L133.104 135.835L117.002 136.178Z" fill="#184BFF"/>
<path d="M126.319 63.6425L126.223 59.1196L159.692 58.4072L159.788 62.93L126.319 63.6425Z" fill="#184BFF"/>
<path d="M143.93 125.711C140.402 125.786 137.538 123.042 137.463 119.514C137.388 115.986 140.132 113.122 143.66 113.047C147.188 112.972 150.052 115.717 150.127 119.245C150.202 122.772 147.458 125.636 143.93 125.711Z" fill="#184BFF"/>
</svg>
