<svg width="190" height="126" viewBox="0 0 190 126" fill="none" xmlns="http://www.w3.org/2000/svg">
<path d="M147.472 77.2676C155.982 67.771 167.61 64.5275 178.397 70.7559C191.533 78.3396 193.131 94.0228 184.648 108.715C176.166 123.407 161.785 129.865 148.649 122.281C136.368 115.19 134.172 101.019 140.872 87.1973L73.0215 48.0234C73.4137 51.2335 72.5991 54.8019 70.4043 58.6035L57.9365 80.1982L49.5752 75.3711L60.9023 55.751C64.1711 50.0892 63.7647 46.0803 58.8271 43.2295C54.4161 40.6828 47.446 41.0474 43.835 47.3018L33.1162 65.8682L24.7549 61.041L36.082 41.4209C39.3507 35.7592 38.9441 31.7502 34.0068 28.8994C29.5958 26.3527 22.6257 26.7173 19.0146 32.9717L8.29492 51.5381L0 46.748L17.7021 16.0859L7.97852 10.4717L13.9277 0.166992L147.472 77.2676ZM173.505 79.2295C168.045 76.0776 162.069 77.414 156.821 82.666L159.228 84.0557L153.278 94.3604L150.091 92.5195C145.603 101.993 146.832 109.933 153.542 113.808C160.922 118.068 169.178 114.088 175.372 103.359C181.566 92.6307 180.885 83.4905 173.505 79.2295ZM48.2227 33.7061C48.4922 35.8857 48.204 38.2302 47.2969 40.6982L52.918 36.417L48.2227 33.7061ZM22.6182 26.2744L28.1445 22.1143L25.7998 20.7607L22.6182 26.2744Z" fill="#184BFF"/>
</svg>
