<svg width="175" height="178" viewBox="0 0 175 178" fill="none" xmlns="http://www.w3.org/2000/svg">
<path d="M50.0117 133.313L6.08203 177.243L0 171.161L43.9297 127.231L50.0117 133.313ZM60.9941 144.296L36.4941 168.795L30.4121 162.713L54.9111 138.213L60.9941 144.296ZM174.16 9.48535L153.859 49.2783L158.36 53.7793C157.282 57.7455 155.878 61.7994 154.18 65.8711C155.388 66.2833 156.574 66.6497 157.732 66.9678L154.201 70.499C153.595 70.3325 152.986 70.1523 152.374 69.9619C146.578 82.4354 138.098 94.8591 127.728 105.229C123.533 109.424 119.003 113.308 114.27 116.832L119.094 116.834L105.204 162.959H93.5459L84.5791 133.179C81.7857 134.22 79.0114 135.118 76.2783 135.861L70.6084 130.192C74.3971 129.163 78.3707 127.825 82.4619 126.147L79.6572 116.834H85.9639L87.9736 123.707C99.1205 118.407 110.885 110.562 121.973 99.4746C132.459 88.988 140.045 77.8947 145.321 67.292C137.1 63.6408 128.834 58.1001 121.986 51.2529C115.368 44.6347 109.97 36.6905 106.319 28.7432C95.8083 34.0129 84.8264 41.5545 74.4395 51.9414C63.1498 63.2312 55.2198 75.2227 49.917 86.5498L58.1885 88.9678V95.2754L47.5186 92.0625C45.957 95.9387 44.7009 99.7056 43.7227 103.306L38.0518 97.6357C38.7401 95.1037 39.5615 92.5355 40.5068 89.9502L12.0625 81.3867V69.7275L58.1885 55.8389V58.1787C61.4136 53.9755 64.9253 49.9468 68.6846 46.1875C78.9447 35.9274 91.2132 27.5133 103.553 21.7227C103.257 20.8221 102.984 19.9275 102.74 19.0391L106.272 15.5068C106.663 16.9303 107.125 18.3953 107.659 19.8936C111.859 18.1226 116.043 16.6657 120.134 15.5537L124.997 20.417L164.791 0.116211L174.16 9.48535ZM112.388 118.206C105.223 123.339 97.6413 127.642 90.0879 130.944L99.4072 162.832L112.388 118.206ZM37.9307 121.57L13.4316 146.07L7.34863 139.988L31.8486 115.488L37.9307 121.57ZM75.1885 137.769L69.6631 143.294L30.291 103.922L35.8164 98.3965L75.1885 137.769ZM12.1904 75.5244L42.6992 84.4404C45.7813 77.2726 49.7741 70.0703 54.5225 63.2109L12.1904 75.5244ZM98.8467 56.7793C104.356 51.2703 112.712 50.9582 118.188 56.4336C123.663 61.9091 123.351 70.2655 117.842 75.7744C112.281 81.3352 103.977 81.5949 98.502 76.1201C93.0266 70.6447 93.2857 62.3405 98.8467 56.7793ZM115.916 58.7051C112.05 54.8387 106.09 54.4141 101.286 59.2178C96.4561 64.0479 96.9324 69.9557 100.799 73.8223C104.665 77.6886 110.572 78.1648 115.402 73.335C120.206 68.531 119.782 62.5716 115.916 58.7051ZM123.871 28.2705L119.051 23.4502L119.812 23.0615C116.797 24.0923 113.694 25.3114 110.534 26.7344C113.865 33.6033 118.74 40.8374 125.57 47.668C132.667 54.7652 140.2 59.7522 147.307 63.0889C148.541 60.3258 149.62 57.6073 150.554 54.9531L146.005 50.4043L169.34 4.93555L123.871 28.2705Z" fill="#184BFF"/>
</svg>
