<svg width="105" height="177" viewBox="0 0 105 177" fill="none" xmlns="http://www.w3.org/2000/svg">
<path d="M104.44 176.627H3.81348V164.671H104.44V176.627ZM95.9717 154.708H12.2822V144.745H95.9717V154.708ZM83.5186 137.771H24.7363V130.796H83.5186V137.771ZM56.8262 12.6436L56.4121 12.7539C59.5733 12.606 62.5047 12.6203 65.2139 12.665L68.4756 24.8389L70.4854 21.3604L98.2705 49.458L89.1445 65.2656L50.8818 55.3145L55.7373 46.9053L93.5811 57.2891L65.6299 29.7695L68.3975 24.9746C62.9062 24.594 53.1164 24.7765 42.9883 27.4902C16.2351 34.6589 9.05981 56.3854 15.042 78.7119C21.0244 101.039 38.2938 116.216 64.4697 109.202C68.2057 108.201 71.6858 106.924 74.7861 105.57C74.7273 98.1194 72.6515 88.638 67.002 78.8525C61.3265 69.0224 54.1137 62.4686 47.668 58.7002L51.8897 56.2627C59.1914 60.5053 66.3798 67.9125 71.2725 76.3867C76.1651 84.8611 78.9865 94.7905 79.0098 103.235L75.5606 105.227C81.9654 102.346 86.6327 99.1961 88.3945 97.6338L91.7461 110.145C87.5392 112.922 78.3558 118.684 66.2305 121.933C36.3976 129.926 10.5389 112.719 2.33887 82.1162C-5.7064 52.0907 7.1596 23.8879 38.5322 15.4814C43.1414 14.2464 47.4208 13.5303 51.3818 13.125L47.375 3.8291L51.1045 2.83008L56.8262 12.6436ZM65.1289 10.4189L60.0625 11.7764L55.6777 1.60449L59.4072 0.605469L65.1289 10.4189Z" fill="#184BFF"/>
</svg>
