<svg width="189" height="127" viewBox="0 0 189 127" fill="none" xmlns="http://www.w3.org/2000/svg">
<path d="M30.2461 0.177734C55.0817 0.177784 75.4426 12.3731 87.4385 31.2832C87.7843 31.1812 88.1341 31.0829 88.4873 30.9883C93.7418 29.5804 98.5456 29.1698 102.144 29.1572C114.29 11.4647 134.04 0.178711 157.932 0.178711C170.772 0.178735 181.247 3.01812 186.315 5.18945L183.95 15.5449C179.051 13.3736 169.927 10.7012 157.932 10.7012C129.742 10.7012 107.109 30.175 101.493 59.0859C112.292 59.545 120.624 62.0197 123.134 71.3857C125.651 80.7812 119.317 90.1552 104.584 94.6865C110.966 107.887 124.062 115.594 142.726 115.594C151.68 115.594 158.269 113.756 164.183 111.418L161.648 122.776C157.256 124.447 149.146 126.116 140.36 126.116C118.66 126.116 102.009 115.634 94.0879 98.3105C86.1668 115.633 69.5172 126.115 47.8174 126.115C39.0321 126.115 30.9221 124.446 26.5293 122.775L23.9951 111.417C29.9084 113.755 36.4978 115.593 45.4521 115.593C63.8759 115.593 76.8708 108.081 83.3408 95.1904L81.874 89.7148C82.8219 89.753 84.0849 89.7905 85.5674 89.791C87.1912 84.8799 88.0273 79.366 88.0273 73.335C88.0273 70.8739 87.912 68.4606 87.6895 66.0996C78.5892 65.2701 71.7441 62.4506 69.4688 53.959C67.5965 46.9714 70.8427 40.5082 77.3916 35.957C67.0397 20.2726 50.0089 10.7002 30.2461 10.7002C18.2508 10.7002 9.12713 13.3726 4.22754 15.5439L1.8623 5.18848C6.93087 3.01715 17.406 0.177749 30.2461 0.177734ZM165.178 88.1162L137.271 96.0059L165.178 103.895V108.832L137.163 100.567V91.4443L165.178 83.1797V88.1162ZM51.0146 91.4434V100.566L23 108.831V103.894L50.9072 96.0049L23 88.1152V83.1787L51.0146 91.4434ZM100.448 66.5195C100.251 68.7468 100.15 71.0203 100.15 73.3359C100.15 78.5501 100.775 83.3778 101.993 87.7637C112.456 84.7191 117.101 79.1152 115.604 73.5264C114.155 68.1198 108.167 66.8443 100.448 66.5195ZM188.178 83.1787H166.228L165.178 78.4219H182.096L174.3 42.1787H179.331L188.178 83.1787ZM6.08203 78.4209H23L21.9502 83.1777H0L8.84668 42.1777H13.8779L6.08203 78.4209ZM81.0635 42.3389C77.4991 44.994 76.0511 48.2772 77 51.8184C78.094 55.9004 81.6773 57.6629 86.5518 58.4238C85.3729 52.6521 83.5129 47.2635 81.0635 42.3389ZM97.5918 36.7676C95.5557 36.9859 93.3848 37.3474 91.165 37.917C92.2413 40.0938 93.2178 42.3398 94.0879 44.6494C95.112 41.931 96.2832 39.3003 97.5918 36.7676ZM175.582 36.6924C170.273 39.7317 163.019 41.5556 155.928 41.5557C148.836 41.5556 141.582 39.7316 136.273 36.6924V33.167C140.974 35.8415 147.701 37.9892 155.928 37.9893C164.154 37.9892 170.881 35.8416 175.582 33.167V36.6924ZM51.9033 36.6914C46.5947 39.7307 39.3406 41.5547 32.249 41.5547C25.1576 41.5546 17.9042 39.7306 12.5957 36.6914V33.166C17.2964 35.8405 24.023 37.9882 32.249 37.9883C40.4752 37.9883 47.2026 35.8405 51.9033 33.166V36.6914ZM155.928 22.3613C163.019 22.3613 170.273 24.1853 175.582 27.2246V30.75C170.881 28.0754 164.154 25.9278 155.928 25.9277C147.701 25.9277 140.974 28.0754 136.273 30.75V27.2246C141.582 24.1853 148.836 22.3613 155.928 22.3613ZM32.249 22.3604C39.3406 22.3604 46.5947 24.1844 51.9033 27.2236V30.749C47.2026 28.0745 40.4752 25.9268 32.249 25.9268C24.023 25.9268 17.2964 28.0746 12.5957 30.749V27.2236C17.9042 24.1845 25.1576 22.3604 32.249 22.3604Z" fill="#184BFF"/>
</svg>
