<svg width="183" height="163" viewBox="0 0 183 163" fill="none" xmlns="http://www.w3.org/2000/svg">
<path d="M122.982 7.29995C121.865 8.65813 120.66 10.0007 119.38 11.3231L124.9 10.7649L132.897 89.7046L127.609 90.2392C129.037 91.2245 130.402 92.2422 131.692 93.2876L130.787 98.8692C121.945 91.7052 108.856 84.8783 92.0257 82.1476C79.1376 80.0566 67.5726 80.9399 58.0777 83.2642L59.0649 93.0092L59.8013 92.7305L66.8987 111.429L61.1516 113.609L65.6515 158.03L60.1085 158.591L52.6355 84.8196C51.7434 85.1129 50.8744 85.4164 50.0306 85.7323L50.3509 88.9037L33.3869 90.6221C33.2299 90.638 33.0733 90.6515 32.9172 90.6658L59.6111 160.997L54.403 162.974L27.0157 90.817C12.1826 90.1352 2.71218 80.932 0.915798 63.1994C-1.09182 43.3805 8.58562 31.7104 27.2288 29.8218L44.1917 28.1025L44.4929 31.0756C55.7244 32.8456 70.4451 32.2051 86.3548 26.1665C102.296 20.1162 113.748 10.8041 120.975 2.01241L122.982 7.29995ZM60.9096 111.22L63.7954 110.124L59.7077 99.3547L60.9096 111.22ZM119.36 11.3437C111.365 19.5962 100.354 26.9932 88.3914 31.5335C74.5025 36.805 59.0173 38.349 46.4332 36.3542L44.5154 31.2981L50.0078 85.5069L50.8731 80.1738C51.2841 80.0195 51.6998 79.8691 52.119 79.7217L52.1119 79.6507L52.4178 79.6188C64.1202 75.569 78.9067 74.2043 92.9457 76.4821C105.575 78.5312 117.846 83.5691 127.333 90.0503L119.36 11.3437ZM168.137 0.191339C175.549 10.5545 180.852 25.2043 182.341 39.9004C183.83 54.5965 181.572 70.0113 176.389 81.6504L169.083 82.3905C173.639 72.0875 176.677 57.6956 174.95 40.6482C173.223 23.6013 167.361 10.1122 160.831 0.932348L168.137 0.191339ZM148.034 18.2409C153.594 26.0133 157.57 37.0009 158.687 48.023C159.803 59.0449 158.112 70.6061 154.224 79.3354L148.744 79.8905C152.161 72.1633 154.44 61.3698 153.145 48.5844C151.85 35.7989 147.451 25.682 142.554 18.797L148.034 18.2409ZM27.271 36.9437C12.7431 38.4156 7.38931 48.3755 8.80997 62.3997C10.2562 76.676 17.3133 85.2086 32.0095 83.7199L42.0878 82.699L37.3484 35.9238L27.271 36.9437Z" fill="#184BFF"/>
</svg>
