<svg width="185" height="170" viewBox="0 0 185 170" fill="none" xmlns="http://www.w3.org/2000/svg">
<path d="M184.259 32.6973L135.928 152.621H127.708L176.04 32.6973H184.259ZM170.152 0.621094L121.82 120.547H113.6L161.932 0.621094H170.152ZM57.292 0.62207L8.95996 120.547H0.740234L49.0723 0.62207H57.292Z" fill="#184BFF" stroke="white"/>
<path d="M103 153.121V149.121H118V153.121H103Z" fill="#184BFF"/>
<path d="M83 153.121V149.121H98V153.121H83Z" fill="#184BFF"/>
<path d="M63 153.121V149.121H78V153.121H63Z" fill="#184BFF"/>
<path d="M43 153.121V149.121H58V153.121H43Z" fill="#184BFF"/>
<path d="M24 153.121V149.121H39V153.121H24Z" fill="#184BFF"/>
<path d="M141 5.12109V1.12109H156V5.12109H141Z" fill="#184BFF"/>
<path d="M122 5.12109V1.12109H137V5.12109H122Z" fill="#184BFF"/>
<path d="M102 5.12109V1.12109H117V5.12109H102Z" fill="#184BFF"/>
<path d="M82 5.12109V1.12109H97V5.12109H82Z" fill="#184BFF"/>
<path d="M62 5.12109V1.12109H77V5.12109H62Z" fill="#184BFF"/>
<path d="M103 141.121V137.121H118V141.121H103Z" fill="#184BFF"/>
<path d="M83 141.121V137.121H98V141.121H83Z" fill="#184BFF"/>
<path d="M63 141.121V137.121H78V141.121H63Z" fill="#184BFF"/>
<path d="M43 141.121V137.121H58V141.121H43Z" fill="#184BFF"/>
<path d="M24 141.121V137.121H39V141.121H24Z" fill="#184BFF"/>
<path d="M103.126 129.521V125.521H118.126V129.521H103.126Z" fill="#184BFF"/>
<path d="M83.126 129.521V125.521H98.126V129.521H83.126Z" fill="#184BFF"/>
<path d="M63.126 129.521V125.521H78.126V129.521H63.126Z" fill="#184BFF"/>
<path d="M43.126 129.521V125.521H58.126V129.521H43.126Z" fill="#184BFF"/>
<path d="M24.126 129.521V125.521H39.126V129.521H24.126Z" fill="#184BFF"/>
<circle cx="126.305" cy="123.108" r="43.1832" fill="white"/>
<path d="M126.305 169.096C100.97 169.096 81.9998 148.969 81.9998 123.108C81.9998 97.3702 100.97 77.1211 126.305 77.1211C151.639 77.1211 170.61 97.3702 170.61 123.108C170.61 148.969 151.639 169.096 126.305 169.096ZM126.305 161.045C145.765 161.045 162.287 147.627 162.287 123.108C162.287 98.712 145.765 85.0499 126.305 85.0499C106.845 85.0499 90.3223 98.712 90.3223 123.108C90.3223 147.627 106.845 161.045 126.305 161.045Z" fill="#184BFF"/>
<path d="M98.8247 131.354C105.33 135.055 114.64 138.027 126.024 138.027C137.409 138.027 146.719 135.055 153.224 131.354L153.224 136.233C145.878 140.439 135.839 142.963 126.024 142.963C116.21 142.963 106.171 140.439 98.8247 136.233L98.8247 131.354Z" fill="#184BFF"/>
<path d="M110.434 108.022C110.434 105.218 112.733 102.919 115.537 102.919C118.397 102.919 120.697 105.218 120.697 108.022C120.697 110.883 118.397 113.182 115.537 113.182C112.733 113.182 110.434 110.883 110.434 108.022ZM131.296 108.022C131.296 105.218 133.595 102.919 136.4 102.919C139.26 102.919 141.559 105.218 141.559 108.022C141.559 110.883 139.26 113.182 136.4 113.182C133.595 113.182 131.296 110.883 131.296 108.022Z" fill="#184BFF"/>
</svg>
