<svg width="143" height="150" viewBox="0 0 143 150" fill="none" xmlns="http://www.w3.org/2000/svg">
<path d="M112.092 115.349C112.78 117.886 113.314 120.997 113.314 124.517C113.314 139.496 104.143 143.589 94.1309 143.589H91.624V144.978C86.9256 147.667 80.5051 149.281 74.2285 149.281C67.9521 149.281 61.5324 147.667 56.834 144.978V136.597C61.5324 133.907 67.9521 132.293 74.2285 132.293C80.5051 132.293 86.9256 133.907 91.624 136.597V138.269H93.749C103.532 138.268 108.5 133.848 108.5 124.353C108.5 120.424 107.659 117.313 107.048 115.349H112.092ZM60.4502 143.589C64.193 145.086 68.8482 146.125 74.2285 146.125C79.6088 146.125 84.264 145.086 88.0068 143.589H60.4502ZM74.2285 135.449C68.5147 135.449 63.6185 136.621 59.7646 138.269H88.6924C84.8385 136.621 79.9423 135.449 74.2285 135.449ZM38.2598 112.573L26.2568 115.79C13.7638 119.137 4.50651 114.484 1.0127 101.445C-2.408 88.6791 2.96209 79.6964 15.2373 76.4072L27.6758 73.0742L38.2598 112.573ZM127.383 76.4072C139.658 79.6964 145.028 88.6791 141.607 101.445C138.114 114.484 128.856 119.137 116.363 115.79L104.36 112.573L114.944 73.0742L127.383 76.4072ZM17.3984 82.7285C8.66952 85.0675 6.07203 91.0847 8.32324 99.4863C10.633 108.106 15.5451 111.818 24.4922 109.421L29.5117 108.076L22.3633 81.3984L17.3984 82.7285ZM113.108 108.076L118.128 109.421C127.075 111.818 131.987 108.106 134.297 99.4863C136.548 91.0847 133.951 85.0675 125.222 82.7285L120.257 81.3984L113.108 108.076ZM72.46 0.0800781C104.937 0.0800795 125.411 22.1078 125.411 51.6191C125.411 60.3736 123.717 67.7163 122.305 71.6699L110.02 71.5283C111.149 68.1395 112.985 60.5149 112.985 52.043C112.985 28.6033 97.3116 13.3525 72.46 13.3525C46.7611 13.3526 31.3701 27.4736 31.3701 52.3252C31.3701 60.797 32.6408 68.1393 34.0527 72.5166H21.627C20.215 68.1392 18.9443 59.8083 18.9443 51.4775C18.9444 20.4131 38.9951 0.080126 72.46 0.0800781Z" fill="#184BFF"/>
</svg>
