<svg width="185" height="154" viewBox="0 0 185 154" fill="none" xmlns="http://www.w3.org/2000/svg">
<path d="M184.259 33.1768L135.928 153.101H127.708L176.04 33.1768H184.259ZM170.152 1.10068L121.82 121.026H113.6L161.932 1.10068H170.152ZM57.292 1.10165L8.95996 121.026H0.740234L49.0723 1.10165H57.292Z" fill="#184BFF" stroke="white"/>
<path d="M103 153.601V149.601H118V153.601H103Z" fill="#184BFF"/>
<path d="M83 153.601V149.601H98V153.601H83Z" fill="#184BFF"/>
<path d="M63 153.601V149.601H78V153.601H63Z" fill="#184BFF"/>
<path d="M43 153.601V149.601H58V153.601H43Z" fill="#184BFF"/>
<path d="M24 153.601V149.601H39V153.601H24Z" fill="#184BFF"/>
<path d="M141 5.60068V1.60068H156V5.60068H141Z" fill="#184BFF"/>
<path d="M122 5.60068V1.60068H137V5.60068H122Z" fill="#184BFF"/>
<path d="M102 5.60068V1.60068H117V5.60068H102Z" fill="#184BFF"/>
<path d="M82 5.60068V1.60068H97V5.60068H82Z" fill="#184BFF"/>
<path d="M62 5.60068V1.60068H77V5.60068H62Z" fill="#184BFF"/>
<path d="M103 141.601V137.601H118V141.601H103Z" fill="#184BFF"/>
<path d="M83 141.601V137.601H98V141.601H83Z" fill="#184BFF"/>
<path d="M63 141.601V137.601H78V141.601H63Z" fill="#184BFF"/>
<path d="M43 141.601V137.601H58V141.601H43Z" fill="#184BFF"/>
<path d="M24 141.601V137.601H39V141.601H24Z" fill="#184BFF"/>
<path d="M103.126 130V126H118.126V130H103.126Z" fill="#184BFF"/>
<path d="M83.126 130V126H98.126V130H83.126Z" fill="#184BFF"/>
<path d="M63.126 130V126H78.126V130H63.126Z" fill="#184BFF"/>
<path d="M43.126 130V126H58.126V130H43.126Z" fill="#184BFF"/>
<path d="M24.126 130V126H39.126V130H24.126Z" fill="#184BFF"/>
<mask id="path-22-outside-1_25_434" maskUnits="userSpaceOnUse" x="44.4366" y="17.8458" width="118.087" height="118.087" fill="black">
<rect fill="white" x="44.4366" y="17.8458" width="118.087" height="118.087"/>
<path d="M144.168 110.384L137.05 117.502L110.648 90.2048L116.814 84.039L144.168 110.384ZM66.3665 39.7564C78.1938 27.9294 96.1868 28.5466 108.014 40.3738C118.629 50.9888 120.204 66.2993 112.111 77.8773C112.201 79.8501 111.49 81.8515 109.976 83.3657C108.497 84.8449 106.518 85.5436 104.559 85.4532C92.9722 93.602 77.6198 92.041 66.9832 81.4046C55.1559 69.5773 54.5393 51.5837 66.3665 39.7564ZM71.2431 44.633C62.8911 52.9849 61.9381 65.822 72.252 76.1358C80.5587 84.4424 90.3758 85.4102 98.2464 81.174C97.059 78.5194 97.5493 75.2765 99.7179 73.1078C101.924 70.9018 105.164 70.4009 107.817 71.5742C112.015 63.7142 111.03 53.9273 102.745 45.6425C92.4315 35.3288 79.595 36.2812 71.2431 44.633Z"/>
</mask>
<path d="M144.168 110.384L137.05 117.502L110.648 90.2048L116.814 84.039L144.168 110.384ZM66.3665 39.7564C78.1938 27.9294 96.1868 28.5466 108.014 40.3738C118.629 50.9888 120.204 66.2993 112.111 77.8773C112.201 79.8501 111.49 81.8515 109.976 83.3657C108.497 84.8449 106.518 85.5436 104.559 85.4532C92.9722 93.602 77.6198 92.041 66.9832 81.4046C55.1559 69.5773 54.5393 51.5837 66.3665 39.7564ZM71.2431 44.633C62.8911 52.9849 61.9381 65.822 72.252 76.1358C80.5587 84.4424 90.3758 85.4102 98.2464 81.174C97.059 78.5194 97.5493 75.2765 99.7179 73.1078C101.924 70.9018 105.164 70.4009 107.817 71.5742C112.015 63.7142 111.03 53.9273 102.745 45.6425C92.4315 35.3288 79.595 36.2812 71.2431 44.633Z" fill="#184BFF"/>
<path d="M144.168 110.384L144.522 110.737L144.882 110.377L144.515 110.023L144.168 110.384ZM137.05 117.502L136.69 117.85L137.044 118.215L137.403 117.856L137.05 117.502ZM110.648 90.2048L110.295 89.8512L109.947 90.1989L110.289 90.5524L110.648 90.2048ZM116.814 84.039L117.161 83.6788L116.808 83.3385L116.461 83.6854L116.814 84.039ZM66.3665 39.7564L66.013 39.4029L66.013 39.4029L66.3665 39.7564ZM108.014 40.3738L108.368 40.0202L108.368 40.0202L108.014 40.3738ZM112.111 77.8773L111.701 77.5909L111.604 77.7303L111.611 77.9001L112.111 77.8773ZM109.976 83.3657L110.329 83.7193L110.329 83.7193L109.976 83.3657ZM104.559 85.4532L104.582 84.9537L104.411 84.9458L104.271 85.0442L104.559 85.4532ZM66.9832 81.4046L66.6296 81.7582L66.6296 81.7582L66.9832 81.4046ZM71.2431 44.633L70.8895 44.2794L70.8895 44.2794L71.2431 44.633ZM72.252 76.1358L71.8984 76.4894L71.8984 76.4894L72.252 76.1358ZM98.2464 81.174L98.4834 81.6142L98.8926 81.394L98.7028 80.9698L98.2464 81.174ZM99.7179 73.1078L99.3644 72.7543L99.3644 72.7543L99.7179 73.1078ZM107.817 71.5742L107.615 72.0314L108.04 72.2192L108.258 71.8097L107.817 71.5742ZM102.745 45.6425L103.099 45.289L103.099 45.289L102.745 45.6425ZM144.168 110.384L143.815 110.03L136.696 117.149L137.05 117.502L137.403 117.856L144.522 110.737L144.168 110.384ZM137.05 117.502L137.409 117.155L111.008 89.8572L110.648 90.2048L110.289 90.5524L136.69 117.85L137.05 117.502ZM110.648 90.2048L111.002 90.5583L117.168 84.3925L116.814 84.039L116.461 83.6854L110.295 89.8512L110.648 90.2048ZM116.814 84.039L116.467 84.3991L143.821 110.744L144.168 110.384L144.515 110.023L117.161 83.6788L116.814 84.039ZM66.3665 39.7564L66.7201 40.11C78.3384 28.4918 96.0146 29.0814 107.66 40.7273L108.014 40.3738L108.368 40.0202C96.359 28.0117 78.0492 27.3669 66.013 39.4029L66.3665 39.7564ZM108.014 40.3738L107.66 40.7273C118.116 51.1829 119.646 66.2252 111.701 77.5909L112.111 77.8773L112.521 78.1638C120.762 66.3734 119.142 50.7947 108.368 40.0202L108.014 40.3738ZM112.111 77.8773L111.611 77.9001C111.695 79.7374 111.034 81.6008 109.622 83.0122L109.976 83.3657L110.329 83.7193C111.946 82.1022 112.707 79.9627 112.61 77.8546L112.111 77.8773ZM109.976 83.3657L109.622 83.0122C108.247 84.3871 106.407 85.038 104.582 84.9537L104.559 85.4532L104.536 85.9527C106.628 86.0492 108.746 85.3026 110.329 83.7193L109.976 83.3657ZM104.559 85.4532L104.271 85.0442C92.897 93.0436 77.8136 91.5276 67.3367 81.051L66.9832 81.4046L66.6296 81.7582C77.4261 92.5543 93.0474 94.1604 104.846 85.8622L104.559 85.4532ZM66.9832 81.4046L67.3367 81.051C55.6908 69.4051 55.1017 51.7283 66.7201 40.11L66.3665 39.7564L66.013 39.4029C53.9768 51.439 54.621 69.7495 66.6296 81.7582L66.9832 81.4046ZM71.2431 44.633L70.8895 44.2794C66.6288 48.5401 64.2407 53.9616 64.2478 59.6493C64.255 65.3402 66.6598 71.2508 71.8984 76.4894L72.252 76.1358L72.6055 75.7823C67.5303 70.707 65.2546 65.0422 65.2478 59.6481C65.241 54.2509 67.5054 49.0778 71.5966 44.9865L71.2431 44.633ZM72.252 76.1358L71.8984 76.4894C80.3492 84.9399 90.4037 85.963 98.4834 81.6142L98.2464 81.174L98.0094 80.7337C90.348 84.8574 80.7683 83.9448 72.6055 75.7823L72.252 76.1358ZM98.2464 81.174L98.7028 80.9698C97.5965 78.4966 98.0555 75.4774 100.071 73.4614L99.7179 73.1078L99.3644 72.7543C97.0431 75.0755 96.5215 78.5422 97.79 81.3781L98.2464 81.174ZM99.7179 73.1078L100.071 73.4614C102.128 71.4054 105.146 70.9395 107.615 72.0314L107.817 71.5742L108.019 71.1169C105.183 69.8624 101.721 70.3983 99.3644 72.7543L99.7179 73.1078ZM107.817 71.5742L108.258 71.8097C112.567 63.7407 111.527 53.7172 103.099 45.289L102.745 45.6425L102.392 45.9961C110.533 54.1374 111.462 63.6877 107.376 71.3386L107.817 71.5742ZM102.745 45.6425L103.099 45.289C97.8603 40.0505 91.9499 37.6455 86.2591 37.6382C80.5715 37.6309 75.1503 40.0188 70.8895 44.2794L71.2431 44.633L71.5966 44.9865C75.6879 40.8954 80.8608 38.6312 86.2579 38.6382C91.6518 38.6451 97.3165 40.9209 102.392 45.9961L102.745 45.6425Z" fill="#184BFF" mask="url(#path-22-outside-1_25_434)"/>
</svg>
