<svg width="155" height="155" viewBox="0 0 155 155" fill="none" xmlns="http://www.w3.org/2000/svg">
<path d="M82.584 2.38184V15.8027C110.905 21.8837 133.756 42.8211 138.857 71.8652H154.45L152.068 82.585H139.903C139.916 83.1409 139.924 83.6992 139.924 84.2598C139.924 117.608 116.954 136.665 86.1572 136.665C84.961 136.665 83.7697 136.638 82.584 136.587V154.45L71.8652 152.068V135.417C43.5203 130.406 20.1134 110.646 13.5029 82.585H0L2.38184 71.8652H11.8486C11.7067 70.0131 11.6338 68.1324 11.6338 66.2246C11.6338 33.0461 34.603 13.9894 65.3994 13.9893C67.5723 13.9893 69.7292 14.0749 71.8652 14.2422V0L82.584 2.38184ZM65.3994 25.2197C39.7076 25.2198 22.3527 41.213 22.3525 66.5645C22.3525 68.3554 22.4326 70.1235 22.5889 71.8652H45.5566L43.1738 82.585H24.5918C30.686 103.675 48.6785 119.422 71.8652 124.043V108.894L82.584 111.275V125.35C83.7657 125.406 84.9569 125.436 86.1572 125.436C111.849 125.436 129.204 109.442 129.204 83.9199C129.204 83.4735 129.198 83.0285 129.188 82.585H108.894L111.275 71.8652H127.943C123.235 49.8286 105.752 32.8972 82.584 27.251V45.5566L71.8652 43.1748V25.498C69.7427 25.3139 67.5858 25.2197 65.3994 25.2197ZM81.3848 61.0166V70.1426H96L93.4336 80.8604H81.3848V96.4502L70.667 93.8848V80.8604H58L60.5654 70.1426H70.667V58.4502L81.3848 61.0166Z" fill="#184BFF"/>
</svg>
