<svg width="160" height="135" viewBox="0 0 160 135" fill="none" xmlns="http://www.w3.org/2000/svg">
<path d="M10.2246 124.281H149.734V104.163H159.959V135H0V104.163H10.2246V124.281ZM82.9688 50.1562C84.9269 52.6299 86.5752 57.3709 86.5752 60.875C86.5752 65.8747 85.2303 69.7541 83.75 73.9756C111.157 73.582 134.037 65.8519 150.302 56.7344L150.229 64.6699C131.424 75.2093 106.008 82.1527 80.8682 82.0693C79.8973 84.9486 79.1553 87.9019 79.1553 91.4854C79.1553 95.608 81.2165 99.4216 83.3809 102.72H75.8564C73.8983 100.246 72.249 95.4016 72.249 91.8975C72.2491 88.1287 73.0134 84.9962 74.0234 81.874C50.6579 80.6248 27.5781 73.5101 10.2715 63.3906L10.3438 55.4551C26.4849 64.8952 49.3033 73.0616 76.8037 73.917C78.274 69.9363 79.6699 66.2048 79.6699 61.2871C79.6699 57.1645 77.6087 53.4543 75.4443 50.1562H82.9688ZM80.3135 0C94.9076 -6.37931e-07 103.627 10.0801 103.627 23.4375C103.627 26.5503 103.163 29.2839 102.549 31.3955L149.867 29.3594L151.925 37.0381L7.61523 43.25L5.55762 35.5713L94.8916 31.7256C95.4434 29.9685 96.0205 27.2915 96.0205 23.9941C96.0205 14.409 89.8986 8.28613 80.3135 8.28613C70.5429 8.28617 64.6064 14.2232 64.6064 24.0557C64.6064 27.4567 65.2245 30.6722 66.0283 32.8984H58.3604C57.6183 30.8577 57 27.2095 57 23.4375C57 9.2144 65.7812 4.0499e-05 80.3135 0Z" fill="#184BFF"/>
</svg>
