<svg width="151" height="142" viewBox="0 0 151 142" fill="none" xmlns="http://www.w3.org/2000/svg">
<path d="M71.6318 104.48H84.6377L87.1055 92.8848H91.9746L89.5068 104.48H99.1777V108.945H88.5723L85.1709 125.072H95.1758V129.538H84.2373L81.7695 141.134H76.9004L79.3682 129.538H66.3623L63.8945 141.134H58.959L61.4268 129.538H51.8223V125.072H62.3604L65.7627 108.945H55.8242V104.48H66.6963L69.1641 92.8848H74.0996L71.6318 104.48ZM22.9238 106.139H28.7256L37.5264 141.021H31.5293L22.9238 106.339L13.1455 141.021H7.14746L20.8379 92.7734H26.7051L22.9238 106.139ZM136.262 109.079V91.8799H142.065V141.021H136.262V109.345L122.017 126.545H114.895L129.469 109.345L114.367 91.8799H121.688L136.262 109.079ZM67.2959 125.072H80.3018L83.7041 108.945H70.6982L67.2959 125.072ZM20.5459 43.5156C32.9954 43.5157 41.0145 52.4517 41.0146 64.5957C41.0146 76.7398 32.9955 85.6767 20.5459 85.6768C8.01987 85.6768 0 76.7398 0 64.5957C0.00011588 52.4517 8.01996 43.5156 20.5459 43.5156ZM75.5381 43.5156C87.9876 43.5157 96.0077 52.4517 96.0078 64.5957C96.0078 76.7398 87.9877 85.6767 75.5381 85.6768C63.0121 85.6768 54.9922 76.7398 54.9922 64.5957C54.9923 52.4517 63.0121 43.5156 75.5381 43.5156ZM130.53 43.5156C142.98 43.5156 151 52.4517 151 64.5957C151 76.7398 142.98 85.6768 130.53 85.6768C118.004 85.6767 109.984 76.7398 109.984 64.5957C109.984 52.4518 118.004 43.5157 130.53 43.5156ZM20.5459 49.626C11.5334 49.626 6.87412 56.347 6.87402 64.5957C6.87402 72.8446 11.5333 79.5664 20.5459 79.5664C29.4821 79.5663 34.1406 72.8445 34.1406 64.5957C34.1405 56.347 29.482 49.6261 20.5459 49.626ZM75.5381 49.626C66.5256 49.626 61.8663 56.347 61.8662 64.5957C61.8662 72.8446 66.5255 79.5664 75.5381 79.5664C84.4743 79.5664 89.1338 72.8445 89.1338 64.5957C89.1337 56.347 84.4742 49.626 75.5381 49.626ZM130.53 49.626C121.518 49.6261 116.858 56.347 116.858 64.5957C116.858 72.8445 121.518 79.5663 130.53 79.5664C139.467 79.5664 144.126 72.8446 144.126 64.5957C144.126 56.347 139.466 49.626 130.53 49.626ZM48.042 0.744141C60.4916 0.744147 68.5117 9.68008 68.5117 21.8242C68.5117 33.9683 60.4916 42.9043 48.042 42.9043C35.516 42.9043 27.4961 33.9683 27.4961 21.8242C27.4961 9.68008 35.516 0.744141 48.042 0.744141ZM103.034 0.744141C115.484 0.744141 123.504 9.68008 123.504 21.8242C123.504 33.9683 115.484 42.9043 103.034 42.9043C90.5082 42.9043 82.4883 33.9683 82.4883 21.8242C82.4883 9.68009 90.5082 0.744161 103.034 0.744141ZM48.042 6.85352C39.0294 6.85352 34.3701 13.5754 34.3701 21.8242C34.3701 30.073 39.0294 36.7939 48.042 36.7939C56.9782 36.7939 61.6377 30.073 61.6377 21.8242C61.6377 13.5754 56.9782 6.85352 48.042 6.85352ZM103.034 6.85352C94.0216 6.85354 89.3623 13.5754 89.3623 21.8242C89.3623 30.073 94.0216 36.7939 103.034 36.7939C111.97 36.7939 116.63 30.073 116.63 21.8242C116.63 13.5754 111.97 6.85352 103.034 6.85352Z" fill="#184BFF"/>
</svg>
