<svg width="168" height="183" viewBox="0 0 168 183" fill="none" xmlns="http://www.w3.org/2000/svg">
<path d="M51.1562 87.252C51.1562 112.147 60.2923 125.094 78.9531 127V121.938H89.7402V126.94C108.206 124.871 116.875 112.186 116.875 87.252V19.21H131.812V87.252C131.812 121.351 117.788 139.526 89.7402 141.643V172.223H108.162V182.014H60.4492V172.223H78.9531V141.686C50.4644 139.806 36.2197 121.618 36.2197 87.252V36.0244L35.3486 39.8301C33.4816 39.021 30.1833 38.0869 26.0137 38.0869C14.4382 38.0869 5.72561 47.2979 5.72559 59.8691C5.72559 68.8308 11.0778 74.4316 20.5996 74.4316C24.0222 74.4316 26.6358 73.7475 28.6895 72.9385L27.4453 78.4775C25.8895 79.0999 22.7775 79.7216 19.417 79.7217C7.71701 79.7217 1.33431e-05 71.8181 0 60.1182C0 44.6219 10.9528 32.7979 25.9512 32.7979C30.5939 32.7979 34.3486 33.797 36.2197 34.5371V19.21H51.1562V87.252ZM142.411 34.457C157.285 34.457 167.803 46.4685 167.803 61.7158C167.803 73.5401 160.21 81.3818 148.884 81.3818C145.648 81.3818 142.66 80.7591 141.042 80.1367L140.109 75.9053C142.287 76.7764 144.715 77.4609 148.013 77.4609C158.032 77.4609 163.695 71.3619 163.695 61.7158C163.695 48.0866 154.422 38.3779 142.411 38.3779C137.993 38.378 134.632 39.3736 132.827 40.1826L131.956 36.3242C133.823 35.5152 137.682 34.4571 142.411 34.457ZM115.229 9.15527L116.755 14.8467L49.792 6.67383L48.2666 0.982422L115.229 9.15527Z" fill="#184BFF"/>
</svg>
