<svg width="179" height="187" viewBox="0 0 179 187" fill="none" xmlns="http://www.w3.org/2000/svg">
<path d="M104.688 170.139C109.369 170.139 113.089 173.859 113.089 178.539C113.089 183.22 109.369 186.94 104.568 186.94C99.888 186.94 96.168 183.22 96.168 178.539C96.168 173.859 99.8882 170.139 104.688 170.139ZM34.1846 150.945C38.5124 146.617 45.471 146.617 49.7988 150.945C54.1264 155.272 54.0415 162.145 49.7139 166.473C45.4709 170.716 38.5973 170.801 34.2695 166.473C29.9422 162.145 29.9422 155.187 34.1846 150.945ZM125.31 152.565C129.043 148.831 134.983 148.831 138.717 152.565C142.366 156.214 142.366 162.154 138.632 165.888C134.898 169.621 128.958 169.621 125.31 165.972C121.576 162.238 121.576 156.298 125.31 152.565ZM99.4082 69.4456L118.532 40.1135L122.945 44.5266L99.0742 82.9553L143.212 83.6926V96.8938L105.803 97.5959L153.972 108.855V115.095L102.132 104.17L125.14 141.364L118.775 147.728L93.3281 108.762L104.568 162.098H98.3281L85.1045 105.52L57.5215 147.295L48.1865 137.961L69.1836 103.695L26.8818 112.574V103.574L72.8594 92.7385L31.2422 83.0129V76.7717L77.543 86.5286L48.4727 39.7258L52.8857 35.3137L82.2285 80.3245L94.0879 30.929H107.289L99.4082 69.4456ZM170.413 106.695C175.093 106.695 178.813 110.415 178.813 115.095C178.813 119.895 175.093 123.615 170.413 123.615C165.733 123.615 162.013 119.895 162.013 115.215C162.013 110.415 165.733 106.695 170.413 106.695ZM9.36035 101.894C14.6406 101.894 18.8406 106.094 18.8408 111.374C18.8408 116.655 14.6407 120.856 9.36035 120.856C4.20011 120.856 0 116.655 0 111.374C0.000192682 106.094 4.20023 101.894 9.36035 101.894ZM162.293 79.3723C168.293 79.3723 173.214 84.2928 173.214 90.2932C173.214 96.4136 168.293 101.334 162.293 101.334C156.173 101.334 151.252 96.4136 151.252 90.2932C151.252 84.2928 156.173 79.3723 162.293 79.3723ZM14.8008 68.2512C19.4811 68.2512 23.2012 71.9723 23.2012 76.6526C23.2009 81.4527 19.481 85.1731 14.8008 85.1731C10.1205 85.1731 6.40039 81.452 6.40039 76.7717C6.40062 71.9716 10.1206 68.2513 14.8008 68.2512ZM124.133 22.4631C127.442 19.1537 132.703 19.154 136.098 22.5481C139.407 25.8576 139.407 31.1185 136.098 34.428C132.788 37.7374 127.527 37.7382 124.133 34.344C120.823 31.0345 120.823 25.7726 124.133 22.4631ZM35.3203 17.7483C38.7147 14.3539 43.9757 14.3538 47.2852 17.6633C50.5944 20.9728 50.5945 26.2338 47.2852 29.5432C43.8909 32.9375 38.6298 32.9374 35.3203 29.6282C32.0108 26.3187 32.0108 21.0578 35.3203 17.7483ZM104.408 0.927002C110.529 0.927002 115.329 5.84747 115.329 11.8479C115.329 17.9683 110.529 22.8889 104.408 22.8889C98.2879 22.8888 93.3682 17.9682 93.3682 11.8479C93.3682 5.84757 98.2879 0.927168 104.408 0.927002Z" fill="#184BFF"/>
</svg>
