<svg width="207" height="208" viewBox="0 0 207 208" fill="none" xmlns="http://www.w3.org/2000/svg">
<path d="M127.757 200.375H113.934C113.954 200.594 113.965 200.816 113.965 201.04C113.965 204.808 110.875 207.897 107.031 207.897C103.188 207.897 100.174 204.808 100.174 201.04C100.174 200.816 100.185 200.594 100.205 200.375H86.3818V194.106H127.757V200.375ZM127.757 189.091H86.3818V182.822H127.757V189.091ZM127.757 177.808H86.3818V171.538H127.757V177.808ZM107.069 39.9521C141.841 39.9522 167.877 67.5552 167.877 102.641C167.877 137.892 141.84 165.329 107.069 165.329C72.2982 165.329 46.2618 137.892 46.2617 102.641C46.2617 67.5552 72.2981 39.9521 107.069 39.9521ZM37.9014 146.482L13.8467 160.37L11.2793 151.899L35.334 138.012L37.9014 146.482ZM107.069 50.7607C80.361 50.7607 57.6846 69.3843 57.6846 102.641C57.6846 131.351 74.4181 148.895 96.0664 153.271L110.562 123.92L101.577 132.694C91.9317 134.658 83.7953 130.082 81.3301 120.882C78.6709 110.957 84.484 99.6161 96.9443 96.2773C107.449 93.4629 116.44 98.0424 119.061 107.822C120.594 113.545 119.393 120.078 115.013 128.938L103.827 151.813L97.4287 153.527C100.558 154.075 103.783 154.354 107.069 154.354C133.778 154.354 156.454 136.063 156.454 102.641C156.454 69.3843 133.778 50.7608 107.069 50.7607ZM206.776 126.938L202.603 134.743L175.774 127.555L179.948 119.749L206.776 126.938ZM112.585 110.023C110.877 103.648 105.114 100.689 98.5938 102.436C90.4077 104.629 86.1122 112.07 87.9951 119.097C89.684 125.399 95.3737 128.378 101.894 126.631C110.08 124.437 114.448 116.978 112.585 110.023ZM31.002 79.8398L26.8281 87.6445L0 80.4561L4.17285 72.6504L31.002 79.8398ZM195.497 55.4941L171.443 69.3818L168.874 60.9121L192.929 47.0234L195.497 55.4941ZM69.0732 35.6426L60.6025 38.21L46.7148 14.1562L55.1855 11.5889L69.0732 35.6426ZM134.435 4.48145L127.246 31.3105L119.44 27.1367L126.629 0.308594L134.435 4.48145Z" fill="#184BFF"/>
</svg>
