<svg width="207" height="182" viewBox="0 0 207 182" fill="none" xmlns="http://www.w3.org/2000/svg">
<path d="M3.2395 53.0947C13.0016 12.1929 42.4735 -7.56167 85.2981 2.65918C119.139 10.7362 144.836 37.317 150.008 71.6035H179.365L197.116 52.1445L202.886 55.4756L190.738 71.6035H206.995V80.7031H190.115L202.893 97.666L197.123 100.997L178.855 80.9707L179.319 80.7031H150.882C151.231 88.8876 150.436 97.4308 148.343 106.201C140.21 140.279 115.769 156.919 87.5637 154.224L99.6917 181.383H89.8801L77.5217 152.477C77.4966 152.47 77.4706 152.464 77.4456 152.458L65.1877 181.383H55.3762L68.3157 152.163H76.3547C57.9687 147.006 39.9322 131.163 31.9534 109.276L38.2122 83.0586L55.4309 91.417L42.6516 78.3896C41.2713 75.6582 39.9182 67.3919 41.5032 60.75C45.8002 42.7461 59.3499 33.9702 77.7034 38.3506C94.8566 42.4446 108.297 55.8594 112.151 71.6035H140.539C135.475 41.965 113.017 19.251 83.0452 12.0977C45.2895 3.08659 20.8399 19.6065 12.3293 55.2646C9.28401 68.0243 8.43665 78.5377 9.51489 85.6309L0.226807 81.1973C-0.501916 74.1875 0.52784 64.4563 3.2395 53.0947ZM113.267 80.7031C113.272 83.6026 112.945 86.5338 112.247 89.458C109.452 101.169 102.073 108.091 94.1633 110.268L104.109 115.044L101.815 124.657L36.092 92.7129C41.2139 119.246 60.1168 138.353 80.5676 143.234C107.661 149.701 131.535 136.37 139.253 104.033C141.174 95.9847 141.886 88.1674 141.529 80.7031H113.267ZM187.656 106.463L181.886 109.794L163.617 89.7686L171.606 85.1562L187.656 106.463ZM75.2834 48.4893C61.9992 45.3187 53.2222 51.9071 50.427 63.6182C46.464 80.2236 61.6879 97.7139 80.3909 102.178C91.0532 104.722 100.238 99.5244 103.158 87.2891C103.682 85.0949 103.918 82.8893 103.895 80.7031H77.3938V71.6035H102.279C98.5034 60.7702 88.4314 51.6273 75.2834 48.4893ZM187.649 46.6787L171.599 67.9854L163.611 63.373L181.879 43.3477L187.649 46.6787Z" fill="#184BFF"/>
</svg>
