<svg width="152" height="156" viewBox="0 0 152 156" fill="none" xmlns="http://www.w3.org/2000/svg">
<path d="M52.3974 146.381L43.3574 155.421L18.208 146.062L23.1113 141.159L47.75 150.773L38.0722 126.197L43.039 121.231L52.3974 146.381ZM19.4179 82.9678C17.3806 83.9865 14.2607 85.7051 11.2051 88.7607C3.81999 96.1459 4.52013 103.723 12.6689 111.872L43.4209 142.624L39.2822 146.763L8.21287 115.692C-0.127148 107.352 -4.58385 96.5286 7.06639 84.8779C9.80388 82.1404 12.6693 80.1663 15.2158 78.7656L19.4179 82.9678ZM78.0879 91.3594H83.9345L92.8037 126.513H86.7588L78.0879 91.5625L68.2344 126.513H62.1904L75.9863 77.8916H81.8984L78.0879 91.3594ZM143.4 39.8623C151.741 48.2026 156.198 59.0259 144.547 70.6768C141.809 73.4143 138.944 75.3884 136.397 76.7891L132.195 72.5869C134.233 71.5682 137.352 69.8488 140.408 66.793C147.793 59.4077 147.093 51.8309 138.944 43.6816L108.192 12.9307L112.331 8.79199L143.4 39.8623ZM75.6914 28.2539C88.2369 28.2541 96.3183 37.2593 96.3183 49.4971C96.3183 61.7348 88.2369 70.74 75.6914 70.7402C63.0689 70.7401 54.9873 61.7348 54.9873 49.4971C54.9873 37.2593 63.0688 28.254 75.6914 28.2539ZM75.6914 34.4111C66.6094 34.4113 61.9141 41.1846 61.914 49.4971C61.9141 57.8095 66.6094 64.5829 75.6914 64.583C84.6963 64.5828 89.3915 57.8094 89.3916 49.4971C89.3916 41.1847 84.6964 34.4113 75.6914 34.4111ZM133.405 9.49316L128.502 14.3955L103.863 4.78125L113.541 29.3574L108.574 34.3232L99.2158 9.17383L108.256 0.133789L133.405 9.49316Z" fill="#184BFF"/>
</svg>
