<svg width="148" height="153" viewBox="0 0 148 153" fill="none" xmlns="http://www.w3.org/2000/svg">
<path d="M74.54 0.420898C116.355 0.420898 147.667 33.9538 147.667 76.5771C147.667 119.403 116.356 152.734 74.54 152.734C47.3759 152.734 24.645 138.668 12.0508 117.07C7.65849 118.895 3.63044 120.894 0 122.973V116.307C2.88638 114.654 5.96126 113.102 9.18848 111.668C4.18858 101.231 1.41406 89.3249 1.41406 76.5771C1.41409 66.1084 3.30406 56.1886 6.77344 47.1787C4.42062 46.0632 2.15736 44.8855 0 43.6504V36.9844C2.81841 38.5983 5.87624 40.1643 9.1582 41.6377C20.9443 16.9896 45.1471 0.421049 74.54 0.420898ZM58.7842 107.943C54.5374 107.943 50.4158 108.153 46.4297 108.543C49.1968 118.944 53.0981 127.976 57.3281 135.362H51.8896C58.9143 138.035 66.578 139.401 74.54 139.401C90.9091 139.401 106.019 133.63 116.901 122.595C112.821 120.3 108.255 118.113 103.247 116.158C100.894 123.118 98.0047 129.614 94.7139 135.362H88.0479C91.5151 129.308 94.7579 122.147 97.3398 114.033C90.7986 111.881 83.6194 110.156 75.8838 109.1V122.394H69.46V108.391C65.9984 108.099 62.4376 107.943 58.7842 107.943ZM40.0371 109.335C34.5505 110.16 29.3527 111.319 24.4736 112.724C30.7305 122.953 39.7466 130.36 50.3105 134.736C46.1209 127.285 42.5949 118.619 40.0371 109.335ZM75.8838 50.8564C84.3314 49.7023 92.1156 47.7529 99.1299 45.3184C96.3531 34.62 92.3731 25.347 88.0479 17.7939H94.7139C98.9414 25.178 102.512 33.7951 105.124 43.0459C109.669 41.178 113.83 39.1251 117.568 36.9844V43.6504C114.174 45.5939 110.518 47.3973 106.66 49.0342C108.713 57.9335 109.865 67.2789 109.865 76.5781C109.865 76.6353 109.864 76.6929 109.864 76.75H126.901V83.1738H109.675C109.146 92.4371 107.529 101.63 105.078 110.267C109.52 112.073 113.713 114.099 117.568 116.307V121.905C127.65 111.311 133.931 96.061 133.931 76.5771C133.931 36.7404 107.416 14.1869 75.8838 13.5645V50.8564ZM75.8838 102.404C83.9253 103.564 91.769 105.492 99.084 108.016C101.067 100.421 102.445 92.1057 102.906 83.1738H75.8838V102.404ZM15.3994 83.1738C16.0893 92.1553 18.1921 100.127 21.4238 107.041C26.8802 105.311 32.5969 103.913 38.4434 102.915C37.0276 96.4926 36.0833 89.8512 35.7021 83.1738H15.3994ZM42.4697 83.1738C42.812 89.7974 43.6567 96.0825 44.8799 101.985C49.4853 101.442 54.1405 101.155 58.7842 101.155C62.3452 101.155 65.913 101.325 69.46 101.648V83.1738H42.4697ZM19.0156 52.1221C16.5231 59.3423 15.1504 67.5123 15.1504 76.5771C15.1504 76.6347 15.1513 76.6925 15.1514 76.75H35.5127C35.5126 76.6929 35.5117 76.6353 35.5117 76.5781C35.5117 69.9551 36.0952 63.3084 37.1729 56.8164C30.905 55.6806 24.7988 54.0873 19.0156 52.1221ZM43.6914 57.8232C42.7999 63.7504 42.2988 70.0149 42.2988 76.5781C42.2988 76.6353 42.2997 76.6929 42.2998 76.75H69.46V58.3066C65.913 58.6303 62.3453 58.8008 58.7842 58.8008C53.7406 58.8008 48.6836 58.4607 43.6914 57.8232ZM100.547 51.4229C92.8189 54.2005 84.4643 56.3138 75.8838 57.5508V76.75H103.076C103.076 76.6929 103.077 76.6353 103.077 76.5781C103.077 67.6012 102.138 59.1837 100.547 51.4229ZM69.46 13.7422C63.181 14.2186 57.1418 15.5829 51.5186 17.7939H57.3281C52.2222 26.7103 47.5958 38.0231 44.8643 51.249C49.334 51.7429 53.9789 52.0137 58.7842 52.0137C62.4377 52.0137 65.9984 51.856 69.46 51.5645V13.7422ZM50.4082 18.2412C37.8947 23.4626 27.5443 32.9575 21.3643 46.2891C26.6568 47.9713 32.3544 49.3723 38.416 50.3662C41.0103 38.542 45.2014 27.4544 50.4082 18.2412Z" fill="#184BFF"/>
</svg>
