<svg width="168" height="169" viewBox="0 0 168 169" fill="none" xmlns="http://www.w3.org/2000/svg">
<path d="M81.8429 1.16001L82.7748 4.638L57.656 11.3686L56.724 7.89057L81.8429 1.16001Z" fill="#184BFF"/>
<path d="M81.8429 1.16001L82.7748 4.638L57.656 11.3686L56.724 7.89057L81.8429 1.16001Z" fill="#184BFF"/>
<path d="M85.8622 167.744L84.9302 164.266L110.049 157.535L110.981 161.013L85.8622 167.744Z" fill="#184BFF"/>
<path d="M110.049 157.535L84.9301 164.266L85.8621 167.744L110.981 161.013L110.049 157.535ZM111.54 161.336L85.5393 168.303L84.3711 163.943L110.372 156.976L111.54 161.336Z" fill="#184BFF"/>
<path d="M85.8622 167.744L84.9302 164.266L110.049 157.535L110.981 161.013L85.8622 167.744Z" fill="#184BFF"/>
<path d="M110.049 157.535L84.9301 164.266L85.8621 167.744L110.981 161.013L110.049 157.535ZM111.54 161.336L85.5393 168.303L84.3711 163.943L110.372 156.976L111.54 161.336Z" fill="#184BFF"/>
<path d="M55.4659 134.888C59.5656 132.516 64.7261 131.84 70.3839 133.356C76.1976 134.913 80.4205 137.94 82.8175 141.973C85.2151 146.007 85.7525 150.993 84.3029 156.403C83.5307 159.285 82.3156 162.066 81.3986 163.484L81.2189 163.764L76.0421 162.377L76.381 161.85C77.2351 160.528 78.3264 158.178 79.0929 155.318C80.2068 151.16 79.7811 147.61 78.0548 144.822C76.3255 142.03 73.2491 139.935 68.9318 138.778C64.7714 137.664 61.0804 138.041 58.1818 139.636C55.2854 141.23 53.1264 144.068 52.0792 147.976C51.3726 150.613 51.2652 153.151 51.3116 154.481L51.3224 154.487L51.3126 154.504C51.3161 154.599 51.3185 154.687 51.3234 154.769L51.3605 155.394L50.8712 155.268L49.0656 158.396L25.754 144.937L28.0109 141.028L46.1798 151.518C46.253 150.089 46.4831 148.335 46.9865 146.456C48.3669 141.305 51.3675 137.259 55.4659 134.888ZM108.909 128.555C114.122 125.545 119.248 124.7 123.795 125.857C128.343 127.014 132.248 130.159 135.049 135.01C136.541 137.594 137.647 140.419 138.002 142.07L138.072 142.396L133.431 145.075L133.299 144.463C132.969 142.925 132.079 140.491 130.598 137.926C128.446 134.198 125.633 131.99 122.442 131.239C119.244 130.488 115.588 131.181 111.717 133.416C107.987 135.57 105.644 138.447 104.722 141.624C103.801 144.799 104.282 148.332 106.305 151.836C107.776 154.384 109.655 156.361 110.572 157.174L111.04 157.589L106.76 160.127L106.48 160.293L106.232 160.083C105.059 159.087 103.205 157.095 101.628 154.363C98.9613 149.745 98.2233 144.762 99.4445 140.187C100.666 135.61 103.837 131.483 108.909 128.555ZM105.598 158.865C105.657 158.925 105.716 158.981 105.774 159.037C105.716 158.981 105.657 158.925 105.598 158.865ZM105.055 158.293C105.086 158.328 105.118 158.362 105.15 158.396C105.118 158.362 105.086 158.328 105.055 158.293ZM104.797 158.006C104.839 158.053 104.88 158.1 104.921 158.146C104.88 158.1 104.839 158.053 104.797 158.006ZM103.97 157.01C103.996 157.044 104.023 157.077 104.049 157.11C104.023 157.077 103.996 157.044 103.97 157.01ZM109.4 156.676V156.675V156.676ZM84.0695 155.449C84.0053 155.727 83.9374 156.005 83.8624 156.285L83.9904 155.788L84.0695 155.449ZM108.297 155.45C108.33 155.49 108.364 155.528 108.397 155.567C108.267 155.414 108.134 155.255 108 155.09L108.297 155.45ZM107.266 154.135C107.411 154.332 107.554 154.525 107.698 154.71C107.554 154.525 107.411 154.332 107.266 154.135ZM84.4513 153.382C84.4425 153.446 84.4333 153.51 84.424 153.574C84.4333 153.51 84.4425 153.446 84.4513 153.382ZM79.9493 153.512C79.9665 153.406 79.9821 153.3 79.9972 153.195C79.9821 153.3 79.9665 153.406 79.9493 153.512ZM46.6876 150.786C46.6807 150.867 46.674 150.947 46.6681 151.026C46.674 150.947 46.6807 150.867 46.6876 150.786ZM84.6437 150.797C84.6443 150.733 84.6447 150.67 84.6447 150.607C84.6447 150.67 84.6443 150.733 84.6437 150.797ZM46.7306 150.34C46.7196 150.445 46.7087 150.549 46.6993 150.651C46.7087 150.549 46.7196 150.445 46.7306 150.34ZM84.631 149.91C84.6285 149.844 84.6263 149.779 84.6232 149.713C84.6263 149.779 84.6285 149.844 84.631 149.91ZM84.6066 149.423C84.6031 149.369 84.5998 149.314 84.5958 149.26C84.5998 149.314 84.6031 149.369 84.6066 149.423ZM46.8995 149.054C46.8922 149.1 46.885 149.145 46.8781 149.191C46.885 149.145 46.8922 149.1 46.8995 149.054ZM84.5577 148.818C84.5641 148.883 84.5706 148.948 84.5763 149.013C84.5706 148.948 84.5641 148.883 84.5577 148.818ZM84.5372 148.62C84.5281 148.537 84.5183 148.454 84.5079 148.371C84.5183 148.454 84.5281 148.537 84.5372 148.62ZM84.4542 147.976C84.4629 148.034 84.4715 148.093 84.4796 148.151C84.4715 148.093 84.4629 148.034 84.4542 147.976ZM84.4161 147.734C84.4 147.635 84.3832 147.536 84.3654 147.438C84.3832 147.536 84.4 147.635 84.4161 147.734ZM84.2853 147.024C84.3061 147.124 84.3258 147.224 84.3448 147.325C84.3258 147.224 84.3061 147.124 84.2853 147.024ZM84.256 146.885C84.2382 146.803 84.2193 146.721 84.2003 146.64C84.2193 146.721 84.2382 146.803 84.256 146.885ZM84.1681 146.505C84.1421 146.398 84.1151 146.291 84.087 146.185C84.1151 146.291 84.1421 146.398 84.1681 146.505ZM84.0529 146.057C84.0364 145.996 84.0192 145.936 84.0021 145.876C84.0192 145.936 84.0364 145.996 84.0529 146.057ZM79.1925 146.018C79.1857 146.002 79.1788 145.986 79.172 145.971C79.1788 145.986 79.1857 146.002 79.1925 146.018ZM83.9337 145.641C83.9047 145.545 83.8746 145.449 83.8439 145.354C83.8746 145.449 83.9047 145.545 83.9337 145.641ZM78.9532 145.503C78.9355 145.467 78.9186 145.431 78.9005 145.396C78.9186 145.431 78.9355 145.467 78.9532 145.503ZM83.7032 144.937C83.7437 145.051 83.7825 145.166 83.8204 145.281C83.7825 145.166 83.7437 145.051 83.7032 144.937ZM83.59 144.631C83.6185 144.706 83.6476 144.782 83.6749 144.858C83.6698 144.843 83.6654 144.829 83.6603 144.815L83.59 144.631ZM83.0216 143.311C82.9959 143.258 82.9689 143.206 82.9425 143.153C82.9689 143.206 82.9959 143.258 83.0216 143.311ZM141.374 85.4855C145.408 83.0881 150.395 82.5505 155.805 84.0001C158.686 84.7722 161.466 85.9875 162.885 86.9044L163.165 87.0851L161.777 92.2618L161.251 91.922C159.93 91.0678 157.579 89.9766 154.719 89.2101C150.562 88.0962 147.011 88.5221 144.224 90.2482C141.431 91.9775 139.336 95.0546 138.179 99.3722C137.064 103.533 137.442 107.224 139.037 110.122C140.631 113.018 143.469 115.177 147.377 116.224C150.014 116.93 152.551 117.037 153.881 116.99L153.887 116.983L153.901 116.99C153.997 116.987 154.086 116.986 154.169 116.981L154.794 116.943L154.668 117.433L157.795 119.239L144.336 142.551L140.428 140.294L150.917 122.123C149.489 122.05 147.735 121.821 145.858 121.318C140.706 119.937 136.66 116.937 134.288 112.838C131.916 108.738 131.241 103.577 132.757 97.9191C134.315 92.1054 137.341 87.8824 141.374 85.4855ZM104.481 140.88C104.409 141.084 104.343 141.29 104.283 141.497C104.343 141.29 104.409 141.084 104.481 140.88ZM82.0304 141.579C82.0144 141.555 81.9996 141.53 81.9835 141.506L81.9679 141.484C81.9892 141.515 82.0094 141.547 82.0304 141.579ZM81.5587 140.906C81.5342 140.873 81.5103 140.84 81.4855 140.807C81.5103 140.84 81.5342 140.873 81.5587 140.906ZM81.3497 140.63C81.3098 140.579 81.2702 140.527 81.2296 140.476C81.2702 140.527 81.3098 140.579 81.3497 140.63ZM135.44 136.69C136.016 137.823 136.504 138.949 136.876 139.948H136.877C136.665 139.377 136.413 138.765 136.13 138.133C135.988 137.817 135.839 137.497 135.682 137.175C135.603 137.014 135.523 136.852 135.441 136.69H135.44ZM80.8087 139.969C80.763 139.916 80.7175 139.863 80.671 139.811C80.7175 139.863 80.763 139.916 80.8087 139.969ZM80.506 139.629C80.4706 139.59 80.4354 139.551 80.3995 139.513C80.4354 139.551 80.4706 139.59 80.506 139.629ZM71.0011 138.953C71.4565 139.12 71.896 139.3 72.3195 139.49C71.896 139.3 71.4565 139.12 71.0011 138.953ZM80.0988 139.198C80.1214 139.221 80.1437 139.245 80.1661 139.268C80.1437 139.245 80.1214 139.221 80.0988 139.198ZM79.9532 139.053C79.8859 138.986 79.8179 138.92 79.7491 138.854C79.8179 138.92 79.8859 138.986 79.9532 139.053ZM79.6573 138.767C79.587 138.7 79.5162 138.634 79.4445 138.568C79.5162 138.634 79.587 138.7 79.6573 138.767ZM9.79016 105.236C10.8521 104.278 12.256 103.2 13.9406 102.228C18.5594 99.5609 23.5423 98.8229 28.1173 100.044C32.6935 101.266 36.8205 104.436 39.7491 109.509C42.7586 114.721 43.6043 119.848 42.4474 124.395C41.29 128.942 38.1446 132.848 33.2941 135.649C30.7104 137.14 27.8851 138.247 26.2335 138.602L25.9083 138.672L23.2286 134.03L23.8409 133.899C25.3793 133.568 27.8132 132.678 30.3781 131.197L30.7228 130.993C34.2419 128.869 36.3376 126.133 37.0646 123.041C37.816 119.844 37.1225 116.187 34.8878 112.317C32.7342 108.586 29.8574 106.243 26.6798 105.321C23.5047 104.4 19.9717 104.882 16.4679 106.904C14.1031 108.27 12.2316 109.987 11.3243 110.96L11.3273 110.972L11.3097 110.976C11.2449 111.045 11.1845 111.111 11.13 111.172L10.714 111.641L10.4552 111.205L6.96692 112.141L0.00012207 86.1398L4.36047 84.9718L9.79016 105.236ZM79.1027 138.265C79.1657 138.319 79.2281 138.375 79.2902 138.43C79.2281 138.375 79.1657 138.319 79.1027 138.265ZM78.7755 137.987C78.8393 138.04 78.9022 138.093 78.965 138.147C78.9022 138.093 78.8393 138.04 78.7755 137.987ZM61.3439 137.987H61.3448H61.3439ZM78.4249 137.706C78.4876 137.755 78.5497 137.805 78.6115 137.855C78.5497 137.805 78.4876 137.755 78.4249 137.706ZM64.4698 137.683C64.1067 137.679 63.7485 137.688 63.3956 137.71C63.7485 137.688 64.1067 137.679 64.4698 137.683ZM78.2667 137.584C78.2056 137.537 78.1441 137.491 78.0822 137.444C78.1441 137.491 78.2056 137.537 78.2667 137.584ZM107.006 136.623C106.942 136.696 106.879 136.769 106.818 136.842C106.879 136.769 106.942 136.696 107.006 136.623ZM77.88 137.296C77.824 137.255 77.7677 137.215 77.7111 137.175C77.7677 137.215 77.824 137.255 77.88 137.296ZM77.5646 137.072C77.4893 137.02 77.4134 136.969 77.337 136.917C77.4134 136.969 77.4893 137.02 77.5646 137.072ZM77.1056 136.764C77.0828 136.749 77.0602 136.734 77.0372 136.719C77.0602 136.734 77.0828 136.749 77.1056 136.764ZM76.2892 136.259C76.2578 136.241 76.2261 136.223 76.1945 136.204C76.2261 136.223 76.2578 136.24 76.2892 136.259ZM75.9591 136.069C75.8606 136.014 75.7613 135.959 75.6613 135.905C75.7613 135.959 75.8606 136.014 75.9591 136.069ZM75.5226 135.83C75.4373 135.785 75.3512 135.741 75.2648 135.696C75.3512 135.741 75.4373 135.785 75.5226 135.83ZM108.321 135.295C108.139 135.459 107.962 135.625 107.79 135.794C107.962 135.625 108.14 135.459 108.322 135.295C108.414 135.213 108.507 135.131 108.602 135.05C108.507 135.131 108.413 135.213 108.321 135.295ZM75.0743 135.599C75.0103 135.567 74.9456 135.536 74.881 135.504C74.9456 135.536 75.0103 135.567 75.0743 135.599ZM74.1779 135.174C74.118 135.147 74.0575 135.121 73.9972 135.095C74.0575 135.121 74.118 135.147 74.1779 135.174ZM134.393 134.796C134.305 134.651 134.216 134.508 134.126 134.366C134.216 134.508 134.305 134.651 134.393 134.796ZM110.123 133.881H110.124H110.123ZM35.004 134.008C35.0539 133.972 35.104 133.937 35.1534 133.901C35.104 133.937 35.0539 133.972 35.004 134.008ZM35.3995 133.72C35.4419 133.688 35.4845 133.657 35.5265 133.625C35.4845 133.657 35.4419 133.688 35.3995 133.72ZM133.448 133.357C133.397 133.284 133.347 133.212 133.295 133.141C133.347 133.212 133.397 133.284 133.448 133.357ZM127.377 133.262C127.411 133.291 127.446 133.32 127.48 133.349C127.446 133.32 127.411 133.291 127.377 133.262ZM67.1993 133.184C67.0327 133.162 66.8667 133.142 66.7013 133.124C66.8667 133.142 67.0327 133.162 67.1993 133.184ZM133.174 132.978C133.116 132.9 133.059 132.822 133.001 132.745C133.059 132.822 133.116 132.9 133.174 132.978ZM126.96 132.925C126.933 132.904 126.905 132.883 126.878 132.862C126.905 132.883 126.933 132.904 126.96 132.925ZM36.5558 132.792C36.5798 132.771 36.6042 132.751 36.6281 132.731C36.6042 132.751 36.5798 132.771 36.5558 132.792ZM126.553 132.623C126.62 132.671 126.686 132.719 126.752 132.768C126.686 132.719 126.62 132.671 126.553 132.623ZM112.545 132.446C112.395 132.523 112.244 132.603 112.093 132.685C112.244 132.603 112.395 132.523 112.545 132.446ZM132.841 132.538C132.805 132.492 132.768 132.445 132.732 132.399C132.768 132.445 132.805 132.492 132.841 132.538ZM113.219 132.116C113.054 132.194 112.888 132.274 112.723 132.357C112.888 132.274 113.054 132.194 113.219 132.116ZM132.546 132.17C132.507 132.122 132.469 132.075 132.43 132.027C132.469 132.075 132.507 132.122 132.546 132.17ZM132.236 131.799C132.199 131.756 132.163 131.712 132.125 131.669C132.163 131.712 132.199 131.756 132.236 131.799ZM114.558 131.545C114.414 131.6 114.27 131.658 114.126 131.717C114.27 131.658 114.414 131.6 114.558 131.545ZM131.946 131.468C131.9 131.416 131.854 131.364 131.807 131.313C131.854 131.364 131.9 131.416 131.946 131.468ZM31.5792 130.993C31.4243 131.095 31.2662 131.194 31.1056 131.293C31.2662 131.194 31.4243 131.095 31.5792 130.993ZM131.699 131.196C131.628 131.12 131.557 131.044 131.485 130.969C131.557 131.044 131.628 131.12 131.699 131.196ZM115.992 131.066C115.919 131.087 115.846 131.107 115.773 131.129C115.846 131.107 115.919 131.087 115.992 131.066ZM131.308 130.786C131.274 130.752 131.242 130.718 131.208 130.685C131.242 130.718 131.274 130.752 131.308 130.786ZM38.7482 130.574C38.7717 130.546 38.7951 130.518 38.8185 130.489C38.7951 130.518 38.7717 130.546 38.7482 130.574ZM119.671 130.492C119.627 130.493 119.583 130.495 119.538 130.496C119.583 130.495 119.627 130.493 119.671 130.492ZM131.012 130.492C130.952 130.434 130.893 130.376 130.833 130.319C130.893 130.376 130.952 130.434 131.012 130.492ZM32.7736 130.141C32.6791 130.214 32.5835 130.287 32.4865 130.359C32.5835 130.287 32.6791 130.214 32.7736 130.141ZM130.721 130.215C130.661 130.16 130.602 130.104 130.542 130.05C130.602 130.104 130.661 130.16 130.721 130.215ZM130.347 129.875C130.296 129.83 130.245 129.786 130.194 129.742C130.245 129.786 130.296 129.83 130.347 129.875ZM130.057 129.625C129.989 129.568 129.92 129.51 129.852 129.454C129.92 129.51 129.989 129.568 130.057 129.625ZM39.6456 129.4C39.6017 129.462 39.5577 129.525 39.5128 129.588C39.5577 129.525 39.6017 129.462 39.6456 129.4ZM39.7618 129.23C39.802 129.171 39.8417 129.111 39.881 129.052C39.8417 129.111 39.802 129.171 39.7618 129.23ZM129.002 128.801C128.944 128.759 128.886 128.719 128.828 128.678C128.886 128.719 128.944 128.759 129.002 128.801ZM128.661 128.563C128.591 128.514 128.52 128.467 128.448 128.42C128.52 128.467 128.591 128.514 128.661 128.563ZM128.298 128.321C128.245 128.288 128.193 128.254 128.14 128.221C128.193 128.254 128.245 128.288 128.298 128.321ZM40.4532 128.119C40.4727 128.085 40.4927 128.051 40.5118 128.017C40.4927 128.051 40.4727 128.085 40.4532 128.119ZM127.896 128.069C127.847 128.04 127.798 128.011 127.749 127.983C127.798 128.011 127.847 128.04 127.896 128.069ZM126.77 127.45C126.701 127.416 126.633 127.382 126.564 127.349C126.633 127.382 126.701 127.416 126.77 127.45ZM40.8292 127.418C40.8673 127.342 40.9047 127.267 40.9415 127.191C40.9047 127.267 40.8673 127.342 40.8292 127.418ZM41.0118 127.045C41.0619 126.939 41.1108 126.832 41.1583 126.725C41.1108 126.832 41.0619 126.939 41.0118 127.045ZM124.904 126.664C124.831 126.639 124.757 126.615 124.683 126.591C124.757 126.615 124.831 126.639 124.904 126.664ZM41.1915 126.649C41.2164 126.592 41.2406 126.535 41.2648 126.478C41.2406 126.535 41.2164 126.592 41.1915 126.649ZM123.682 126.299C123.547 126.265 123.411 126.232 123.275 126.201C123.411 126.232 123.547 126.265 123.682 126.299ZM122.613 126.068C122.56 126.059 122.507 126.048 122.453 126.039C122.507 126.048 122.56 126.059 122.613 126.068ZM121.761 125.939C121.711 125.932 121.662 125.926 121.612 125.92C121.662 125.926 121.711 125.932 121.761 125.939ZM42.3644 122.366C42.3715 122.309 42.3794 122.252 42.3859 122.194C42.3794 122.252 42.3715 122.309 42.3644 122.366ZM42.4171 121.888C42.4207 121.849 42.4245 121.81 42.4279 121.772C42.4245 121.81 42.4207 121.849 42.4171 121.888ZM151.112 121.675C151.133 121.676 151.154 121.677 151.175 121.678V121.677C151.154 121.676 151.133 121.676 151.112 121.675ZM42.4513 121.462C42.4538 121.424 42.4568 121.386 42.4591 121.348C42.4568 121.386 42.4538 121.424 42.4513 121.462ZM146.532 121.019C146.896 121.107 147.254 121.185 147.605 121.253C147.254 121.184 146.896 121.107 146.532 121.019ZM42.4747 121.019C42.4758 120.991 42.4767 120.964 42.4777 120.937C42.4767 120.964 42.4758 120.991 42.4747 121.019ZM37.8116 120.609C37.8124 120.538 37.8121 120.467 37.8116 120.396C37.8121 120.467 37.8124 120.538 37.8116 120.609ZM42.4445 119.161C42.4488 119.223 42.4525 119.284 42.4562 119.345C42.4525 119.284 42.4488 119.223 42.4445 119.161ZM42.4259 118.934C42.4189 118.851 42.4117 118.767 42.4034 118.684C42.4117 118.767 42.4189 118.851 42.4259 118.934ZM42.38 118.467C42.3739 118.412 42.3681 118.356 42.3615 118.301C42.3681 118.356 42.3739 118.412 42.38 118.467ZM42.298 117.824C42.3074 117.888 42.3166 117.952 42.3253 118.016C42.3166 117.952 42.3074 117.888 42.298 117.824ZM42.1945 117.195C42.1773 117.101 42.1595 117.006 42.1407 116.911C42.1595 117.006 42.1773 117.101 42.1945 117.195ZM42.1027 116.723C42.0829 116.628 42.0624 116.533 42.0411 116.438C42.0624 116.533 42.0829 116.628 42.1027 116.723ZM41.9425 116.015C41.966 116.11 41.9879 116.206 42.0099 116.301C41.9879 116.206 41.966 116.11 41.9425 116.015ZM41.8829 115.779C41.8597 115.69 41.8353 115.6 41.8107 115.51C41.8353 115.6 41.8597 115.69 41.8829 115.779ZM41.7706 115.364C41.7445 115.271 41.7172 115.178 41.6896 115.085C41.7172 115.178 41.7445 115.271 41.7706 115.364ZM41.5333 114.579C41.5608 114.664 41.5881 114.749 41.6144 114.834C41.5881 114.749 41.5608 114.664 41.5333 114.579ZM41.4825 114.422C41.4575 114.346 41.4314 114.271 41.4054 114.195C41.4314 114.271 41.4575 114.346 41.4825 114.422ZM41.3204 113.951C41.2871 113.858 41.2527 113.764 41.2179 113.67C41.2527 113.764 41.2871 113.858 41.3204 113.951ZM40.9611 113.011C40.9407 112.961 40.9203 112.911 40.8995 112.86C40.9203 112.911 40.9407 112.961 40.9611 113.011ZM39.6251 110.218C39.8005 110.535 39.9672 110.853 40.1261 111.169C39.9672 110.853 39.8004 110.535 39.6251 110.218ZM33.6271 109.653C33.7138 109.762 33.7997 109.872 33.8849 109.984C33.7997 109.872 33.7138 109.762 33.6271 109.653ZM137.322 106.627C137.363 106.844 137.409 107.058 137.459 107.27C137.409 107.058 137.363 106.844 137.322 106.627ZM10.3409 105.359C10.283 105.41 10.2261 105.461 10.17 105.511C10.2261 105.461 10.283 105.41 10.3409 105.359ZM10.9679 104.83C10.9255 104.865 10.8835 104.899 10.8419 104.934C10.8835 104.899 10.9255 104.865 10.9679 104.83ZM11.3429 104.531C11.291 104.572 11.2394 104.612 11.1886 104.652C11.2394 104.612 11.291 104.572 11.3429 104.531ZM34.6241 103.984C34.8615 104.184 35.0955 104.392 35.3263 104.607C35.0955 104.392 34.8615 104.184 34.6241 103.984ZM12.1222 103.947C12.0658 103.988 12.0096 104.028 11.9542 104.068C12.0096 104.028 12.0658 103.988 12.1222 103.947ZM137.457 100.438H137.458H137.457ZM138.579 96.7179C138.404 97.1538 138.24 97.6047 138.088 98.0714C138.24 97.6047 138.404 97.1538 138.579 96.7179ZM135.456 92.3693C135.431 92.4143 135.406 92.4596 135.381 92.505C135.406 92.4596 135.431 92.4143 135.456 92.3693ZM135.714 91.922C135.671 91.9938 135.629 92.066 135.587 92.1388C135.629 92.066 135.671 91.9938 135.714 91.922ZM136.451 90.7706C136.408 90.8333 136.365 90.8966 136.322 90.9601C136.365 90.8966 136.408 90.8333 136.451 90.7706ZM143.183 90.4054C143.05 90.5042 142.92 90.607 142.791 90.712C142.928 90.6007 143.066 90.4922 143.207 90.3878L143.183 90.4054ZM136.987 90.0343C136.944 90.0906 136.901 90.1472 136.859 90.2042C136.901 90.1472 136.944 90.0906 136.987 90.0343ZM137.253 89.6954C137.214 89.7437 137.175 89.7921 137.137 89.8409C137.175 89.7921 137.214 89.7437 137.253 89.6954ZM145.191 89.213C145.032 89.2859 144.875 89.3623 144.721 89.4425C144.875 89.3624 145.032 89.2859 145.191 89.213ZM137.742 89.1105C137.735 89.1188 137.728 89.1275 137.721 89.1359C137.755 89.0964 137.791 89.0577 137.825 89.0187L137.742 89.1105ZM145.874 88.9249C145.798 88.9539 145.723 88.9842 145.648 89.0148C145.723 88.9842 145.798 88.9539 145.874 88.9249ZM138.147 88.6681C138.104 88.7136 138.06 88.7587 138.018 88.8048C138.06 88.7587 138.104 88.7136 138.147 88.6681ZM153.967 88.5568C154.124 88.5916 154.282 88.6289 154.441 88.6681L154.837 88.7697L154.44 88.6671C154.281 88.628 154.124 88.5915 153.967 88.5568ZM151.278 88.1681C151.579 88.187 151.884 88.2151 152.193 88.2521C151.884 88.2151 151.579 88.187 151.278 88.1681ZM27.2775 28.6105L16.5636 47.1661C18.1372 47.3069 20.0432 47.6234 21.8937 48.1193C27.3038 49.569 31.3527 52.5278 33.6476 56.6212C35.9419 60.7136 36.4515 65.8836 34.8937 71.6974C33.3776 77.3552 30.2118 81.4863 26.1075 83.8507C22.0046 86.2142 17.0013 86.7906 11.8497 85.4103C8.80313 84.5939 6.39806 83.319 5.13293 82.4445L4.86536 82.2589L4.95422 81.9454L6.297 77.1534L6.81946 77.4982C7.77833 78.1312 9.94375 79.3167 12.5529 80.09L13.0802 80.2394C16.9877 81.2863 20.5243 80.836 23.3527 79.1251C26.1834 77.4124 28.357 74.4047 29.4718 70.2443C30.6287 65.9266 30.3524 62.2142 28.799 59.3204C27.248 56.4318 24.386 54.288 20.2286 53.174C17.3681 52.4075 14.7874 52.177 13.2159 52.256L12.59 52.2872L12.837 51.3556L9.9093 49.6652L23.3683 26.3536L27.2775 28.6105ZM17.2286 85.6906C17.318 85.6909 17.4072 85.6915 17.4962 85.6906C17.4072 85.6915 17.318 85.6909 17.2286 85.6906ZM13.3605 85.295C13.9771 85.418 14.5902 85.5116 15.1984 85.5773C14.4431 85.4957 13.6802 85.3705 12.9122 85.2003L13.3605 85.295ZM158.285 85.2618H158.286H158.285ZM10.9093 84.6593L11.4142 84.8136C11.2381 84.7619 11.0648 84.7079 10.8937 84.6534C10.899 84.6551 10.904 84.6576 10.9093 84.6593ZM10.3761 84.4825C10.505 84.5267 10.6356 84.5696 10.7677 84.6124C10.6356 84.5696 10.505 84.5267 10.3761 84.4825ZM155.686 84.4415C155.864 84.4893 156.042 84.538 156.219 84.589C156.042 84.5381 155.865 84.4892 155.687 84.4415H155.686ZM24.0997 84.339C24.1514 84.317 24.2035 84.296 24.255 84.2736C24.2035 84.296 24.1514 84.317 24.0997 84.339ZM155.04 84.2784C154.93 84.252 154.82 84.2251 154.71 84.2003L154.695 84.1974C154.81 84.2231 154.925 84.2508 155.04 84.2784ZM9.41125 84.13C9.50611 84.167 9.60234 84.2029 9.69934 84.2394C9.60234 84.2029 9.50611 84.167 9.41125 84.13ZM24.5148 84.1573C24.548 84.1421 24.5812 84.1269 24.6144 84.1115C24.5812 84.1269 24.548 84.1421 24.5148 84.1573ZM8.96887 83.9523C9.03881 83.9811 9.10954 84.0096 9.18079 84.0382C9.10954 84.0096 9.03881 83.9811 8.96887 83.9523ZM141.413 30.4347L143.853 34.7736L143.239 34.8986C142.039 35.1443 139.423 35.9165 136.874 37.3878C133.371 39.4106 131.189 42.2298 130.399 45.4396C129.608 48.6523 130.198 52.3159 132.352 56.046C134.587 59.9169 137.406 62.3464 140.551 63.2941C143.69 64.2401 147.23 63.7322 150.957 61.5802C153.522 60.0994 155.51 58.4377 156.566 57.2706L156.985 56.8058L157.467 57.6398L160.736 56.7648L167.703 82.7657L163.343 83.9337L157.797 63.2355C156.585 64.2488 155.014 65.3741 153.355 66.3322C148.504 69.1327 143.549 69.9036 139.031 68.632C134.515 67.3605 130.499 64.0652 127.489 58.8527C124.561 53.7799 123.878 48.6201 125.109 44.046C126.338 39.4734 129.469 35.5282 134.088 32.8615C136.82 31.2844 139.422 30.4853 140.935 30.2091L141.255 30.1515L141.413 30.4347ZM147.531 83.8263C147.464 83.8356 147.397 83.8455 147.33 83.8556C147.397 83.8455 147.464 83.8356 147.531 83.8263ZM8.52551 83.7638C8.5922 83.7929 8.65963 83.8218 8.72766 83.8507C8.65963 83.8218 8.5922 83.7929 8.52551 83.7638ZM25.2062 83.8214C25.284 83.7813 25.3614 83.7407 25.4386 83.6993C25.3614 83.7407 25.284 83.7813 25.2062 83.8214ZM148.842 83.6945C148.781 83.6983 148.72 83.7027 148.659 83.7072C148.72 83.7027 148.781 83.6983 148.842 83.6945ZM151.048 83.6857C151.016 83.684 150.984 83.6814 150.951 83.6798C150.984 83.6814 151.016 83.684 151.048 83.6857ZM150.669 83.6691C150.599 83.6667 150.529 83.6638 150.459 83.6622C150.529 83.6638 150.599 83.6667 150.669 83.6691ZM150.267 83.6593C150.192 83.6583 150.117 83.6575 150.042 83.6573C150.117 83.6575 150.192 83.6583 150.267 83.6593ZM8.11536 83.5802C8.17145 83.606 8.22811 83.6316 8.28528 83.6573C8.22811 83.6316 8.17145 83.606 8.11536 83.5802ZM25.6105 83.6046C25.6776 83.5676 25.745 83.5312 25.8116 83.4933C25.745 83.5312 25.6776 83.5676 25.6105 83.6046ZM7.62903 83.3497C7.717 83.3927 7.80652 83.4357 7.89758 83.4786C7.80652 83.4357 7.71699 83.3927 7.62903 83.3497ZM7.27844 83.1749C7.37835 83.2259 7.48062 83.277 7.58508 83.3282C7.48063 83.277 7.37835 83.2259 7.27844 83.1749ZM7.02747 83.0441C7.07516 83.0692 7.12315 83.095 7.172 83.1202C7.12315 83.095 7.07515 83.0692 7.02747 83.0441ZM26.713 82.9396C26.773 82.9001 26.8332 82.8608 26.8927 82.8204C26.8332 82.8608 26.773 82.9001 26.713 82.9396ZM5.90637 82.4044C6.08647 82.5166 6.28218 82.6328 6.49231 82.7521C6.28218 82.6327 6.08646 82.5166 5.90637 82.4044ZM27.7814 82.173C27.826 82.1382 27.8709 82.1037 27.9152 82.0685C27.8709 82.1037 27.826 82.1382 27.7814 82.173ZM29.0782 81.0509C29.1437 80.9882 29.209 80.9253 29.2736 80.8615C29.209 80.9253 29.1437 80.9882 29.0782 81.0509ZM11.5929 80.2618C11.8643 80.3539 12.1413 80.4437 12.424 80.5275C12.1413 80.4437 11.8643 80.3539 11.5929 80.2618ZM29.9894 80.1105C30.0633 80.0281 30.1364 79.9446 30.2091 79.8605C30.1364 79.9446 30.0633 80.0281 29.9894 80.1105ZM30.5695 79.4308C30.6435 79.3394 30.7165 79.2468 30.7892 79.1534C30.7165 79.2468 30.6435 79.3394 30.5695 79.4308ZM31.0665 78.7882C30.9998 78.8785 30.9324 78.9681 30.8644 79.0568C30.9324 78.9681 30.9998 78.8785 31.0665 78.7882ZM31.132 78.6993C31.2107 78.5915 31.2885 78.4824 31.3654 78.3722C31.2885 78.4824 31.2107 78.5915 31.132 78.6993ZM31.4044 78.3136C31.46 78.2333 31.5159 78.153 31.5704 78.0714C31.5159 78.153 31.46 78.2333 31.4044 78.3136ZM33.129 75.2736C32.97 75.62 32.8037 75.9582 32.63 76.2882C32.8037 75.9582 32.97 75.62 33.129 75.2736ZM27.9865 75.0031C28.0028 74.9758 28.0191 74.9484 28.0353 74.921C28.0191 74.9484 28.0028 74.9758 27.9865 75.0031ZM33.2609 74.9825C33.2997 74.8945 33.3382 74.806 33.3761 74.7169C33.3382 74.806 33.2997 74.8945 33.2609 74.9825ZM34.3097 72.0948C34.1905 72.5044 34.0607 72.9048 33.924 73.297C34.0606 72.9049 34.1906 72.5043 34.3097 72.0948ZM29.1144 72.7404C29.1291 72.7045 29.1448 72.669 29.1593 72.6329L29.17 72.6046C29.1518 72.6501 29.1329 72.6952 29.1144 72.7404ZM30.1163 69.545L30.2062 69.1407C30.2316 69.0206 30.2543 68.9006 30.2775 68.7814C30.2284 69.0338 30.1755 69.2885 30.1163 69.545ZM139.567 68.3019C139.842 68.3712 140.119 68.4335 140.398 68.4874C140.119 68.4335 139.842 68.3712 139.567 68.3019ZM160.413 57.3234V57.3243L163.13 67.464L160.413 57.3234ZM30.6232 65.8986C30.6117 66.1792 30.5951 66.4631 30.5695 66.7501C30.5951 66.4631 30.6117 66.1792 30.6232 65.8986ZM30.6271 64.6222C30.6237 64.5326 30.6193 64.4434 30.6144 64.3546C30.6193 64.4434 30.6237 64.5326 30.6271 64.6222ZM143.973 64.2003C143.804 64.2047 143.636 64.2051 143.469 64.2023C143.636 64.2051 143.804 64.2047 143.973 64.2003ZM147.674 63.5519C147.492 63.6101 147.31 63.6646 147.129 63.715C147.31 63.6646 147.492 63.6101 147.674 63.5519ZM30.4738 62.9923C30.502 63.1773 30.527 63.3641 30.548 63.5529C30.527 63.3641 30.502 63.1773 30.4738 62.9923ZM139.77 63.5128C139.806 63.5261 139.842 63.539 139.878 63.5519C139.842 63.539 139.806 63.5261 139.77 63.5128ZM149.025 63.0529C149.036 63.0481 149.047 63.044 149.059 63.0392L149.086 63.0275C149.066 63.0361 149.045 63.0443 149.025 63.0529ZM150.129 62.545C149.957 62.631 149.785 62.7119 149.614 62.7911C149.782 62.7136 149.95 62.6349 150.118 62.5509L150.129 62.545ZM29.9679 60.8888C29.9515 60.8399 29.936 60.7908 29.9191 60.7423C29.936 60.7908 29.9515 60.8399 29.9679 60.8888ZM29.7755 60.3536C29.7488 60.2852 29.7214 60.2173 29.6935 60.1495C29.7214 60.2173 29.7488 60.2852 29.7755 60.3536ZM126.315 55.3595C126.675 56.2904 127.109 57.2246 127.621 58.1573L127.885 58.6241L127.622 58.1573C127.11 57.2245 126.675 56.2905 126.315 55.3595ZM26.1632 55.5187C26.0994 55.4684 26.035 55.4186 25.9698 55.3693C26.035 55.4186 26.0994 55.4684 26.1632 55.5187ZM25.549 55.0646C25.5077 55.0359 25.4666 55.007 25.4249 54.9786C25.4666 55.007 25.5077 55.0359 25.549 55.0646ZM24.8488 54.6075C25.0305 54.7182 25.2076 54.8326 25.381 54.9493C25.2076 54.8326 25.0305 54.7182 24.8488 54.6075ZM125.697 53.5138C125.816 53.932 125.949 54.3514 126.098 54.7716C125.949 54.3514 125.816 53.932 125.697 53.5138ZM23.9259 54.0909C24.0901 54.1754 24.251 54.2628 24.4093 54.3517C24.251 54.2628 24.0901 54.1754 23.9259 54.0909ZM23.2579 53.7677C23.4397 53.8506 23.6179 53.9366 23.7931 54.0245C23.6179 53.9366 23.4397 53.8506 23.2579 53.7677ZM21.1222 52.9572C21.4766 53.0672 21.8211 53.186 22.1564 53.3116C21.8211 53.186 21.4766 53.0672 21.1222 52.9572ZM125.458 52.5831C125.511 52.8107 125.569 53.0384 125.63 53.2667C125.569 53.0384 125.511 52.8107 125.458 52.5831ZM125.364 52.1554C125.378 52.2199 125.392 52.2842 125.406 52.3488C125.392 52.2842 125.378 52.2199 125.364 52.1554ZM125.27 51.6671C125.283 51.7439 125.299 51.8206 125.314 51.8976C125.299 51.8206 125.283 51.7439 125.27 51.6671ZM125.195 51.2208C125.213 51.3333 125.231 51.4459 125.251 51.5587C125.231 51.4459 125.213 51.3333 125.195 51.2208ZM125.08 50.3292C125.107 50.5872 125.139 50.846 125.178 51.1056C125.139 50.846 125.107 50.5872 125.08 50.3292ZM125.007 49.4034C125.012 49.501 125.019 49.5986 125.026 49.6964C125.019 49.5986 125.012 49.501 125.007 49.4034ZM124.991 49.0704C124.993 49.1335 124.997 49.1967 125 49.2599C124.995 49.15 124.991 49.0403 124.988 48.9308L124.991 49.0704ZM124.987 48.088C124.985 48.1946 124.984 48.3013 124.984 48.4083C124.984 48.3014 124.985 48.1946 124.987 48.088ZM125.003 47.6671C124.999 47.7506 124.996 47.8343 124.993 47.9181C124.996 47.8343 124.999 47.7506 125.003 47.6671ZM125.03 47.2267C125.025 47.2953 125.021 47.364 125.017 47.4327C125.021 47.364 125.025 47.2953 125.03 47.2267ZM125.065 46.8273C125.061 46.8617 125.058 46.8963 125.055 46.9308C125.058 46.8963 125.061 46.8617 125.065 46.8273ZM125.591 44.0206C125.589 44.0292 125.585 44.0375 125.583 44.046C125.585 44.0375 125.589 44.0292 125.591 44.0206ZM83.3341 4.96106L62.6359 10.506C63.6491 11.7183 64.7726 13.2901 65.7306 14.9493C68.5311 19.8001 69.3031 24.7553 68.0314 29.2726C66.7599 33.7886 63.4636 37.8041 58.2511 40.8136C53.1784 43.7423 48.0185 44.4258 43.4445 43.1954C38.872 41.9654 34.9265 38.8347 32.2599 34.2159C30.6829 31.4844 29.8847 28.8822 29.6085 27.3693L29.5499 27.049L29.8341 26.8898L34.172 24.4513L34.298 25.0646C34.5284 26.1903 35.2207 28.5598 36.5187 30.9513L36.7863 31.4298C38.8091 34.9333 41.629 37.1153 44.839 37.9054C48.0516 38.6959 51.7144 38.1058 55.4445 35.9523C59.3155 33.7173 61.7457 30.8977 62.6935 27.7531C63.6395 24.6137 63.1317 21.0734 60.9796 17.3458C59.4989 14.7813 57.8371 12.7937 56.67 11.7384L56.2052 11.3175L57.0402 10.8351L56.1652 7.5675L82.1661 0.600708L83.3341 4.96106ZM125.769 43.423C125.743 43.5044 125.717 43.5862 125.693 43.6681C125.717 43.5862 125.743 43.5044 125.769 43.423ZM51.5763 42.9337C51.667 42.9148 51.7579 42.8954 51.8488 42.8751C51.7579 42.8954 51.667 42.9148 51.5763 42.9337ZM52.0148 42.837C52.1211 42.8123 52.2276 42.7866 52.3341 42.7599C52.2276 42.7866 52.1211 42.8123 52.0148 42.837ZM43.2316 42.6603C43.3212 42.6864 43.411 42.7118 43.5011 42.7365C43.411 42.7118 43.3212 42.6864 43.2316 42.6603ZM52.4845 42.7218C52.5795 42.6972 52.6745 42.6718 52.7697 42.6456C52.6745 42.6718 52.5795 42.6972 52.4845 42.7218ZM53.4103 42.4581C53.503 42.4293 53.5957 42.3996 53.6886 42.3693C53.5958 42.3996 53.503 42.4293 53.4103 42.4581ZM53.8615 42.3116C53.959 42.2789 54.0567 42.2455 54.1544 42.2111C54.0567 42.2455 53.959 42.2789 53.8615 42.3116ZM41.6339 42.1027C41.7102 42.1338 41.7867 42.1645 41.8634 42.1945C41.7867 42.1645 41.7102 42.1338 41.6339 42.1027ZM41.1945 41.9161C41.2769 41.9526 41.3595 41.9885 41.4425 42.0236C41.3595 41.9885 41.2769 41.9526 41.1945 41.9161ZM40.8575 41.7628C40.9351 41.7992 41.0129 41.8351 41.0909 41.8702C41.0129 41.8351 40.9351 41.7992 40.8575 41.7628ZM57.5568 40.6818C56.7894 41.1033 56.0207 41.4711 55.254 41.7892C56.0206 41.4711 56.7895 41.1032 57.5568 40.6818ZM40.0734 41.3693C40.1465 41.4084 40.2195 41.4475 40.2931 41.4855C40.2195 41.4475 40.1465 41.4083 40.0734 41.3693ZM39.3038 40.9318C39.3791 40.9772 39.4545 41.0223 39.5304 41.0665C39.4545 41.0223 39.3791 40.9772 39.3038 40.9318ZM38.5743 40.4659C38.6513 40.5179 38.7282 40.5697 38.8058 40.6202C38.7282 40.5697 38.6513 40.5179 38.5743 40.4659ZM38.257 40.2462C38.3138 40.2865 38.3706 40.3268 38.4279 40.3663C38.3706 40.3268 38.3138 40.2865 38.257 40.2462ZM127.278 40.0626C127.258 40.0966 127.238 40.1301 127.218 40.1642C127.238 40.1301 127.258 40.0966 127.278 40.0626ZM37.8878 39.9777C37.9492 40.0236 38.0105 40.0694 38.0724 40.1144C38.0105 40.0694 37.9492 40.0236 37.8878 39.9777ZM37.5763 39.7394C37.6222 39.7753 37.6678 39.8114 37.714 39.8468C37.6678 39.8114 37.6222 39.7753 37.5763 39.7394ZM37.1417 39.3888C37.2186 39.4529 37.2955 39.5166 37.3732 39.5792C37.2955 39.5166 37.2186 39.4529 37.1417 39.3888ZM35.8507 38.2023C36.027 38.3802 36.2052 38.5545 36.3868 38.7238C36.2052 38.5545 36.027 38.3802 35.8507 38.2023ZM128.626 38.0978C128.469 38.2961 128.316 38.4968 128.169 38.7003C128.316 38.4968 128.469 38.2961 128.626 38.0978ZM128.787 37.8966C128.765 37.9235 128.744 37.9506 128.722 37.9777C128.802 37.8781 128.883 37.779 128.966 37.6808L128.787 37.8966ZM35.2267 37.5411C35.2978 37.6201 35.3685 37.6991 35.4406 37.7765C35.3685 37.6991 35.2978 37.6201 35.2267 37.5411ZM34.8868 37.1554C34.968 37.2504 35.0494 37.3447 35.132 37.4376C35.0494 37.3447 34.968 37.2504 34.8868 37.1554ZM86.3595 5.55286L91.1515 6.89661L90.8058 7.41907C90.1305 8.44208 88.8271 10.8378 88.0656 13.6798C87.0186 17.5874 87.4688 21.1239 89.1798 23.9523C90.8925 26.783 93.9002 28.9557 98.0607 30.0704C102.378 31.2272 106.09 30.9519 108.984 29.3986C111.872 27.8476 114.017 24.9858 115.131 20.8282C115.897 17.9678 116.128 15.3871 116.049 13.8156L116.018 13.1896L116.946 13.4376L118.639 10.5089L141.951 23.9679L139.694 27.8761L121.137 17.1622C120.996 18.7358 120.681 20.6417 120.186 22.4923C118.736 27.9026 115.777 31.9522 111.684 34.2472C107.591 36.5415 102.421 37.051 96.6075 35.4933C90.9496 33.9772 86.8176 30.8115 84.4532 26.7072C82.0898 22.6042 81.5144 17.6008 82.8947 12.4493C83.711 9.40274 84.986 6.99767 85.8605 5.73254L86.046 5.46497L86.3595 5.55286ZM32.3741 33.4865L32.6554 33.9874C33.1431 34.8322 33.6744 35.6252 34.2443 36.3644C33.6745 35.6252 33.1431 34.8321 32.6554 33.9874C32.5311 33.7722 32.4135 33.5569 32.299 33.3439C32.3242 33.3909 32.3484 33.4393 32.3741 33.4865ZM57.6544 35.0646C57.1811 35.4085 56.6793 35.7396 56.1515 36.0607C56.6793 35.7396 57.181 35.4085 57.6544 35.0646ZM105.212 35.8146C104.448 35.8999 103.663 35.9389 102.858 35.9318C103.502 35.9375 104.134 35.9141 104.752 35.8605C105.061 35.8337 105.366 35.7993 105.668 35.7579C105.517 35.7787 105.365 35.7975 105.212 35.8146ZM139.294 35.6896C139.197 35.7301 139.099 35.7711 139.001 35.8136C139.099 35.7711 139.197 35.7301 139.294 35.6896ZM131.777 34.9718C131.471 35.2128 131.174 35.4598 130.887 35.714C131.106 35.5196 131.332 35.3294 131.563 35.1427L131.777 34.9718ZM139.614 35.5577C139.568 35.5764 139.521 35.5953 139.475 35.6144C139.521 35.5953 139.568 35.5764 139.614 35.5577ZM141.269 34.9601C141.089 35.0179 140.903 35.0798 140.711 35.1466C140.903 35.0798 141.089 35.0179 141.269 34.9601ZM94.7286 34.4249C95.0995 34.5595 95.4786 34.6852 95.8654 34.8038C95.4786 34.6852 95.0995 34.5595 94.7286 34.4249ZM133.646 33.6603C133.295 33.8792 132.954 34.1049 132.623 34.339C133.033 34.0493 133.457 33.7714 133.897 33.505L133.646 33.6603ZM110.703 34.2462H110.704H110.703ZM92.881 33.6603C93.0818 33.7544 93.2859 33.8447 93.4923 33.9337C93.2859 33.8447 93.0818 33.7544 92.881 33.6603ZM91.1691 32.7589C91.2369 32.7989 91.3056 32.8377 91.3741 32.8771C91.3056 32.8377 91.2369 32.7989 91.1691 32.7589ZM31.6603 32.0714C31.7751 32.3184 31.8973 32.5685 32.0255 32.8214C31.9348 32.6424 31.8478 32.4644 31.7638 32.2882L31.6603 32.0714ZM90.38 32.2667C90.4338 32.302 90.4878 32.3373 90.5421 32.3722C90.4878 32.3373 90.4338 32.302 90.38 32.2667ZM90.0011 32.0128C90.0604 32.0538 90.1208 32.0935 90.1808 32.1339C90.1208 32.0935 90.0604 32.0538 90.0011 32.0128ZM89.5997 31.7277C89.6633 31.7741 89.7277 31.8196 89.7921 31.8654C89.7277 31.8196 89.6633 31.7741 89.5997 31.7277ZM89.2491 31.465C89.2966 31.5014 89.3447 31.5373 89.3927 31.5734C89.3447 31.5373 89.2966 31.5014 89.2491 31.465ZM115.449 30.6417H115.45H115.449ZM31.2345 31.1007C31.2707 31.1883 31.3079 31.2765 31.3458 31.3654C31.3079 31.2765 31.2707 31.1883 31.2345 31.1007ZM88.9337 31.2179C88.9688 31.246 89.0048 31.273 89.0402 31.3009C89.0001 31.2692 88.9597 31.2381 88.92 31.2062L88.9337 31.2179ZM104.908 31.1281C104.736 31.1492 104.563 31.1678 104.388 31.1827C104.563 31.1678 104.736 31.1492 104.908 31.1281ZM88.5519 30.9015C88.5948 30.938 88.6384 30.9737 88.6818 31.0099C88.6384 30.9737 88.5948 30.938 88.5519 30.9015ZM88.174 30.5714C88.2482 30.6382 88.3238 30.7038 88.3995 30.7697C88.3238 30.7038 88.2482 30.6382 88.174 30.5714ZM97.9415 30.5118H97.9425H97.9415ZM87.8575 30.2784C87.9015 30.32 87.9459 30.3613 87.9904 30.4025C87.9459 30.3613 87.9015 30.32 87.8575 30.2784ZM87.5323 29.963C87.5999 30.0303 87.6685 30.0968 87.7374 30.1632C87.6685 30.0968 87.5999 30.0303 87.5323 29.963ZM30.7531 29.8341C30.7758 29.8997 30.7995 29.9657 30.8234 30.0323C30.7995 29.9657 30.7758 29.8997 30.7531 29.8341ZM116.556 29.2706H116.557H116.556ZM87.2501 29.6749C87.2902 29.7168 87.3306 29.7584 87.3712 29.7999C87.3306 29.7584 87.2902 29.7168 87.2501 29.6749ZM86.9689 29.3741C86.9945 29.4022 87.0202 29.4302 87.046 29.4581C87.0202 29.4302 86.9945 29.4022 86.9689 29.3741ZM86.6505 29.0157C86.6931 29.0652 86.7362 29.1142 86.7794 29.1632C86.7362 29.1142 86.6931 29.0652 86.6505 29.0157ZM86.3654 28.6749C86.4045 28.7229 86.4438 28.7709 86.4835 28.8185C86.4438 28.7709 86.4045 28.7229 86.3654 28.6749ZM86.0909 28.3302C86.1506 28.4073 86.2115 28.4835 86.2726 28.5597C86.2115 28.4835 86.1506 28.4073 86.0909 28.3302ZM30.1857 27.8976C30.2327 28.0994 30.2873 28.3144 30.3497 28.5411C30.2873 28.3144 30.2327 28.0994 30.1857 27.8976ZM85.8644 28.0294C85.888 28.0614 85.9118 28.0933 85.9357 28.1251C85.9118 28.0933 85.888 28.0614 85.8644 28.0294ZM30.0577 27.2882L30.173 27.8458C30.1769 27.863 30.1816 27.8802 30.1857 27.8976C30.1345 27.6781 30.0917 27.4744 30.0577 27.2882ZM85.59 27.6456C85.6267 27.6986 85.6639 27.7513 85.7013 27.8038C85.6639 27.7513 85.6267 27.6986 85.59 27.6456ZM85.3507 27.2921C85.3889 27.3504 85.4279 27.4081 85.4669 27.4659C85.4279 27.4081 85.3889 27.3504 85.3507 27.2921ZM85.1398 26.962C85.1652 27.0029 85.1911 27.0435 85.2169 27.0841C85.1911 27.0435 85.1652 27.0029 85.1398 26.962ZM84.8761 26.5236C84.9153 26.5912 84.955 26.6586 84.9952 26.7257C84.955 26.6586 84.9153 26.5912 84.8761 26.5236ZM84.6964 26.2052C84.7299 26.266 84.7637 26.3265 84.798 26.3868C84.7637 26.3265 84.7299 26.266 84.6964 26.2052ZM84.5031 25.8439C84.5206 25.8777 84.538 25.9117 84.5558 25.9454C84.538 25.9117 84.5206 25.8777 84.5031 25.8439ZM84.298 25.4347C84.3264 25.4934 84.3548 25.5521 84.3839 25.6105C84.3548 25.5521 84.3264 25.4934 84.298 25.4347ZM89.7413 25.5392C89.7585 25.5604 89.7757 25.5816 89.7931 25.6027C89.7757 25.5816 89.7585 25.5604 89.7413 25.5392ZM84.0958 25.0001C84.1302 25.0768 84.1648 25.1534 84.2003 25.2296C84.1648 25.1534 84.1302 25.0768 84.0958 25.0001ZM83.9581 24.6847C83.9781 24.732 83.9982 24.7792 84.0187 24.8263C83.9982 24.7792 83.9781 24.732 83.9581 24.6847ZM83.6251 23.8322C83.6487 23.8977 83.6721 23.9632 83.6964 24.0284C83.6721 23.9632 83.6487 23.8977 83.6251 23.8322ZM83.2413 22.6202C83.2599 22.6877 83.2785 22.7552 83.298 22.8224C83.2785 22.7552 83.2599 22.6877 83.2413 22.6202ZM83.1281 22.1876C83.1481 22.2685 83.1684 22.3493 83.1896 22.4298C83.1684 22.3493 83.1481 22.2685 83.1281 22.1876ZM63.3409 22.1134C63.3298 22.0591 63.3186 22.0047 63.3068 21.9503C63.3186 22.0047 63.3298 22.0591 63.3409 22.1134ZM63.1466 21.2931C63.2027 21.5018 63.2532 21.7099 63.299 21.9171C63.2532 21.7099 63.2027 21.5018 63.1466 21.2931ZM82.8048 20.5441C82.8146 20.6106 82.8246 20.677 82.8351 20.7433C82.8246 20.677 82.8146 20.6106 82.8048 20.5441ZM62.8829 20.421C62.864 20.3645 62.845 20.3078 62.8253 20.2511C62.845 20.3078 62.864 20.3645 62.8829 20.421ZM62.8253 20.2511C62.7871 20.1413 62.7482 20.0312 62.7072 19.921C62.7482 20.0312 62.7871 20.1413 62.8253 20.2511ZM62.6202 19.6954C62.6032 19.6515 62.586 19.6076 62.5685 19.5636C62.586 19.6076 62.6032 19.6515 62.6202 19.6954ZM61.9445 18.1749C61.9803 18.2464 62.0143 18.3184 62.049 18.3898C62.0161 18.322 61.9842 18.2535 61.9503 18.1857L61.9445 18.1749ZM87.0499 17.8556C87.0509 17.969 87.0531 18.082 87.0568 18.1945C87.0531 18.082 87.0509 17.969 87.0499 17.8556ZM88.047 12.1769C88.0033 12.3055 87.9601 12.4353 87.9181 12.5665C87.922 12.5545 87.9259 12.5424 87.9298 12.5304L88.047 12.1769ZM88.5421 10.8497C88.5072 10.9355 88.4721 11.022 88.4376 11.1095C88.4721 11.022 88.5073 10.9355 88.5421 10.8497ZM56.7238 7.89075L57.4493 10.5988L60.8468 8.63782L61.0929 8.86145C61.453 9.1871 61.8656 9.61535 62.3068 10.1212L82.7745 4.63782L81.8429 1.16028L56.7238 7.89075ZM84.5519 9.09973C84.5273 9.15585 84.5031 9.21258 84.4786 9.26965C84.5031 9.21258 84.5273 9.15585 84.5519 9.09973Z" fill="#184BFF"/>
<path d="M69.755 113.849L63.7253 107.819L104.498 67.047L95.2377 70.7079L67.458 70.6362L75.354 62.7401L114.834 62.7401L114.834 102.22L106.938 110.116L106.795 82.2649L110.384 73.2203L69.755 113.849Z" fill="#184BFF"/>
</svg>
