<svg width="132" height="147" viewBox="0 0 132 147" fill="none" xmlns="http://www.w3.org/2000/svg">
<path d="M8.85474 136.978H98.5139V123.448H107.105V146.111H0.262939V123.448H8.85474V136.978ZM55.0608 81.7478C61.1188 81.7478 65.9377 86.5667 65.9377 92.6248C65.9376 96.7393 63.609 100.319 60.1555 102.122V123.328H50.2424V102.217C46.7352 100.447 44.3217 96.813 44.3215 92.6248C44.3215 86.5668 49.1405 81.7479 55.0608 81.7478ZM99.4153 0.417725C120.73 0.417726 131.387 12.4664 131.387 36.4529V81.3591H121.396V36.4529C121.396 18.5999 114.18 10.0564 99.4153 10.0564C84.4288 10.0565 77.4348 18.381 77.4348 36.4529V65.1707H107.105V72.4548H77.4348V81.3591H67.4436V72.4548H3.50122V65.1707H67.4436V36.4529C67.4436 12.4665 78.1011 0.417847 99.4153 0.417725Z" fill="#184BFF"/>
</svg>
