<svg width="107" height="146" viewBox="0 0 107 146" fill="none" xmlns="http://www.w3.org/2000/svg">
<path d="M8.5918 136.574H98.251V123.044H106.842V145.707H0V123.044H8.5918V136.574ZM54.7979 81.3428C60.8558 81.3428 65.6746 86.1618 65.6748 92.2197C65.6748 96.3345 63.3463 99.9152 59.8926 101.718V122.923H49.9795V101.812C46.4724 100.042 44.0586 96.4079 44.0586 92.2197C44.0588 86.162 48.8778 81.343 54.7979 81.3428ZM54.6357 0.0136719C75.95 0.0136737 86.6073 12.0616 86.6074 36.0479V64.7656H106.842V72.0508H86.6074V80.9541H76.6162V72.0508H32.6553V80.9541H22.6641V72.0508H3.23828V64.7656H22.6641V36.0479C22.6642 12.0616 33.3215 0.0136735 54.6357 0.0136719ZM54.6357 9.65234C39.6492 9.65235 32.6554 17.9761 32.6553 36.0479V64.7656H76.6162V36.0479C76.6161 18.1952 69.4003 9.65234 54.6357 9.65234Z" fill="#184BFF"/>
</svg>
