<svg width="143" height="150" viewBox="0 0 143 150" fill="none" xmlns="http://www.w3.org/2000/svg">
<path d="M112.092 115.55C112.78 118.087 113.314 121.198 113.314 124.718C113.314 139.697 104.143 143.79 94.1309 143.79H91.624V145.179C86.9256 147.869 80.5051 149.482 74.2285 149.482C67.9521 149.482 61.5324 147.869 56.834 145.179V136.798C61.5324 134.108 67.9521 132.494 74.2285 132.494C80.5051 132.494 86.9256 134.108 91.624 136.798V138.47H93.749C103.532 138.47 108.5 134.049 108.5 124.554C108.5 120.625 107.659 117.514 107.048 115.55H112.092ZM60.4502 143.79C64.193 145.287 68.8482 146.326 74.2285 146.326C79.6088 146.326 84.264 145.287 88.0068 143.79H60.4502ZM74.2285 135.65C68.5147 135.65 63.6185 136.822 59.7646 138.47H88.6924C84.8385 136.822 79.9423 135.65 74.2285 135.65ZM38.2598 112.774L26.2568 115.991C13.7638 119.339 4.50651 114.685 1.0127 101.646C-2.408 88.8803 2.96209 79.8975 15.2373 76.6084L27.6758 73.2754L38.2598 112.774ZM127.383 76.6084C139.658 79.8975 145.028 88.8803 141.607 101.646C138.114 114.685 128.856 119.339 116.363 115.991L104.36 112.774L114.944 73.2754L127.383 76.6084ZM17.3984 82.9297C8.66952 85.2687 6.07203 91.2858 8.32324 99.6875C10.633 108.307 15.5451 112.019 24.4922 109.622L29.5117 108.277L22.3633 81.5996L17.3984 82.9297ZM113.108 108.277L118.128 109.622C127.075 112.019 131.987 108.307 134.297 99.6875C136.548 91.2859 133.951 85.2687 125.222 82.9297L120.257 81.5996L113.108 108.277ZM72.46 0.28125C104.937 0.281251 125.411 22.309 125.411 51.8203C125.411 60.5748 123.717 67.9174 122.305 71.8711L110.02 71.7295C111.149 68.3407 112.985 60.7161 112.985 52.2441C112.985 28.8045 97.3116 13.5537 72.46 13.5537C46.7611 13.5538 31.3701 27.6747 31.3701 52.5264C31.3701 60.9982 32.6408 68.3405 34.0527 72.7178H21.627C20.215 68.3404 18.9443 60.0095 18.9443 51.6787C18.9444 20.6143 38.9951 0.281298 72.46 0.28125Z" fill="#184BFF"/>
<path d="M104.447 62.5722C103.758 63.9492 102.209 66.875 99.4977 69.586C94.4605 74.6231 87.829 75.5116 81.9367 72.6982L52.6415 101.993L50.5119 99.8638L79.254 71.1217C78.3074 70.4543 77.3912 69.6843 76.5188 68.8119C75.8799 68.173 75.2945 67.5088 74.7627 66.8252L46.118 95.4699L43.9877 93.3396L73.0716 64.2557C69.7785 58.2348 70.3801 51.1976 75.9166 45.661C78.2833 43.2943 80.6073 41.9176 82.5437 40.8418L85.2975 43.5956C83.7914 44.3272 81.2093 45.876 78.9287 48.1566C72.9475 54.1379 74.3675 60.9801 79.3589 65.9717C84.3505 70.9632 91.2355 72.3401 97.0877 66.4882C99.7556 63.8203 101.305 60.8076 101.649 59.7748L104.447 62.5722ZM86.1496 55.4121C84.6694 56.8923 84.4633 58.1658 85.823 59.5256C86.9935 60.696 89.179 61.1262 90.7969 59.5083L95.6507 54.6545L97.8197 56.8235L88.8351 65.808L86.7179 63.6909L89.1272 61.2816L86.0122 62.5377C85.5475 62.3828 84.4803 61.9697 83.4476 60.937C81.2617 58.7511 81.0891 56.1349 83.4641 53.7596L89.11 48.1138L91.2789 50.2828L86.1496 55.4121Z" fill="#184BFF"/>
</svg>
