<svg width="144" height="158" viewBox="0 0 144 158" fill="none" xmlns="http://www.w3.org/2000/svg">
<path d="M71.5996 10.4395L72.0078 10.5576L0 32.2393V50.5391L72.4004 72.3398V62.4395L71.9932 62.3203L144 40.6396V22.3398L71.5996 0.539062V10.4395ZM143.8 31.4395L71.5996 52.5391V62.2061L0.200195 41.4395L72.4004 20.3398V10.6719L143.8 31.4395Z" fill="#184BFF"/>
<path d="M71.5996 52.4395L72.0078 52.5576L0 74.2393V92.5391L72.4004 114.34V104.439L71.9932 104.32L144 82.6396V64.3398L71.5996 42.5391V52.4395ZM143.8 73.4395L71.5996 94.5391V104.206L0.200195 83.4395L72.4004 62.3398V52.6719L143.8 73.4395Z" fill="#184BFF"/>
<path d="M71.5996 95.4395L72.0078 95.5576L0 117.239V135.539L72.4004 157.34V147.439L71.9932 147.32L144 125.64V107.34L71.5996 85.5391V95.4395ZM143.8 116.439L71.5996 137.539V147.206L0.200195 126.439L72.4004 105.34V95.6719L143.8 116.439Z" fill="#184BFF"/>
</svg>
