<svg width="176" height="170" viewBox="0 0 176 170" fill="none" xmlns="http://www.w3.org/2000/svg">
<path d="M37.335 15.377C39.7215 16.4907 43.3803 19.0893 46.6152 22.3242C55.4934 31.2024 58.1037 41.7928 54.0625 51.7061L85.2998 82.9434L93.7275 75.6162L99.0303 80.9189L90.7734 88.416L117.45 115.093C127.343 111.609 137.852 114.549 146 122.697C149.235 125.932 151.409 129.273 152.629 131.872L146.105 138.289C145.204 136.327 143.295 133.039 139.954 129.698C131.734 121.478 121.233 121.478 113.013 129.698C104.634 138.077 104.634 148.259 113.066 156.691C115.983 159.608 119.271 161.836 121.869 163.056L115.293 169.632C112.906 168.518 109.248 165.919 106.013 162.685C97.3113 153.983 94.629 143.636 98.3301 133.895L70.8994 106.464L51.2803 124.28L55 128L28.2715 145.112L22.7559 139.597L47.1045 120.565L44.7461 118.207L65.0156 100.581L34.5586 70.124C24.8479 73.2737 14.607 70.2887 6.62891 62.3105C3.3939 59.0755 1.21976 55.7344 0 53.1357L6.52246 46.7188C7.42402 48.681 9.33372 51.9695 12.6748 55.3105C20.8948 63.5304 31.3952 63.5305 39.6152 55.3105C47.9944 46.9313 47.9947 36.7486 39.5625 28.3164C36.6457 25.3996 33.3574 23.1719 30.7588 21.9521L37.335 15.377ZM75.791 102.022L101.558 127.789C102.775 126.013 104.223 124.275 105.906 122.592C107.621 120.877 109.404 119.42 111.233 118.21L85.8818 92.8584L75.791 102.022ZM50.7295 57.707C49.5851 59.3137 48.2505 60.8882 46.7217 62.417C44.8501 64.2886 42.8958 65.8511 40.8906 67.1221L70.0088 96.2402L80.3076 87.2842L50.7295 57.707ZM175.109 14.1631C171.15 28.7294 161.958 44.7103 149.513 57.1553C137.068 69.6002 121.087 78.7921 106.521 82.752L101.783 78.0146C114.794 74.4791 130.421 66.63 144.704 52.3467C158.988 38.0631 166.837 22.4356 170.372 9.4248L175.109 14.1631ZM166.135 5.1875C153.124 8.72302 137.497 16.5722 123.214 30.8555C113.031 41.0382 106.12 51.9049 101.709 62.0186C104.77 59.4324 109.37 59.5802 112.254 62.4639C115.365 65.5752 115.365 70.525 112.324 73.5654C109.213 76.6765 104.264 76.6763 101.152 73.5654C99.914 72.3271 99.179 70.7719 98.9541 69.1533C98.425 70.7259 97.9558 72.269 97.5459 73.7773L92.8076 69.04C96.7674 54.4737 105.96 38.4929 118.405 26.0479C130.85 13.6028 146.831 4.41 161.397 0.450195L166.135 5.1875Z" fill="#184BFF"/>
</svg>
