<svg width="168" height="168" viewBox="0 0 168 168" fill="none" xmlns="http://www.w3.org/2000/svg">
<path d="M108.909 127.954C114.122 124.945 119.248 124.099 123.795 125.256C128.343 126.413 132.248 129.559 135.049 134.409C136.541 136.993 137.647 139.818 138.002 141.47L138.072 141.795L133.431 144.475L133.299 143.862C132.968 142.324 132.078 139.89 130.598 137.325C128.446 133.598 125.633 131.389 122.441 130.639C119.244 129.887 115.588 130.581 111.717 132.815C107.987 134.969 105.643 137.846 104.722 141.023C103.801 144.199 104.282 147.732 106.305 151.235C107.67 153.6 109.388 155.47 110.361 156.377L110.372 156.375L110.376 156.392C110.446 156.457 110.511 156.518 110.572 156.573L111.04 156.988L110.604 157.245L111.54 160.735L85.5391 167.702L84.3711 163.342L104.637 157.911C103.678 156.849 102.6 155.447 101.628 153.763C98.9612 149.144 98.2232 144.161 99.4443 139.586C100.666 135.01 103.837 130.883 108.909 127.954ZM55.4658 134.287C59.5655 131.915 64.726 131.239 70.3838 132.755C76.1975 134.313 80.4204 137.339 82.8174 141.372C85.2149 145.406 85.7524 150.393 84.3027 155.803C83.5306 158.684 82.3154 161.465 81.3984 162.884L81.2188 163.163L76.042 161.776L76.3809 161.249C77.235 159.928 78.3263 157.577 79.0928 154.717C80.2067 150.559 79.7809 147.009 78.0547 144.222C76.3254 141.43 73.2489 139.335 68.9316 138.178C64.7713 137.063 61.0802 137.44 58.1816 139.035C55.2854 140.629 53.1263 143.467 52.0791 147.375C51.3724 150.012 51.2651 152.55 51.3115 153.88L51.3223 153.887L51.3125 153.903C51.316 153.998 51.3183 154.086 51.3232 154.168L51.3604 154.793L50.8711 154.667L49.0654 157.795L25.7539 144.336L28.0107 140.428L46.1797 150.917C46.2529 149.489 46.483 147.734 46.9863 145.855C48.3667 140.704 51.3674 136.659 55.4658 134.287ZM83.8623 155.685L83.9902 155.188L84.0693 154.849C84.0052 155.126 83.9373 155.405 83.8623 155.685ZM108.297 154.85C108.33 154.889 108.364 154.927 108.396 154.966C108.266 154.813 108.134 154.654 108 154.489L108.297 154.85ZM80.1602 149.964C80.16 149.959 80.1603 149.953 80.1602 149.948L80.1582 149.91C80.1587 149.928 80.1597 149.946 80.1602 149.964ZM141.374 84.8848C145.408 82.4874 150.395 81.9498 155.805 83.3994C158.686 84.1715 161.466 85.3868 162.885 86.3037L163.165 86.4844L161.777 91.6611L161.251 91.3213C159.93 90.4671 157.579 89.3759 154.719 88.6094C150.561 87.4955 147.011 87.9214 144.224 89.6475C141.431 91.3768 139.336 94.4539 138.179 98.7715C137.064 102.932 137.442 106.623 139.037 109.521C140.631 112.418 143.469 114.576 147.377 115.623C150.014 116.33 152.551 116.436 153.881 116.39L153.887 116.382L153.9 116.39C153.996 116.386 154.086 116.385 154.169 116.38L154.794 116.343L154.668 116.832L157.795 118.639L144.336 141.95L140.428 139.693L150.917 121.522C149.489 121.449 147.735 121.22 145.857 120.717C140.706 119.336 136.66 116.336 134.288 112.237C131.916 108.138 131.241 102.976 132.757 97.3184C134.315 91.5047 137.341 87.2817 141.374 84.8848ZM82.0303 140.979C82.0143 140.954 81.9995 140.929 81.9834 140.905L81.9678 140.883C81.989 140.914 82.0093 140.947 82.0303 140.979ZM9.79004 104.636C10.852 103.677 12.2559 102.6 13.9404 101.627C18.5593 98.9603 23.5422 98.2222 28.1172 99.4434C32.6934 100.665 36.8204 103.836 39.749 108.908C42.7585 114.121 43.6042 119.247 42.4473 123.794C41.2899 128.342 38.1445 132.247 33.2939 135.048C30.7103 136.539 27.8849 137.646 26.2334 138.001L25.9082 138.071L23.2285 133.43L23.8408 133.298C25.3792 132.967 27.8131 132.077 30.3779 130.597L30.7227 130.393C34.2418 128.268 36.3375 125.532 37.0645 122.44C37.8159 119.243 37.1224 115.587 34.8877 111.716C32.7341 107.986 29.8572 105.642 26.6797 104.721C23.5046 103.8 19.9715 104.281 16.4678 106.304C14.103 107.669 12.2315 109.386 11.3242 110.359L11.3271 110.371L11.3096 110.375C11.2448 110.445 11.1844 110.51 11.1299 110.571L10.7139 111.04L10.4551 110.604L6.9668 111.54L0 85.5391L4.36035 84.3711L9.79004 104.636ZM108.321 134.694C108.23 134.776 108.14 134.859 108.052 134.942L108.322 134.694C108.414 134.612 108.507 134.53 108.602 134.449C108.507 134.53 108.413 134.612 108.321 134.694ZM88.1748 51C105.213 51 115 62.8168 115 78.6602C115 99.2303 100.233 117 78.9131 117C61.787 117 52.0001 105.183 52 89.3398C52 68.7696 66.767 51 88.1748 51ZM88 56.5146C70.7864 56.5146 57.7666 70.8703 57.7666 89.3398C57.7667 102.557 65.9805 111.485 79.0869 111.485C96.2131 111.485 109.233 97.1297 109.233 78.6602C109.233 65.4428 101.019 56.5146 88 56.5146ZM143.183 89.8047C143.05 89.9035 142.92 90.0063 142.791 90.1113C142.928 90 143.066 89.8915 143.207 89.7871L143.183 89.8047ZM143.982 89.2598C143.94 89.2858 143.899 89.3132 143.857 89.3398C143.899 89.3133 143.941 89.2867 143.982 89.2607C144.025 89.2343 144.068 89.2085 144.111 89.1826C144.068 89.2084 144.025 89.2334 143.982 89.2598ZM154.44 88.0674L154.837 88.1689L154.439 88.0664C154.281 88.0273 154.123 87.9908 153.967 87.9561C154.124 87.9909 154.282 88.0282 154.44 88.0674ZM27.2773 28.0098L16.5635 46.5654C18.1371 46.7062 20.0431 47.0227 21.8936 47.5186C27.3037 48.9683 31.3525 51.9271 33.6475 56.0205C35.9417 60.1129 36.4513 65.2828 34.8936 71.0967C33.3775 76.7545 30.2117 80.8856 26.1074 83.25C22.0045 85.6135 17.0011 86.1899 11.8496 84.8096C8.80305 83.9932 6.39793 82.7183 5.13281 81.8438L4.86523 81.6582L4.9541 81.3447L6.29688 76.5527L6.81934 76.8975C7.77819 77.5305 9.94366 78.716 12.5527 79.4893L13.0801 79.6387C16.9875 80.6856 20.5242 80.2353 23.3525 78.5244C26.1833 76.8117 28.3569 73.804 29.4717 69.6436C30.6285 65.3259 30.3523 61.6135 28.7988 58.7197C27.2479 55.8311 24.3859 53.6873 20.2285 52.5732C17.368 51.8068 14.7873 51.5763 13.2158 51.6553L12.5898 51.6865L12.8369 50.7549L9.90918 49.0645L23.3682 25.7529L27.2773 28.0098ZM13.3604 84.6943C13.3932 84.7009 13.4262 84.7065 13.459 84.7129C13.2771 84.6775 13.0946 84.64 12.9121 84.5996L13.3604 84.6943ZM155.04 83.6777C154.93 83.6513 154.82 83.6243 154.71 83.5996L154.695 83.5967C154.81 83.6224 154.925 83.6501 155.04 83.6777ZM141.413 29.834L143.853 34.1729L143.239 34.2979C142.039 34.5436 139.422 35.3158 136.874 36.7871C133.371 38.8099 131.189 41.6291 130.398 44.8389C129.608 48.0516 130.198 51.7152 132.352 55.4453C134.587 59.3161 137.406 61.7456 140.551 62.6934C143.69 63.6394 147.229 63.1315 150.957 60.9795C153.522 59.4987 155.51 57.837 156.565 56.6699L156.985 56.2051L157.467 57.0391L160.736 56.1641L167.703 82.165L163.343 83.333L157.797 62.6348C156.585 63.6481 155.014 64.7734 153.354 65.7314C148.504 68.5319 143.549 69.3029 139.031 68.0312C134.515 66.7598 130.499 63.4645 127.489 58.252C124.561 53.1792 123.878 48.0194 125.108 43.4453C126.338 38.8727 129.469 34.9275 134.088 32.2607C136.819 30.6837 139.422 29.8846 140.935 29.6084L141.255 29.5508L141.413 29.834ZM29.1143 72.1396C29.1289 72.1038 29.1447 72.0683 29.1592 72.0322L29.1699 72.0039C29.1517 72.0494 29.1328 72.0945 29.1143 72.1396ZM30.1162 68.9443L30.2061 68.54C30.2315 68.4199 30.2542 68.2999 30.2773 68.1807C30.2283 68.4331 30.1754 68.6878 30.1162 68.9443ZM30.5205 66.6172C30.5222 66.6025 30.5247 66.5879 30.5264 66.5732L30.5312 66.5225C30.5278 66.554 30.5241 66.5856 30.5205 66.6172ZM149.024 62.4521C149.036 62.4474 149.047 62.4432 149.059 62.4385L149.086 62.4268C149.066 62.4354 149.045 62.4436 149.024 62.4521ZM149.614 62.1904C149.782 62.1129 149.95 62.0342 150.118 61.9502L150.129 61.9443C149.957 62.0303 149.785 62.1112 149.614 62.1904ZM127.621 57.5566L127.885 58.0234L127.622 57.5566C127.494 57.3235 127.37 57.0906 127.252 56.8574L127.621 57.5566ZM124.991 48.4697C124.993 48.5328 124.997 48.5959 125 48.6592C124.995 48.5493 124.991 48.4396 124.988 48.3301L124.991 48.4697ZM83.334 4.36035L62.6357 9.90527C63.649 11.1176 64.7725 12.6894 65.7305 14.3486C68.531 19.1993 69.303 24.1546 68.0312 28.6719C66.7598 33.1879 63.4635 37.2034 58.251 40.2129C53.1783 43.1416 48.0184 43.825 43.4443 42.5947C38.8719 41.3647 34.9264 38.2339 32.2598 33.6152C30.6828 30.8838 29.8846 28.2815 29.6084 26.7686L29.5498 26.4482L29.834 26.2891L34.1719 23.8506L34.2979 24.4639C34.5283 25.5896 35.2206 27.9591 36.5186 30.3506L36.7861 30.8291C38.8089 34.3326 41.6289 36.5146 44.8389 37.3047C48.0515 38.0952 51.7143 37.505 55.4443 35.3516C59.3153 33.1166 61.7456 30.297 62.6934 27.1523C63.6394 24.013 63.1315 20.4727 60.9795 16.7451C59.4988 14.1806 57.8369 12.193 56.6699 11.1377L56.2051 10.7168L57.04 10.2344L56.165 6.9668L82.166 0L83.334 4.36035ZM128.787 37.2959C128.765 37.3228 128.743 37.3499 128.722 37.377C128.802 37.2774 128.883 37.1783 128.966 37.0801L128.787 37.2959ZM129.282 36.7129C129.293 36.7005 129.305 36.6891 129.316 36.6768L129.427 36.5547C129.379 36.6076 129.33 36.6596 129.282 36.7129ZM86.3594 4.95215L91.1514 6.2959L90.8057 6.81836C90.1303 7.8414 88.8269 10.2371 88.0654 13.0791C87.0185 16.9866 87.4687 20.5232 89.1797 23.3516C90.8924 26.1823 93.9002 28.3549 98.0605 29.4697C102.378 30.6265 106.09 30.3511 108.983 28.7979C111.872 27.2469 114.017 24.385 115.131 20.2275C115.897 17.3671 116.128 14.7864 116.049 13.2148L116.018 12.5889L116.946 12.8369L118.639 9.9082L141.951 23.3672L139.694 27.2754L121.137 16.5615C120.996 18.1351 120.681 20.041 120.186 21.8916C118.736 27.3019 115.777 31.3515 111.684 33.6465C107.591 35.9407 102.421 36.4503 96.6074 34.8926C90.9495 33.3765 86.8175 30.2108 84.4531 26.1064C82.0897 22.0035 81.5143 17 82.8945 11.8486C83.7109 8.80207 84.9858 6.39697 85.8604 5.13184L86.0459 4.86426L86.3594 4.95215ZM104.644 35.2676C104.68 35.2647 104.716 35.2629 104.752 35.2598C104.906 35.2464 105.059 35.2309 105.212 35.2139C105.024 35.2349 104.834 35.2523 104.644 35.2676ZM32.374 32.8857L32.6553 33.3867C32.531 33.1715 32.4133 32.9562 32.2988 32.7432C32.3241 32.7902 32.3483 32.8386 32.374 32.8857ZM133.646 33.0596C133.574 33.104 133.505 33.1504 133.435 33.1953C133.587 33.0976 133.74 32.9991 133.896 32.9043L133.646 33.0596ZM30.1729 27.2451C30.1768 27.2623 30.1815 27.2795 30.1855 27.2969C30.1344 27.0774 30.0916 26.8737 30.0576 26.6875L30.1729 27.2451ZM62.0488 17.7891C62.016 17.7213 61.9841 17.6528 61.9502 17.585L61.9443 17.5742C61.9801 17.6457 62.0142 17.7177 62.0488 17.7891Z" fill="#184BFF"/>
</svg>
