<svg width="168" height="169" viewBox="0 0 168 169" fill="none" xmlns="http://www.w3.org/2000/svg">
<path d="M108.909 128.852C114.122 125.842 119.248 124.996 123.795 126.153C128.343 127.311 132.248 130.456 135.049 135.307C136.54 137.89 137.647 140.716 138.002 142.367L138.072 142.692L133.431 145.372L133.299 144.76C132.968 143.221 132.078 140.787 130.598 138.223C128.446 134.495 125.633 132.287 122.441 131.536C119.244 130.785 115.588 131.478 111.717 133.713C107.987 135.866 105.643 138.743 104.722 141.921C103.801 145.096 104.282 148.629 106.305 152.133C107.67 154.497 109.388 156.367 110.361 157.274L110.372 157.272L110.376 157.289C110.446 157.354 110.511 157.416 110.572 157.471L111.04 157.886L110.604 158.143L111.54 161.633L85.5391 168.6L84.3711 164.239L104.637 158.809C103.678 157.747 102.6 156.344 101.628 154.66C98.9612 150.041 98.2232 145.058 99.4443 140.483C100.666 135.907 103.837 131.78 108.909 128.852ZM55.4658 135.185C59.5655 132.812 64.726 132.136 70.3838 133.652C76.1975 135.21 80.4204 138.237 82.8174 142.27C85.2149 146.304 85.7524 151.29 84.3027 156.7C83.5305 159.582 82.3154 162.363 81.3984 163.781L81.2188 164.061L76.042 162.674L76.3809 162.146C77.235 160.825 78.3263 158.475 79.0928 155.614C80.2067 151.457 79.7809 147.907 78.0547 145.119C76.3254 142.327 73.2489 140.232 68.9316 139.075C64.7713 137.96 61.0802 138.338 58.1816 139.933C55.2854 141.527 53.1263 144.365 52.0791 148.272C51.3724 150.91 51.2651 153.448 51.3115 154.777L51.3223 154.784L51.3125 154.801C51.316 154.895 51.3183 154.984 51.3232 155.065L51.3604 155.69L50.8711 155.564L49.0654 158.692L25.7539 145.233L28.0107 141.325L46.1797 151.814C46.2529 150.386 46.483 148.631 46.9863 146.753C48.3667 141.601 51.3674 137.556 55.4658 135.185ZM83.8623 156.582L83.9902 156.085L84.0693 155.746C84.0052 156.023 83.9373 156.302 83.8623 156.582ZM108.297 155.747C108.33 155.786 108.364 155.825 108.396 155.863C108.266 155.71 108.134 155.552 108 155.387L108.297 155.747ZM83.6748 145.154C83.6697 145.14 83.6653 145.126 83.6602 145.111L83.5898 144.928C83.6183 145.003 83.6475 145.078 83.6748 145.154ZM141.374 85.7822C145.408 83.3849 150.395 82.8473 155.805 84.2969C158.686 85.069 161.466 86.2842 162.885 87.2012L163.165 87.3818L161.777 92.5586L161.251 92.2188C159.93 91.3646 157.579 90.2733 154.719 89.5068C150.561 88.393 147.011 88.8189 144.224 90.5449C141.431 92.2743 139.336 95.3513 138.179 99.6689C137.064 103.829 137.442 107.52 139.037 110.419C140.631 113.315 143.469 115.473 147.377 116.521C150.014 117.227 152.551 117.333 153.881 117.287L153.887 117.279L153.9 117.287C153.996 117.284 154.086 117.282 154.169 117.277L154.794 117.24L154.668 117.729L157.795 119.536L144.336 142.848L140.428 140.591L150.917 122.42C149.489 122.347 147.735 122.117 145.857 121.614C140.706 120.234 136.66 117.233 134.288 113.135C131.916 109.035 131.241 103.874 132.757 98.2158C134.315 92.4022 137.341 88.1791 141.374 85.7822ZM82.0303 141.876C82.0143 141.852 81.9995 141.827 81.9834 141.803L81.9678 141.78C81.989 141.812 82.0093 141.844 82.0303 141.876ZM9.79004 105.533C10.852 104.575 12.2559 103.497 13.9404 102.524C18.5593 99.8577 23.5422 99.1197 28.1172 100.341C32.6934 101.562 36.8204 104.733 39.749 109.806C42.7585 115.018 43.6042 120.145 42.4473 124.691C41.2899 129.239 38.1445 133.145 33.2939 135.945C30.7103 137.437 27.8849 138.544 26.2334 138.898L25.9082 138.969L23.2285 134.327L23.8408 134.195C25.3792 133.865 27.8131 132.975 30.3779 131.494L30.7227 131.29C34.2418 129.165 36.3375 126.43 37.0645 123.338C37.8159 120.141 37.1224 116.484 34.8877 112.613C32.7341 108.883 29.8572 106.54 26.6797 105.618C23.5046 104.697 19.9715 105.178 16.4678 107.201C14.103 108.566 12.2315 110.284 11.3242 111.257L11.3271 111.269L11.3096 111.272C11.2448 111.342 11.1844 111.407 11.1299 111.469L10.7139 111.938L10.4551 111.502L6.9668 112.438L0 86.4365L4.36035 85.2686L9.79004 105.533ZM136.206 138.604C136.181 138.546 136.156 138.488 136.13 138.43C136.044 138.237 135.953 138.044 135.861 137.849C135.981 138.103 136.096 138.355 136.206 138.604ZM135.817 137.757C135.772 137.662 135.728 137.567 135.682 137.472C135.603 137.31 135.523 137.148 135.44 136.986H135.439C135.57 137.244 135.696 137.501 135.817 137.757ZM108.321 135.592C108.23 135.674 108.14 135.757 108.052 135.84L108.322 135.592C108.414 135.51 108.507 135.428 108.602 135.347C108.507 135.428 108.413 135.509 108.321 135.592ZM90.9121 47.1689C111.544 47.1689 123.868 60.1324 123.868 77.6602C123.868 87.702 118.299 98.6562 108.805 105.32H98.4893C110.266 100.117 117.66 88.5235 117.66 77.6602C117.66 63.4189 107.892 53.1943 90.9121 53.1943C67.7245 53.1945 52.2051 70.5394 52.2051 91.3535C52.2052 110.981 63.5254 121.114 82.3311 121.114C88.8126 121.114 94.0164 120.293 97.668 119.015L96.2988 125.404C92.8298 126.408 87.8996 127.048 81.9658 127.048C60.0563 127.048 45.9972 114.267 45.9971 91.3535C45.9971 67.4355 64.0729 47.1691 90.9121 47.1689ZM87.0977 67.9912C92.9014 68.1604 96.818 70.9216 98.7637 74.2822L99.8584 68.9873H106.522L98.4893 105.32H91.916L93.9248 95.918L88.8125 104.043C87.6255 104.956 84.0654 106.325 80.9619 106.325C71.4678 106.325 65.5332 100.482 65.5332 90.8965C65.5333 78.8463 74.6627 67.9835 86.5303 67.9834L87.0977 67.9912ZM86.8955 73.8252C78.7707 73.8253 72.2891 81.4941 72.2891 90.623C72.2891 97.1045 76.3059 100.482 81.9658 100.482C89.9993 100.482 96.207 91.8097 96.207 82.8633C96.207 77.4772 92.8294 73.8252 86.8955 73.8252ZM143.183 90.7021C143.05 90.8009 142.92 90.9038 142.791 91.0088C142.928 90.8974 143.066 90.7889 143.207 90.6846L143.183 90.7021ZM137.742 89.4072C137.735 89.4155 137.728 89.4243 137.721 89.4326C137.755 89.3932 137.79 89.3545 137.825 89.3154L137.742 89.4072ZM154.44 88.9648L154.837 89.0664L154.439 88.9639C154.281 88.9248 154.123 88.8882 153.967 88.8535C154.124 88.8883 154.282 88.9256 154.44 88.9648ZM27.2773 28.9072L16.5635 47.4629C18.1371 47.6037 20.0431 47.9202 21.8936 48.416C27.3037 49.8657 31.3525 52.8246 33.6475 56.918C35.9417 61.0103 36.4513 66.1803 34.8936 71.9941C33.3775 77.652 30.2117 81.7831 26.1074 84.1475C22.0045 86.511 17.0011 87.0873 11.8496 85.707C8.80305 84.8907 6.39793 83.6157 5.13281 82.7412L4.86523 82.5557L4.9541 82.2422L6.29688 77.4502L6.81934 77.7949C7.77819 78.428 9.94366 79.6134 12.5527 80.3867L13.0801 80.5361C16.9875 81.583 20.5242 81.1327 23.3525 79.4219C26.1833 77.7092 28.3569 74.7014 29.4717 70.541C30.6285 66.2234 30.3523 62.511 28.7988 59.6172C27.2479 56.7286 24.3859 54.5847 20.2285 53.4707C17.368 52.7042 14.7873 52.4737 13.2158 52.5527L12.5898 52.584L12.8369 51.6523L9.90918 49.9619L23.3682 26.6504L27.2773 28.9072ZM13.3604 85.5918C13.3932 85.5983 13.4262 85.604 13.459 85.6104C13.2771 85.575 13.0946 85.5375 12.9121 85.4971L13.3604 85.5918ZM10.9092 84.9561L11.4141 85.1104C11.238 85.0587 11.0646 85.0046 10.8936 84.9502C10.8988 84.9519 10.9039 84.9544 10.9092 84.9561ZM155.04 84.5752C154.93 84.5488 154.82 84.5218 154.71 84.4971L154.695 84.4941C154.81 84.5199 154.925 84.5476 155.04 84.5752ZM141.413 30.7314L143.853 35.0703L143.239 35.1953C142.039 35.4411 139.422 36.2133 136.874 37.6846C133.371 39.7073 131.189 42.5265 130.398 45.7363C129.608 48.949 130.198 52.6127 132.352 56.3428C134.587 60.2136 137.406 62.6431 140.551 63.5908C143.69 64.5368 147.229 64.029 150.957 61.877C153.522 60.3962 155.51 58.7345 156.565 57.5674L156.985 57.1025L157.467 57.9365L160.736 57.0615L167.703 83.0625L163.343 84.2305L157.797 63.5322C156.585 64.5455 155.014 65.6708 153.354 66.6289C148.504 69.4294 143.549 70.2004 139.031 68.9287C134.515 67.6573 130.499 64.3619 127.489 59.1494C124.561 54.0766 123.878 48.9169 125.108 44.3428C126.338 39.7701 129.469 35.8249 134.088 33.1582C136.819 31.5812 139.422 30.7821 140.935 30.5059L141.255 30.4482L141.413 30.7314ZM7.80957 83.7344C7.83859 83.7482 7.86812 83.7615 7.89746 83.7754C7.81481 83.7364 7.73342 83.6972 7.65332 83.6582L7.80957 83.7344ZM29.1143 73.0371C29.1289 73.0013 29.1447 72.9657 29.1592 72.9297L29.1699 72.9014C29.1517 72.9469 29.1328 72.992 29.1143 73.0371ZM30.1143 69.8477L30.1162 69.8418C30.1711 69.6039 30.2194 69.3672 30.2656 69.1328C30.219 69.3692 30.1697 69.6077 30.1143 69.8477ZM149.024 63.3496C149.036 63.3449 149.047 63.3407 149.059 63.3359L149.086 63.3242C149.066 63.3329 149.045 63.341 149.024 63.3496ZM149.614 63.0879C149.782 63.0104 149.95 62.9316 150.118 62.8477L150.129 62.8418C149.957 62.9277 149.785 63.0087 149.614 63.0879ZM127.621 58.4541L127.885 58.9209L127.622 58.4541C127.494 58.221 127.37 57.988 127.252 57.7549L127.621 58.4541ZM124.991 49.3672C124.993 49.4303 124.997 49.4934 125 49.5566C124.995 49.4467 124.991 49.3371 124.988 49.2275L124.991 49.3672ZM83.334 5.25781L62.6357 10.8027C63.649 12.015 64.7725 13.5868 65.7305 15.2461C68.531 20.0968 69.303 25.052 68.0312 29.5693C66.7598 34.0854 63.4635 38.1009 58.251 41.1104C53.1783 44.039 48.0184 44.7225 43.4443 43.4922C38.8719 42.2621 34.9264 39.1314 32.2598 34.5127C30.6828 31.7812 29.8846 29.179 29.6084 27.666L29.5498 27.3457L29.834 27.1865L34.1719 24.748L34.2979 25.3613C34.5283 26.487 35.2206 28.8566 36.5186 31.248L36.7861 31.7266C38.8089 35.23 41.6289 37.412 44.8389 38.2021C48.0515 38.9927 51.7143 38.4025 55.4443 36.249C59.3153 34.0141 61.7456 31.1944 62.6934 28.0498C63.6394 24.9105 63.1315 21.3702 60.9795 17.6426C59.4988 15.0781 57.8369 13.0905 56.6699 12.0352L56.2051 11.6143L57.04 11.1318L56.165 7.86426L82.166 0.897461L83.334 5.25781ZM128.787 38.1934C128.765 38.2203 128.743 38.2474 128.722 38.2744C128.802 38.1749 128.883 38.0757 128.966 37.9775L128.787 38.1934ZM86.3594 5.84961L91.1514 7.19336L90.8057 7.71582C90.1303 8.73886 88.8269 11.1346 88.0654 13.9766C87.0185 17.8841 87.4687 21.4206 89.1797 24.249C90.8924 27.0798 93.9002 29.2524 98.0605 30.3672C102.378 31.524 106.09 31.2486 108.983 29.6953C111.872 28.1444 114.017 25.2825 115.131 21.125C115.897 18.2645 116.128 15.6838 116.049 14.1123L116.018 13.4863L116.946 13.7344L118.639 10.8057L141.951 24.2646L139.694 28.1729L121.137 17.459C120.996 19.0326 120.681 20.9385 120.186 22.7891C118.736 28.1993 115.777 32.249 111.684 34.5439C107.591 36.8382 102.421 37.3478 96.6074 35.79C90.9495 34.274 86.8175 31.1082 84.4531 27.0039C82.0897 22.901 81.5143 17.8975 82.8945 12.7461C83.7109 9.69953 84.9858 7.29444 85.8604 6.0293L86.0459 5.76172L86.3594 5.84961ZM104.685 36.1621C104.707 36.1602 104.73 36.1592 104.752 36.1572C104.906 36.1438 105.059 36.1284 105.212 36.1113C105.037 36.1308 104.861 36.1474 104.685 36.1621ZM32.374 33.7832L32.6553 34.2842C32.531 34.069 32.4133 33.8536 32.2988 33.6406C32.3241 33.6877 32.3483 33.736 32.374 33.7832ZM133.646 33.957C133.574 34.0014 133.505 34.0478 133.435 34.0928C133.587 33.9951 133.74 33.8966 133.896 33.8018L133.646 33.957ZM88.9336 31.5146C88.9686 31.5428 89.0047 31.5697 89.04 31.5977C89 31.566 88.9596 31.5349 88.9199 31.5029L88.9336 31.5146ZM30.1729 28.1426C30.1768 28.1598 30.1815 28.1769 30.1855 28.1943C30.1344 27.9749 30.0916 27.7711 30.0576 27.585L30.1729 28.1426ZM62.0488 18.6865C62.016 18.6188 61.9841 18.5502 61.9502 18.4824L61.9443 18.4717C61.9801 18.5432 62.0142 18.6152 62.0488 18.6865Z" fill="#184BFF"/>
</svg>
