<svg width="182" height="151" viewBox="0 0 182 151" fill="none" xmlns="http://www.w3.org/2000/svg">
<path d="M87.076 66.1237L87.5409 88.8455L78.1588 86.3316L49.1826 137.546L58.8811 140.145L87.4562 89.1618L88.6089 148.111L98.3073 150.709L96.5636 68.6659L87.076 66.1237Z" fill="#184BFF"/>
<path d="M160.749 106.275C168.061 93.5056 174.063 75.3889 174.063 53.3433C174.063 31.2978 168.061 13.1811 160.749 0.412109H168.061C176.246 14.709 181.484 34.1353 181.484 53.3433C181.484 72.5514 176.246 91.9777 168.061 106.275H160.749Z" fill="#184BFF"/>
<path d="M132.693 98.6346C138.96 87.6898 144.105 72.1612 144.105 53.265C144.105 34.3688 138.96 18.8402 132.693 7.89539H138.96C145.976 20.1499 150.467 36.801 150.467 53.265C150.467 69.729 145.976 86.3801 138.96 98.6346H132.693Z" fill="#184BFF"/>
<path d="M113.364 83.3557C117.542 76.0592 120.972 65.7068 120.972 53.1093C120.972 40.5119 117.542 30.1595 113.364 22.8629H117.542C122.219 31.0326 125.213 42.1333 125.213 53.1093C125.213 64.0854 122.219 75.1861 117.542 83.3557H113.364Z" fill="#184BFF"/>
<path d="M63.9373 83.3557C59.2601 75.1861 56.2666 64.0854 56.2666 53.1093C56.2666 42.1333 59.2601 31.0326 63.9373 22.8629H68.1157C63.9373 30.1595 60.5073 40.5119 60.5073 53.1093C60.5073 65.7068 63.9373 76.0592 68.1157 83.3557H63.9373Z" fill="#184BFF"/>
<path d="M42.5232 98.6347C35.5073 86.3803 31.0171 69.7291 31.0171 53.2651C31.0171 36.8011 35.5073 20.15 42.5232 7.89551H48.7908C42.5232 18.8403 37.3782 34.3689 37.3782 53.2651C37.3782 72.1613 42.5232 87.6899 48.7908 98.6347H42.5232Z" fill="#184BFF"/>
<path d="M13.4238 106.275C5.23855 91.9777 0 72.5514 0 53.3433C0 34.1353 5.23855 14.709 13.4238 0.412109H20.7359C13.4238 13.1811 7.42128 31.2978 7.42128 53.3433C7.42128 75.3889 13.4238 93.5056 20.7359 106.275H13.4238Z" fill="#184BFF"/>
</svg>
