<svg width="146" height="121" viewBox="0 0 146 121" fill="none" xmlns="http://www.w3.org/2000/svg">
<path d="M9.59961 61.1846C7.19963 73.4845 11.3998 79.9351 23.8496 82.7852L63.9004 91.6348L72.75 118.185L82.3496 95.6846L118.65 103.935C130.8 106.634 137.7 103.635 136.65 89.3848L145.2 91.335C145.35 92.3848 145.5 93.5848 145.5 95.9844C145.5 109.034 135.6 117.585 117.75 113.535L87.75 106.785L81.4502 120.285L62.8496 116.234L57.1504 100.035L21 92.085C6.6 88.935 1.27e-07 79.3346 0 68.6846C1.81503e-05 65.3846 0.450211 61.7847 1.2002 59.3848L9.59961 61.1846ZM75.75 67.0098H32.25V56.21H75.75V67.0098ZM110.68 41.9092H32.6797V31.1094H110.68V41.9092ZM145.5 26.7002H137.7V8.09961H7.7998V26.7002H0V0H145.5V26.7002Z" fill="#184BFF"/>
</svg>
