<svg width="150" height="142" viewBox="0 0 150 142" fill="none" xmlns="http://www.w3.org/2000/svg">
<path d="M145.168 141.412L3.3418 109.976L3.34179 83.9504L10.9449 85.5587L10.9449 103.689L137.565 131.762L137.565 113.632L145.168 115.386L145.168 141.412Z" fill="#184BFF"/>
<path d="M41.8921 85.6605H54.6733V88.6312H41.8921V101.469H38.8647V88.6312H26.0835V85.6605H38.8647V72.8793H41.8921V85.6605ZM76.8354 85.6605H89.6167V88.6312H76.8354V101.469H73.8081V88.6312H61.0269V85.6605H73.8081V72.8793H76.8354V85.6605ZM111.779 85.6605H124.56V88.6312H111.779V101.469H108.751V88.6312H95.9702V85.6605H108.751V72.8793H111.779V85.6605ZM41.8921 53.8939H54.6733V56.8646H41.8921V69.7025H38.8647V56.8646H26.0835V53.8939H38.8647V41.1127H41.8921V53.8939ZM76.8354 53.8939H89.6167V56.8646H76.8354V69.7025H73.8081V56.8646H61.0269V53.8939H73.8081V41.1127H76.8354V53.8939ZM111.779 53.8939H124.56V56.8646H111.779V69.7025H108.751V56.8646H95.9702V53.8939H108.751V41.1127H111.779V53.8939Z" fill="#184BFF"/>
<path d="M4.57764e-05 24.5596L149.302 24.5596L149.302 32.9777L4.54084e-05 32.9777L4.57764e-05 24.5596Z" fill="#184BFF"/>
<path d="M4.57764e-05 7.08788L149.302 7.08789L149.302 15.506L4.54084e-05 15.506L4.57764e-05 7.08788Z" fill="#184BFF"/>
<path d="M23.8241 0.734375H26.2065V21.3826H23.8241V0.734375Z" fill="#184BFF"/>
<path d="M122.3 0.734375H124.682V21.3826H122.3V0.734375Z" fill="#184BFF"/>
</svg>
