<svg width="146" height="166" viewBox="0 0 146 166" fill="none" xmlns="http://www.w3.org/2000/svg">
<path d="M11.7002 79.6816V97.6816L133.8 124.682V106.682L145.5 109.382V139.982L89.8643 127.593L106.807 165.539H92.7344L75.1074 124.307L74.8223 124.243L57.3223 165.539H43.25L61.8066 123.632H72.0742L0 107.582V76.9824L11.7002 79.6816ZM115.962 78.1719L109.636 84.5801L109.554 62.1494L112.512 54.5908L79.4814 87.6201L79.4277 87.5664L79.2451 87.749L53.2148 61.7188L27.1826 87.751L23 83.5684L53.2109 53.3574L53.2129 53.3584L53.2168 53.3555L78.6289 78.7666L107.417 49.9072L100.187 52.7832L77.6738 52.6182L84.083 46.292H115.962V78.1719ZM84.9668 7.79883C107.401 13.3219 128.104 23.8321 145 37.416V47.4932C126.347 32.6693 105.45 21.9703 83.043 16.5674L81.2812 24.6006H75.25L76.4102 15.1328C67.6481 13.4522 58.6718 12.5771 49.5234 12.5771C32.8576 12.5772 19.4401 14.9904 8 18.6807V10.0225C21.2762 5.76441 35.1174 3.49318 49.9473 3.49316C59.2842 3.49316 68.5142 4.42213 77.5098 6.16016L78.1885 0.631836H86.5391L84.9668 7.79883Z" fill="#184BFF"/>
</svg>
