<svg width="193" height="137" viewBox="0 0 193 137" fill="none" xmlns="http://www.w3.org/2000/svg">
<path d="M116.346 70.0127C117.634 74.0051 118.792 81.6038 118.792 89.2021C118.792 101.515 115.337 111.979 108.926 119.876C110.545 120.626 112.305 121.261 114.199 121.769C134.302 127.155 152.765 117.169 157.725 98.6582C159.511 91.9905 159.431 86.3156 158.938 82.9834L167.704 83.3057C168.152 86.4122 168.263 93.1625 166.156 101.024C159.73 125.008 136.129 137.457 111.349 130.817C107.764 129.857 104.524 128.501 101.662 126.808C93.5907 132.769 82.8789 136.08 69.9824 136.08C40.3615 136.08 21.6875 115.99 21.6875 89.0732C21.6875 81.0888 23.2327 74.3922 24.5205 70.7861L35.7246 70.9141C34.6943 74.0049 33.0206 80.9595 33.0205 88.6865C33.0205 110.065 47.316 123.975 69.9824 123.975C78.923 123.975 86.4939 122.098 92.4414 118.521C87.1886 111.286 85.5265 101.79 88.3193 91.3672C89.7592 85.9935 92.0882 81.2849 93.75 79.0635L103.141 79.4463C100.967 82.3837 98.7518 86.2698 97.2852 91.7432C95.0588 100.052 96.0322 107.09 99.7041 112.394C104.741 106.474 107.459 98.3994 107.459 88.4297C107.459 80.7025 106.3 74.0051 105.012 70.0127H116.346ZM99.8604 0.339844C120.668 0.339875 135.786 8.96043 143.304 23.4229C144.751 23.2666 146.241 23.1865 147.771 23.1865C173.424 23.1867 193 41.3197 193 66.1494C193 74.2887 191.146 80.7802 189.909 83.665L181.357 81.707C182.697 78.6162 184.242 73.1558 184.242 66.2529C184.242 47.0896 168.994 32.6652 148.183 32.665C147.738 32.665 147.298 32.6736 146.863 32.6895C148.053 37.1685 148.67 42.0292 148.67 47.2188C148.67 54.8168 147.511 62.4148 146.224 66.4072H134.89C136.177 62.4149 137.337 55.7183 137.337 47.9912C137.337 43.3783 136.756 39.1706 135.632 35.3945C128.308 39.1384 124.073 46.6372 124.073 57.2891C124.073 62.9554 125.207 67.2827 126.546 70.6826L117.377 68.6221C116.347 66.0463 115.316 60.8953 115.316 55.332C115.316 42.0253 121.492 31.8302 131.638 26.752C125.461 17.4656 114.493 12.4463 99.8604 12.4463C77.194 12.4463 62.8985 26.3549 62.8984 47.7334C62.8984 55.4606 64.5732 62.415 65.6035 65.5059L54.3984 65.6348C54.285 65.317 54.1709 64.9748 54.0547 64.6104L49.8408 65.5576C50.8453 63.0077 51.6953 59.7624 51.6953 55.5127C51.6953 43.6901 44.7404 37.0449 33.6133 37.0449C18.0044 37.0449 6.56836 47.8628 6.56836 62.2354C6.56839 67.4125 7.72692 71.508 8.73145 73.8262L2.31836 75.2939C1.39112 73.1304 5.15463e-05 68.2625 0 62.1582C-8.14009e-07 43.5358 14.6814 29.9358 33.9219 29.9355C41.716 29.9355 48.1525 32.6948 52.4453 37.4951C56.4613 15.6733 73.9833 0.339845 99.8604 0.339844Z" fill="#184BFF"/>
</svg>
