<svg width="188" height="114" viewBox="0 0 188 114" fill="none" xmlns="http://www.w3.org/2000/svg">
<path d="M3.05859 95.428C7.24847 91.2381 13.9146 91.2381 18.1045 95.428C22.2943 99.6178 22.2942 106.283 18.1045 110.473C14.0098 114.568 7.34418 114.568 3.1543 110.378C-1.03549 106.188 -1.03578 99.5227 3.05859 95.428ZM127.627 92.0598C131.817 87.87 138.483 87.8701 142.673 92.0598C146.863 96.2497 146.863 102.916 142.673 107.106C138.578 111.2 131.913 111.2 127.723 107.01C123.533 102.82 123.532 96.1544 127.627 92.0598ZM124.705 82.4241L116.325 90.803L79.5684 31.3831L86.7109 24.2415L124.705 82.4241ZM63.4316 31.8176L25.4365 90.0002L18.2949 82.8586L55.0518 23.4377L63.4316 31.8176ZM188 28.4504L150.005 86.6321L142.863 79.4905L179.62 20.0706L188 28.4504ZM64.4277 3.86353C68.6175 -0.326221 75.2832 -0.326442 79.3779 3.76782C83.5678 7.9577 83.5678 14.6238 79.3779 18.8137C75.1881 23.0033 68.5228 23.0034 64.333 18.8137C60.2384 14.7192 60.2381 8.05342 64.4277 3.86353Z" fill="#184BFF"/>
</svg>
