<svg width="125" height="142" viewBox="0 0 125 142" fill="none" xmlns="http://www.w3.org/2000/svg">
<path d="M9.90039 0.0800781L41.25 141.08H31.3506L0 0.0800781H9.90039ZM124.551 39.2793V57.0801L66.3506 55.9795L52.3506 55.6797L66.3506 61.5801L124.551 86.2793V103.779L52.1504 100.08V90.9795L110.351 94.3799L124.351 95.2793L52.1504 64.7803V46.8799L110.351 48.0801L124.351 48.3799L110.351 42.8799L52.1504 20.4795V10.8799L124.551 39.2793ZM19.9404 13.7285C29.3934 23.0799 37.5796 37.0345 41.5713 51.9316C45.563 66.8288 45.4512 83.007 41.9404 95.832L36.1504 97.3838C39.2873 85.9291 40.2756 70.6045 35.6943 53.5068C31.113 36.4091 22.5943 23.632 14.1504 15.2803L19.9404 13.7285Z" fill="#184BFF"/>
</svg>
