<svg width="167" height="138" viewBox="0 0 167 138" fill="none" xmlns="http://www.w3.org/2000/svg">
<path d="M12.1973 112.091C14.7099 112.091 16.6294 112.594 18.1826 113.051V116.797C17.0862 116.386 14.9844 115.837 12.7002 115.837C6.80697 115.837 4.11133 119.766 4.11133 124.7C4.11139 129.634 6.85254 133.562 12.6084 133.562C15.2581 133.562 17.5427 132.831 18.3193 132.466V136.212C17.0859 136.623 14.8471 137.309 12.0146 137.309C4.84245 137.308 7.77317e-05 132.146 0 124.7C0 117.345 4.7053 112.091 12.1973 112.091ZM36.5469 136.486H23.2988V133.197H36.5469V136.486ZM54.1699 136.486H40.9219V133.197H54.1699V136.486ZM71.792 136.486H58.5439V133.197H71.792V136.486ZM89.4141 136.486H76.166V133.197H89.4141V136.486ZM107.036 136.486H93.7881V133.197H107.036V136.486ZM123.376 136.48H115.096L158.495 28.8379H166.775L123.376 136.48ZM36.5469 126.208H23.2988V122.919H36.5469V126.208ZM54.1699 126.208H40.9219V122.919H54.1699V126.208ZM71.792 126.207H58.5439V122.918H71.792V126.207ZM89.4141 126.207H76.166V122.918H89.4141V126.207ZM107.036 126.207H93.7881V122.918H107.036V126.207ZM36.4561 116.568H23.208V113.279H36.4561V116.568ZM54.0781 116.568H40.8301V113.279H54.0781V116.568ZM71.7002 116.568H58.4521V113.279H71.7002V116.568ZM89.3223 116.568H76.0742V113.279H89.3223V116.568ZM106.944 116.568H93.6963V113.279H106.944V116.568ZM10.3076 107.929H2.02734L45.4268 0.286133H53.707L10.3076 107.929ZM110.812 107.929H102.532L145.932 0.285156H154.212L110.812 107.929ZM126.602 27.0391H120.72L116.608 11.6777L105.53 27.0391H99.0771L110.213 11.5635H122.433L126.602 27.0391ZM70.8105 5.14551H57.5625V1.85645H70.8105V5.14551ZM88.4326 5.14551H75.1846V1.85547H88.4326V5.14551ZM106.055 5.14551H92.8066V1.85547H106.055V5.14551ZM123.678 5.14551H110.429V1.85547H123.678V5.14551ZM141.299 5.14551H128.051V1.85645H141.299V5.14551Z" fill="#184BFF"/>
</svg>
