<svg width="171" height="171" viewBox="0 0 171 171" fill="none" xmlns="http://www.w3.org/2000/svg">
<path d="M20.1641 53.0381C47.4729 25.7292 84.6687 28.0841 112.023 53.1002L139.783 25.3407L137.235 2.78031H141.909L145.223 19.9007L164.978 0.145231L170.6 5.76687L151.256 25.1108L167.355 28.2265V32.9L145.89 30.4762L117.646 58.7205C142.696 86.0785 145.067 123.297 117.745 150.619C89.4606 178.903 50.5697 175.368 22.9925 147.79C-4.58465 120.213 -8.12018 81.3223 20.1641 53.0381ZM31.4778 64.3518C8.85039 86.9792 14.1537 115.617 34.6598 136.123C55.1659 156.629 83.8037 161.932 106.431 139.305C128.023 117.713 124.181 90.6491 105.967 70.3995L99.186 77.1805C112.849 93.4191 113.657 114.825 97.8043 130.678C80.8338 147.649 57.4996 145.528 40.9533 128.982C24.407 112.435 22.2854 89.1005 39.256 72.1299C55.3943 55.9916 77.2865 57.12 93.6245 71.4988L100.344 64.7792C80.0988 46.5957 53.0555 42.7741 31.4778 64.3518ZM46.0439 78.9179C32.4675 92.4943 35.6503 109.677 47.9539 121.981C60.2576 134.284 77.44 137.467 91.0163 123.89C103.389 111.517 101.842 96.15 92.1571 84.2095L84.9369 91.4297C90.5665 99.3213 90.4509 109.183 83.0262 116.607C74.5409 125.092 62.8735 124.032 54.6003 115.759C46.3272 107.485 45.2664 95.818 53.7517 87.3327C61.317 79.7674 71.4111 79.7912 79.3746 85.7487L86.6093 78.5139C74.5507 68.1776 58.7245 66.2373 46.0439 78.9179ZM167.355 42.7153V47.3888L143.208 44.6626V38.0417L167.355 42.7153ZM57.1456 90.7267C50.3574 97.5149 51.9488 106.106 58.1006 112.258C64.2525 118.41 72.8433 120.001 79.6315 113.213C85.2744 107.57 85.1275 100.681 81.3834 94.9832L70.8976 105.469L65.276 99.8473L75.8349 89.2883C70.051 85.2444 62.9413 84.931 57.1456 90.7267ZM127.421 2.781L132.094 26.9276H125.473L122.747 2.781H127.421Z" fill="#184BFF"/>
</svg>
