<svg width="162" height="162" viewBox="0 0 162 162" fill="none" xmlns="http://www.w3.org/2000/svg">
<path d="M120.299 6.77271C118.713 7.58506 116.677 8.89375 114.465 10.6321L148.515 44.6819L143.734 49.4622L109.412 15.1389C107.692 16.8757 106.242 18.6601 105.06 20.4797L123.618 39.0383L118.838 43.8186L102.007 26.9875C99.4686 35.5422 102.394 44.5029 110.54 52.6487C122.225 64.3331 136.764 64.5327 147.785 53.512C151.769 49.5285 154.49 45.0798 155.553 42.9553L161.395 48.6653C160.199 51.1882 157.544 55.4369 153.428 59.553C142.422 70.5585 127.575 73.2927 114.284 66.3342C121.381 79.5682 118.806 95.9017 107.354 107.355C95.4501 119.258 78.5605 121.564 65.1582 113.641C72.9148 127.225 70.3527 142.629 59.0215 153.96C54.9053 158.076 50.6556 160.732 48.1328 161.927L42.4238 156.084C44.5485 155.022 48.9964 152.3 52.9795 148.317C64.0001 137.296 63.8008 122.756 52.1162 111.072C43.9703 102.926 35.0098 100.001 26.4551 102.539L43.2861 119.371L38.5059 124.151L19.9473 105.592C18.1277 106.774 16.3432 108.224 14.6064 109.945L48.9297 144.267L44.1494 149.047L10.1006 114.998C8.36246 117.21 7.0535 119.245 6.24121 120.831L0.398438 114.989C1.79275 112.266 5.11246 107.752 9.0293 103.835C21.5458 91.3188 37.2794 89.4321 51.4268 99.05C44.7841 85.981 47.4087 70.1042 58.7559 58.7571C69.6405 47.8725 84.9332 45.0054 97.7842 50.8391C89.0075 36.9856 91.1153 21.7483 103.303 9.56079C107.22 5.64377 111.735 2.32412 114.457 0.929932L120.299 6.77271ZM24.0332 138.624L19.2529 143.405L0 124.151L4.78027 119.371L24.0332 138.624ZM102.308 63.802C96.2452 57.7396 88.1878 54.9701 80.0459 56.5452L93.0791 69.5784L88.2988 74.3586L72.9824 59.0413C71.0199 60.0645 69.0846 61.3639 67.2061 62.9583L98.7227 94.4749L93.9424 99.2551L62.4746 67.7864C60.9098 69.7104 59.6505 71.6854 58.6777 73.6829L73.8262 88.8313L69.0459 93.6116L56.3828 80.9485C55.1963 88.7584 58.0276 96.4028 63.8672 102.242C73.7593 112.135 88.8301 113.396 101.112 101.114C113.328 88.8977 112.2 73.6941 102.308 63.802ZM142.872 19.7854L138.092 24.5657L118.839 5.31274L123.618 0.532471L142.872 19.7854Z" fill="#184BFF"/>
</svg>
