<svg width="151" height="131" viewBox="0 0 151 131" fill="none" xmlns="http://www.w3.org/2000/svg">
<path d="M54.7734 130.744H49.7207V92.3389H54.7734V130.744ZM98.6807 130.744H93.6279V92.3389H98.6807V130.744ZM38.4062 130.4H31.5293L20.543 91.252L9.55566 130.4H2.67969L14.1895 91.1016H26.8955L38.4062 130.4ZM147.371 130.4H140.495L129.508 91.252L118.521 130.4H111.645L123.155 91.1016H135.861L147.371 130.4ZM20.5811 42.8711C33.0519 42.8711 41.0858 51.7689 41.0859 63.8604C41.0859 75.9519 33.052 84.8496 20.5811 84.8496C8.0337 84.8496 0 75.9519 0 63.8604C0.00011827 51.7689 8.03379 42.8711 20.5811 42.8711ZM75.0635 42.8711C87.5343 42.8711 95.5682 51.7689 95.5684 63.8604C95.5684 75.9519 87.5344 84.8496 75.0635 84.8496C62.5161 84.8496 54.4824 75.9519 54.4824 63.8604C54.4825 51.7689 62.5162 42.8712 75.0635 42.8711ZM129.546 42.8711C142.017 42.8711 150.051 51.7689 150.051 63.8604C150.051 75.9519 142.017 84.8496 129.546 84.8496C116.999 84.8495 108.965 75.9519 108.965 63.8604C108.965 51.769 116.999 42.8712 129.546 42.8711ZM20.5811 48.9551C11.5532 48.9551 6.88584 55.6474 6.88574 63.8604C6.88574 72.0735 11.5531 78.7656 20.5811 78.7656C29.5326 78.7656 34.1992 72.0735 34.1992 63.8604C34.1991 55.6473 29.5325 48.9551 20.5811 48.9551ZM75.0635 48.9551C66.0356 48.9551 61.3683 55.6474 61.3682 63.8604C61.3682 72.0735 66.0355 78.7656 75.0635 78.7656C84.015 78.7656 88.6826 72.0735 88.6826 63.8604C88.6825 55.6473 84.0149 48.9551 75.0635 48.9551ZM129.546 48.9551C120.518 48.9551 115.851 55.6474 115.851 63.8604C115.851 72.0735 120.518 78.7656 129.546 78.7656C138.497 78.7656 143.165 72.0735 143.165 63.8604C143.165 55.6473 138.497 48.9551 129.546 48.9551ZM47.8213 0C60.0211 0 67.8799 8.89768 67.8799 20.9893C67.8798 33.0808 60.0211 41.9785 47.8213 41.9785C35.5469 41.9784 27.6885 33.0807 27.6885 20.9893C27.6885 8.89779 35.5468 0.000156701 47.8213 0ZM102.304 0C114.504 0 122.362 8.89768 122.362 20.9893C122.362 33.0808 114.503 41.9785 102.304 41.9785C90.0293 41.9784 82.1709 33.0807 82.1709 20.9893C82.1709 8.89779 90.0293 0.000162231 102.304 0ZM47.8213 6.08398C38.9897 6.08415 34.4238 12.7762 34.4238 20.9893C34.4239 29.2023 38.9898 35.8944 47.8213 35.8945C56.5782 35.8945 61.1445 29.2024 61.1445 20.9893C61.1445 12.7761 56.5782 6.08398 47.8213 6.08398ZM102.304 6.08398C93.4722 6.08415 88.9062 12.7762 88.9062 20.9893C88.9063 29.2023 93.4722 35.8944 102.304 35.8945C111.061 35.8945 115.627 29.2024 115.627 20.9893C115.627 12.7761 111.061 6.08398 102.304 6.08398Z" fill="#184BFF"/>
</svg>
