<svg width="148" height="122" viewBox="0 0 148 122" fill="none" xmlns="http://www.w3.org/2000/svg">
<path d="M135.369 67.3221L92.0127 110.366C80.3744 121.921 65.3025 128.064 49.1611 111.806C45.3687 107.987 42.6379 103.993 40.7031 100.445L46.5664 94.6229C47.9726 97.4607 50.3469 101.807 54.5801 106.071C64.8118 116.377 75.3511 115.441 86.7227 104.151L129.635 61.5467L135.369 67.3221ZM147.428 61.6991L134.289 96.621L127.497 89.7782L140.988 55.5682L106.768 68.9012L99.8887 61.9706L134.903 49.0838L147.428 61.6991ZM19.9316 31.9256L6.44043 66.1366L40.6602 52.8036L47.54 59.7342L12.5244 72.621L0 60.0057L13.1396 25.0838L19.9316 31.9256ZM55.416 11.3377C67.0542 -0.216712 82.1263 -6.35879 98.2676 9.8983C102.06 13.7182 104.791 17.7119 106.726 21.2596L100.861 27.0819C99.4551 24.244 97.081 19.8967 92.8477 15.6327C82.616 5.32755 72.0766 6.26303 60.7051 17.5526L17.793 60.1581L12.0596 54.3827L55.416 11.3377Z" fill="#184BFF"/>
</svg>
