<svg width="112" height="111" viewBox="0 0 112 111" fill="none" xmlns="http://www.w3.org/2000/svg">
<path d="M112 57.623C112 91.6605 92.9722 111 56 111C18.873 111 9.76581e-05 91.6605 0 58.3965V29H112V57.623ZM9.59082 60.4072C9.59082 88.411 28.6188 100.479 56 100.479C83.2264 100.479 102.254 88.4114 102.254 60.5625V39.0566H9.59082V60.4072Z" fill="#184BFF"/>
<path d="M21 33.3489C21 13.193 34.183 -2.48355e-06 56.1857 -1.52178e-06C77.5385 -5.88422e-07 91 14.2924 91 33.4405C91 39.1209 89.8859 43.885 88.9576 46.4503L80.8806 46.3587C81.6233 44.1599 82.8302 39.2125 82.8302 33.7154C82.8302 18.5068 72.5252 8.61209 56.1857 8.61209C39.2891 8.61209 29.1698 17.7739 29.1698 33.8986C29.1698 39.3957 30.0053 44.1598 30.9337 47L22.7639 47C21.8355 44.1598 21 38.7544 21 33.3489Z" fill="#184BFF"/>
</svg>
