<svg width="144" height="135" viewBox="0 0 144 135" fill="none" xmlns="http://www.w3.org/2000/svg">
<path d="M7.6123 126.126H134.388V105.75H142V135H0V105.75H7.6123V126.126ZM22.6621 0C21.7557 1.76463 20.8917 3.80497 20.8916 6.01074C20.8916 7.09731 20.993 8.07576 21.1533 9H43.2773C43.1066 8.0004 43 6.95153 43 5.79004C43.0001 3.91508 43.6907 1.32344 44.5107 0H47.6621C46.7557 1.76463 45.8917 3.80497 45.8916 6.01074C45.8916 7.09731 45.993 8.07576 46.1533 9H68.3232C68.124 8.00041 68 6.95152 68 5.79004C68.0001 3.91507 68.8059 1.32344 69.7627 0H73.4385C72.381 1.76459 71.3741 3.80504 71.374 6.01074C71.374 7.0974 71.4926 8.07569 71.6797 9H95.3232C95.124 8.00041 95 6.95152 95 5.79004C95.0001 3.91507 95.8059 1.32344 96.7627 0H100.438C99.381 1.76459 98.3741 3.80504 98.374 6.01074C98.374 7.0974 98.4926 8.07569 98.6797 9H121.277C121.107 8.0004 121 6.95153 121 5.79004C121 3.91508 121.691 1.32344 122.511 0H125.662C124.756 1.76463 123.892 3.80497 123.892 6.01074C123.892 7.09731 123.993 8.07576 124.153 9H144V18H126.488C126.791 19.359 127 20.7635 127 22.3896C127 24.2646 126.309 26.8015 125.489 28.125H122.338C123.244 26.3603 124.108 24.3748 124.108 22.1689C124.108 20.6097 123.902 19.2734 123.606 18H101.403C101.756 19.359 102 20.7635 102 22.3896C102 24.2646 101.194 26.8015 100.237 28.125H96.5615C97.619 26.3603 98.626 24.3748 98.626 22.1689C98.626 20.6097 98.3856 19.2734 98.041 18H74.4033C74.7561 19.359 75 20.7635 75 22.3896C75 24.2646 74.1941 26.8015 73.2373 28.125H69.5615C70.619 26.3603 71.626 24.3748 71.626 22.1689C71.626 20.6097 71.3856 19.2734 71.041 18H48.4883C48.7906 19.359 49 20.7635 49 22.3896C49 24.2646 48.3094 26.8015 47.4893 28.125H44.3379C45.2444 26.3603 46.1084 24.3748 46.1084 22.1689C46.1084 20.6097 45.9018 19.2734 45.6064 18H23.4883C23.7906 19.359 24 20.7635 24 22.3896C24 24.2646 23.3094 26.8015 22.4893 28.125H19.3379C20.2444 26.3603 21.1084 24.3748 21.1084 22.1689C21.1084 20.6097 20.9018 19.2734 20.6064 18H0V9H18.2773C18.1066 8.0004 18 6.95153 18 5.79004C18.0001 3.91508 18.6907 1.32344 19.5107 0H22.6621Z" fill="#184BFF"/>
<path d="M50.9226 59.8657C46.8511 59.8657 43.5371 56.5517 43.5371 52.4802C43.5371 48.314 46.8511 45 50.9226 45C55.0888 45 58.4028 48.314 58.4028 52.4802C58.4028 56.5517 55.0888 59.8657 50.9226 59.8657Z" fill="#184BFF"/>
<path d="M74.4597 59.8657C70.3882 59.8657 67.0742 56.5517 67.0742 52.4802C67.0742 48.314 70.3882 45 74.4597 45C78.6259 45 81.9399 48.314 81.9399 52.4802C81.9399 56.5517 78.6259 59.8657 74.4597 59.8657Z" fill="#184BFF"/>
<path d="M96.1431 59.8657C92.4109 59.8657 89.373 56.5517 89.373 52.4802C89.373 48.314 92.4109 45 96.1431 45C99.9621 45 103 48.314 103 52.4802C103 56.5517 99.9621 59.8657 96.1431 59.8657Z" fill="#184BFF"/>
<path d="M26.77 82.164C23.0378 82.164 20 79.1261 20 75.3939C20 71.5749 23.0378 68.5371 26.77 68.5371C30.589 68.5371 33.6269 71.5749 33.6269 75.3939C33.6269 79.1261 30.589 82.164 26.77 82.164Z" fill="#184BFF"/>
<path d="M50.9226 82.164C46.8511 82.164 43.5371 79.1261 43.5371 75.3939C43.5371 71.5749 46.8511 68.5371 50.9226 68.5371C55.0888 68.5371 58.4028 71.5749 58.4028 75.3939C58.4028 79.1261 55.0888 82.164 50.9226 82.164Z" fill="#184BFF"/>
<path d="M74.4597 82.164C70.3882 82.164 67.0742 79.1261 67.0742 75.3939C67.0742 71.5749 70.3882 68.5371 74.4597 68.5371C78.6259 68.5371 81.9399 71.5749 81.9399 75.3939C81.9399 79.1261 78.6259 82.164 74.4597 82.164Z" fill="#184BFF"/>
<path d="M96.1431 82.164C92.4109 82.164 89.373 79.1261 89.373 75.3939C89.373 71.5749 92.4109 68.5371 96.1431 68.5371C99.9621 68.5371 103 71.5749 103 75.3939C103 79.1261 99.9621 82.164 96.1431 82.164Z" fill="#184BFF"/>
<path d="M118.069 59.8657C114.337 59.8657 111.299 56.5517 111.299 52.4802C111.299 48.314 114.337 45 118.069 45C121.888 45 124.926 48.314 124.926 52.4802C124.926 56.5517 121.888 59.8657 118.069 59.8657Z" fill="#184BFF"/>
<path d="M118.069 82.164C114.337 82.164 111.299 79.1261 111.299 75.3939C111.299 71.5749 114.337 68.5371 118.069 68.5371C121.888 68.5371 124.926 71.5749 124.926 75.3939C124.926 79.1261 121.888 82.164 118.069 82.164Z" fill="#184BFF"/>
<path d="M26.77 104.463C23.0378 104.463 20 101.149 20 97.0773C20 92.9112 23.0378 89.5972 26.77 89.5972C30.589 89.5972 33.6269 92.9112 33.6269 97.0773C33.6269 101.149 30.589 104.463 26.77 104.463Z" fill="#184BFF"/>
<path d="M50.9226 104.463C46.8511 104.463 43.5371 101.149 43.5371 97.0773C43.5371 92.9112 46.8511 89.5972 50.9226 89.5972C55.0888 89.5972 58.4028 92.9112 58.4028 97.0773C58.4028 101.149 55.0888 104.463 50.9226 104.463Z" fill="#184BFF"/>
<path d="M74.4597 104.463C70.3882 104.463 67.0742 101.149 67.0742 97.0773C67.0742 92.9112 70.3882 89.5972 74.4597 89.5972C78.6259 89.5972 81.9399 92.9112 81.9399 97.0773C81.9399 101.149 78.6259 104.463 74.4597 104.463Z" fill="#184BFF"/>
<path d="M96.3855 103.866C92.314 103.866 89 100.552 89 96.4802C89 92.314 92.314 89 96.3855 89C100.552 89 103.866 92.314 103.866 96.4802C103.866 100.552 100.552 103.866 96.3855 103.866Z" fill="#184BFF"/>
</svg>
