<svg width="138" height="115" viewBox="0 0 138 115" fill="none" xmlns="http://www.w3.org/2000/svg">
<path d="M11.6602 103.013H126.34V44H138V115H0V44H11.6602V103.013ZM68.6006 32C86.9699 32.0002 101.101 43.9233 101.101 63C101.101 82.0768 86.9699 93.9998 68.6006 94C50.231 94 36.0996 82.0769 36.0996 63C36.0996 43.9231 50.231 32 68.6006 32ZM68.6006 39.8691C54.9412 39.8691 43.6367 47.7385 43.6367 63C43.6367 78.2615 54.9412 86.1309 68.6006 86.1309C82.2598 86.1307 93.5635 78.2614 93.5635 63C93.5635 47.7386 82.2598 39.8693 68.6006 39.8691ZM68.5996 47C78.4909 47 86.0996 53.3462 86.0996 63.5C86.0996 73.6537 78.4917 79.9998 68.6006 80C58.7093 80 51.0996 73.6538 51.0996 63.5C51.0996 53.3463 58.7085 47.0002 68.5996 47ZM68.5996 51.1885C61.2448 51.1887 55.1582 55.3771 55.1582 63.5C55.1582 71.6231 61.2455 75.8115 68.6006 75.8115C75.9554 75.8113 82.042 71.6229 82.042 63.5C82.042 55.3769 75.9547 51.1885 68.5996 51.1885ZM28 33C30.2286 33 32 34.7714 32 37C32 39.2286 30.2286 41 28 41C25.7714 41 24 39.2286 24 37C24 34.7714 25.7714 33 28 33ZM117 38.667L96 41V37L117 33V38.667ZM83.083 0C92.3487 8.93378e-05 99.766 3.64282 99.9951 15H138V23H0V15H35.0059C35.235 3.64269 42.6521 -4.05025e-07 51.918 0H83.083ZM52.0449 5.73438C44.6464 5.73437 40.8355 8.80443 40.4971 15H94.5029C94.1645 8.80444 90.3536 5.73437 82.9551 5.73438H52.0449Z" fill="#184BFF"/>
</svg>
