<svg width="103" height="140" viewBox="0 0 103 140" fill="none" xmlns="http://www.w3.org/2000/svg">
<path d="M31.5715 67.9845L12.9866 100.175C5.59785 112.973 7.16541 122.044 17.6076 128.072C28.207 134.192 36.5989 131.08 44.0783 118.125L62.6633 85.9347L69.7297 90.0148L51.1438 122.205C41.2167 139.399 28.6936 143.684 13.6194 134.982C-1.45521 126.278 -4.00707 113.289 5.92014 96.0948L24.5061 63.9044L31.5715 67.9845ZM72.675 39.5831L30.0657 113.385L23.3137 109.487L65.9231 35.6847L72.675 39.5831ZM50.8703 17.1525C60.7975 -0.0417022 73.3213 -4.32619 88.3957 4.37706C103.47 13.0804 106.021 26.0684 96.094 43.2628L77.509 75.4532L70.4426 71.3732L89.0276 39.1827C96.4162 26.3852 94.8487 17.3151 84.4065 11.2862C73.8072 5.16675 65.4161 8.27792 57.9367 21.2325L39.3508 53.423L32.2854 49.3429L50.8703 17.1525Z" fill="#184BFF"/>
</svg>
