<svg width="146" height="103" viewBox="0 0 146 103" fill="none" xmlns="http://www.w3.org/2000/svg">
<path d="M78.042 88.5796C81.9419 88.5796 85.0418 91.6798 85.042 95.5796C85.042 99.4796 81.942 102.58 78.042 102.58C74.142 102.58 71.042 99.4796 71.042 95.5796C71.0422 91.6798 74.1421 88.5796 78.042 88.5796ZM115.042 88.5796C118.942 88.5796 122.042 91.6798 122.042 95.5796C122.042 99.4796 118.942 102.58 115.042 102.58C111.142 102.58 108.042 99.4796 108.042 95.5796C108.042 91.6798 111.142 88.5796 115.042 88.5796ZM5.74902 3.41748C17.2671 -3.2325 29.1018 -0.135243 36.3018 12.3354L37.6514 14.6743L45.4453 10.1743L49.3955 17.0151L41.3418 21.6655L63.0068 59.1929L75.3418 1.57959H84.4424L68.8418 73.7798L102.042 1.57959H119.342L119.742 73.7798L136.143 1.57959H145.242L128.643 73.98H111.143L110.842 1.77979L78.041 73.7622C84.2665 73.687 89.5453 75.2366 95.5977 76.5972C102.646 78.2283 108.635 80.4068 116.659 79.5034C122.193 78.8803 127.01 75.6274 131.104 72.1714L132.055 80.6226C129.036 83.6722 122.787 86.6575 118.084 87.187C110.199 88.0748 104.103 86.1941 96.916 84.5786C89.8679 82.9475 83.879 80.7691 75.8555 81.6724C70.3218 82.2954 65.6428 85.5327 61.5488 88.9888L60.5967 80.5376C63.6156 77.4878 69.7261 74.5183 74.4297 73.9888C74.4583 73.9855 74.487 73.9831 74.5156 73.98H59.8418L62.7344 60.4673L55.8711 64.4302L33.7207 26.0659L22.2021 32.7153L18.2529 25.8735L29.9443 19.1235L28.5938 16.7856C23.3938 7.77907 16.244 6.59582 9.14258 10.6958C6.71793 12.0957 5.22237 13.3051 3.9502 14.5015L0 7.65967C1.09905 6.56327 3.15104 4.91743 5.74902 3.41748Z" fill="#184BFF"/>
</svg>
