<svg width="141" height="121" viewBox="0 0 141 121" fill="none" xmlns="http://www.w3.org/2000/svg">
<path d="M16.1543 112.233H123.496V96.7539H131.363V120.48H8.28711V96.7539H16.1543V112.233ZM141 120.358H136.273V101.323H141V120.358ZM131.179 95.0381H126.452V76.0029H131.179V95.0381ZM141 95.0381H136.273V76.0029H141V95.0381ZM29.2881 39.9443C44.9324 39.9443 52.791 46.5945 52.791 59.8945C52.791 73.1945 44.9324 79.8447 29.2881 79.8447H0V39.9443H29.2881ZM8.59375 73.6104H29.2881C40.932 73.6104 46.5048 69.1075 46.5049 59.8945C46.5049 50.543 41.0749 46.1787 29.2881 46.1787H8.59375V73.6104ZM131.179 69.7188H126.452V50.6836H131.179V69.7188ZM141 69.7188H136.273V50.6836H141V69.7188ZM131.179 44.3994H126.452V25.3643H131.179V44.3994ZM141 44.3994H136.273V25.3643H141V44.3994ZM131.363 23.7266H123.496V8.24707H16.1543V23.7266H8.28711V0H131.363V23.7266ZM141 19.0801H136.273V0.0439453H141V19.0801Z" fill="#184BFF"/>
</svg>
