<svg width="113" height="106" viewBox="0 0 113 106" fill="none" xmlns="http://www.w3.org/2000/svg">
<path d="M105 7.99999C115.269 18.2688 114.563 29.3552 102.716 41.2024L50.8021 93.1159C35.8835 108.034 22.0029 109.003 9.22954 96.2295C-3.54378 83.4561 -2.57532 69.5755 12.3431 54.6569L41.2787 25.7213L45.7908 30.2334L16.8552 59.1689C4.78171 71.2426 3.88248 81.8612 13.7401 91.7189C23.7366 101.715 34.0777 100.816 46.2901 88.6038L75.2256 59.6682L76.1101 60.5527L99.088 37.5748C108.676 27.9868 109.343 19.5068 101.418 11.582C93.3816 3.5455 85.1234 4.21383 75.4252 13.912L52.4473 36.8899L51.5621 36.0047L34.1155 53.4513C26.8361 60.731 26.3179 67.1573 32.3098 73.1492C38.3861 79.2255 44.6444 78.7066 52.0077 71.3435L69.4543 53.8969L69.1803 53.6229L95.5738 27.2295L98.5902 30.2459L54.7501 74.0859C45.7551 83.0807 37.3543 83.6329 29.5902 75.8688C21.8261 68.1047 22.3783 59.7039 31.3731 50.7089L71.7976 10.2844C83.6448 -1.56282 94.7312 -2.26881 105 7.99999Z" fill="#184BFF"/>
</svg>
