<svg width="193" height="180" viewBox="0 0 193 180" fill="none" xmlns="http://www.w3.org/2000/svg">
<path d="M115.727 163.538L32.9951 80.8066L28.0454 85.7564L110.777 168.488L115.727 163.538Z" fill="#184BFF"/>
<path d="M186.437 102.727L103.706 19.9955L98.7558 24.9452L181.487 107.677L186.437 102.727Z" fill="#184BFF"/>
<path d="M94.0974 39.5033C86.1944 47.4062 77.8657 50.724 68.567 55.2901C59.4069 59.7176 50.9384 62.6183 42.8968 70.6599C37.3509 76.2058 35.0042 83.8418 33.4905 91.2017L25.1389 82.85C25.8218 76.8778 29.9725 68.2728 34.6865 63.5588C42.5895 55.6558 50.9182 52.3381 60.2169 47.772C69.377 43.3445 77.8455 40.4438 85.8871 32.4022C91.433 26.8563 93.9183 19.0816 95.432 11.7218L103.784 20.0734C103.101 26.0457 98.8114 34.7892 94.0974 39.5033Z" fill="#184BFF"/>
<path d="M178.243 123.649C170.34 131.552 162.011 134.87 152.712 139.436C143.552 143.863 135.084 146.764 127.042 154.806C121.496 160.351 119.15 167.988 117.636 175.347L109.284 166.996C109.967 161.023 114.118 152.419 118.832 147.704C126.735 139.802 135.064 136.484 144.362 131.918C153.523 127.49 161.991 124.589 170.033 116.548C175.579 111.002 178.064 103.227 179.577 95.8674L187.929 104.219C187.246 110.191 182.957 118.935 178.243 123.649Z" fill="#184BFF"/>
<path d="M168.267 97.7673L76.2671 4.26727L78.7671 14.2673L57.7671 39.2673L22.7671 53.2673L11.2671 75.7673L91.2671 152.767L168.267 97.7673Z" fill="white"/>
<path d="M95.4595 156.271L12.728 73.5393L7.77828 78.4891L90.5098 161.221L95.4595 156.271Z" fill="#184BFF"/>
<path d="M166.17 95.4596L83.4385 12.7281L78.4887 17.6779L161.22 100.409L166.17 95.4596Z" fill="#184BFF"/>
<path d="M73.8303 32.2359C65.9273 40.1389 57.5986 43.4566 48.2999 48.0228C39.1398 52.4502 30.6713 55.3509 22.6297 63.3925C17.0838 68.9385 14.7371 76.5745 13.2234 83.9343L4.8718 75.5827C5.55467 69.6104 9.70539 61.0055 14.4194 56.2914C22.3224 48.3885 30.6511 45.0707 39.9498 40.5046C49.1099 36.0772 57.5784 33.1765 65.62 25.1349C71.1659 19.5889 73.6512 11.8142 75.1649 4.45442L83.5166 12.8061C82.8337 18.7783 78.5443 27.5219 73.8303 32.2359Z" fill="#184BFF"/>
<path d="M87.3069 64.0142C82.8812 68.4398 78.2171 70.2977 73.0098 72.8548C67.8802 75.3342 63.1378 76.9585 58.6346 81.4618C55.5288 84.5676 54.2147 88.8437 53.367 92.9653L48.6901 88.2883C49.0725 84.9439 51.3969 80.1251 54.0368 77.4852C58.4625 73.0596 63.1265 71.2016 68.3338 68.6446C73.4635 66.1652 78.2058 64.5409 82.7091 60.0376C85.8148 56.9318 87.2066 52.578 88.0543 48.4565L92.7312 53.1334C92.3488 56.4779 89.9467 61.3743 87.3069 64.0142Z" fill="#184BFF"/>
<path d="M96.4992 73.2065C92.0736 77.6322 87.4095 79.4901 82.2022 82.0472C77.0726 84.5265 72.3302 86.1509 67.8269 90.6542C64.7212 93.76 63.4071 98.0361 62.5594 102.158L57.8825 97.4807C58.2649 94.1362 60.5893 89.3175 63.2292 86.6776C67.6548 82.252 72.3189 80.394 77.5262 77.837C82.6558 75.3576 87.3982 73.7332 91.9015 69.2299C95.0072 66.1242 96.399 61.7704 97.2466 57.6489L101.924 62.3258C101.541 65.6703 99.1391 70.5667 96.4992 73.2065Z" fill="#184BFF"/>
<path d="M157.976 116.382C150.073 124.285 141.744 127.602 132.445 132.168C123.285 136.596 114.817 139.497 106.775 147.538C101.229 153.084 98.8826 160.72 97.369 168.08L89.0173 159.728C89.7002 153.756 93.8509 145.151 98.5649 140.437C106.468 132.534 114.797 129.216 124.095 124.65C133.255 120.223 141.724 117.322 149.765 109.281C155.311 103.735 157.797 95.9599 159.31 88.6001L167.662 96.9518C166.979 102.924 162.69 111.668 157.976 116.382Z" fill="#184BFF"/>
</svg>
