<svg width="218" height="172" viewBox="0 0 218 172" fill="none" xmlns="http://www.w3.org/2000/svg">
<path d="M85.388 42.9932L101.244 31.4249L120.771 42.6993L118.741 62.2099L138.134 65.2422L143.97 87.0217L128.689 99.4227L140.24 115.355L128.965 134.883L109.449 132.791L106.361 152.164L84.5805 158L72.2589 142.721L56.3757 154.236L36.8489 142.961L38.9392 123.445L19.5676 120.356L13.7316 98.5757L28.9613 86.2936L17.4285 70.487L28.7028 50.9593L48.2153 52.989L51.2469 33.5973L73.0274 27.7612L85.388 42.9932ZM95.402 154.825L98.5837 132.587C96.1254 133.752 93.5107 134.72 90.749 135.461C87.6255 136.297 84.5186 136.788 81.4631 136.963L95.402 154.825ZM121.011 107.16C119.196 112.748 116.269 117.885 112.378 122.271L134.373 124.986L121.011 107.16ZM46.7448 148.369L64.9743 134.702C59.2415 132.72 54.0084 129.531 49.5845 125.34L46.7448 148.369ZM91.4062 131.125C90.8502 131.298 90.2878 131.464 89.7181 131.617L89.7193 131.618C90.2888 131.465 90.8504 131.298 91.4062 131.125ZM88.0932 132.016C88.6286 131.894 89.1654 131.765 89.7021 131.621C89.1654 131.765 88.6286 131.894 88.0932 132.016ZM86.6443 132.321C86.81 132.29 86.9752 132.254 87.141 132.22C86.9752 132.254 86.81 132.29 86.6443 132.321ZM86.4018 125.141C86.8964 125.03 87.3911 124.909 87.8851 124.776L87.8849 124.775C87.3908 124.908 86.8964 125.03 86.4018 125.141ZM89.3505 124.351C88.8691 124.501 88.3827 124.642 87.8915 124.773C88.3827 124.642 88.8691 124.501 89.3505 124.351ZM84.8333 125.46C85.3284 125.371 85.8237 125.271 86.3189 125.16C85.8237 125.271 85.3284 125.371 84.8333 125.46ZM90.8185 123.861C90.3617 124.024 89.9002 124.18 89.4337 124.326C89.9002 124.18 90.3617 124.024 90.8185 123.861ZM83.4666 125.68C83.898 125.619 84.33 125.551 84.7619 125.473C84.33 125.551 83.898 125.619 83.4666 125.68ZM92.1082 123.373C91.7229 123.527 91.3343 123.676 90.9414 123.818C91.3343 123.676 91.7229 123.527 92.1082 123.373ZM112.229 116.027C112.342 115.865 112.453 115.703 112.563 115.539C112.453 115.703 112.342 115.865 112.229 116.027ZM100.439 118.615C100.494 118.572 100.549 118.53 100.603 118.487L100.603 118.484C100.548 118.527 100.494 118.572 100.439 118.615ZM112.771 115.225C112.869 115.075 112.967 114.925 113.063 114.774C112.967 114.925 112.869 115.075 112.771 115.225ZM113.308 114.382C113.389 114.251 113.47 114.12 113.55 113.989C113.47 114.12 113.389 114.251 113.308 114.382ZM60.3114 128.291C60.4153 128.348 60.5195 128.405 60.6239 128.461C60.5195 128.405 60.4153 128.348 60.3114 128.291ZM71.6136 64.0461C64.0508 66.0726 57.935 70.4909 54.3041 76.5276C50.6967 82.5255 49.3496 90.4408 51.8774 99.8751C54.4202 109.365 59.5385 115.512 65.6384 118.862C71.7816 122.235 79.2748 122.963 86.8561 120.932C94.4375 118.901 100.563 114.523 104.196 108.53C107.804 102.58 109.163 94.6965 106.62 85.2068C104.092 75.7725 98.9669 69.5916 92.8439 66.2009C86.6812 62.7885 79.1762 62.0198 71.6136 64.0461ZM113.788 113.588C113.872 113.445 113.954 113.302 114.036 113.158C113.954 113.302 113.872 113.445 113.788 113.588ZM59.4411 127.798C59.5683 127.872 59.6958 127.946 59.8238 128.019C59.6958 127.946 59.5683 127.872 59.4411 127.798ZM114.262 112.754C114.338 112.618 114.413 112.482 114.487 112.344C114.413 112.482 114.338 112.618 114.262 112.754ZM58.6677 127.334C58.7839 127.405 58.9009 127.476 59.0178 127.546C58.9009 127.476 58.7839 127.405 58.6677 127.334ZM114.705 111.933C114.784 111.783 114.861 111.633 114.937 111.482C114.861 111.633 114.784 111.783 114.705 111.933ZM57.8642 126.825C57.9725 126.895 58.0813 126.965 58.1903 127.035C58.0813 126.965 57.9725 126.895 57.8642 126.825ZM115.125 111.107C115.203 110.948 115.28 110.788 115.356 110.628C115.28 110.788 115.203 110.948 115.125 111.107ZM57.1481 126.349C57.2405 126.412 57.3338 126.473 57.4267 126.536C57.3349 126.474 57.2437 126.412 57.1524 126.349L57.1481 126.349ZM115.643 110.01C115.605 110.094 115.568 110.179 115.529 110.263C115.569 110.176 115.609 110.091 115.649 110.004L115.643 110.01ZM54.6715 114.619C54.7261 114.689 54.7812 114.758 54.8363 114.827L54.8372 114.826C54.7821 114.757 54.7262 114.689 54.6715 114.619ZM16.9062 109.397L40.0893 112.716L40.1263 112.368C38.8343 109.703 37.772 106.864 36.9697 103.87C36.1956 100.981 35.7069 98.0922 35.4851 95.235L35.3285 95.0202L16.9062 109.397ZM118.538 73.0851C119.755 75.6435 120.762 78.3579 121.527 81.2126C122.329 84.2048 122.827 87.1933 123.041 90.1447L140.797 76.2009L118.538 73.0851ZM46.6233 91.8087C46.7294 94.7047 47.1854 97.7436 48.0326 100.905C48.6863 103.345 49.5046 105.602 50.4623 107.679C49.6324 105.879 48.9073 103.944 48.3037 101.872C48.2108 101.553 48.1207 101.231 48.0335 100.905C47.9467 100.581 47.864 100.259 47.7853 99.9373C47.0961 97.1211 46.7195 94.4056 46.6245 91.8054L46.6233 91.8087ZM110.463 84.1771L110.464 84.1768L110.463 84.1771ZM116.92 79.7091C116.956 79.8167 116.993 79.924 117.028 80.032C116.993 79.9233 116.956 79.8154 116.92 79.7072L116.92 79.7091ZM46.8976 85.9917C46.6478 87.8469 46.551 89.7766 46.6223 91.7746L46.6237 91.7763C46.5523 89.7772 46.6483 87.8466 46.8983 85.9905L46.8976 85.9917ZM104.329 71.1408C104.317 71.1246 104.306 71.1078 104.294 71.0916L104.292 71.0912C104.304 71.1078 104.317 71.1241 104.329 71.1408ZM47.2308 83.9865C47.2022 84.1296 47.177 84.2736 47.1502 84.4176L47.1507 84.4195C47.2276 84.006 47.3094 83.596 47.4017 83.1905L47.2308 83.9865ZM101.662 68.0045L101.662 68.0036C101.582 67.922 101.502 67.842 101.422 67.7615C101.502 67.8422 101.583 67.9227 101.662 68.0045ZM47.8002 81.6289L47.8012 81.6287L47.8002 81.6289ZM49.4451 77.2028C49.1172 77.9069 48.8159 78.6282 48.5415 79.3658C48.7244 78.8741 48.9199 78.3898 49.1268 77.9129C49.2303 77.6742 49.3366 77.4374 49.446 77.2025L49.4451 77.2028ZM37.1232 79.185C38.8102 73.4186 41.662 68.091 45.526 63.5275L23.2959 60.8561L37.1232 79.185ZM93.5017 50.3975C98.9583 52.2878 103.961 55.2708 108.246 59.1622L110.876 37.2921L93.5017 50.3975ZM53.0731 71.3374C52.4401 72.1334 51.8483 72.9633 51.2989 73.8247C51.5736 73.394 51.8593 72.9714 52.1553 72.5569C52.4513 72.1422 52.7574 71.7353 53.074 71.3371L53.0731 71.3374ZM102.458 59.5535C102.52 59.5993 102.58 59.648 102.642 59.6942L102.644 59.6947C102.582 59.6481 102.521 59.5997 102.458 59.5535ZM95.531 55.4921C95.6553 55.5486 95.7809 55.6021 95.9046 55.6599C95.7803 55.6019 95.6545 55.5472 95.5296 55.4905L95.531 55.4921ZM57.3346 66.9724C57.2683 67.028 57.2028 67.0845 57.137 67.1406L57.1366 67.1427C57.2028 67.0862 57.2679 67.0283 57.3346 66.9724ZM59.6288 65.2223C59.4704 65.3322 59.3131 65.4434 59.1571 65.5559C59.3136 65.443 59.4718 65.3321 59.6307 65.2218L59.6288 65.2223ZM63.2279 63.0487L63.2263 63.0502C63.4255 62.9463 63.6257 62.8437 63.8276 62.7435L63.2279 63.0487ZM77.2226 59.0613L77.2214 59.0606C77.0984 59.07 76.9752 59.079 76.8521 59.0898C76.9756 59.079 77.0992 59.0708 77.2226 59.0613ZM68.2478 60.91C67.7374 61.0831 67.2333 61.2672 66.7353 61.4609C67.2333 61.2672 67.7374 61.0831 68.2478 60.91ZM74.4989 59.3746C74.9893 59.2985 75.4796 59.2341 75.969 59.1788C75.4796 59.2341 74.9893 59.2985 74.4989 59.3746ZM71.3757 60.0001C72.1314 59.815 72.8878 59.6546 73.6438 59.5188C72.8875 59.6546 72.1305 59.8142 71.3745 59.9994L71.3757 60.0001ZM59.1333 52.8761C61.8153 51.5375 64.6925 50.4402 67.7485 49.6214C70.4433 48.8993 73.1258 48.4346 75.7739 48.2101L62.2056 30.9349L59.1333 52.8761ZM51.0191 108.84C51.1244 109.05 51.2321 109.256 51.3403 109.462C51.2321 109.256 51.1244 109.05 51.0191 108.84ZM108.254 77.8932C108.152 77.6659 108.048 77.4413 107.943 77.2181C108.048 77.4413 108.152 77.6659 108.254 77.8932Z" fill="#184BFF"/>
<path d="M170.085 19.0458L180.499 11.448L193.325 18.8533L191.991 31.6685L204.729 33.6603L208.562 47.9662L198.525 56.11L206.112 66.5752L198.707 79.4015L185.889 78.0276L183.86 90.7519L169.554 94.5851L161.461 84.55L151.029 92.1132L138.202 84.7079L139.576 71.8883L126.852 69.8602L123.019 55.5543L133.023 47.4861L125.448 37.1047L132.852 24.2786L145.668 25.6124L147.66 12.8748L161.966 9.04155L170.085 19.0458ZM176.662 92.5006L178.752 77.8937C177.137 78.6591 175.419 79.2962 173.605 79.7823C171.554 80.3319 169.514 80.6536 167.507 80.7682L176.662 92.5006ZM193.482 61.1938C192.29 64.864 190.367 68.2375 187.812 71.1187L202.259 72.9013L193.482 61.1938ZM144.702 88.2598L156.677 79.2835C152.911 77.9815 149.474 75.8868 146.568 73.1337L144.702 88.2598ZM174.007 76.9441C174.088 76.9187 174.17 76.8944 174.251 76.8684C174.17 76.8944 174.088 76.9187 174.007 76.9441ZM171.59 77.5814C171.665 77.5652 171.739 77.5474 171.814 77.5305C171.739 77.5474 171.665 77.5652 171.59 77.5814ZM169.84 73.1904C170.468 73.0732 171.097 72.9324 171.725 72.7642C171.097 72.9324 170.468 73.0732 169.84 73.1904ZM173.57 72.191C172.968 72.4035 172.352 72.5962 171.725 72.7642C172.352 72.5961 172.968 72.4036 173.57 72.191ZM168.702 73.3751C169.02 73.3314 169.338 73.2823 169.657 73.2254C169.338 73.2823 169.02 73.3314 168.702 73.3751ZM174.648 71.7817C174.351 71.9029 174.051 72.0195 173.747 72.1295C174.051 72.0195 174.351 71.9029 174.648 71.7817ZM167.842 73.4772C168.11 73.4503 168.379 73.4197 168.648 73.3833C168.379 73.4197 168.11 73.4503 167.842 73.4772ZM175.431 71.4457C175.189 71.5545 174.945 71.661 174.699 71.7622C174.945 71.661 175.189 71.5545 175.431 71.4457ZM166.326 73.579C166.587 73.5702 166.849 73.5574 167.111 73.5395C166.849 73.5574 166.587 73.5702 166.326 73.579ZM176.116 71.1246C176.166 71.1 176.216 71.0749 176.266 71.05L176.265 71.0503C176.215 71.0751 176.166 71.1001 176.116 71.1246ZM187.739 66.9811C187.799 66.8939 187.859 66.8067 187.918 66.7187C187.859 66.8067 187.799 66.8939 187.739 66.9811ZM179.997 68.6957C180.024 68.6742 180.051 68.6528 180.079 68.6313L180.078 68.6315C180.051 68.6529 180.024 68.6744 179.997 68.6957ZM188.099 66.4447C188.144 66.3768 188.188 66.3087 188.232 66.2404C188.188 66.3087 188.144 66.3768 188.099 66.4447ZM188.437 65.9155C188.487 65.835 188.535 65.7538 188.584 65.6728C188.535 65.7538 188.487 65.835 188.437 65.9155ZM153.616 75.0739C153.679 75.1087 153.743 75.1432 153.806 75.1775C153.743 75.1432 153.679 75.1087 153.616 75.0739ZM161.037 32.8755C156.07 34.2065 152.052 37.108 149.667 41.073C147.298 45.0125 146.413 50.2118 148.074 56.4084C149.744 62.6413 153.106 66.6788 157.112 68.8788C161.147 71.0944 166.069 71.5732 171.048 70.2391C176.028 68.9048 180.052 66.029 182.438 62.0926C184.808 58.1842 185.701 53.0066 184.031 46.7738C182.37 40.5772 179.004 36.5169 174.982 34.2898C170.935 32.0484 166.004 31.5444 161.037 32.8755ZM188.771 65.3598C188.805 65.302 188.838 65.2436 188.871 65.1854C188.838 65.2436 188.805 65.302 188.771 65.3598ZM153.102 74.7838C153.153 74.8133 153.204 74.8421 153.255 74.8712C153.204 74.8421 153.153 74.8133 153.102 74.7838ZM152.551 74.4534C152.602 74.4849 152.653 74.5166 152.704 74.5477C152.653 74.5166 152.602 74.4849 152.551 74.4534ZM189.09 64.7982C189.119 64.7456 189.147 64.6926 189.176 64.6397C189.147 64.6926 189.119 64.7456 189.09 64.7982ZM151.993 74.1013C152.074 74.1536 152.154 74.2054 152.235 74.2569C152.154 74.2054 152.074 74.1536 151.993 74.1013ZM189.369 64.2724C189.399 64.2154 189.429 64.1583 189.458 64.1011C189.429 64.1583 189.399 64.2154 189.369 64.2724ZM189.637 63.7427C189.677 63.6611 189.717 63.5795 189.756 63.4974C189.717 63.5795 189.677 63.6611 189.637 63.7427ZM151.535 73.7953C151.588 73.8313 151.641 73.8671 151.693 73.9026C151.641 73.8673 151.589 73.8317 151.536 73.796L151.535 73.7953ZM189.957 63.0634C189.932 63.1194 189.907 63.1756 189.881 63.2314C189.908 63.174 189.935 63.117 189.961 63.0593L189.957 63.0634ZM149.9 66.0798C149.939 66.1295 149.977 66.1794 150.016 66.2285L150.018 66.2289C149.979 66.1794 149.939 66.1299 149.9 66.0798ZM125.104 62.6622L140.33 64.8415L140.355 64.6116C139.506 62.8623 138.809 60.9978 138.282 59.032C137.774 57.1339 137.453 55.236 137.307 53.3587L137.205 53.2183L125.104 62.6622ZM191.859 38.8123C192.658 40.4926 193.32 42.2754 193.822 44.1502C194.348 46.1151 194.675 48.0777 194.815 50.0158L206.477 40.8583L191.859 38.8123ZM146.533 60.099C146.821 60.8367 147.135 61.5431 147.472 62.2192C147.135 61.5431 146.821 60.8367 146.533 60.099ZM190.795 43.1617C190.819 43.2328 190.843 43.3036 190.866 43.3751C190.843 43.303 190.818 43.2315 190.795 43.1598L190.795 43.1617ZM185.197 42.1868C185.466 42.8074 185.717 43.4508 185.948 44.1178C185.717 43.4508 185.466 42.8074 185.197 42.1868ZM144.623 51.1082C144.657 52.0365 144.746 52.9872 144.893 53.9588C144.831 53.551 144.78 53.1468 144.739 52.7464C144.718 52.5461 144.699 52.3469 144.684 52.1485C144.656 51.798 144.636 51.4504 144.624 51.106L144.623 51.1082ZM144.66 48.6871C144.606 49.469 144.593 50.2694 144.623 51.0871L144.623 51.088C144.621 51.0489 144.62 51.0099 144.619 50.9708C144.595 50.193 144.609 49.4311 144.661 48.6859L144.66 48.6871ZM145.135 45.4489C145.074 45.7144 145.02 45.9828 144.969 46.2535L144.97 46.2545C145.02 45.9834 145.074 45.7147 145.135 45.4489ZM180.774 35.4749L180.773 35.474C180.718 35.4168 180.661 35.3612 180.605 35.3048C180.661 35.3614 180.718 35.4175 180.774 35.4749ZM149.59 36.7999C148.003 38.5745 146.74 40.6335 145.883 42.9372C146.003 42.6142 146.132 42.2962 146.268 41.9829C146.336 41.8262 146.405 41.6706 146.477 41.5163C146.765 40.8992 147.082 40.3019 147.429 39.7256C147.689 39.2933 147.965 38.8729 148.257 38.4644C148.451 38.1922 148.652 37.9252 148.86 37.6638C149.095 37.3682 149.34 37.0809 149.592 36.7994L149.59 36.7999ZM138.383 42.8177C139.491 39.0296 141.366 35.53 143.904 32.5324L129.301 30.7785L138.383 42.8177ZM175.413 23.9106C178.997 25.1521 182.283 27.111 185.097 29.6667L186.825 15.3023L175.413 23.9106ZM152.448 34.1679C152.314 34.2697 152.181 34.3731 152.05 34.4778C152.313 34.2681 152.581 34.0643 152.855 33.8666L152.448 34.1679ZM156.865 31.5779C156.411 31.7785 155.965 31.9927 155.529 32.22L155.527 32.2215C155.659 32.1531 155.79 32.0854 155.923 32.0194C156.233 31.8657 156.547 31.7185 156.865 31.5779ZM163.336 29.749C163.665 29.7038 163.993 29.6658 164.321 29.6348C163.993 29.6658 163.665 29.7038 163.336 29.749ZM162.418 29.8928C162.248 29.923 162.078 29.9551 161.908 29.9891C162.078 29.9551 162.248 29.923 162.418 29.8928ZM160.36 30.3503L160.36 30.3512L160.881 30.2179C161.201 30.1395 161.521 30.0679 161.841 30.003C161.347 30.1031 160.853 30.2182 160.36 30.3503ZM161.2 25.4616C161.24 25.4538 161.281 25.4474 161.322 25.4398L161.322 25.4389C161.281 25.4465 161.24 25.4538 161.2 25.4616ZM152.841 25.5377C154.602 24.6587 156.491 23.9388 158.498 23.4011C160.268 22.9268 162.03 22.6214 163.77 22.4738L154.858 11.127L152.841 25.5377ZM148.048 63.3062C148.122 63.4374 148.198 63.567 148.274 63.6957C148.198 63.567 148.122 63.4374 148.048 63.3062ZM146.533 60.099C146.501 60.0169 146.47 59.9339 146.439 59.8511C146.47 59.9339 146.501 60.0169 146.533 60.099ZM187.464 51.6529C187.463 51.6303 187.462 51.6076 187.461 51.585C187.462 51.6076 187.463 51.6303 187.464 51.6529ZM162.639 29.856C162.565 29.8683 162.492 29.8798 162.418 29.8928C162.492 29.8798 162.565 29.8683 162.639 29.856Z" fill="#184BFF"/>
</svg>
