<svg width="126" height="109" viewBox="0 0 126 109" fill="none" xmlns="http://www.w3.org/2000/svg">
<path d="M13.7223 27.7084C18.399 27.4029 23.5416 27.5084 27.7607 29.9441C33.8783 33.4762 36.9644 38.12 41.0791 42.9288C45.2993 47.7984 48.6135 52.2892 54.6254 55.7603C58.1835 57.8146 63.9645 58.8959 67.6775 58.3483C72.1448 58.1069 76.9612 58.3261 80.9518 60.6301C87.0695 64.1622 90.1545 68.8062 94.2692 73.615C98.4896 78.4847 101.804 82.9751 107.816 86.4463C111.403 88.5169 117.247 89.6009 120.956 89.0229L125.48 81.1867C120.803 81.4921 115.766 81.4463 111.547 79.0105C105.43 75.4784 102.344 70.8348 98.229 66.0259C94.0087 61.1561 90.6941 56.6658 84.6818 53.1945C81.117 51.1365 75.2182 49.9941 71.5048 50.548C67.0541 50.7936 62.3404 50.6248 58.3563 48.3245C52.2386 44.7924 49.1526 40.1479 45.0377 35.339C40.8177 30.4695 37.5035 25.9794 31.4916 22.5083C27.9054 20.4378 21.9555 19.2931 18.2464 19.871L13.7223 27.7084ZM78.0011 27.8996L84.8273 14.2478L91.6011 27.8992L98.9471 27.8993L91.4964 14.1441L98.6869 0.700994L91.3399 0.70117L84.8271 14.0396L78.2625 0.701097L70.9669 0.700645L78.1582 14.1442L70.7067 27.8999L78.0011 27.8996ZM22.6207 46.7949L25.3977 38.5158L3.30305 19.465L32.3847 17.676L35.1612 9.39496L5.70654 11.6671L0.52009 27.1372L22.6207 46.7949ZM24.1899 92.4918C24.1899 101.454 30.6512 108.248 39.6966 108.248C48.7417 108.247 55.2026 101.453 55.2026 92.4915C55.2024 83.6964 48.7411 76.8185 39.6959 76.8185C30.6507 76.8187 24.1899 83.6967 24.1899 92.4918ZM39.6958 103.162C34.1104 103.162 29.7756 99.1606 29.7756 92.4914C29.7758 85.9473 34.1111 81.8622 39.6966 81.8622C45.282 81.8624 49.6168 85.9477 49.6168 92.4918C49.6168 99.1611 45.2814 103.162 39.6958 103.162Z" fill="#184BFF"/>
</svg>
