<svg width="148" height="75" viewBox="0 0 148 75" fill="none" xmlns="http://www.w3.org/2000/svg">
<path d="M119.284 51.0107C111.804 46.015 103.155 41.2568 93.8047 41.2568C80.247 41.2569 70.6629 46.0144 59.209 50.0586C47.5211 54.1028 37.703 58.3857 24.3789 58.3857C16.4311 58.3857 5.67854 54.5786 0.0683572 50.0586L0.0683579 32.6924C7.54849 37.6881 15.9633 42.4462 25.3135 42.4463C38.8714 42.4463 48.456 37.6887 59.9102 33.6445C71.598 29.6003 81.4161 25.3184 94.7402 25.3184C102.688 25.3185 113.674 29.1246 119.284 33.6445L119.284 51.0107ZM141.775 62.7305L86.1758 74.1963L89.5078 57.7686L144.51 47.3086L97.8916 16.4277L101.224 -2.04466e-06L148 32.041L141.775 62.7305Z" fill="#184BFF"/>
</svg>
