<svg width="114" height="116" viewBox="0 0 114 116" fill="none" xmlns="http://www.w3.org/2000/svg">
<path d="M92.8363 94.993C97.4605 90.3688 105.045 90.3689 109.761 95.0855C114.385 99.7096 114.385 107.293 109.761 111.917C105.044 116.634 97.4605 116.634 92.8363 112.01C88.1197 107.294 88.1197 99.7096 92.8363 94.993ZM67.0967 69.2533C71.7208 64.6293 79.3044 64.6299 84.021 69.3465C88.6448 73.9707 88.6449 81.5535 84.021 86.1776C79.3044 90.8941 71.7209 90.8947 67.0967 86.2708C62.38 81.5542 62.38 73.9699 67.0967 69.2533ZM41.357 43.5137C45.9811 38.8897 53.564 38.8898 58.2806 43.6062C62.9047 48.2303 62.9053 55.8138 58.2813 60.4379C53.5647 65.1546 45.9805 65.1546 41.3563 60.5305C36.6399 55.8138 36.6405 48.2302 41.357 43.5137ZM80.107 22.578L67.2065 35.4786L12.3477 13.2255L34.7431 67.942L21.8425 80.8425L0.011304 24.9887L24.1109 0.889061L80.107 22.578Z" fill="#184BFF"/>
</svg>
