<svg width="169" height="139" viewBox="0 0 169 139" fill="none" xmlns="http://www.w3.org/2000/svg">
<path d="M167.332 29.6406L123.459 138.5H116.09L159.962 29.6406H167.332ZM154.515 0.5L110.643 109.36H103.272L147.146 0.5H154.515ZM51.9824 0.500977L8.10938 109.36H0.740234L44.6133 0.500977H51.9824Z" fill="#184BFF" stroke="white"/>
<path d="M93.5754 139V135.366H107.203V139H93.5754Z" fill="#184BFF"/>
<path d="M128.099 4.54237V0.908386H141.726V4.54237H128.099Z" fill="#184BFF"/>
<path d="M110.837 4.54237V0.908386H124.464V4.54237H110.837Z" fill="#184BFF"/>
<path d="M92.6665 4.54237V0.908386H106.294V4.54237H92.6665Z" fill="#184BFF"/>
<path d="M74.4963 4.54237V0.908386H88.1238V4.54237H74.4963Z" fill="#184BFF"/>
<path d="M56.3269 4.54237V0.908386H69.9544V4.54237H56.3269Z" fill="#184BFF"/>
<path d="M93.5754 128.098V124.464H107.203V128.098H93.5754Z" fill="#184BFF"/>
<path d="M93.6897 117.559V113.925H107.317V117.559H93.6897Z" fill="#184BFF"/>
<path d="M75.4055 139V135.366H89.033V139H75.4055Z" fill="#184BFF"/>
<path d="M57.2354 139V135.366H70.8628V139H57.2354Z" fill="#184BFF"/>
<path d="M39.0657 139V135.366H52.6931V139H39.0657Z" fill="#184BFF"/>
<path d="M21.8044 139V135.366H35.4319V139H21.8044Z" fill="#184BFF"/>
<path d="M75.4055 128.098V124.464H89.033V128.098H75.4055Z" fill="#184BFF"/>
<path d="M57.2354 128.098V124.464H70.8628V128.098H57.2354Z" fill="#184BFF"/>
<path d="M39.0657 128.098V124.464H52.6931V128.098H39.0657Z" fill="#184BFF"/>
<path d="M21.8044 128.098V124.464H35.4319V128.098H21.8044Z" fill="#184BFF"/>
<path d="M75.5198 117.559V113.925H89.1472V117.559H75.5198Z" fill="#184BFF"/>
<path d="M57.3501 117.559V113.925H70.9776V117.559H57.3501Z" fill="#184BFF"/>
<path d="M39.1799 117.559V113.925H52.8074V117.559H39.1799Z" fill="#184BFF"/>
<path d="M21.9187 117.559V113.925H35.5462V117.559H21.9187Z" fill="#184BFF"/>
</svg>
