<svg width="190" height="175" viewBox="0 0 190 175" fill="none" xmlns="http://www.w3.org/2000/svg">
<path d="M110.406 113.809C118.962 105.253 133.176 108.859 144.136 119.819C149.934 125.617 153.611 131.84 155.308 135.8L149.65 139.477C148.024 135.446 145.125 130.002 139.256 124.133C130.559 115.436 120.942 112.89 115.497 118.335C110.406 123.426 111.326 128.871 116.275 140.75C121.579 153.407 123.134 161.609 115.497 169.246C107.295 177.448 93.7896 176.105 81.3447 163.66C75.3344 157.65 70.3847 149.73 68.334 145.982L74.4854 142.094C76.4653 146.195 80.6374 153.76 85.9404 159.063C95.7692 168.892 104.608 170.519 110.548 164.579C115.568 159.559 114.79 153.831 110.053 142.447C105.457 131.346 102.204 122.011 110.406 113.809ZM50.5 0C81.5922 2.71816e-06 101 21.7846 101 47.9258C101 47.9605 100.998 47.9954 100.998 48.0303C100.998 48.0612 101 48.0921 101 48.123C101 55.9459 99.2525 63.3785 95.9531 69.9551C94.4641 73.501 92.6024 77.2085 90.3057 80.998L58.2891 134.629L65.3525 146.351H35.6475L42.71 134.629L10.6943 80.998C8.39755 77.2083 6.5349 73.5011 5.0459 69.9551C1.74666 63.3786 -6.83883e-07 55.9458 0 48.123C1.6627e-07 48.0921 0.000922879 48.0612 0.000976563 48.0303C0.000869154 47.9954 4.92521e-07 47.9605 0 47.9258C-1.98181e-06 25.2565 14.5949 5.86269 38.748 1.11133C42.4471 0.38319 46.3706 1.02301e-07 50.5 0ZM166 67C180.776 67 190 77.3529 190 89.7764C190 89.7923 189.999 89.8082 189.999 89.8242C189.999 89.8395 190 89.8548 190 89.8701C190 93.5839 189.17 97.1123 187.605 100.235C186.897 101.924 186.012 103.689 184.918 105.494L169.701 130.982L173.059 136.553H158.941L162.298 130.982L147.082 105.494C145.988 103.689 145.102 101.924 144.394 100.235C142.829 97.1124 142 93.5838 142 89.8701V89.7764C142 79.8763 147.857 71.2911 157.714 68.2119C158.1 68.0911 158.493 67.9786 158.892 67.875C159.29 67.7715 159.695 67.6767 160.105 67.5908C161.954 67.2041 163.922 67 166 67ZM174.07 111.445C172.038 112.07 169.836 112.468 167.478 112.606L167.412 112.646C166.936 112.661 166.465 112.665 166 112.659C165.535 112.665 165.064 112.661 164.588 112.646L164.521 112.606C162.163 112.468 159.961 112.07 157.929 111.445L166 124.838L174.07 111.445ZM67.4805 93.5205C63.2046 94.8338 58.5714 95.6734 53.6104 95.9648L53.4707 96.0488C52.4688 96.0788 51.4784 96.0862 50.5 96.0742C49.5216 96.0862 48.5312 96.0788 47.5293 96.0488L47.3887 95.9648C42.4276 95.6733 37.7944 94.8339 33.5186 93.5205L50.5 121.701L67.4805 93.5205ZM166 73.1172C155.459 73.1172 148.4 80.3646 148.4 89.7764C148.4 99.1881 155.459 106.341 166 106.341C170.776 106.341 174.838 104.873 177.852 102.391C177.955 102.305 178.058 102.218 178.159 102.13C181.607 99.1387 183.6 94.7764 183.6 89.7764C183.6 87.2765 183.102 84.9293 182.173 82.8301C182.064 82.5831 181.948 82.3396 181.827 82.0996C179.102 76.7005 173.412 73.1172 166 73.1172ZM50.5 12.8721C28.3196 12.8721 13.4668 28.1219 13.4668 47.9258C13.467 67.7295 28.3198 82.7803 50.5 82.7803C50.8465 82.7803 51.1913 82.7768 51.5342 82.7695C73.1407 82.3091 87.533 67.4201 87.5332 47.9258C87.5332 28.1219 72.6804 12.8721 50.5 12.8721Z" fill="#184BFF"/>
</svg>
