<svg width="124" height="131" viewBox="0 0 124 131" fill="none" xmlns="http://www.w3.org/2000/svg">
<path d="M55.5 124V0H62.5V124H55.5Z" fill="#184BFF"/>
<path d="M62 124V0H69V124H62Z" fill="#184BFF"/>
<path d="M3.57628e-06 124L124 124L124 131L3.2703e-06 131L3.57628e-06 124Z" fill="#184BFF"/>
<path d="M46 124.4V52H52.5V124.4H46Z" fill="#184BFF"/>
<path d="M46 124.4V52H52.5V124.4H46Z" fill="#184BFF"/>
<path d="M40 124.4V52H46.5V124.4H40Z" fill="#184BFF"/>
<path d="M72.5 63L79.5 63L79.5 124L72.5 124L72.5 63Z" fill="#184BFF"/>
<path d="M79 63L86 63L86 124L79 124L79 63Z" fill="#184BFF"/>
<path d="M23 70L30 70L30 131L23 131L23 70Z" fill="#184BFF"/>
<path d="M29.5 70L36.5 70L36.5 131L29.5 131L29.5 70Z" fill="#184BFF"/>
<path d="M89.5 90L97.5 90L97.5 124L89.5 124L89.5 90Z" fill="#184BFF"/>
<path d="M97 90L105 90L105 124L97 124L97 90Z" fill="#184BFF"/>
</svg>
