<svg width="180" height="181" viewBox="0 0 180 181" fill="none" xmlns="http://www.w3.org/2000/svg">
<path d="M111.747 111.747C90.695 132.8 58.867 131.902 37.615 110.65C16.5626 89.5975 15.465 57.5699 36.5175 36.5174C57.5699 15.465 89.5975 16.5625 110.65 37.615C131.902 58.8669 132.8 90.695 111.747 111.747ZM102.967 102.967C117.834 88.1009 119.729 65.4521 101.271 46.9938C82.9126 28.6353 60.0642 30.3314 45.1978 45.1978C30.3314 60.0642 28.6353 82.9126 46.9938 101.271C65.4521 119.729 88.1009 117.834 102.967 102.967Z" fill="#184BFF"/>
<path d="M117.536 129.309L128.511 118.334L177.201 165.228L164.529 177.899L117.536 129.309ZM98.0795 98.8776C103.168 93.7891 111.349 93.7891 116.338 98.7778C121.427 103.866 121.427 112.048 116.338 117.136C111.349 122.125 103.168 122.125 98.0795 117.037C93.0908 112.048 93.0908 103.866 98.0795 98.8776Z" fill="#184BFF"/>
</svg>
