<svg width="181" height="177" viewBox="0 0 181 177" fill="none" xmlns="http://www.w3.org/2000/svg">
<path d="M111.747 111.747C90.695 132.8 58.867 131.902 37.615 110.65C16.5626 89.5975 15.465 57.5699 36.5175 36.5174C57.5699 15.465 89.5975 16.5625 110.65 37.615C131.902 58.8669 132.8 90.695 111.747 111.747ZM102.967 102.967C117.834 88.1009 119.729 65.4521 101.271 46.9938C82.9126 28.6353 60.0642 30.3314 45.1978 45.1978C30.3314 60.0642 28.6353 82.9126 46.9938 101.271C65.4521 119.729 88.1009 117.834 102.967 102.967Z" fill="#184BFF"/>
<path d="M118.536 125.611L129.511 114.635L178.201 161.529L165.529 174.201L118.536 125.611ZM99.0795 95.1793C104.168 90.0908 112.349 90.0908 117.338 95.0795C122.427 100.168 122.427 108.35 117.338 113.438C112.349 118.427 104.168 118.427 99.0795 113.338C94.0908 108.35 94.0908 100.168 99.0795 95.1793Z" fill="#184BFF"/>
<circle cx="108.971" cy="35.9703" r="26.4269" fill="white"/>
<path d="M95.373 37.8085V34.131H107.743V21.7612H111.42V34.131H123.79V37.8085H111.42V50.1783H107.743V37.8085H95.373Z" fill="#184BFF"/>
<path d="M109.198 65.1547C93.2995 65.1547 81.395 52.4822 81.395 36.2C81.395 19.9946 93.2995 7.24536 109.198 7.24536C125.096 7.24536 137 19.9946 137 36.2C137 52.4822 125.096 65.1547 109.198 65.1547ZM109.198 60.0857C121.409 60.0857 131.778 51.6374 131.778 36.2C131.778 20.8395 121.409 12.2375 109.198 12.2375C96.986 12.2375 86.6176 20.8395 86.6176 36.2C86.6176 51.6374 96.986 60.0857 109.198 60.0857Z" fill="#184BFF"/>
<path d="M135.398 35.9703C135.398 50.5655 123.566 62.3972 108.971 62.3972C94.3757 62.3972 82.5439 50.5655 82.5439 35.9703C82.5439 21.3752 94.3757 9.54346 108.971 9.54346C123.566 9.54346 135.398 21.3752 135.398 35.9703Z" fill="white"/>
<path d="M109.198 5.24536C126.292 5.24542 139 18.9841 139 36.2004C139 53.4969 126.288 67.1545 109.198 67.1545C92.1072 67.1545 79.3952 53.497 79.395 36.2004C79.395 18.9841 92.1037 5.24536 109.198 5.24536ZM109.198 14.2375C103.563 14.2375 98.4406 16.2176 94.7339 19.8811C91.0397 23.5323 88.6177 28.9894 88.6177 36.2004C88.6178 43.4514 91.0408 48.8847 94.729 52.5042C98.4312 56.1373 103.553 58.0862 109.198 58.0862C114.842 58.0862 119.964 56.1373 123.667 52.5042C127.355 48.8847 129.778 43.4514 129.778 36.2004C129.778 28.9894 127.356 23.5323 123.662 19.8811C119.955 16.2176 114.832 14.2376 109.198 14.2375ZM113.42 19.761V32.1311H125.791V39.8088H113.42V52.178H105.743V39.8088H93.3735V32.1311H105.743V19.761H113.42Z" fill="#184BFF" stroke="white" stroke-width="4"/>
</svg>
