<svg width="101" height="154" viewBox="0 0 101 154" fill="none" xmlns="http://www.w3.org/2000/svg">
<path d="M42.5045 78.6317L38.7756 78.8063L48.7823 83.9727L63.1854 121.201L62.2462 101.245L66.3879 101.051L67.3303 121.067L63.2084 121.259L65.8277 128.029L67.654 127.944L67.9116 133.416L70.7184 140.671L89.4508 104.383L96.8137 108.184L95.8736 88.2236L100.015 88.0283L100.958 108.045L96.9114 108.235L97.1875 108.377L73.8434 153.598L63.897 148.463L37.9114 78.594L15.3751 122.249L7.63932 118.255L7.97161 117.611L3.88186 117.804L2.93965 97.7875L7.08035 97.5928L8.0189 117.518L30.2704 74.4164L38.3519 78.5877L37.4203 58.8104L41.5622 58.615L42.5045 78.6317ZM6.75663 90.7151L2.61593 90.9098L1.67346 70.894L5.81416 70.6993L6.75663 90.7151ZM35.1066 5.01118L39.0292 4.82678L39.1351 7.09152L45.2056 10.2255L67.1417 66.9238L85.8739 30.6372L93.3436 34.4919L93.3415 34.4357L97.4834 34.2403L98.4256 54.257L94.2839 54.4515L93.3719 35.0919L70.2667 79.8508L65.2673 77.2697L66.0634 94.1718L61.9225 94.3675L61.0138 75.0745L60.3191 74.7165L39.7105 19.301L39.9714 24.8435L35.8307 25.0382L34.9589 6.52452L34.3347 4.84682L11.7984 48.5015L4.59386 44.7815L5.4907 63.8206L1.3488 64.016L0.406583 43.9993L4.42235 43.8105L26.6937 0.669215L35.1066 5.01118ZM99.6918 81.1505L95.5499 81.3459L94.6077 61.3292L98.7493 61.1347L99.6918 81.1505ZM41.2385 51.7373L37.0966 51.9327L36.1544 31.9159L40.296 31.7215L41.2385 51.7373Z" fill="#184BFF"/>
</svg>
