<svg width="115" height="141" viewBox="0 0 115 141" fill="none" xmlns="http://www.w3.org/2000/svg">
<path d="M27.7158 51.2978C27.7158 58.5367 23.1948 64.117 16.9971 65.5088L16.9971 136.285L10.8721 136.285L10.8721 65.5137C4.63047 64.1304 0.152341 58.5455 0.152342 51.2978C0.152534 42.9115 6.14827 36.751 13.9346 36.751C21.6477 36.751 27.7156 42.9116 27.7158 51.2978ZM24.5361 51.2978C24.536 45.3758 20.6606 40.4874 13.9346 40.4873C7.17187 40.4873 3.37029 45.3758 3.37011 51.2978C3.37011 57.2201 7.17171 62.1094 13.9346 62.1094C20.6608 62.1093 24.5361 57.22 24.5361 51.2978ZM10.8721 32.1572L10.8721 -4.55158e-06L16.9971 -4.28384e-06L16.9971 32.1572L10.8721 32.1572ZM56.8105 85.752C56.8105 93.6969 50.8155 99.5339 43.0293 99.5342C35.316 99.5342 29.2471 93.6971 29.2471 85.7519C29.2473 78.8944 33.7685 73.6087 39.9658 72.29L39.9658 -3.27985e-06L47.623 -2.94514e-06L47.623 72.6973C53.0523 74.4941 56.8104 79.4619 56.8105 85.752ZM53.5937 85.752C53.5936 80.1417 49.7917 75.511 43.0293 75.5107C36.3032 75.5107 32.4279 80.1416 32.4277 85.7519C32.4277 91.3625 36.303 95.9941 43.0293 95.9941C49.7918 95.9939 53.5937 91.3624 53.5937 85.752ZM39.9658 136.285L39.9658 104.128L47.623 104.128L47.623 136.285L39.9658 136.285ZM85.9053 51.2979C85.9053 58.3151 81.4204 63.7736 75.1865 65.3691L75.1865 136.285L67.5293 136.285L67.5293 65.376C61.2538 63.7891 56.8105 58.325 56.8105 51.2978C56.8107 42.9117 63.1388 36.7512 71.3574 36.751C79.4991 36.751 85.9051 42.9115 85.9053 51.2979ZM82.5478 51.2979C82.5477 45.3758 78.4572 40.4873 71.3574 40.4873C64.2193 40.4875 60.2062 45.3759 60.2061 51.2978C60.2061 57.22 64.2191 62.1092 71.3574 62.1094C78.4574 62.1094 82.5478 57.2201 82.5478 51.2979ZM67.5293 32.1572L67.5293 -2.07501e-06L75.1865 -1.7403e-06L75.1865 32.1572L67.5293 32.1572ZM115 89.5811C115 97.9674 108.671 104.128 100.452 104.128C92.3106 104.128 85.9055 97.9673 85.9053 89.5811C85.9053 82.0012 91.1376 76.2395 98.1553 75.2012L98.1553 3.0625L104.28 3.0625L104.28 75.5029C110.556 77.0896 115 82.5537 115 89.5811ZM111.604 89.5811C111.604 83.6588 107.591 78.7695 100.452 78.7695C93.3523 78.7696 89.2617 83.6589 89.2617 89.5811C89.2619 95.503 93.3525 100.391 100.452 100.392C107.591 100.392 111.603 95.5031 111.604 89.5811ZM98.1553 140.879L98.1553 108.722L104.28 108.722L104.28 140.879L98.1553 140.879Z" fill="#184BFF"/>
</svg>
