<svg width="79" height="151" viewBox="0 0 79 151" fill="none" xmlns="http://www.w3.org/2000/svg">
<path d="M76.2715 55.6377C77.3092 58.8546 78.2432 64.9772 78.2432 71.0996C78.2431 92.4318 65.3769 106.876 43.624 108.679V142.119H58.1113V150.068H20.7549V142.119H35.1777V108.732C13.4877 107.129 0.000205225 91.529 0 70.9961C-2.81229e-07 64.5623 1.2455 59.1653 2.2832 56.2598L11.3115 56.3643C10.4814 58.8548 9.13184 64.4585 9.13184 70.6846C9.13195 87.9102 20.6507 99.1171 38.9141 99.1172C57.8003 99.1172 69.1113 88.7401 69.1113 70.4766C69.1113 64.2504 68.1773 58.8545 67.1396 55.6377H76.2715ZM25.7783 68.0127C25.7783 79.0043 30.1449 84.2744 39.2607 84.2744C48.453 84.2743 52.7431 79.0795 52.7432 68.0127V37.9736H25.7783V68.0127ZM39.2344 8.68359C29.0201 8.68359 23.46 13.0251 23.46 23.6523V29.6143H55.0732V23.7178C55.0732 13.3496 49.19 8.68364 39.2344 8.68359ZM62.7012 68.0879C62.7012 84.8765 55.041 93.6093 39.2607 93.6094C23.557 93.6094 15.8965 84.8765 15.8965 68.0879V23.7178C15.8965 8.8782 23.7836 6.75375e-07 39.2344 0C54.3618 5.94001e-05 62.7012 8.61891 62.7012 23.1992V68.0879Z" fill="#184BFF"/>
</svg>
