<svg width="164" height="153" viewBox="0 0 164 153" fill="none" xmlns="http://www.w3.org/2000/svg">
<path d="M31.9692 96.7526C19.5438 100.082 9.26177 94.2412 5.6751 80.8556C2.19437 67.8653 8.81078 57.3149 20.615 54.152C24.1167 53.2137 27.2352 53.1045 28.968 53.2456L30.2281 58.1744C28.7516 58.0858 25.5049 58.1688 22.1162 59.0768C12.7406 61.589 8.32065 69.4926 10.9842 79.433C13.7385 89.7122 21.036 94.3551 30.9764 91.6916C34.3651 90.7836 37.1659 89.4884 38.7654 88.4544L40.0971 93.4246C38.4976 94.4585 35.3015 95.8597 31.9692 96.7526Z" fill="#184BFF"/>
<path d="M69.2255 91.5926C69.2255 106.166 59.8188 115.706 44.119 115.706C28.8828 115.706 19.2773 105.371 19.2773 91.5264C19.2773 87.4193 20.0723 83.9746 20.7347 82.1197L26.498 82.186C25.968 83.7758 25.1068 87.353 25.1068 91.3277C25.1068 102.324 32.46 109.479 44.119 109.479C56.1754 109.479 63.396 102.854 63.396 91.1952C63.396 87.2205 62.7998 83.7758 62.1374 81.7222L67.9669 81.7222C68.6293 83.7758 69.2255 87.6842 69.2255 91.5926Z" fill="#184BFF"/>
<path d="M119.358 90.1289C117.983 109.075 104.509 120.646 83.4458 119.118C63.3556 117.66 51.3224 103.258 52.6333 85.1971C53.0381 79.6194 54.5228 75.0991 55.3786 73.1142L61.1248 73.6203C60.269 75.6052 58.7522 80.5681 58.3795 85.7031C57.2679 101.02 67.1557 111.883 83.8827 113.097C101.318 114.363 112.423 106.002 113.625 89.4458C114.029 83.8681 113.479 79.2001 112.944 76.7583L118.785 77.1822C119.3 79.8896 119.724 85.0824 119.358 90.1289Z" fill="#184BFF"/>
<path d="M110.347 103.819C120.518 114.256 133.913 114.523 145.156 103.566C156.068 92.9319 155.735 78.827 146.072 68.9116C143.206 65.9702 140.232 64.058 138.463 63.192L134.382 67.2617C135.871 68.0305 138.984 69.9913 141.758 72.8379C149.433 80.7133 149.16 90.9689 140.81 99.1061C132.176 107.521 122.381 107.816 114.244 99.466C111.47 96.6195 109.493 93.7364 108.534 91.8033L104.359 95.8719C105.318 97.8049 107.619 101.02 110.347 103.819Z" fill="#184BFF"/>
<path d="M70.3327 57.2937C72.6373 42.9033 64.8575 31.9966 49.3552 29.5139C34.3107 27.1044 23.1919 35.7895 21.0025 49.4604C20.353 53.5158 20.5932 57.0429 20.954 58.9792L26.6552 59.8251C26.3833 58.1715 26.0987 54.5031 26.7272 50.5785C28.4662 39.7203 36.8582 33.8187 48.3705 35.6625C60.2752 37.5691 66.3574 45.252 64.5137 56.7643C63.8851 60.6889 62.7517 63.996 61.7728 65.919L67.529 66.8409C68.5078 64.9179 69.7146 61.1529 70.3327 57.2937Z" fill="#184BFF"/>
<path d="M117.121 51.8756C120.125 33.1185 109.662 18.7671 88.8086 15.4274C68.9191 12.242 53.9054 23.5021 51.0417 41.3827C50.1573 46.9047 50.5664 51.6449 50.9445 53.7732L56.6538 54.5976C56.2757 52.4694 55.9368 47.2909 56.751 42.2072C59.1795 27.0437 71.2941 18.7354 87.8541 21.3876C105.115 24.152 114.008 34.8358 111.383 51.2265C110.499 56.7484 108.893 61.1659 107.813 63.4202L113.596 64.3464C114.718 61.8291 116.32 56.8717 117.121 51.8756Z" fill="#184BFF"/>
<path d="M105.122 51.2033C112.65 38.7243 125.631 35.4152 139.075 43.5248C152.121 51.3949 155.008 65.2052 147.856 77.0602C145.735 80.577 143.275 83.116 141.749 84.362L136.849 81.3283C138.124 80.2407 140.709 77.6226 142.762 74.2192C148.442 64.8032 145.841 54.879 135.858 48.8567C125.535 42.6291 115.93 44.5716 109.908 54.5548C107.855 57.9581 106.586 61.2157 106.092 63.3162L101.101 60.3051C101.594 58.2045 103.103 54.5499 105.122 51.2033Z" fill="#184BFF"/>
<path d="M85.1653 100.933L91.1737 100.933L91.1737 141.483L93.9633 135.058L107.84 121.279L107.84 129.132L88.1695 148.765L68.4991 129.132L68.4991 121.279L82.4472 135.058L85.1653 141.34L85.1653 100.933Z" fill="#184BFF"/>
<path d="M110.84 130.376L88.1699 153.003L65.499 130.376L65.499 114.099L82.165 130.562L82.165 97.9331L94.1738 97.9331L94.1738 130.622L110.84 114.073L110.84 130.376ZM85.165 100.933L85.165 141.34L82.4473 135.058L68.499 121.28L68.499 129.132L88.1699 148.765L107.84 129.132L107.84 121.28L93.9629 135.058L91.1738 141.483L91.1738 100.933L85.165 100.933Z" fill="white"/>
<path d="M110.49 130.231L88.1703 152.508L65.8497 130.231L65.8497 114.937L82.5163 131.401L82.5163 98.2832L93.8244 98.2832L93.8244 131.462L110.49 114.914L110.49 130.231ZM85.166 100.933L85.166 141.34L82.4477 135.058L68.4995 121.279L68.4995 129.132L88.1703 148.765L107.84 129.132L107.84 121.279L93.9641 135.058L91.1746 141.483L91.1746 100.933L85.166 100.933Z" fill="white"/>
</svg>
