<svg width="132" height="162" viewBox="0 0 132 162" fill="none" xmlns="http://www.w3.org/2000/svg">
<path d="M11.5958 99.3346L124.822 95.3255L124.237 78.8037L131.035 78.5629L131.875 102.28L72.3087 104.389L69.5093 115.763L77.0261 115.497L90.0218 160.105L82.2513 160.38L69.5184 116.022L58.4342 161.224L50.6637 161.499L64.7031 104.658L5.05205 106.77L4.21231 83.0534L11.0108 82.8127L11.5958 99.3346ZM45.7461 84.5163L40.6468 84.6968L39.3206 47.2418L44.4199 47.0612L45.7461 84.5163ZM56.9383 84.12L50.5634 84.3457L48.7782 33.9252L55.1531 33.6995L56.9383 84.12ZM66.9965 83.7639L61.8962 83.9445L61.1565 63.0552L66.2569 62.8746L66.9965 83.7639ZM75.4775 83.4636L71.035 83.6209L69.8799 50.9987L74.3224 50.8414L75.4775 83.4636ZM85.2253 83.1184L79.6721 83.3151L78.1172 39.4002L83.6704 39.2036L85.2253 83.1184ZM93.9854 82.8083L89.5439 82.9655L88.8997 64.7728L93.3413 64.6156L93.9854 82.8083ZM74.6802 11.1301C93.6061 12.8869 111.657 18.7022 127.626 27.381L128.452 27.8306L130.722 39.6923L127.049 37.7751C109.387 28.5549 91.3304 22.819 72.8284 21.3417L72.6176 22.508L67.1006 22.7034L67.2444 21.0264C58.2905 20.7304 49.2319 21.4394 40.0627 23.2425C25.8101 26.0453 14.5502 30.5533 5.20356 35.8169L2.78825 37.1766L0.851597 27.0513L2.11733 26.342C13.3146 20.0685 25.1212 15.5074 38.0949 12.9561C48.1939 10.9701 58.2627 10.2702 68.135 10.6886L69.0075 0.556617L76.6463 0.286147L74.6802 11.1301Z" fill="#184BFF"/>
</svg>
