<svg width="150" height="110" viewBox="0 0 150 110" fill="none" xmlns="http://www.w3.org/2000/svg">
<path d="M26.7246 90.1807C49.8565 83.9825 75.6831 86.334 95.9482 95.0137L98.3164 103.854C76.7398 94.4167 51.3841 91.9388 28.1582 98.1621C16.8744 101.186 8.72002 104.982 1.99023 109.204L0 101.776C7.89505 96.6374 16.6632 92.8766 26.7246 90.1807ZM48.0244 0C73.0919 0 89.2402 16.3805 89.2402 38.6406C89.2401 60.9006 73.0917 77.2803 48.0244 77.2803C22.8035 77.2801 6.65641 60.9005 6.65625 38.6406C6.65625 16.3805 22.8034 0.000142947 48.0244 0ZM48.0244 11.2002C29.8776 11.2003 20.4971 23.5206 20.4971 38.6406C20.4972 53.7605 29.8778 66.0799 48.0244 66.0801C66.0175 66.0801 75.3993 53.7606 75.3994 38.6406C75.3994 35.9728 75.1052 33.3923 74.5254 30.9512C72.1341 32.0341 69.1971 32.7852 66.8691 32.7852C61.1691 32.7852 56.9688 30.9852 51.9688 29.2852C47.0689 27.5852 42.9688 25.585 37.1689 25.585C33.1691 25.585 29.569 27.5846 26.3691 29.6846V22.3848C28.7692 20.4848 33.3696 18.8848 36.7695 18.8848C42.4692 18.8848 46.6692 20.6848 51.6689 22.3848C56.5688 24.0847 60.669 26.0849 66.4688 26.085C68.495 26.085 70.4437 25.5695 72.29 24.79C68.1748 16.669 60.0115 11.2002 48.0244 11.2002Z" fill="#184BFF"/>
<path d="M42 47L47.7289 21H50.0921L44.8645 44.7376H56L55.4987 47H42Z" fill="#184BFF"/>
<path d="M132.06 76.5028C116.531 72.7567 99.1938 74.1779 85.5898 79.4237L84 84.7663C98.4844 79.0629 115.506 77.5653 131.097 81.3265C138.672 83.1538 144.146 85.4483 148.664 88L150 83.5109C144.7 80.405 138.814 78.1321 132.06 76.5028ZM117.761 22C100.933 22 90.0928 31.8999 90.0928 45.3533C90.093 58.8067 100.933 68.7061 117.761 68.7061C134.692 68.706 145.532 58.8066 145.532 45.3533C145.532 31.9 134.692 22.0001 117.761 22ZM117.761 28.7691C129.943 28.7692 136.24 36.2152 136.24 45.3533C136.24 54.4914 129.943 61.9369 117.761 61.937C105.682 61.937 99.3843 54.4914 99.3842 45.3533C99.3842 43.741 99.5817 42.1814 99.971 40.7061C101.576 41.3605 103.548 41.8145 105.111 41.8145C108.937 41.8145 111.757 40.7266 115.113 39.6992C118.403 38.6717 121.155 37.4629 125.048 37.4629C127.734 37.4629 130.15 38.6714 132.298 39.9405V35.5287C130.687 34.3805 127.599 33.4134 125.317 33.4134C121.49 33.4135 118.671 34.5013 115.315 35.5287C112.025 36.5562 109.273 37.765 105.379 37.765C104.019 37.765 102.711 37.4535 101.472 36.9824C104.234 32.0743 109.714 28.7691 117.761 28.7691Z" fill="#184BFF"/>
<path d="M122 50L117.908 35H116.22L119.954 48.6948H112L112.358 50H122Z" fill="#184BFF"/>
</svg>
