<svg width="65" height="122" viewBox="0 0 65 122" fill="none" xmlns="http://www.w3.org/2000/svg">
<path d="M35.8496 64C50.6578 64 61 71.7768 61 86.4658V122H50.6582V89.0576C50.6582 78.0409 45.369 72.6406 34.5566 72.6406C24.2145 72.6407 14.342 79.337 14.3418 91.4336V122H4V65.6201H14.1074V80.7412L19.8662 67.9961C22.0994 66.8079 28.0932 64 35.8496 64ZM29.667 111H25L31.3105 84.6768H35.2881L29.667 111ZM34.8105 73C37.1437 73 38.9998 74.8242 39 77.0654C39 79.359 37.1439 81.1836 34.8105 81.1836C32.4772 81.1836 30.6211 79.359 30.6211 77.0654C30.6213 74.8242 32.4774 73 34.8105 73ZM32.5605 0C43.5613 5.90039e-06 52.3777 3.95513 58.0273 10.4492L63.8711 8.88379L63.9697 12.1689L60.1279 13.1973C63.2804 17.9117 65 23.6467 65 30C65 47.2826 52.2905 60 32.5605 60C12.7095 60 5.45019e-07 47.2826 0 30C0 12.7174 12.7095 0 32.5605 0ZM32.5605 8.69531C18.2775 8.69531 10.8936 18.2609 10.8936 30C10.8936 41.7391 18.2775 51.3047 32.5605 51.3047C46.7225 51.3047 54.1064 41.7391 54.1064 30C54.1064 24.6594 52.5775 19.7692 49.5781 16.0244L41.7031 18.1348L41.6045 14.8506L47.0049 13.4023C43.4714 10.4605 38.6414 8.69532 32.5605 8.69531ZM37.5322 19.252L15.2646 25.2188L15.167 21.9346L37.4336 15.9678L37.5322 19.252Z" fill="#184BFF"/>
</svg>
