<svg width="99" height="110" viewBox="0 0 99 110" fill="none" xmlns="http://www.w3.org/2000/svg">
<path d="M26.7246 90.1807C49.8565 83.9825 75.6831 86.334 95.9482 95.0137L98.3164 103.854C76.7398 94.4167 51.3841 91.9388 28.1582 98.1621C16.8744 101.186 8.72002 104.982 1.99023 109.204L0 101.776C7.89505 96.6374 16.6632 92.8766 26.7246 90.1807ZM48.0244 0C73.0919 0 89.2402 16.3805 89.2402 38.6406C89.2401 60.9006 73.0917 77.2803 48.0244 77.2803C22.8035 77.2801 6.65641 60.9005 6.65625 38.6406C6.65625 16.3805 22.8034 0.000142947 48.0244 0ZM48.0244 11.2002C29.8776 11.2003 20.4971 23.5206 20.4971 38.6406C20.4972 53.7605 29.8778 66.0799 48.0244 66.0801C66.0175 66.0801 75.3993 53.7606 75.3994 38.6406C75.3994 35.9728 75.1052 33.3923 74.5254 30.9512C72.1341 32.0341 69.1971 32.7852 66.8691 32.7852C61.1691 32.7852 56.9688 30.9852 51.9688 29.2852C47.0689 27.5852 42.9688 25.585 37.1689 25.585C33.1691 25.585 29.569 27.5846 26.3691 29.6846V22.3848C28.7692 20.4848 33.3696 18.8848 36.7695 18.8848C42.4692 18.8848 46.6692 20.6848 51.6689 22.3848C56.5688 24.0847 60.669 26.0849 66.4688 26.085C68.495 26.085 70.4437 25.5695 72.29 24.79C68.1748 16.669 60.0115 11.2002 48.0244 11.2002Z" fill="#184BFF"/>
</svg>
