<svg width="109" height="125" viewBox="0 0 109 125" fill="none" xmlns="http://www.w3.org/2000/svg">
<path d="M54.3662 0C58.7343 7.3807 66.2219 15.6553 77.4883 22.0527C85.0388 26.3401 92.4837 28.7582 99.1865 29.8975C99.1919 29.5924 99.1983 29.2889 99.2002 28.9873L101.343 30.2246C103.849 30.5575 106.237 30.7129 108.469 30.7207L106.882 33.4219L107.322 33.6768C107.263 49.949 101.816 69.0853 92.3838 85.4229C82.9513 101.76 69.1018 116.046 55.0391 124.233L53.832 123.536L53.667 123.632C52.2632 122.815 50.8588 121.938 49.4561 121.01L46.917 119.544C46.9873 119.503 47.0566 119.459 47.127 119.418C35.295 111.063 23.8711 98.9725 15.8564 85.0908C6.3709 68.6614 1.44474 49.3505 1.38477 33.0791L0 30.7207C1.92493 30.714 3.96507 30.5977 6.09766 30.3525L6.51855 30.1104C6.51878 30.1738 6.52015 30.2372 6.52051 30.3008C13.3526 29.465 21.1057 27.2978 29.0381 23.1133L24.4365 15.9014L30.8711 9.4668L36.6289 18.4785C44.8066 12.7411 50.5095 6.06942 54.1016 0L54.2334 0.224609L54.3662 0ZM54.2344 6.81348C50.3815 12.3285 45.0736 17.6908 38.9346 22.0879L66.1553 64.6914L87.793 43.0547L92.3896 50.3379L64.3174 78.4092L31.3682 26.7656C23.4657 30.9213 14.6587 33.4586 6.62598 34.1807C7.29994 48.0444 11.2367 65.0163 21.084 82.0723C30.0052 97.5242 41.2937 108.738 52.0146 116.3C63.0284 108.741 74.7038 97.0722 84.168 80.6797C93.9104 63.8053 98.1462 47.4047 99.0225 33.8564C91.1537 32.7611 82.7488 30.0135 75.2988 25.7832C66.7272 20.916 59.2497 13.9923 54.2344 6.81348Z" fill="#184BFF"/>
</svg>
