<svg width="177" height="140" viewBox="0 0 177 140" fill="none" xmlns="http://www.w3.org/2000/svg">
<path d="M10.592 101.696C23.6306 79.2533 45.9894 56.7987 72.1839 41.6753C98.3784 26.5519 129.004 18.4159 154.96 18.3457L160.729 28.3388C137.546 28.3993 108.104 34.4601 78.0395 51.8176C47.9754 69.1752 28.0054 91.6427 16.3615 111.689L10.592 101.696Z" fill="#184BFF"/>
<circle cx="87" cy="68" r="49" fill="white"/>
<path d="M21.9741 120.909C47.9297 120.839 78.5553 112.703 104.75 97.5793C130.944 82.4558 153.303 60.0013 166.342 37.5583L160.572 27.5651C148.928 47.6119 128.958 70.0794 98.8941 87.4369C68.83 104.795 39.3876 110.855 16.2046 110.916L21.9741 120.909Z" fill="#184BFF"/>
<path fill-rule="evenodd" clip-rule="evenodd" d="M87.5 9C121.225 9 146 35.6393 146 69.5C146 103.682 121.225 130 87.5 130C53.7746 130 29 103.682 29 69.5C29 35.6393 53.7746 9 87.5 9ZM87.5 22.9619C63.6844 22.9619 44.0244 39.9722 44.0244 69.5C44.0244 99.1883 63.6844 115.878 87.5 115.878C111.316 115.878 130.976 99.1883 130.976 69.5C130.976 39.9722 111.316 22.9619 87.5 22.9619Z" fill="#184BFF"/>
</svg>
