<svg width="118" height="117" viewBox="0 0 118 117" fill="none" xmlns="http://www.w3.org/2000/svg">
<path d="M30.1956 8.69255C59.24 -8.07623 93.1746 -0.152468 109.855 28.7385C126.535 57.6293 116.429 90.9785 87.3851 107.747C58.8811 124.204 24.6766 116.437 7.99642 87.5461C-8.68374 58.6552 1.69163 25.1494 30.1956 8.69255ZM37.0628 91.3342C48.0828 98.026 62.5894 98.2766 77.0853 89.9074C98.6995 77.4284 103.673 56.0945 93.3734 38.2541C92.9788 37.5707 92.5662 36.9053 92.1409 36.256L37.0628 91.3342ZM78.6839 23.8527C67.9916 18.275 54.3786 18.5186 40.4964 26.5334C19.2873 38.7784 14.0421 60.2681 24.3421 78.1086C24.3525 78.1266 24.3639 78.1443 24.3743 78.1623L78.6839 23.8527Z" fill="#184BFF"/>
</svg>
