<svg width="91" height="93" viewBox="0 0 91 93" fill="none" xmlns="http://www.w3.org/2000/svg">
<path d="M45.5 0C72.0417 0 91 20.3518 91 46.377C90.9999 72.8954 72.0416 93 45.5 93C18.9584 93 0.000142857 72.8954 0 46.377C0 20.3518 18.9583 3.34996e-06 45.5 0ZM45.5 14.9248C29.1102 14.9248 16.3896 27.0122 16.3896 46.377C16.3898 66.1115 29.1103 77.9521 45.5 77.9521C61.8897 77.9521 74.6102 66.1115 74.6104 46.377C74.6104 27.0122 61.8898 14.9248 45.5 14.9248ZM44.8965 27C55.4865 27.0002 63.9999 35.7378 64 46.6064C64 57.2621 55.4865 65.9998 44.8965 66C34.514 66 26 57.2622 26 46.6064C26.0001 35.7376 34.514 27 44.8965 27Z" fill="#184BFF"/>
</svg>
