<svg width="92" height="139" viewBox="0 0 92 139" fill="none" xmlns="http://www.w3.org/2000/svg">
<path d="M53.9415 98.2493C63.226 90.1806 76.1343 90.2537 85.0479 99.1673C94.4149 108.535 94.0182 122.313 84.67 131.661C75.4952 140.836 61.6292 141.32 52.2618 131.952C44.1603 123.851 43.4282 112.386 49.3135 103.499L38.9932 91.8597L44.7335 88.5462L53.9415 98.2493ZM79.7423 104.472C74.2958 99.0257 66.297 98.4277 59.5733 104.184L65.1641 110.075L58.5372 113.902L54.9483 109.855C51.8536 115.712 52.9577 122.126 57.5235 126.692C63.308 132.476 72.0582 132.704 78.8848 125.877C85.8421 118.92 85.5267 110.256 79.7423 104.472ZM17.2979 47.2737C24.3554 45.3828 31.2166 46.5368 36.5225 50.1067C37.1045 50.2202 37.6803 50.4304 38.2276 50.7464C39.4658 51.4613 40.323 52.5746 40.7315 53.8284C42.9504 56.38 44.6464 59.5303 45.628 63.1936C47.7654 71.1709 45.7588 78.735 40.8507 84.1302C40.5096 85.5568 39.6052 86.8455 38.2276 87.6409C37.4042 88.1163 36.5172 88.3539 35.6397 88.3782C33.6629 89.5626 31.456 90.5019 29.0528 91.1458C16.5198 94.5038 4.27054 87.9897 0.841861 75.1936C-2.58671 62.3976 4.76493 50.6319 17.2979 47.2737ZM29.9688 55.4466C26.9763 54.2963 23.3841 54.1117 19.4151 55.1751C10.0897 57.6738 5.91134 65.3662 8.02838 73.2679C10.1456 81.1695 17.6102 85.743 26.9356 83.2444C28.0328 82.9504 29.0569 82.5862 30.0079 82.1634C30.2092 80.5259 31.1484 78.996 32.7139 78.0921C33.8179 77.4547 35.0449 77.2379 36.21 77.388C38.8064 73.9609 39.5736 69.5863 38.3809 65.1351C37.9702 63.6023 37.3619 62.1943 36.5801 60.9378C35.3076 61.19 33.9356 61.0005 32.7139 60.2952C30.9026 59.2493 29.9304 57.3657 29.9688 55.4466ZM62.836 0.875289C75.3691 -2.48293 87.6192 4.03133 91.0479 16.8274C94.4765 29.6235 87.1249 41.3891 74.5919 44.7474C66.6995 46.8621 59.0525 45.169 53.5518 40.5472L44.7335 49.8411L38.9932 46.5276L48.9962 35.2454C47.8226 33.3342 46.894 31.1871 46.2618 28.8274C42.8333 16.0315 50.0657 4.29729 62.836 0.875289ZM83.8604 18.7532C81.7432 10.8516 74.2795 6.27821 64.9542 8.77666C55.4505 11.3232 51.3907 18.9843 53.5079 26.886C53.727 27.7038 54.0034 28.4859 54.3311 29.2288L58.5372 24.4866L65.1641 28.3118L58.8809 34.9319C62.3284 37.422 67.0495 38.2996 72.4747 36.846C81.8002 34.3472 85.9777 26.6549 83.8604 18.7532Z" fill="#184BFF"/>
</svg>
