<svg width="179" height="134" viewBox="0 0 179 134" fill="none" xmlns="http://www.w3.org/2000/svg">
<path d="M131.188 4.77637H122.344L120.373 13.626C121.956 13.6289 123.557 13.6659 125.15 13.749C135.644 14.296 144.922 16.9208 152.681 21.3926L160.351 15.2334L167.153 19.1611L158.049 24.9648C172.07 35.683 179.702 53.5836 178.49 76.8232C176.618 112.743 151.225 134.743 118.772 133.052C108.751 132.529 100.585 130.042 96.9922 128.585L97.6875 118.308C101.281 119.764 110.24 122.293 119.467 122.774C146.988 124.209 166.114 106.167 167.673 76.2598C169.298 45.0871 153.886 25.5607 124.138 24.0098C122.041 23.9005 120.018 23.8649 118.089 23.8857L116.883 29.3047H111.585L112.744 24.0957C107.899 24.4218 103.961 25.0687 101.399 25.6807L101.943 15.2363C104.958 14.6027 109.705 13.9979 115.048 13.7461L117.046 4.77637H108.202L109.262 0H132.247L131.188 4.77637ZM64.4238 94.6338C67.2961 94.6338 69.5798 96.9728 69.5801 99.915C69.5801 102.857 67.2963 105.197 64.4238 105.197C61.5515 105.197 59.2686 102.857 59.2686 99.915C59.2688 96.9729 61.5516 94.6339 64.4238 94.6338ZM54.334 97.8789V101.802L15.8867 102.254V97.4258L54.334 97.8789ZM116.918 69.9375L145.158 62.3701L145.452 70.7695L119.037 77.8477L121.439 86.8135L113.063 87.1953L111.127 79.9678L100.343 82.8574L99.9609 74.4805L109.008 72.0566L100.953 41.9971L109.353 41.7031L116.918 69.9375ZM36.5381 83.8867H0V79.6709H36.5381V83.8867ZM80.1094 83.8867H43.5723V79.6709H80.1094V83.8867ZM64.4238 58.5449C67.2963 58.5449 69.5801 60.8847 69.5801 63.8271C69.5798 66.7694 67.2961 69.1084 64.4238 69.1084C61.5516 69.1083 59.2688 66.7693 59.2686 63.8271C59.2686 60.8848 61.5515 58.545 64.4238 58.5449ZM54.334 61.79V65.7129L15.8867 66.166V61.3369L54.334 61.79ZM36.5381 47.7979H0V43.582H36.5381V47.7979ZM80.1094 47.7979H43.5723V43.582H80.1094V47.7979Z" fill="#184BFF"/>
</svg>
