<svg width="84" height="144" viewBox="0 0 84 144" fill="none" xmlns="http://www.w3.org/2000/svg">
<path d="M82.6426 143.824H0.457031V136.976H82.6426V143.824ZM41.7783 71.9121C69.1728 71.9124 83.0986 86.1806 83.0986 110.722V132.409H0.457031V111.292C0.457221 86.1802 14.4977 71.9122 41.7783 71.9121ZM41.7783 79.6738C21.6887 79.6739 7.64847 88.5778 7.64844 109.124V124.99H12.792V120.918C20.5127 116.699 31.0621 114.167 41.376 114.167C51.69 114.167 62.2402 116.699 69.9609 120.918V124.99H76.0215V109.237C76.0212 88.5776 61.9815 79.6741 41.7783 79.6738ZM41.376 119.117C30.3102 119.117 21.1105 121.669 14.3818 124.99H68.3701C61.6415 121.669 52.4417 119.117 41.376 119.117ZM41.7139 103.898C43.6828 103.899 45.2656 105.482 45.2656 107.412C45.2655 109.381 43.6827 110.964 41.7139 110.964C39.7834 110.964 38.2004 109.381 38.2002 107.412C38.2002 105.482 39.7833 103.898 41.7139 103.898ZM41.7139 93.1523C43.6828 93.1526 45.2656 94.7356 45.2656 96.666C45.2654 98.6348 43.6827 100.218 41.7139 100.218C39.7834 100.218 38.2004 98.635 38.2002 96.666C38.2002 94.7355 39.7833 93.1523 41.7139 93.1523ZM41.7139 82.4062C43.6829 82.4064 45.2656 83.9895 45.2656 85.9199C45.2654 87.8888 43.6828 89.4715 41.7139 89.4717C39.7835 89.4717 38.2004 87.8889 38.2002 85.9199C38.2002 83.9894 39.7833 82.4062 41.7139 82.4062ZM82.6416 32.5312C82.6414 57.643 68.6008 71.9119 41.3203 71.9121C13.9259 71.9119 0.000274991 57.6433 0 33.1025V11.4141H82.6416V32.5312ZM7.07715 34.5859C7.07723 42.4818 9.13023 48.6585 12.792 53.2793V48.0859C15.4325 46.0271 20.4929 44.2931 24.2334 44.293C30.5046 44.293 35.1259 46.2437 40.627 48.0859C46.0179 49.9282 50.529 52.0957 56.9102 52.0957C61.3108 52.0956 65.3818 50.0364 68.9023 47.7607V54.2637C66.2619 56.3227 61.0903 58.0566 57.3496 58.0566C51.0787 58.0566 46.4578 56.1059 40.957 54.2637C35.566 52.4214 31.055 50.2539 24.6738 50.2539C20.5662 50.2539 16.8418 52.0472 13.501 54.1367C19.5023 61.011 29.3251 64.1503 41.3203 64.1504C61.4096 64.1503 75.45 55.246 75.4502 34.7002V18.834H7.07715V34.5859ZM82.6426 6.84863H0.457031V0H82.6426V6.84863Z" fill="#184BFF"/>
</svg>
