<svg width="119" height="122" viewBox="0 0 119 122" fill="none" xmlns="http://www.w3.org/2000/svg">
<path d="M44.2109 96.6504C50.3092 96.6504 54.9867 100.907 56.043 106.698H118.567V112.728H55.8232C54.4424 118.033 49.9591 121.77 44.2109 121.771C37.2598 121.771 32.1535 116.307 32.1533 109.211C32.1533 102.181 37.2596 96.6504 44.2109 96.6504ZM44.2109 99.5488C39.3022 99.5488 35.25 103.081 35.25 109.211C35.2502 115.374 39.3023 118.839 44.2109 118.839C49.1195 118.839 53.1717 115.374 53.1719 109.211C53.1719 103.081 49.1196 99.5489 44.2109 99.5488ZM28.1338 112.728H0V106.698H28.1338V112.728ZM100.742 25.2832V53.8086L17.8223 79.0928V0L100.742 25.2832ZM26.752 61.5176L100.417 39.5459L26.752 17.5742V61.5176Z" fill="#184BFF"/>
</svg>
