<svg width="132" height="115" viewBox="0 0 132 115" fill="none" xmlns="http://www.w3.org/2000/svg">
<path d="M118.558 96L11.8975 34.4194L15.3696 28.4056L122.03 89.9862L118.558 96Z" fill="#184BFF"/>
<path d="M11.3649 89.4488L118.026 27.8682L121.498 33.882L14.837 95.4626L11.3649 89.4488Z" fill="#184BFF"/>
<path d="M-1.5026e-06 16.8316C17.6917 6.56842 41.7309 -3.90208e-06 65.5 -2.8631e-06C89.2691 -1.82412e-06 113.308 6.56842 131 16.8316L131 26C115.199 16.8316 92.7804 9.30526 65.5 9.30526C38.2196 9.30526 15.801 16.8316 -1.90337e-06 26L-1.5026e-06 16.8316Z" fill="#184BFF"/>
<path d="M0.999998 105.832C18.6917 95.5684 42.7309 89 66.5 89C90.2691 89 114.308 95.5684 132 105.832L132 115C116.199 105.832 93.7804 98.3053 66.5 98.3053C39.2196 98.3053 16.801 105.832 0.999998 115L0.999998 105.832Z" fill="#184BFF"/>
<path d="M125 102V30H132V102H125Z" fill="#184BFF"/>
<path d="M1 111V38H8V111H1Z" fill="#184BFF"/>
</svg>
