<svg width="159" height="113" viewBox="0 0 159 113" fill="none" xmlns="http://www.w3.org/2000/svg">
<path d="M53.5596 76.4043L50.3604 81.9453L3.38086 71.7783L35.6758 107.381L32.4766 112.922L0.115234 77.0723L6.33301 66.3047L53.5596 76.4043ZM19.7197 76.8857C29.7601 83.3552 42.0264 89.1134 58.0293 93.4014C91.7987 102.45 126.434 98.503 158.648 84.6045L156.068 94.2334C126.424 107.222 90.2866 111.348 56.1104 102.19C41.8703 98.3748 29.161 92.6426 17.5029 85.1582L19.7197 76.8857ZM158.532 35.8486L152.314 46.6162L105.088 36.5166L108.287 30.9766L155.268 41.1426L122.973 5.54004L126.172 0L158.532 35.8486ZM2.58008 18.6875C32.2245 5.69945 68.361 1.57317 102.537 10.7305C116.777 14.5461 129.486 20.2783 141.145 27.7627L138.929 36.0352C128.888 29.5656 116.622 23.8075 100.619 19.5195C66.8497 10.4711 32.2142 14.4179 0 28.3164L2.58008 18.6875Z" fill="#184BFF"/>
</svg>
