<svg width="125" height="131" viewBox="0 0 125 131" fill="none" xmlns="http://www.w3.org/2000/svg">
<path d="M54.4893 115.881C51.1916 112.583 45.949 112.583 42.6514 115.881C39.3541 119.178 39.354 124.42 42.6514 127.718C45.949 131.015 51.1916 131.015 54.4893 127.718C57.7866 124.42 57.7865 119.178 54.4893 115.881ZM71.4004 98.9697C67.1606 94.7299 60.4205 94.7299 56.1807 98.9697C51.9408 103.21 51.9408 109.95 56.1807 114.189C60.4205 118.429 67.1606 118.429 71.4004 114.189C75.6402 109.95 75.6402 103.21 71.4004 98.9697ZM62.8008 0C24.8546 0.000159532 0.602538 18.9733 0.602539 47.0205C0.602778 75.0675 24.8548 94.0409 62.8008 94.041C65.8811 94.041 68.8714 93.9137 71.7656 93.6689C72.3611 94.6507 73.0846 95.5797 73.9375 96.4326C79.5906 102.086 88.5774 102.086 94.2305 96.4326C96.9003 93.7627 98.3091 90.3493 98.457 86.8945C115.256 78.929 125 64.7981 125 47.0205C125 18.9732 100.747 -1.65869e-06 62.8008 0ZM62.8008 11.2188C98.1074 11.2187 114.276 27.2224 114.276 47.0205C114.276 59.3575 107.997 70.2195 94.7217 76.6553C94.5629 76.4807 94.3993 76.3085 94.2305 76.1396C88.5775 70.4867 79.5906 70.4868 73.9375 76.1396C72.0764 78.0007 70.8281 80.2235 70.1924 82.5693C67.8288 82.7335 65.3652 82.8213 62.8008 82.8213C27.4947 82.8211 11.3264 66.8184 11.3262 47.0205C11.3262 27.2225 27.4944 11.2189 62.8008 11.2188Z" fill="#184BFF"/>
</svg>
