<svg width="146" height="141" viewBox="0 0 146 141" fill="none" xmlns="http://www.w3.org/2000/svg">
<path d="M72.8018 0.813477C117.217 0.813475 145.603 23.0213 145.604 55.8496C145.603 77.0753 133.735 93.8594 113.342 103.073L80.6885 140.692L61.6807 135.599L66.749 110.743C25.8246 108.809 8.85624e-05 87.1609 0 55.8496C8.36182e-05 23.0214 28.3872 0.813606 72.8018 0.813477ZM95.8027 108.662C89.8755 109.885 83.5036 110.621 76.7334 110.826L70.8281 137.896L95.8027 108.662ZM72.8018 13.9453C31.477 13.9454 12.5528 32.6768 12.5527 55.8496C12.5528 78.3782 30.4395 96.7061 69.4072 97.708L72.459 82.7471L82.2861 85.3799L79.626 97.5713C116.215 95.6081 133.052 77.7065 133.052 55.8496C133.052 32.6767 114.127 13.9453 72.8018 13.9453ZM45.0986 46.4258C50.0376 46.426 54.0078 50.3969 54.0078 55.3359C54.0076 60.178 50.0375 64.1483 45.0986 64.1484C40.1596 64.1484 36.2853 60.1781 36.2852 55.3359C36.2852 50.3968 40.1595 46.4258 45.0986 46.4258ZM72.0527 46.4258C76.9919 46.4258 80.9629 50.3968 80.9629 55.3359C80.9627 60.1781 76.9918 64.1484 72.0527 64.1484C67.1137 64.1484 63.2404 60.1781 63.2402 55.3359C63.2402 50.3968 67.1136 46.4258 72.0527 46.4258ZM99.0068 46.4258C103.946 46.4258 107.917 50.3968 107.917 55.3359C107.917 60.1781 103.946 64.1484 99.0068 64.1484C94.068 64.1483 90.1945 60.178 90.1943 55.3359C90.1943 50.3969 94.0678 46.426 99.0068 46.4258Z" fill="#184BFF"/>
</svg>
