<svg width="79" height="122" viewBox="0 0 79 122" fill="none" xmlns="http://www.w3.org/2000/svg">
<path d="M8.19385 24.3895C20.3263 3.37583 39.4841 -4.70107 56.353 5.03796C71.2565 13.6425 74.9579 30.885 67.0913 49.3612C80.6564 59.7801 82.0345 78.8975 70.8062 98.3456C58.6736 119.359 39.515 127.436 22.7397 117.751C7.75057 109.097 4.04039 91.8437 11.9116 73.3632C-1.66185 62.8896 -3.01512 43.804 8.19385 24.3895ZM62.5737 58.0507C51.7369 75.6456 35.8207 83.4297 20.939 78.2655C14.7608 92.9353 18.0397 104.029 27.5063 109.495C38.2838 115.717 51.5035 111.217 61.9028 93.205C70.9589 77.5193 70.0715 65.1053 62.5737 58.0507ZM53.5396 53.1229C44.2714 50.842 34.0021 55.8641 25.4497 69.6268C34.6779 71.9167 44.9684 66.9075 53.5396 53.1229ZM51.5874 13.2938C40.7162 7.01733 27.4955 11.518 17.0962 29.5302C8.06211 45.1778 8.92493 57.569 16.4341 64.6678C27.2531 47.1126 43.1342 39.3319 58.0552 44.4813C64.2415 29.8064 60.975 18.714 51.5874 13.2938Z" fill="#184BFF"/>
</svg>
