<svg width="131" height="113" viewBox="0 0 131 113" fill="none" xmlns="http://www.w3.org/2000/svg">
<mask id="path-1-outside-1_96_4024" maskUnits="userSpaceOnUse" x="0" y="0" width="132" height="113" fill="black">
<rect fill="white" width="132" height="113"/>
<path d="M7.32129 105.269H123.687V90.0781H129.008V110.754H2V90.0781H7.32129V105.269ZM129.008 27.207V47.8828H123.687V32.6924H7.32129V47.8828H2V27.207H129.008ZM51.8809 2C59.9743 2.00006 65.293 5.35202 65.293 14.0293C65.2929 16.4624 64.8762 18.3444 64.3213 19.7217L58.4941 19.6758C58.9566 18.6198 59.6503 16.8754 59.6504 14.5801C59.6504 10.3103 57.1991 7.96875 52.0654 7.96875H31.1143V7.91406H7.93164V25.207H2V2H51.8809Z"/>
</mask>
<path d="M7.32129 105.269H123.687V90.0781H129.008V110.754H2V90.0781H7.32129V105.269ZM129.008 27.207V47.8828H123.687V32.6924H7.32129V47.8828H2V27.207H129.008ZM51.8809 2C59.9743 2.00006 65.293 5.35202 65.293 14.0293C65.2929 16.4624 64.8762 18.3444 64.3213 19.7217L58.4941 19.6758C58.9566 18.6198 59.6503 16.8754 59.6504 14.5801C59.6504 10.3103 57.1991 7.96875 52.0654 7.96875H31.1143V7.91406H7.93164V25.207H2V2H51.8809Z" fill="#184BFF"/>
<path d="M7.32129 105.269H5.32129V107.269H7.32129V105.269ZM123.687 105.269V107.269H125.687V105.269H123.687ZM123.687 90.0781V88.0781H121.687V90.0781H123.687ZM129.008 90.0781H131.008V88.0781H129.008V90.0781ZM129.008 110.754V112.754H131.008V110.754H129.008ZM2 110.754H0V112.754H2V110.754ZM2 90.0781V88.0781H0V90.0781H2ZM7.32129 90.0781H9.32129V88.0781H7.32129V90.0781ZM129.008 27.207H131.008V25.207H129.008V27.207ZM129.008 47.8828V49.8828H131.008V47.8828H129.008ZM123.687 47.8828H121.687V49.8828H123.687V47.8828ZM123.687 32.6924H125.687V30.6924H123.687V32.6924ZM7.32129 32.6924V30.6924H5.32129V32.6924H7.32129ZM7.32129 47.8828V49.8828H9.32129V47.8828H7.32129ZM2 47.8828H0V49.8828H2V47.8828ZM2 27.207V25.207H0V27.207H2ZM51.8809 2L51.8809 0H51.8809V2ZM65.293 14.0293L67.293 14.0293L67.293 14.0293L65.293 14.0293ZM64.3213 19.7217L64.3055 21.7216L65.6674 21.7323L66.1764 20.4691L64.3213 19.7217ZM58.4941 19.6758L56.6621 18.8734L55.4453 21.6518L58.4784 21.6757L58.4941 19.6758ZM59.6504 14.5801L61.6504 14.5801L61.6504 14.5801L59.6504 14.5801ZM52.0654 7.96875L52.0654 9.96875L52.0654 9.96875L52.0654 7.96875ZM31.1143 7.96875H29.1143V9.96875H31.1143V7.96875ZM31.1143 7.91406H33.1143V5.91406H31.1143V7.91406ZM7.93164 7.91406V5.91406H5.93164V7.91406H7.93164ZM7.93164 25.207V27.207H9.93164V25.207H7.93164ZM2 25.207H0V27.207H2V25.207ZM2 2V0H0V2H2ZM7.32129 105.269V107.269H123.687V105.269V103.269H7.32129V105.269ZM123.687 105.269H125.687V90.0781H123.687H121.687V105.269H123.687ZM123.687 90.0781V92.0781H129.008V90.0781V88.0781H123.687V90.0781ZM129.008 90.0781H127.008V110.754H129.008H131.008V90.0781H129.008ZM129.008 110.754V108.754H2V110.754V112.754H129.008V110.754ZM2 110.754H4V90.0781H2H0V110.754H2ZM2 90.0781V92.0781H7.32129V90.0781V88.0781H2V90.0781ZM7.32129 90.0781H5.32129V105.269H7.32129H9.32129V90.0781H7.32129ZM129.008 27.207H127.008V47.8828H129.008H131.008V27.207H129.008ZM129.008 47.8828V45.8828H123.687V47.8828V49.8828H129.008V47.8828ZM123.687 47.8828H125.687V32.6924H123.687H121.687V47.8828H123.687ZM123.687 32.6924V30.6924H7.32129V32.6924V34.6924H123.687V32.6924ZM7.32129 32.6924H5.32129V47.8828H7.32129H9.32129V32.6924H7.32129ZM7.32129 47.8828V45.8828H2V47.8828V49.8828H7.32129V47.8828ZM2 47.8828H4V27.207H2H0V47.8828H2ZM2 27.207V29.207H129.008V27.207V25.207H2V27.207ZM51.8809 2L51.8808 4C55.701 4.00003 58.5169 4.7988 60.3527 6.30634C62.1138 7.7525 63.293 10.1183 63.293 14.0293L65.293 14.0293L67.293 14.0293C67.293 9.263 65.8128 5.6142 62.8912 3.21505C60.0444 0.877266 56.1542 3.21285e-05 51.8809 0L51.8809 2ZM65.293 14.0293L63.293 14.0293C63.2929 16.2348 62.9153 17.8596 62.4662 18.9742L64.3213 19.7217L66.1764 20.4691C66.8371 18.8292 67.2929 16.69 67.293 14.0293L65.293 14.0293ZM64.3213 19.7217L64.337 17.7217L58.5099 17.6758L58.4941 19.6758L58.4784 21.6757L64.3055 21.7216L64.3213 19.7217ZM58.4941 19.6758L60.3261 20.4781C60.8277 19.3331 61.6503 17.2872 61.6504 14.5801L59.6504 14.5801L57.6504 14.58C57.6503 16.4637 57.0856 17.9066 56.6621 18.8734L58.4941 19.6758ZM59.6504 14.5801L61.6504 14.5801C61.6504 12.0611 60.9158 9.78768 59.1144 8.18076C57.3546 6.61094 54.8984 5.96875 52.0654 5.96875L52.0654 7.96875L52.0654 9.96875C54.3661 9.96875 55.7024 10.4973 56.4517 11.1657C57.1594 11.797 57.6504 12.8292 57.6504 14.5801L59.6504 14.5801ZM52.0654 7.96875V5.96875H31.1143V7.96875V9.96875H52.0654V7.96875ZM31.1143 7.96875H33.1143V7.91406H31.1143H29.1143V7.96875H31.1143ZM31.1143 7.91406V5.91406H7.93164V7.91406V9.91406H31.1143V7.91406ZM7.93164 7.91406H5.93164V25.207H7.93164H9.93164V7.91406H7.93164ZM7.93164 25.207V23.207H2V25.207V27.207H7.93164V25.207ZM2 25.207H4V2H2H0V25.207H2ZM2 2V4H51.8809V2V0H2V2Z" fill="#184BFF" mask="url(#path-1-outside-1_96_4024)"/>
</svg>
