<svg width="121" height="147" viewBox="0 0 121 147" fill="none" xmlns="http://www.w3.org/2000/svg">
<path d="M85.5026 11.6366L72.4791 9.99193L70.8635 22.7848C82.5092 24.7946 92.6424 29.9256 100.649 37.2401L108.064 27.537L114.207 35.456L106.489 43.415C116.916 56.1868 122.046 73.4456 119.718 91.885C115.314 126.754 86.3988 150.674 52.3597 146.375C18.3207 142.076 -3.74017 111.719 0.663347 76.8499C4.8386 43.7885 31.2973 20.3653 63.2229 21.938L64.8532 9.02886L51.7706 7.37669L52.669 0.262296L86.4011 4.52225L85.5026 11.6366ZM67.8647 46.5308L60.2388 45.5677L61.8694 32.6557C37.5853 31.7353 15.7438 47.3901 11.845 78.262C7.67 111.322 27.5847 132.218 53.7306 135.52C79.8765 138.822 104.361 123.533 108.536 90.4729C110.593 74.182 106.757 60.7538 99.1852 50.9469L99.0368 51.1004L96.2958 47.567C89.3318 40.2023 79.9996 35.3684 69.512 33.487L67.8647 46.5308ZM58.1908 79.4384C60.9281 78.821 63.8762 79.7872 65.7269 82.1727C67.5774 84.5582 67.7791 87.6531 66.501 90.1509L70.2147 94.9372L65.1427 98.8718L61.4299 94.0856C58.6928 94.7026 55.7452 93.7368 53.8948 91.3514C52.0445 88.966 51.8416 85.8709 53.1198 83.3731L31.0495 54.9227L36.1214 50.9891L58.1908 79.4384Z" fill="#184BFF"/>
</svg>
