<svg width="106" height="121" viewBox="0 0 106 121" fill="none" xmlns="http://www.w3.org/2000/svg">
<path d="M42 31.1924C28.508 35.5884 19.0918 48.2619 19.0918 66.3555C19.0918 89.4854 33.9086 103.363 53 103.363C72.0914 103.363 86.9082 89.4854 86.9082 66.3555C86.9082 49.1704 78.4131 36.8768 66 31.9189V13.4873C89.9232 19.1452 106 40.3296 106 66.3555C106 97.4364 83.9166 121 53 121C22.0833 121 1.69036e-05 97.4363 0 66.3555C0 39.6109 16.9772 17.9791 42 13.0547V31.1924ZM61 0V46H47V0H61Z" fill="#184BFF"/>
</svg>
