<svg width="131" height="131" viewBox="0 0 131 131" fill="none" xmlns="http://www.w3.org/2000/svg">
<path d="M72.388 15.6643L88.2437 4.09608L107.771 15.3704L105.741 34.881L125.134 37.9133L130.97 59.6929L115.689 72.0938L127.24 88.0262L115.965 107.554L96.4493 105.462L93.361 124.835L71.5805 130.671L59.2589 115.392L43.3757 126.907L23.8489 115.633L25.9392 96.116L6.56763 93.0274L0.731563 71.2469L15.9613 58.9648L4.42845 43.1582L15.7028 23.6304L35.2153 25.6601L38.2469 6.26844L60.0274 0.43237L72.388 15.6643ZM82.402 127.496L85.5837 105.258C83.1254 106.423 80.5107 107.392 77.749 108.132C74.6255 108.969 71.5186 109.46 68.4631 109.634L82.402 127.496ZM108.011 79.831C106.196 85.4192 103.269 90.5557 99.3781 94.9426L121.373 97.6569L108.011 79.831ZM33.7448 121.04L51.9743 107.373C46.2415 105.391 41.0084 102.202 36.5845 98.0113L33.7448 121.04ZM78.4062 103.796C77.8502 103.97 77.2878 104.135 76.7181 104.288L76.7193 104.289C77.2888 104.136 77.8504 103.97 78.4062 103.796ZM75.0932 104.687C75.6286 104.565 76.1654 104.436 76.7021 104.292C76.1654 104.436 75.6286 104.565 75.0932 104.687ZM73.6443 104.992C73.81 104.961 73.9752 104.925 74.141 104.892C73.9752 104.925 73.81 104.961 73.6443 104.992ZM73.4018 97.8124C73.8964 97.7008 74.3911 97.5797 74.8851 97.4473L74.8849 97.4463C74.3908 97.5787 73.8964 97.7008 73.4018 97.8124ZM76.3505 97.0223C75.8691 97.172 75.3827 97.3129 74.8915 97.4446C75.3827 97.3129 75.8691 97.172 76.3505 97.0223ZM71.8333 98.1316C72.3284 98.0418 72.8237 97.9422 73.3189 97.8316C72.8237 97.9422 72.3284 98.0418 71.8333 98.1316ZM77.8185 96.5319C77.3617 96.6949 76.9002 96.8507 76.4337 96.997C76.9002 96.8507 77.3617 96.6949 77.8185 96.5319ZM70.4666 98.3512C70.898 98.2896 71.33 98.2221 71.7619 98.1446C71.33 98.2221 70.898 98.2896 70.4666 98.3512ZM79.1082 96.0438C78.7229 96.1978 78.3343 96.3471 77.9414 96.4888C78.3343 96.3471 78.7229 96.1978 79.1082 96.0438ZM99.2295 88.698C99.3417 88.5361 99.4532 88.3739 99.5629 88.2103C99.4532 88.3739 99.3417 88.5361 99.2295 88.698ZM87.439 91.286C87.4935 91.2433 87.5486 91.2013 87.6029 91.1582L87.6031 91.1551C87.5483 91.1986 87.4941 91.2429 87.439 91.286ZM99.7708 87.8958C99.8689 87.7463 99.9666 87.5964 100.063 87.4455C99.9665 87.5964 99.8689 87.7463 99.7708 87.8958ZM100.308 87.0532C100.389 86.9224 100.47 86.7916 100.55 86.6599C100.47 86.7916 100.389 86.9224 100.308 87.0532ZM47.3114 100.962C47.4153 101.02 47.5195 101.076 47.6239 101.132C47.5195 101.076 47.4153 101.02 47.3114 100.962ZM58.6136 36.7173C51.0508 38.7437 44.935 43.1621 41.3041 49.1988C37.6967 55.1966 36.3496 63.1119 38.8774 72.5462C41.4202 82.0359 46.5385 88.1835 52.6384 91.533C58.7816 94.906 66.2748 95.6345 73.8561 93.6031C81.4375 91.5716 87.5626 87.1943 91.1962 81.2014C94.804 75.2508 96.1629 67.3677 93.6201 57.878C91.0922 48.4437 85.9669 42.2627 79.8439 38.8721C73.6812 35.4597 66.1762 34.691 58.6136 36.7173ZM100.788 86.2593C100.872 86.1166 100.954 85.9728 101.036 85.829C100.954 85.9728 100.872 86.1166 100.788 86.2593ZM46.4411 100.469C46.5683 100.543 46.6958 100.617 46.8238 100.69C46.6958 100.617 46.5683 100.543 46.4411 100.469ZM101.262 85.4256C101.338 85.2892 101.413 85.1528 101.487 85.0155C101.413 85.1528 101.338 85.2892 101.262 85.4256ZM45.6677 100.005C45.7839 100.076 45.9009 100.147 46.0178 100.217C45.9009 100.147 45.7839 100.076 45.6677 100.005ZM101.705 84.6042C101.784 84.4543 101.861 84.3038 101.937 84.1528C101.861 84.3038 101.784 84.4543 101.705 84.6042ZM44.8642 99.4961C44.9725 99.5666 45.0813 99.6365 45.1903 99.7059C45.0813 99.6365 44.9725 99.5666 44.8642 99.4961ZM102.125 83.778C102.203 83.6192 102.28 83.4595 102.356 83.2996C102.28 83.4595 102.203 83.6192 102.125 83.778ZM44.1481 99.0197C44.2405 99.0828 44.3338 99.1446 44.4267 99.2069C44.3349 99.1453 44.2437 99.0829 44.1524 99.0206L44.1481 99.0197ZM102.643 82.6808C102.605 82.7651 102.568 82.8498 102.529 82.9338C102.569 82.8476 102.609 82.7618 102.649 82.6753L102.643 82.6808ZM41.6715 87.2903C41.7261 87.3599 41.7812 87.429 41.8363 87.4979L41.8372 87.4976C41.7821 87.4286 41.7262 87.36 41.6715 87.2903ZM3.90617 82.0684L27.0893 85.3873L27.1263 85.0387C25.8343 82.3746 24.772 79.5349 23.9697 76.5407C23.1956 73.6518 22.7069 70.7633 22.4851 67.9061L22.3285 67.6913L3.90617 82.0684ZM105.538 45.7562C106.755 48.3147 107.762 51.0291 108.527 53.8837C109.329 56.876 109.827 59.8644 110.041 62.8158L127.797 48.8721L105.538 45.7562ZM33.6233 64.4799C33.7294 67.3758 34.1854 70.4147 35.0326 73.5764C35.6863 76.0161 36.5046 78.2727 37.4623 80.3503C36.6324 78.55 35.9073 76.6152 35.3037 74.5431C35.2108 74.2241 35.1207 73.9017 35.0335 73.5762C34.9467 73.2523 34.864 72.9297 34.7853 72.6084C34.0961 69.7923 33.7195 67.0768 33.6245 64.4765L33.6233 64.4799ZM97.4631 56.8482L97.464 56.848L97.4631 56.8482ZM103.92 52.3802C103.956 52.4878 103.993 52.5951 104.028 52.7032C103.993 52.5945 103.956 52.4865 103.92 52.3783L103.92 52.3802ZM33.8976 58.6628C33.6478 60.5181 33.551 62.4477 33.6223 64.4458L33.6237 64.4474C33.5523 62.4483 33.6483 60.5177 33.8983 58.6616L33.8976 58.6628ZM91.3292 43.8119C91.3172 43.7957 91.3059 43.7789 91.2938 43.7628L91.2917 43.7623C91.3041 43.7789 91.3168 43.7953 91.3292 43.8119ZM34.2308 56.6577C34.2022 56.8007 34.177 56.9447 34.1502 57.0887L34.1507 57.0906C34.2276 56.6771 34.3094 56.2671 34.4017 55.8617L34.2308 56.6577ZM88.662 40.6757L88.6617 40.6747C88.5825 40.5931 88.5019 40.5131 88.422 40.4326C88.5021 40.5133 88.5825 40.5938 88.662 40.6757ZM34.8002 54.3001L34.8012 54.2998L34.8002 54.3001ZM36.4451 49.8739C36.1172 50.5781 35.8159 51.2994 35.5415 52.037C35.7244 51.5452 35.9199 51.061 36.1268 50.584C36.2303 50.3454 36.3366 50.1086 36.446 49.8737L36.4451 49.8739ZM24.1232 51.8562C25.8102 46.0898 28.662 40.7621 32.526 36.1986L10.2959 33.5272L24.1232 51.8562ZM80.5017 23.0686C85.9583 24.959 90.9613 27.942 95.2462 31.8333L97.8756 9.96324L80.5017 23.0686ZM40.0731 44.0085C39.4401 44.8045 38.8483 45.6344 38.2989 46.4958C38.5736 46.0651 38.8593 45.6426 39.1553 45.228C39.4513 44.8133 39.7574 44.4064 40.074 44.0083L40.0731 44.0085ZM89.4579 32.2247C89.5201 32.2705 89.5802 32.3192 89.6422 32.3654L89.6443 32.3658C89.5818 32.3192 89.5206 32.2709 89.4579 32.2247ZM82.531 28.1633L82.5296 28.1616L82.531 28.1633ZM44.3346 39.6435C44.2683 39.6991 44.2028 39.7556 44.137 39.8117L44.1366 39.8139C44.2028 39.7574 44.2679 39.6995 44.3346 39.6435ZM46.6288 37.8934C46.4704 38.0034 46.3131 38.1145 46.1571 38.2271C46.3136 38.1142 46.4718 38.0032 46.6307 37.8929L46.6288 37.8934ZM50.2279 35.7199L50.2263 35.7213C50.4255 35.6175 50.6257 35.5149 50.8276 35.4146L50.2279 35.7199ZM64.2226 31.7324L64.2214 31.7317C64.0984 31.7412 63.9752 31.7502 63.8521 31.7609C63.9756 31.7501 64.0992 31.7419 64.2226 31.7324ZM55.2478 33.5812C54.7374 33.7542 54.2333 33.9383 53.7353 34.132C54.2333 33.9383 54.7374 33.7542 55.2478 33.5812ZM61.4989 32.0457C61.9893 31.9696 62.4796 31.9052 62.969 31.8499C62.4796 31.9052 61.9893 31.9696 61.4989 32.0457ZM58.3757 32.6713C59.1314 32.4862 59.8878 32.3257 60.6438 32.1899C59.8878 32.3257 59.1314 32.4862 58.3757 32.6713ZM46.1333 25.5473C48.8153 24.2086 51.6925 23.1114 54.7485 22.2925C57.4433 21.5705 60.1258 21.1058 62.7739 20.8812L49.2056 3.60603L46.1333 25.5473ZM38.0191 81.5114C38.1244 81.7207 38.2321 81.9276 38.3403 82.133C38.2321 81.9276 38.1244 81.7207 38.0191 81.5114ZM95.2536 50.5644C95.1523 50.337 95.0479 50.1125 94.9433 49.8893C95.0479 50.1125 95.1523 50.337 95.2536 50.5644Z" fill="#184BFF"/>
</svg>
