<svg width="147" height="112" viewBox="0 0 147 112" fill="none" xmlns="http://www.w3.org/2000/svg">
<path d="M17.2764 25.5713C46.3568 -3.50896 89.3275 -6.35473 117.7 22.0176C126.723 31.0399 132.066 40.4189 134.084 45.5234L125.063 51.2197C123.163 46.2339 118.651 37.9246 110.223 29.4961C87.3109 6.58423 51.1058 7.41197 25.1114 33.4062C6.71356 51.8041 5.88426 74.2395 24.9971 93.3525C31.2889 99.6443 37.2244 102.969 43.0411 105.462L33.1895 111.753C28.916 109.853 22.0306 105.342 15.8575 99.1689C-5.74856 77.5629 -5.27582 48.1235 17.2764 25.5713ZM146.786 58.0859L132.778 71.0586L93.3116 35.7041L100.316 29.2178L139.363 64.6924L124.529 7.05371L132.305 0L146.786 58.0859Z" fill="#184BFF"/>
</svg>
