<svg width="167" height="164" viewBox="0 0 167 164" fill="none" xmlns="http://www.w3.org/2000/svg">
<path d="M166.451 141.811C144.086 154.615 113.699 163.151 83.652 163.151C53.6056 163.151 23.2177 154.615 0.853515 141.811L0.853514 132.421C20.8276 143.859 49.3376 153.59 83.652 153.59C117.966 153.59 146.476 143.859 166.451 132.421L166.451 141.811Z" fill="#184BFF"/>
<path d="M165.597 122.69C143.233 109.887 112.845 101.351 82.7985 101.351C52.7521 101.351 22.3641 109.887 9.32793e-07 122.69L1.34322e-06 132.08C19.9741 120.642 48.4841 110.911 82.7985 110.911C117.113 110.911 145.623 120.642 165.597 132.08L165.597 122.69Z" fill="#184BFF"/>
<path d="M83.5 0C114.592 2.71816e-06 134 21.7846 134 47.9258C134 47.9605 133.998 47.9954 133.998 48.0303C133.998 48.0612 134 48.0921 134 48.123C134 55.9459 132.252 63.3785 128.953 69.9551C127.464 73.501 125.602 77.2085 123.306 80.998L91.2891 134.629L98.3525 146.351H68.6475L75.71 134.629L43.6943 80.998C41.3975 77.2083 39.5349 73.5011 38.0459 69.9551C34.7467 63.3786 33 55.9458 33 48.123C33 48.0921 33.0009 48.0612 33.001 48.0303C33.0009 47.9954 33 47.9605 33 47.9258C33 25.2565 47.5949 5.86269 71.748 1.11133C75.4471 0.38319 79.3706 1.02301e-07 83.5 0ZM100.48 93.5205C96.2046 94.8338 91.5714 95.6734 86.6104 95.9648L86.4707 96.0488C85.4688 96.0788 84.4784 96.0862 83.5 96.0742C82.5216 96.0862 81.5312 96.0788 80.5293 96.0488L80.3887 95.9648C75.4276 95.6733 70.7944 94.8339 66.5186 93.5205L83.5 121.701L100.48 93.5205ZM83.5 12.8721C61.3196 12.8721 46.4668 28.1219 46.4668 47.9258C46.467 67.7295 61.3198 82.7803 83.5 82.7803C83.8465 82.7803 84.1913 82.7768 84.5342 82.7695C106.141 82.3091 120.533 67.4201 120.533 47.9258C120.533 28.1219 105.68 12.8721 83.5 12.8721Z" fill="#184BFF"/>
</svg>
