<svg width="91" height="132" viewBox="0 0 91 132" fill="none" xmlns="http://www.w3.org/2000/svg">
<path d="M45.4268 0C73.3957 2.44512e-06 90.8535 19.5961 90.8535 43.1113C90.8535 43.1425 90.8526 43.1738 90.8525 43.2051C90.8526 43.2331 90.8535 43.2611 90.8535 43.2891C90.8535 50.3151 89.2851 56.9903 86.3262 62.8994C84.9848 66.0977 83.3065 69.4423 81.2344 72.8613L52.4336 121.104L58.7881 131.649H32.0654L38.4189 121.104L9.61914 72.8613C7.54695 69.4422 5.86775 66.0978 4.52637 62.8994C1.56755 56.9904 -6.14224e-07 50.315 0 43.2891V43.1113C-1.79879e-06 22.5356 13.3659 4.9601 35.4443 0.887695C38.5985 0.30556 41.9306 1.36695e-07 45.4268 0ZM60.7021 84.125C56.8558 85.3065 52.6883 86.062 48.2256 86.3242L48.0986 86.4004C47.1975 86.4274 46.3068 86.4346 45.4268 86.4238C44.5467 86.4346 43.656 86.4274 42.7549 86.4004L42.627 86.3242C38.1642 86.0619 33.9967 85.3066 30.1504 84.125L45.4268 109.476L60.7021 84.125ZM45.4268 11.5791C25.4744 11.5791 12.1133 25.2967 12.1133 43.1113C12.1134 60.9258 25.4745 74.4648 45.4268 74.4648C45.7386 74.4648 46.0488 74.4617 46.3574 74.4551C65.7934 74.0407 78.7401 60.6474 78.7402 43.1113C78.7402 25.2967 65.3791 11.5791 45.4268 11.5791Z" fill="#184BFF"/>
</svg>
