<svg width="135" height="245" viewBox="0 0 135 245" fill="none" xmlns="http://www.w3.org/2000/svg">
<path d="M58.6172 168.994L54.416 170.334L67.4121 173.169L95.2266 211.24L88.0537 188.759L92.7188 187.271L99.9131 209.819L95.2695 211.3L100.327 218.223L102.386 217.566L104.353 223.732L109.772 231.15L120.052 184.023L129.613 186.108L122.439 163.622L127.104 162.134L134.299 184.683L129.74 186.137L130.099 186.215L117.289 244.943L104.371 242.126L53.3652 170.355L41 227.051L30.9521 224.859L31.1338 224.023L26.5273 225.493L19.333 202.944L23.999 201.456L31.1602 223.902L43.3701 167.925L53.8662 170.214L46.7578 147.934L51.4229 146.445L58.6172 168.994ZM21.5264 193.708L16.8613 195.197L9.66699 172.648L14.332 171.16L21.5264 193.708ZM27.6699 87.2617L32.0898 85.8525L32.9033 88.4033L40.7861 90.123L83.1465 148.104L93.4258 100.979L103.127 103.094L103.106 103.029L107.771 101.541L114.966 124.09L110.301 125.578L103.342 103.768L90.6641 161.898L84.1719 160.482L90.2471 179.522L85.582 181.011L78.6475 159.277L77.7461 159.081L37.293 102.16L39.2842 108.4L34.6191 109.89L27.9648 89.0361L26.7393 87.3105L14.374 144.006L5.01758 141.965L11.8604 163.412L7.19531 164.9L0 142.352L4.52344 140.908L16.7441 84.8799L27.6699 87.2617ZM124.633 154.386L119.968 155.874L112.773 133.326L117.438 131.838L124.633 154.386ZM48.9512 138.697L44.2852 140.186L37.0908 117.638L41.7568 116.148L48.9512 138.697ZM64.0557 0.00878906C81.6522 0.396305 92.5934 12.9116 92.5938 27.8828C92.5937 27.9014 92.5928 27.9208 92.5928 27.9395C92.5928 27.9589 92.5937 27.9786 92.5938 27.998C92.5938 32.5427 91.5782 36.8605 89.6641 40.6826C88.7966 42.7508 87.712 44.9141 86.3721 47.125L67.7441 78.3281L71.8545 85.1484H54.5713L58.6797 78.3281L40.0527 47.125C38.7119 44.9126 37.6256 42.7482 36.7578 40.6787C34.8452 36.8577 33.8311 32.541 33.8311 27.998V27.8828C33.8313 15.5258 41.2854 4.84166 53.7832 1.26953C54.0238 1.2007 54.2664 1.1348 54.5107 1.07129C55.7309 0.754383 56.9972 0.503868 58.3076 0.325195C59.6181 0.146436 60.9727 0.0395568 62.3691 0.00878906C62.6486 0.0026337 62.9301 6.16612e-07 63.2129 0L64.0557 0.00878906ZM73.0918 54.4102C70.6039 55.1743 67.9082 55.6635 65.0215 55.833L64.9404 55.8818C64.3575 55.8993 63.7812 55.9035 63.2119 55.8965C62.6429 55.9035 62.067 55.8993 61.4844 55.8818L61.4023 55.833C58.5158 55.6634 55.8198 55.1754 53.332 54.4111L63.2119 70.8066L73.0918 54.4102ZM62.6104 7.49512C50.04 7.76675 41.6664 16.5412 41.666 27.8828C41.666 39.2247 50.0397 47.8881 62.6104 48.1562C62.81 48.1605 63.0112 48.1621 63.2129 48.1621C63.4144 48.1621 63.615 48.1605 63.8145 48.1562C76.3853 47.8883 84.7588 39.2248 84.7588 27.8828C84.7585 16.5411 76.3851 7.7666 63.8145 7.49512C63.615 7.49081 63.4144 7.48926 63.2129 7.48926C63.0112 7.48926 62.81 7.4908 62.6104 7.49512Z" fill="#184BFF"/>
</svg>
