<svg width="178" height="178" viewBox="0 0 178 178" fill="none" xmlns="http://www.w3.org/2000/svg">
<path d="M111.747 111.747C90.695 132.8 58.867 131.902 37.615 110.65C16.5626 89.5975 15.465 57.5699 36.5175 36.5174C57.5699 15.465 89.5975 16.5625 110.65 37.615C131.902 58.8669 132.8 90.695 111.747 111.747ZM102.967 102.967C117.834 88.1009 119.729 65.4521 101.271 46.9938C82.9126 28.6353 60.0642 30.3314 45.1978 45.1978C30.3314 60.0642 28.6353 82.9126 46.9938 101.271C65.4521 119.729 88.1009 117.834 102.967 102.967Z" fill="#184BFF"/>
<path d="M115.339 126.314L126.314 115.339L175.004 162.233L162.333 174.905L115.339 126.314ZM95.8827 95.8832C100.971 90.7947 109.153 90.7947 114.141 95.7834C119.23 100.872 119.23 109.053 114.141 114.142C109.153 119.131 100.971 119.131 95.8827 114.042C90.894 109.053 90.894 100.872 95.8827 95.8832Z" fill="#184BFF"/>
<circle cx="97.9703" cy="35.9703" r="26.4269" fill="white"/>
<path d="M84.3728 37.8085V34.131H96.7426V21.7612H100.42V34.131H112.79V37.8085H100.42V50.1783H96.7426V37.8085H84.3728Z" fill="#184BFF"/>
<path d="M98.1974 65.1547C82.2992 65.1547 70.3948 52.4822 70.3948 36.2C70.3948 19.9946 82.2992 7.24536 98.1974 7.24536C114.096 7.24536 126 19.9946 126 36.2C126 52.4822 114.096 65.1547 98.1974 65.1547ZM98.1974 60.0857C110.409 60.0857 120.777 51.6374 120.777 36.2C120.777 20.8395 110.409 12.2375 98.1974 12.2375C85.9858 12.2375 75.6174 20.8395 75.6174 36.2C75.6174 51.6374 85.9858 60.0857 98.1974 60.0857Z" fill="#184BFF"/>
<path d="M111.747 111.747C90.695 132.8 58.867 131.902 37.615 110.65C16.5626 89.5975 15.465 57.5699 36.5175 36.5174C57.5699 15.465 89.5975 16.5625 110.65 37.615C131.902 58.8669 132.8 90.695 111.747 111.747ZM102.967 102.967C117.834 88.1009 119.729 65.4521 101.271 46.9938C82.9126 28.6353 60.0642 30.3314 45.1978 45.1978C30.3314 60.0642 28.6353 82.9126 46.9938 101.271C65.4521 119.729 88.1009 117.834 102.967 102.967Z" fill="#184BFF"/>
<path d="M115.339 126.314L126.314 115.339L175.004 162.233L162.333 174.905L115.339 126.314ZM95.8827 95.8832C100.971 90.7947 109.153 90.7947 114.141 95.7834C119.23 100.872 119.23 109.053 114.141 114.142C109.153 119.131 100.971 119.131 95.8827 114.042C90.894 109.053 90.894 100.872 95.8827 95.8832Z" fill="#184BFF"/>
<path d="M124.398 35.9703C124.398 50.5655 112.566 62.3972 97.9708 62.3972C83.3757 62.3972 71.5439 50.5655 71.5439 35.9703C71.5439 21.3752 83.3757 9.54346 97.9708 9.54346C112.566 9.54346 124.398 21.3752 124.398 35.9703Z" fill="white"/>
<path d="M98.1978 5.24536C115.292 5.24542 128 18.9841 128 36.2004C128 53.4969 115.288 67.1545 98.1978 67.1545C81.1072 67.1545 68.3952 53.497 68.395 36.2004C68.395 18.9841 81.1037 5.24536 98.1978 5.24536ZM98.1978 14.2375C92.5632 14.2375 87.4406 16.2176 83.7339 19.8811C80.0397 23.5323 77.6177 28.9894 77.6177 36.2004C77.6178 43.4514 80.0408 48.8847 83.729 52.5042C87.4312 56.1373 92.5533 58.0862 98.1978 58.0862C103.842 58.0862 108.964 56.1373 112.667 52.5042C116.355 48.8847 118.778 43.4514 118.778 36.2004C118.778 28.9894 116.356 23.5323 112.662 19.8811C108.955 16.2176 103.832 14.2376 98.1978 14.2375Z" fill="#184BFF" stroke="white" stroke-width="4"/>
<path d="M87 38V34H110V38H87Z" fill="#184BFF"/>
</svg>
