<svg width="122" height="129" viewBox="0 0 122 129" fill="none" xmlns="http://www.w3.org/2000/svg">
<path d="M16.2319 129C6.08696 111.578 0 87.7732 0 64.5C0 41.2268 6.08696 17.4217 16.2319 0H28C19.0725 15.4268 11.9034 37.5031 11.9034 64.5C11.9034 91.4969 19.0725 113.573 28 129H16.2319Z" fill="#184BFF"/>
<path d="M50.1739 113C42.5652 99.9 38 82 38 64.5C38 47 42.5652 29.1 50.1739 16H59C52.3043 27.6 46.9275 44.2 46.9275 64.5C46.9275 84.8 52.3043 101.4 59 113H50.1739Z" fill="#184BFF"/>
<path d="M77.6957 100C72.2609 90.4113 69 77.3093 69 64.5C69 51.6907 72.2609 38.5887 77.6957 29H84C79.2174 37.4907 75.3768 49.6412 75.3768 64.5C75.3768 79.3588 79.2174 91.5093 84 100H77.6957Z" fill="#184BFF"/>
<path d="M108 78C115.8 78 122 72.0214 122 64.5C122 56.9786 115.8 51 108 51C100.2 51 94 56.9786 94 64.5C94 72.0214 100.2 78 108 78Z" fill="#184BFF"/>
</svg>
