<svg width="129" height="122" viewBox="0 0 129 122" fill="none" xmlns="http://www.w3.org/2000/svg">
<path d="M98.2393 0.0488281V0L128.511 30.2715H128.462L128.561 30.3701V109.38C128.56 115.954 123.23 121.283 116.656 121.283H49.502C42.928 121.283 37.5979 115.954 37.5977 109.38V81.1719H6.8584L6.68066 81.1699C3.03415 81.0773 0.0956512 78.1377 0.00292969 74.4912L0 74.3135V46.8818C4.41862e-07 43.0943 3.07082 40.0234 6.8584 40.0234H37.5977V11.9033C37.5979 5.32932 42.9279 9.0553e-05 49.502 0H98.1904L98.2393 0.0488281ZM49.502 7.14258C46.8725 7.14267 44.7405 9.27386 44.7402 11.9033V40.0234H68.5801C72.3676 40.0235 75.4385 43.0943 75.4385 46.8818V74.3135L75.4365 74.4912C75.3438 78.1379 72.4035 81.0775 68.7568 81.1699L68.5801 81.1719H44.7402V109.38C44.7405 112.009 46.8725 114.141 49.502 114.141H116.656C119.286 114.141 121.418 112.009 121.418 109.38V33.3281L118.361 30.2715H104.304C100.955 30.2713 98.2394 27.5559 98.2393 24.207V10.1494L95.2324 7.14258H49.502ZM102.299 103.044L104.648 97.6318L116.337 86.0264V92.6406L99.7686 109.177L83.2012 92.6406V86.0264L94.9492 97.6318L97.2383 102.924V68.8887H102.299V103.044ZM6.8584 44.1387C5.34337 44.1387 4.11523 45.3668 4.11523 46.8818V74.3135C4.11529 75.8285 5.34341 77.0566 6.8584 77.0566H68.5801C70.095 77.0565 71.3232 75.8284 71.3232 74.3135V46.8818C71.3232 45.4142 70.171 44.2152 68.7217 44.1416L68.5801 44.1387H6.8584ZM20.8213 50.7217C25.073 50.7218 27.7343 53.4657 27.7344 57.1689C27.7342 61.1738 24.8807 63.8076 20.6289 63.8076H16.9805V70.583H13.4424V50.7217H20.8213ZM36.8682 50.7217C43.0404 50.7217 46.6885 54.2616 46.6885 60.6807C46.6882 67.2364 42.9301 70.583 36.6484 70.583H30.6133V50.7217H36.8682ZM62.2227 53.959H53.3066V59.3906H61.6738V62.4629H53.3066V70.583H49.7676V50.7217H62.2227V53.959ZM34.1523 67.373H36.6758C41.1744 67.373 43.0125 65.0144 43.0127 60.6807C43.0127 56.4561 41.0376 53.959 36.6484 53.959H34.1523V67.373ZM16.9805 60.7891H19.9707C22.741 60.789 24.1951 59.5278 24.1953 57.1689C24.1953 54.8373 22.6588 53.7402 20.0527 53.7402H16.9805V60.7891ZM105.382 23.1289H111.219L105.382 17.292V23.1289Z" fill="#184BFF"/>
</svg>
