<svg width="150" height="174" viewBox="0 0 150 174" fill="none" xmlns="http://www.w3.org/2000/svg">
<path d="M78.6548 10.6255C118.927 21.4164 139.295 60.477 129.883 101.221L129.938 101.236L110.524 173.688L102.942 171.656L113.456 132.419C105.777 139.979 96.1237 144.67 85.2693 146.05L80.0515 165.523L72.4684 163.491L77.0321 146.459C72.2196 146.341 67.2268 145.614 62.1127 144.244C53.1276 141.836 45.2911 137.905 41.2562 134.993L41.7765 122.683C47.1834 126.695 53.4198 130.38 62.5778 132.834C68.8345 134.51 74.7062 135.172 80.1304 134.896L91.8819 91.0389L99.465 93.0708L88.6016 133.613C102.864 129.888 113.074 118.555 117.702 101.283C127.726 63.8717 109.12 30.3234 75.7712 21.3874C63.503 18.1002 53.4398 18.3334 47.8336 19.2114L48.252 7.97189C54.0309 7.14017 65.5226 7.10672 78.6548 10.6255ZM66.5929 106.383L64.0929 115.713L33.1766 116.488L34.5296 111.439L65.2333 111.019L38.8534 95.3022L40.2064 90.2528L66.5929 106.383ZM27.0398 76.5115L49.208 82.4515L46.2003 88.1676L17.4404 80.4614L43.0854 31.1177L49.678 32.8842L27.0398 76.5115ZM90.7996 53.9056C84.5373 55.5592 76.6183 55.4367 69.3653 53.4934C62.1123 51.55 55.1932 47.6965 50.5967 43.1333L51.5627 39.528C55.6375 43.5516 61.9294 47.5913 70.3427 49.8457C78.7561 52.1 86.225 51.7476 91.7656 50.3004L90.7996 53.9056ZM74.6256 33.8617C81.8786 35.8052 88.7979 39.6586 93.3943 44.2218L92.428 47.828C88.3533 43.8044 82.0616 39.7638 73.6482 37.5094C65.2348 35.255 57.7658 35.6085 52.2252 37.0557L53.1914 33.4495C59.4537 31.7959 67.3727 31.9183 74.6256 33.8617Z" fill="#184BFF"/>
</svg>
