<svg width="178" height="162" viewBox="0 0 178 162" fill="none" xmlns="http://www.w3.org/2000/svg">
<path d="M10.592 104.898C23.6306 82.4547 45.9894 60.0002 72.1839 44.8767C98.3784 29.7533 129.004 21.6173 154.96 21.5471L160.729 31.5402C137.546 31.6007 108.104 37.6615 78.0395 55.0191C47.9754 72.3766 28.0054 94.8441 16.3615 114.891L10.592 104.898Z" fill="#184BFF"/>
<path d="M122.667 131.796C94.6958 147.945 58.7841 138.322 42.635 110.351C26.1104 81.73 35.7329 45.8183 63.7039 29.6692C92.3254 13.1446 128.237 22.7671 144.762 51.3886C160.911 79.3596 151.288 115.271 122.667 131.796Z" fill="#184BFF"/>
<path d="M161.583 23.785L158.113 29.7575C146.805 49.2268 127.327 71.1815 97.8944 88.1747C68.4614 105.168 39.7095 111.058 17.1944 111.117L10.2871 111.136L20.6684 129.117L22.9848 129.111C49.6796 129.039 80.9868 120.696 107.75 105.245C134.513 89.7933 157.39 66.8518 170.8 43.7697L171.964 41.766L161.583 23.785Z" fill="#184BFF" stroke="white" stroke-width="8"/>
</svg>
