<svg width="146" height="111" viewBox="0 0 146 111" fill="none" xmlns="http://www.w3.org/2000/svg">
<path d="M115.801 3.25342C121.592 -2.53743 131.112 -0.195138 138.408 7.10107C142.268 10.961 144.702 15.1175 145.819 17.7661L142.002 20.2651C140.933 17.5687 139.016 13.9299 135.109 10.0229C129.32 4.23313 122.878 2.57812 119.193 6.26318C115.748 9.70896 116.334 13.3586 119.591 21.3052C123.08 29.772 124.079 35.2693 118.91 40.438C114.184 45.164 106.917 45.2667 99.749 40.0815C100.182 48.4259 95.896 57.1377 86.8525 66.2056L87.3047 66.6577L56.4814 97.48C40.0177 113.944 24.5316 114.997 10.0977 100.563C-4.33638 86.1289 -3.28414 70.642 13.1797 54.1782L44.002 23.356L45.2051 24.5581C61.3396 8.46688 76.35 7.43932 90.1611 21.2505C90.5854 21.6747 90.9954 22.1003 91.3916 22.5269L91.5312 22.439C91.609 22.6021 91.6915 22.7739 91.7793 22.9526C94.6508 26.1233 96.7514 29.3549 98.0771 32.6489C98.4186 33.0344 98.7679 33.409 99.126 33.7671C105.669 40.3101 111.593 41.3525 115.613 37.3325C119.011 33.9346 118.521 30.0946 115.404 22.479C112.381 15.0525 110.249 8.80497 115.801 3.25342ZM19.9453 60.9438C7.69148 73.1977 6.71449 83.9482 16.7129 93.9468C26.8618 104.096 37.3116 103.119 49.7158 90.7144L79.0352 61.395L66.7061 49.0659L49.4902 66.2817L45.4307 62.2222L62.6465 45.0063L49.2646 31.6245L19.9453 60.9438ZM70.6904 45.0815L84.374 58.7651C94.2414 47.6717 95.1404 37.7163 87.3594 28.4116L70.6904 45.0815ZM83.3291 24.3228C73.8293 16.101 63.9678 16.9042 52.6416 27.0327L66.6309 41.022L83.3291 24.3228Z" fill="#184BFF"/>
</svg>
