<svg width="119" height="125" viewBox="0 0 119 125" fill="none" xmlns="http://www.w3.org/2000/svg">
<path d="M68.3301 0C100.514 0 119 22.2513 119 52.084C119 90.8172 91.1068 124.276 50.835 124.276C18.4854 124.276 0 102.025 0 72.1924C7.56439e-05 33.4593 27.8933 1.36481e-05 68.3301 0ZM68 10.3838C35.4855 10.3838 10.8936 37.415 10.8936 72.1924C10.8936 97.0805 26.4078 113.893 51.165 113.893C83.5146 113.893 108.106 86.8614 108.106 52.084C108.106 27.196 92.5921 10.3838 68 10.3838ZM62.1348 57.1074L92.4561 48.9824L92.7725 58.001L64.4102 65.6006L66.9893 75.2266L57.9961 75.6357L55.917 67.877L44.3379 70.9795L43.9277 61.9863L53.6406 59.3838L44.9932 27.1074L54.0107 26.791L62.1348 57.1074Z" fill="#184BFF"/>
</svg>
