<svg width="126" height="125" viewBox="0 0 126 125" fill="none" xmlns="http://www.w3.org/2000/svg">
<path d="M125.9 81.6801L107.221 104.843L90.7345 100.426L86.0421 71.0001L94.8672 73.3648L99.0297 102.44L117.075 79.3155L125.9 81.6801Z" fill="#184BFF"/>
<path d="M68.3301 0C100.514 0 119 22.2513 119 52.084C119 59.9523 117.849 67.603 115.677 74.7998L115.552 74.7666L101.657 92.5723L100.402 83.8086C105.325 74.5987 108.106 63.7795 108.106 52.084C108.106 27.196 92.5921 10.3838 68 10.3838C35.4855 10.3838 10.8936 37.415 10.8936 72.1924C10.8936 97.0805 26.4078 113.893 51.165 113.893C64.8372 113.893 77.123 109.063 86.7529 100.862L87.1924 103.617L95.4756 105.837L95.6533 107.086C84.0279 117.733 68.6422 124.276 50.835 124.276C18.4854 124.276 0 102.025 0 72.1924C7.56439e-05 33.4593 27.8933 1.36481e-05 68.3301 0ZM110.254 88.0557C107.41 93.4555 103.923 98.439 99.8652 102.872L90.7344 100.426L90.2812 97.5879C92.7998 95.0425 95.0942 92.2438 97.1367 89.2246L99.0293 102.44L110.254 88.0557ZM62.1348 57.1074L92.4561 48.9824L92.7725 58.001L64.4102 65.6006L66.9893 75.2266L57.9961 75.6357L55.917 67.877L44.3379 70.9795L43.9277 61.9863L53.6406 59.3838L44.9932 27.1074L54.0107 26.791L62.1348 57.1074Z" fill="#184BFF"/>
</svg>
