<svg width="124" height="130" viewBox="0 0 124 130" fill="none" xmlns="http://www.w3.org/2000/svg">
<path d="M62 0C97.453 1.5343e-06 124 28.5182 124 64.7676C124 101.189 97.453 129.535 62 129.535C26.547 129.535 2.16433e-06 101.189 0 64.7676C0 28.5182 26.547 0 62 0ZM47.6787 98.3145C49.8928 105.716 52.7225 112.268 55.8154 117.863C57.8471 118.084 59.9114 118.196 62 118.196C63.9753 118.196 65.9287 118.094 67.8535 117.896C70.9964 112.312 73.8884 105.749 76.1562 98.3145H47.6787ZM83.5156 98.3145C81.5279 104.827 79.0135 110.943 76.0898 116.402C86.7595 113.583 96.0798 107.474 102.599 98.3145H83.5156ZM21.4014 98.3145C27.8497 107.375 37.0391 113.451 47.5645 116.311C44.7053 110.861 42.2548 104.777 40.3184 98.3145H21.4014ZM88.4932 68.8643C88.2107 76.3722 87.1618 83.8561 85.4834 91.0068H106.878C109.888 84.6672 111.779 77.2692 112.242 68.8643H88.4932ZM11.7578 68.8643C12.2207 77.2692 14.1117 84.6672 17.1221 91.0068H38.3877C36.7439 83.8477 35.7318 76.3642 35.4873 68.8643H11.7578ZM43.0098 68.8643C43.2398 76.7997 44.2345 84.2029 45.7666 91.0068H78.1055C79.6728 84.2091 80.7081 76.8059 80.9746 68.8643H43.0098ZM85.6904 39.4141C87.3134 46.5781 88.3008 54.0617 88.5225 61.5566H112.284C111.923 53.1996 110.153 45.7973 107.271 39.4141H85.6904ZM16.7295 39.4141C13.8467 45.7973 12.0766 53.1996 11.7158 61.5566H35.4941C35.7538 54.0534 36.7818 46.5699 38.4395 39.4141H16.7295ZM45.8174 39.4141C44.2713 46.2155 43.2602 53.6188 43.0156 61.5566H81C80.7918 53.6249 79.8196 46.2216 78.3086 39.4141H45.8174ZM75.999 12.9629C79.0941 18.7113 81.7323 25.1949 83.7803 32.1064H103.201C96.6425 22.396 87.0404 15.9003 75.999 12.9629ZM48.3477 12.8691C37.1604 15.7619 27.4262 22.2943 20.7988 32.1064H40.3848C42.4867 25.1432 45.1844 18.6236 48.3477 12.8691ZM62 11.167C59.5738 11.167 57.1805 11.3224 54.833 11.625H56.4639C53.15 17.4119 50.1042 24.2824 47.7451 32.1064H76.4199C74.0906 24.2277 71.0599 17.3034 67.7539 11.4609C65.8613 11.2669 63.9412 11.167 62 11.167Z" fill="#184BFF"/>
</svg>
