<svg id="Capa_1" data-name="Capa 1" xmlns="http://www.w3.org/2000/svg" viewBox="0 0 1013.69 495.58"><g id="Ilustración_1" data-name="Ilustración 1"><path d="M657.27,165.19h0V330.38H629.74V192.72a27.54,27.54,0,0,1,27.53-27.53"/><path d="M547.14,165.19H473.45l-8.9,27.53h55.06V330.39h27.53V192.72h27.54a27.54,27.54,0,0,0,27.53-27.53Z"/><path d="M303.18,330.38H331L282.25,184a27.53,27.53,0,0,0-26.12-18.83H220.25L165.19,330.38h27.86l13.77-41.29h45.77a27.54,27.54,0,0,0,27.53-27.54H216l32.11-96.36Z"/><path d="M737.71,165.19,682.65,330.38h27.86l13.76-41.3H770a27.53,27.53,0,0,0,27.54-27.53H733.44l32.13-96.36Z"/><path d="M848.49,330.38,799.7,184a27.51,27.51,0,0,0-26.12-18.83h-8l55.06,165.19Z"/><path d="M386.26,302.85V165.19H358.73V302.85a27.61,27.61,0,0,0,27.53,27.53h73.42l9.18-27.53Z"/></g></svg>