<svg width="188" height="166" viewBox="0 0 188 166" fill="none" xmlns="http://www.w3.org/2000/svg">
<path d="M7.95508 130.23H140.437V111.165H148.392V138.532H0V111.165H7.95508V130.23ZM38.2178 99.4194L52.0801 99.0981L52.1553 102.322L38.293 102.642L38.6143 116.565L35.3311 116.641L35.0088 102.718L21.1465 103.039L21.0723 99.8159L34.9346 99.4946L34.6143 85.6323L37.8975 85.5571L38.2178 99.4194ZM76.5146 98.5337L90.377 98.2124L90.4512 101.436L76.5889 101.756L76.9111 115.679L73.6289 115.755L73.3066 101.833L59.4443 102.153L59.3691 98.9302L73.2324 98.6089L72.9111 84.7466L76.1934 84.6714L76.5146 98.5337ZM114.812 97.6479L128.675 97.3267L128.749 100.55L114.887 100.871L115.208 114.793L111.925 114.87L111.604 100.947L97.7402 101.267L97.666 98.0444L111.528 97.7241L111.208 83.8608L114.491 83.7856L114.812 97.6479ZM37.3926 63.2427L51.2549 62.9224L51.3291 66.145L37.4668 66.4663L37.7891 80.3892L34.5049 80.4644L34.1836 66.5415L20.3213 66.8628L20.2461 63.6392L34.1084 63.3188L33.7881 49.4565L37.0713 49.3804L37.3926 63.2427ZM75.6885 62.3569L89.5508 62.0366L89.626 65.2593L75.7627 65.5806L76.085 79.5034L72.8018 79.5786L72.4795 65.6558L58.6182 65.9771L58.5439 62.7534L72.4053 62.4331L72.085 48.5708L75.3682 48.4946L75.6885 62.3569ZM113.986 61.4712L127.849 61.1509L127.923 64.3735L114.061 64.6948L114.383 78.6177L111.1 78.6929L110.777 64.77L96.915 65.0913L96.8398 61.8677L110.702 61.5474L110.382 47.6851L113.665 47.6089L113.986 61.4712ZM149.178 33.4849L0.800781 35.5845L0.679688 27.0718L149.057 24.9712L149.178 33.4849ZM76.0205 8.36572L110.686 7.87549V1.0874H114.335V7.82373L148.808 7.33643L148.928 15.8501L114.335 16.3394V22.3726H110.686V16.3901L76.0205 16.8813V21.7651H72.3711V16.9321L37.7061 17.4233V22.3726H34.0576V17.4751L0.550781 17.9497L0.430664 9.43604L34.0576 8.95947V1.0874H37.7061V8.90771L72.3711 8.4165V0.479004H76.0205V8.36572Z" fill="#184BFF"/>
<ellipse cx="156" cy="132.479" rx="27" ry="29" fill="white"/>
<path d="M156.152 165.244C136.982 165.244 125 150.947 125 132.362C125 113.776 136.982 99.479 156.152 99.479C175.322 99.479 187.304 113.776 187.304 132.362C187.304 150.947 175.322 165.244 156.152 165.244ZM156.152 157.619C171.488 157.619 179.396 146.182 179.396 132.362C179.396 118.541 171.488 107.104 156.152 107.104C140.816 107.104 132.908 118.541 132.908 132.362C132.908 146.182 140.816 157.619 156.152 157.619Z" fill="#184BFF"/>
<path d="M155.383 113.632L160.921 113.632L160.921 140.63L155.383 140.63L155.383 113.632Z" fill="#184BFF"/>
<path d="M142.922 145.772L140.153 140.976L163.534 127.477L166.303 132.273L142.922 145.772Z" fill="#184BFF"/>
</svg>
