<svg width="147" height="168" viewBox="0 0 147 168" fill="none" xmlns="http://www.w3.org/2000/svg">
<path d="M47.3994 128.755C51.8318 127.217 57.0115 127.626 62.46 130.184C67.762 132.672 71.2712 136.515 72.876 140.972C74.4801 145.427 74.1664 150.455 71.9004 155.283C71.0743 157.043 70.1187 158.532 69.2539 159.671L89.9062 163.366L89.1123 167.81L62.6143 163.069L63.251 159.514L62.7949 159.294L63.2266 158.841C63.2837 158.781 63.3426 158.713 63.4072 158.642L63.4092 158.626L63.4199 158.627C64.3127 157.64 65.8664 155.632 67.0264 153.16C68.7451 149.498 68.9255 145.937 67.7393 142.852C66.5518 139.763 63.9732 137.095 60.0742 135.265C56.0283 133.366 52.326 132.985 49.2041 134.004C46.0874 135.022 43.4714 137.461 41.6426 141.357C40.3844 144.038 39.7038 146.539 39.5049 148.1L39.4258 148.721L34.5732 146.444L34.6162 146.114C34.8298 144.439 35.6935 141.53 36.9609 138.829C39.3406 133.759 42.966 130.293 47.3994 128.755ZM65.2578 157.055C65.2872 157.014 65.3181 156.973 65.3477 156.931L65.6133 156.546C65.4942 156.722 65.3745 156.891 65.2578 157.055ZM11.96 89.7598C17.2279 87.8573 22.2422 87.9704 26.4648 90.0176C30.6862 92.0643 34.059 96.0161 36.1035 101.677C38.0931 107.186 37.8582 112.386 35.8418 116.672C33.8258 120.956 30.0475 124.289 25.0312 126.101C23.2031 126.761 21.4753 127.138 20.0586 127.332L32.0488 144.55L28.3457 147.129L12.9609 125.041L15.9238 122.976L15.7568 122.499L16.3828 122.483C16.4656 122.481 16.5554 122.475 16.6514 122.471L16.6641 122.461L16.6709 122.469C17.9999 122.402 20.5186 122.081 23.0859 121.154C26.891 119.78 29.5369 117.389 30.8799 114.368C32.2238 111.345 32.2872 107.635 30.8242 103.584C29.3058 99.38 26.9569 96.4916 24.0283 95.0049C21.1048 93.5212 17.5313 93.3975 13.4834 94.8594C10.6981 95.8653 8.44848 97.1513 7.2041 98.1143L6.70898 98.4971L4.8877 93.457L5.15137 93.2529C6.48738 92.2192 9.15445 90.773 11.96 89.7598ZM109.55 135.592C111.5 132.215 115.734 131.08 119.111 133.029C122.489 134.979 123.624 139.214 121.674 142.592C119.724 145.969 115.489 147.104 112.111 145.154C108.735 143.204 107.6 138.969 109.55 135.592ZM35.5576 143.904C35.5169 144.051 35.4788 144.195 35.4424 144.336C35.5042 144.097 35.5722 143.849 35.6465 143.594C35.6159 143.699 35.5861 143.802 35.5576 143.904ZM36.1484 142.032C36.0736 142.246 36.0028 142.458 35.9346 142.666C36.009 142.438 36.0874 142.207 36.1699 141.973C36.1629 141.993 36.1554 142.012 36.1484 142.032ZM107.312 37.6113L71.1494 58.4893C64.8264 62.14 60.4969 65.9789 58.1025 70.1025C66.6813 60.3935 78.4139 59.4424 93.2949 67.3672L114.719 55.3291L117.318 59.832L99.0693 70.6523L116.669 80.8135L128.358 74.0654L131.585 79.6543L123.122 84.5391L131.585 89.4258L128.358 95.0137L116.669 88.2646L99.0693 98.4258L117.318 109.247L114.719 113.751L93.2939 101.712C78.4128 109.637 66.6812 108.685 58.1025 98.9756C60.4968 103.1 64.8259 106.939 71.1494 110.59L107.312 131.469L104.085 137.057L67.9229 116.179C52.633 107.351 46.7476 96.7815 50.1621 84.5391C46.7483 72.297 52.6334 61.728 67.9229 52.9004L104.085 32.0225L107.312 37.6113ZM121.699 114.895C123.649 111.517 127.851 110.364 131.187 112.289C134.522 114.215 135.624 118.43 133.674 121.808C131.724 125.185 127.522 126.339 124.187 124.413C120.851 122.487 119.75 118.272 121.699 114.895ZM133.55 94.0234C135.5 90.6464 139.734 89.5118 143.111 91.4609C146.489 93.4109 147.624 97.646 145.674 101.023C143.724 104.401 139.489 105.536 136.111 103.586C132.735 101.636 131.6 97.4006 133.55 94.0234ZM86.4238 71.2275C74.3406 66.1012 65.5005 68.9063 59.3867 79.4951C58.3891 81.2231 57.6011 82.9039 57.0264 84.5391C57.6012 86.1747 58.3888 87.8555 59.3867 89.584C65.5005 100.173 74.3402 102.977 86.4238 97.8506L69.7695 88.4922L72.0518 84.5391L69.7695 80.5869L86.4238 71.2275ZM25.4951 95.3457C25.3578 95.252 25.2195 95.1604 25.0791 95.0732L25.0537 95.0576C25.2028 95.1496 25.3495 95.2464 25.4951 95.3457ZM75.6504 84.5391L92.7021 94.6504L110.216 84.5391L92.7031 74.4277L75.6504 84.5391ZM13.7158 94.2939L13.3281 94.4297L13.7148 94.2949C13.8695 94.2425 14.0243 94.1925 14.1777 94.1445C14.0247 94.1924 13.8701 94.2416 13.7158 94.2939ZM22.2217 34.9023C23.7526 35.0495 26.4134 35.6258 29.2686 36.9658C34.0965 39.2318 37.5503 42.8976 39.1631 47.3496C40.7763 51.803 40.5334 57.0023 38.0449 62.3047C35.4876 67.7533 31.7642 71.3771 27.3721 73.0264C22.9787 74.676 17.9756 74.3269 12.9053 71.9473C11.1709 71.1332 9.51049 70.1452 8.2168 69.2383L4.44336 90.332L0 89.5371L4.74023 63.04L8.07227 63.6348L8.48145 62.7627L8.93848 63.1904C10.0888 64.2639 12.2108 65.7515 14.8916 67.0098C18.788 68.8384 22.3583 69.0444 25.4062 67.8359C28.4591 66.6253 31.0629 63.9659 32.9619 59.9199C34.7918 56.0209 35.0695 52.3207 34.0098 49.1865C32.9507 46.0552 30.5379 43.4308 26.876 41.7119C24.2122 40.4617 21.5395 39.9137 20.3223 39.7705L19.7012 39.6982L21.7646 35.168L21.8984 34.8721L22.2217 34.9023ZM136.111 65.4941C139.489 63.5442 143.724 64.6785 145.674 68.0557C147.624 71.4331 146.489 75.6681 143.111 77.6182C139.734 79.5677 135.499 78.433 133.549 75.0557C131.599 71.6785 132.735 67.4442 136.111 65.4941ZM15.8096 67.9062C15.9839 67.9756 16.1589 68.0395 16.332 68.1025C16.1552 68.0382 15.9769 67.9724 15.7988 67.9014L15.8096 67.9062ZM124.187 44.666C127.522 42.7402 131.724 43.8943 133.674 47.2715C135.624 50.6489 134.522 54.864 131.187 56.79C127.851 58.7154 123.649 57.5625 121.699 54.1855C119.75 50.8083 120.851 46.5921 124.187 44.666ZM39.7129 52.5361C39.7103 52.473 39.7083 52.4096 39.7051 52.3467L39.6963 52.207C39.7028 52.3163 39.7084 52.4263 39.7129 52.5361ZM35.6611 42.2822C35.5726 42.1796 35.4818 42.0785 35.3906 41.9775L35.2285 41.7998C35.3759 41.9585 35.5205 42.1192 35.6611 42.2822ZM35.0488 41.6094C34.9949 41.5529 34.9406 41.4963 34.8857 41.4404L34.7803 41.334C34.8709 41.4248 34.9605 41.517 35.0488 41.6094ZM32.1562 39.1484C32.0972 39.1075 32.0382 39.0658 31.9785 39.0254L31.75 38.873C31.8871 38.9633 32.0222 39.0557 32.1562 39.1484ZM75.0254 5.85059C76.0039 7.03712 77.4784 9.32555 78.5498 12.292C80.3613 17.308 80.2116 22.3426 78.2041 26.6309C76.1957 30.9206 72.3461 34.4244 66.8369 36.4141C61.176 38.4584 55.9818 38.3887 51.71 36.4492C47.4369 34.5091 44.1458 30.725 42.2432 25.457C41.5924 23.6552 41.1172 21.7826 40.8438 20.2266L23.2598 32.4727L20.6807 28.7705L42.7695 13.3857L44.7041 16.1602L45.6084 15.834L45.6299 16.4609C45.6843 18.0334 46.1329 20.5851 47.1387 23.3701C48.6008 27.4183 50.9805 30.0889 53.9902 31.3896C57.005 32.6921 60.7269 32.6519 64.9307 31.1338C68.9813 29.6708 71.7939 27.2515 73.2607 24.2861C74.6803 21.4156 74.865 17.9824 73.626 14.3115L73.502 13.9561C72.5026 11.1891 71.0008 8.91257 70.2412 7.9502L69.8525 7.45801L74.8184 5.59961L75.0254 5.85059ZM30.1006 37.8936C30.049 37.866 29.9973 37.8378 29.9453 37.8105L29.5137 37.5908C29.7118 37.6891 29.9075 37.7905 30.1006 37.8936ZM58.7529 37.4697C58.7891 37.4698 58.826 37.4689 58.8623 37.4688C58.671 37.4696 58.4802 37.4679 58.291 37.4629C58.4442 37.467 58.5983 37.4694 58.7529 37.4697ZM112.111 23.9258C115.489 21.9759 119.724 23.1101 121.674 26.4873C123.624 29.8648 122.489 34.0998 119.111 36.0498C115.734 37.9993 111.499 36.8646 109.549 33.4873C107.599 30.1101 108.735 25.8758 112.111 23.9258ZM41.7295 22.1924C41.7519 22.2823 41.7773 22.3722 41.8008 22.4629C41.7461 22.2516 41.6926 22.0424 41.6436 21.8359C41.6716 21.9537 41.6997 22.0729 41.7295 22.1924ZM73.5547 12.834C73.539 12.7962 73.5237 12.7583 73.5078 12.7207L73.3389 12.333C73.4119 12.4975 73.4842 12.6646 73.5547 12.834ZM104.77 5.16406L103.976 9.6084L77.4775 4.86816L78.2725 0.424805L104.77 5.16406Z" fill="#184BFF"/>
</svg>
