<svg width="137" height="197" viewBox="0 0 137 197" fill="none" xmlns="http://www.w3.org/2000/svg">
<path d="M7.51855 153.272C9.71757 156.695 12.4265 159.8 16.0518 161.887C23.8392 166.369 30.8951 166.86 38.792 168.371C46.8232 169.96 53.8584 170.797 61.5117 175.201C63.8269 176.534 66.2717 178.676 68.3477 181.037L68.3486 181.035V181.037C70.4245 178.676 72.8695 176.534 75.1846 175.201C82.8378 170.797 89.8732 169.959 97.9043 168.371C105.801 166.86 112.857 166.368 120.645 161.887C124.27 159.8 126.979 156.695 129.178 153.272V49.082H136.696V156.161H136.664L136.696 156.217C134.947 160.615 130.01 166.311 125.445 168.938C117.792 173.343 110.757 174.18 102.726 175.769C94.8289 177.28 87.7727 177.771 79.9854 182.253C74.6149 185.344 71.1188 190.747 68.4502 196.03L68.3486 195.853L68.3477 195.854V195.852L68.2451 196.03C65.5764 190.747 62.0815 185.344 56.7109 182.253C48.9235 177.771 41.8676 177.28 33.9707 175.769C25.9394 174.18 18.9043 173.343 11.251 168.938C6.68586 166.311 1.74955 160.614 0 156.217L0.0322266 156.161H0V49.082H7.51855V153.272ZM54.4424 71.2529C58.3289 69.4502 62.8044 68.4551 67.7793 68.4551C79.8909 68.4551 89.0393 74.3517 93.9414 83.4512L98.5127 78.8809L103.593 86.9307L97.3223 93.2002C97.7463 95.4893 97.9658 97.8813 97.9658 100.352C97.9658 118.38 86.3559 132.247 67.7793 132.247C49.2026 132.247 37.5919 118.38 37.5918 100.352C37.5918 90.9591 40.7445 82.6968 46.3906 76.9355L28.4834 48.8682L35.5957 41.7559L54.4424 71.2529ZM50.585 83.5088C47.0488 87.9181 45.2549 93.8645 45.2549 100.352C45.2549 113.757 52.918 124.852 67.7793 124.852C82.6405 124.851 90.3037 113.757 90.3037 100.352C90.3037 100.308 90.3019 100.264 90.3018 100.221L72.5645 117.959L50.585 83.5088ZM67.7793 75.8516C64.2805 75.8516 61.1801 76.4658 58.4854 77.5811L74.5967 102.797L88.2451 89.1475C85.0558 81.2881 78.1818 75.8516 67.7793 75.8516ZM68.9121 0.0986328C73.4804 7.897 81.422 16.6265 93.3271 23.5C105.232 30.3732 116.762 32.8863 125.8 32.9434L122.854 38.0459C112.632 38.0088 100.61 34.5864 90.3467 28.6611C81.342 23.4622 73.3297 16.1267 68.0264 8.43945C62.7231 16.1268 54.7109 23.4622 45.7061 28.6611C35.4431 34.5865 23.4213 38.0086 13.1992 38.0459L10.2529 32.9434C19.2907 32.8863 30.8214 30.3735 42.7266 23.5C54.6315 16.6266 62.5723 7.89689 67.1406 0.0986328L68.0264 1.63379L68.9121 0.0986328Z" fill="#184BFF"/>
</svg>
