<svg width="176" height="152" viewBox="0 0 176 152" fill="none" xmlns="http://www.w3.org/2000/svg">
<path d="M81.8301 130.559C87.3924 130.559 91.8145 135.114 91.8145 140.843C91.8142 146.572 87.3923 151.126 81.8301 151.126C76.268 151.126 71.8469 146.572 71.8467 140.843C71.8467 135.114 76.2678 130.559 81.8301 130.559ZM141.447 130.559C147.01 130.559 151.431 135.114 151.431 140.843C151.43 146.572 147.009 151.126 141.447 151.126C135.885 151.126 131.464 146.572 131.464 140.843C131.464 135.114 135.885 130.559 141.447 130.559ZM159.479 121.618H64.6934V112.676H159.479V121.618ZM13.3945 1.55697C35.4981 -4.36568 46.3752 8.02968 51.1758 25.9456L66.0479 81.4476L69.4766 25.0423H83.7168L79.043 88.2992L77.8467 103.516L83.8262 88.2992L108.285 25.0423H136.006L132.527 88.2992L131.657 103.516L137.311 88.2992L160.465 25.0423H175.575L145.681 103.733H118.178L121.656 40.4759L122.417 25.2601L116.547 40.4759L91.8701 103.733H64.6934L65.9307 83.3617L55.7646 86.0853L40.4873 29.0687C36.5301 14.3005 28.2518 8.73416 15.4678 12.1595C9.61344 13.7282 5.49474 16.5184 2.88672 18.2552L0 7.48177C3.37941 5.27886 7.77923 3.06162 13.3945 1.55697Z" fill="#184BFF"/>
</svg>
