<svg width="164" height="136" viewBox="0 0 164 136" fill="none" xmlns="http://www.w3.org/2000/svg">
<path d="M119.599 0.320312C128.311 0.320334 136.233 2.16542 143.045 6.20215L143.67 6.57227C150.083 10.4396 155.118 15.6878 158.642 22.2471C162.253 28.9699 164 36.3904 164 44.3525C164 53.8687 161.474 62.6837 156.416 70.6182C151.24 78.7376 143.772 84.7563 134.385 88.7617L124.839 92.835L123.096 93.6016C114.501 97.446 107.738 101.446 102.653 105.53C98.1507 109.24 96.4004 113.127 96.4004 117.471C96.4004 118.841 96.533 120.03 96.7578 121.063C97.1504 122.391 97.6179 123.577 98.1494 124.636L103.515 135.32H60.4854L65.8506 124.636C66.3319 123.677 66.7182 122.592 66.9854 121.351L67.0537 121.034L67.1484 120.726C67.429 119.818 67.5996 118.747 67.5996 117.471C67.5996 113.121 65.8447 109.229 61.3291 105.516C56.0679 101.189 48.7543 96.9281 39.1611 92.835L29.6152 88.7617C20.2278 84.7563 12.7598 78.7376 7.58398 70.6182C2.52625 62.6837 -4.15967e-07 53.8687 0 44.3525C6.28094e-05 36.3904 1.74653 28.9698 5.3584 22.2471C9.00801 15.4542 14.2774 10.0672 21.0205 6.16406C27.9064 2.17844 35.7871 0.320334 44.4014 0.320312C54.8645 0.320319 64.2801 3.10131 72.3037 8.89648C76.0609 11.6103 79.2951 14.7566 82 18.3115C84.7049 14.7566 87.9391 11.6103 91.6963 8.89648C99.7199 3.10131 109.135 0.32032 119.599 0.320312ZM118.75 7.7041C110.018 7.8489 102.443 10.2386 96.0264 14.873C89.4029 19.657 84.7274 25.9929 82 33.8799C79.2726 25.9929 74.5971 19.657 67.9736 14.873L67.3496 14.4316C60.8583 9.94192 53.2085 7.69727 44.4014 7.69727C36.8688 7.69729 30.3101 9.31354 24.7256 12.5459C19.141 15.7783 14.8553 20.1746 11.8682 25.7344C8.88115 31.294 7.38776 37.5 7.3877 44.3525C7.38769 52.2437 9.39871 59.468 13.4209 66.0244L13.8164 66.6572C17.9683 73.1702 23.9487 78.1668 31.7568 81.6465L32.5186 81.9785L42.0635 86.0508C51.751 90.1841 59.5496 94.6213 65.459 99.3613L66.0254 99.8213C71.9996 104.735 74.9873 110.618 74.9873 117.471L74.9834 117.832C74.953 119.635 74.6951 121.326 74.208 122.901C73.8184 124.711 73.2333 126.392 72.4541 127.943H91.5459C90.7667 126.392 90.1171 124.711 89.5977 122.901C89.2081 121.221 89.0127 119.41 89.0127 117.471L89.0215 116.831C89.2023 110.251 92.187 104.581 97.9746 99.8213C104.079 94.9081 112.065 90.3175 121.936 86.0508L131.481 81.9785C139.408 78.5966 145.507 73.6977 149.776 67.2822L150.184 66.6572C154.469 59.9338 156.612 52.4982 156.612 44.3525C156.612 37.5 155.119 31.294 152.132 25.7344L151.849 25.2168C148.876 19.9012 144.684 15.6773 139.274 12.5459C133.82 9.31354 127.261 7.69729 119.599 7.69727L118.75 7.7041ZM110 72.8389C102.167 77.3234 91.4639 80.0137 81 80.0137C70.5361 80.0137 59.833 77.3234 52 72.8389V67.6367C58.9361 71.5831 68.8619 74.752 81 74.752C93.1381 74.752 103.064 71.5831 110 67.6367V72.8389ZM69.8184 37.3203C72.8678 37.3203 75.3193 39.772 75.3193 42.7617C75.3192 45.8111 72.8678 48.2627 69.8184 48.2627C66.8289 48.2625 64.3771 45.811 64.377 42.7617C64.377 39.7721 66.8288 37.3205 69.8184 37.3203ZM92.0615 37.3203C95.111 37.3203 97.5635 39.772 97.5635 42.7617C97.5634 45.8111 95.1109 48.2627 92.0615 48.2627C89.0721 48.2625 86.6212 45.811 86.6211 42.7617C86.6211 39.7722 89.072 37.3205 92.0615 37.3203Z" fill="#184BFF"/>
</svg>
