<svg width="197" height="197" viewBox="0 0 197 197" fill="none" xmlns="http://www.w3.org/2000/svg">
<path d="M48.1216 148.353C20.6046 120.836 21.9339 78.2974 50.1156 50.1156C78.1644 22.0668 120.836 20.6046 148.353 48.1216C175.87 75.6387 174.408 118.31 146.359 146.359C118.177 174.541 75.6387 175.87 48.1216 148.353ZM56.8952 139.579C78.0315 160.716 110.6 164.039 137.319 137.319C163.906 110.733 160.849 77.8986 139.712 56.7623C118.576 35.626 85.7416 32.5685 59.1551 59.155C32.4356 85.8745 35.7589 118.443 56.8952 139.579Z" fill="#184BFF"/>
<path d="M159.253 67.5301C150.933 75.8507 137.443 75.8507 129.122 67.5301C120.801 59.2096 120.801 45.7193 129.122 37.3987C137.443 29.0782 150.933 29.0782 159.253 37.3987C167.574 45.7193 167.574 59.2096 159.253 67.5301Z" fill="white"/>
<path d="M157.038 65.3146C164.135 58.2176 164.135 46.7112 157.038 39.6143C149.941 32.5173 138.434 32.5173 131.338 39.6143C124.241 46.7112 124.241 58.2176 131.338 65.3146L129.122 67.5301C120.801 59.2096 120.801 45.7193 129.122 37.3987C137.443 29.0782 150.933 29.0782 159.253 37.3987C167.574 45.7193 167.574 59.2096 159.253 67.5301C150.933 75.8507 137.443 75.8507 129.122 67.5301L131.338 65.3146C138.434 72.4115 149.941 72.4115 157.038 65.3146Z" fill="#184BFF"/>
<path d="M127.128 69.5242C117.956 60.3518 118.399 46.1724 127.793 36.7784C137.142 27.4288 151.366 26.9414 160.539 36.1138C169.711 45.2861 169.223 59.5099 159.874 68.8595C150.48 78.2534 136.301 78.6966 127.128 69.5242ZM130.053 66.5997C137.098 73.6451 147.954 74.7529 156.861 65.8464C165.723 56.9842 164.704 46.0394 157.658 38.994C150.613 31.9486 139.668 30.9294 130.806 39.7916C121.899 48.6981 123.007 59.5543 130.053 66.5997Z" fill="#184BFF"/>
<path d="M159.874 68.8592C169.078 59.6557 169.694 45.7285 160.961 36.5465L160.539 36.1133C151.366 26.941 137.142 27.4284 127.793 36.778L127.359 37.222C118.53 46.4648 118.111 60.0549 126.705 69.0899L127.128 69.5239C136.157 78.5528 150.038 78.2644 159.43 69.2928L159.874 68.8592ZM154.645 63.6302C158.556 59.7188 160.114 55.5468 160.092 51.7567C160.069 47.9392 158.443 44.2097 155.443 41.2091C152.442 38.2085 148.713 36.5828 144.895 36.5603C141.105 36.5381 136.933 38.0952 133.021 42.0066C129.086 45.9421 127.545 50.0999 127.581 53.8636C127.616 57.6578 129.257 61.372 132.268 64.3836L130.053 66.5991L129.727 66.2659C123.082 59.3267 122.07 48.8956 130.396 40.2099L130.806 39.791C139.668 30.9289 150.613 31.9481 157.658 38.9935L157.984 39.3263C164.733 46.3802 165.584 57.122 156.86 65.8458L156.442 66.256C147.616 74.7161 136.988 73.5344 130.053 66.5991L132.268 64.3836C135.28 67.3952 138.994 69.0356 142.788 69.0713C146.552 69.1067 150.709 67.5656 154.645 63.6302ZM162.09 71.0748C151.572 81.5924 135.406 82.2327 124.913 71.7395C114.419 61.2461 115.06 45.0802 125.577 34.5624C136.047 24.0929 152.257 23.4006 162.754 33.8978C173.251 44.3949 172.559 60.6053 162.09 71.0748Z" fill="#184BFF"/>
<path d="M67.5298 159.254C59.2093 167.574 45.719 167.574 37.3984 159.254C29.0778 150.933 29.0778 137.443 37.3984 129.122C45.719 120.802 59.2093 120.802 67.5298 129.122C75.8504 137.443 75.8504 150.933 67.5298 159.254Z" fill="white"/>
<path d="M65.3143 157.038C72.4112 149.941 72.4112 138.435 65.3143 131.338C58.2173 124.241 46.7109 124.241 39.614 131.338C32.517 138.435 32.517 149.941 39.614 157.038L37.3984 159.254C29.0778 150.933 29.0778 137.443 37.3984 129.122C45.719 120.802 59.2093 120.802 67.5298 129.122C75.8504 137.443 75.8504 150.933 67.5298 159.254C59.2093 167.574 45.719 167.574 37.3984 159.254L39.614 157.038C46.7109 164.135 58.2173 164.135 65.3143 157.038Z" fill="#184BFF"/>
<path d="M35.4046 161.248C26.2322 152.075 26.6754 137.896 36.0693 128.502C45.4189 119.152 59.6427 118.665 68.815 127.837C77.9874 137.01 77.5 151.234 68.1504 160.583C58.7564 169.977 44.577 170.42 35.4046 161.248ZM38.3291 158.323C45.3746 165.369 56.2307 166.477 65.1372 157.57C73.9994 148.708 72.9802 137.763 65.9348 130.718C58.8894 123.672 47.9446 122.653 39.0824 131.515C30.1759 140.422 31.2837 151.278 38.3291 158.323Z" fill="#184BFF"/>
<path d="M68.1504 160.583C77.354 151.379 77.9701 137.452 69.2378 128.27L68.8151 127.837C59.6427 118.665 45.4187 119.152 36.0692 128.502L35.6356 128.946C26.8064 138.188 26.387 151.779 34.9817 160.814L35.4045 161.248C44.4335 170.276 58.3145 169.988 67.7064 161.016L68.1504 160.583ZM62.9214 155.354C66.8328 151.442 68.3903 147.27 68.3681 143.48C68.3457 139.663 66.7199 135.933 63.7193 132.933C60.7187 129.932 56.9892 128.306 53.1717 128.284C49.3816 128.262 45.2092 129.819 41.2977 133.73C37.3623 137.666 35.8217 141.824 35.8571 145.587C35.8929 149.381 37.5332 153.096 40.5448 156.107L38.3293 158.323L38.003 157.99C31.3586 151.05 30.3462 140.619 38.672 131.934L39.0822 131.515C47.9444 122.652 58.8894 123.672 65.9349 130.717L66.2607 131.05C73.0098 138.104 73.8607 148.846 65.1369 157.569L64.718 157.98C55.8922 166.44 45.2646 165.258 38.3293 158.323L40.5448 156.107C43.5565 159.119 47.2706 160.759 51.0648 160.795C54.8285 160.83 58.9859 159.289 62.9214 155.354ZM70.366 162.798C59.8482 173.316 43.6823 173.956 33.1889 163.463C22.6956 152.97 23.3359 136.804 33.8536 126.286C44.3231 115.817 60.5335 115.124 71.0306 125.621C81.5277 136.119 80.8354 152.329 70.366 162.798Z" fill="#184BFF"/>
<path d="M127.128 69.5242C117.956 60.3518 118.399 46.1724 127.793 36.7784C137.142 27.4288 151.366 26.9414 160.539 36.1138C169.711 45.2861 169.223 59.5099 159.874 68.8595C150.48 78.2534 136.301 78.6966 127.128 69.5242ZM130.053 66.5997C137.098 73.6451 147.954 74.7529 156.861 65.8464C165.723 56.9842 164.704 46.0394 157.658 38.994C150.613 31.9486 139.668 30.9294 130.806 39.7916C121.899 48.6981 123.007 59.5543 130.053 66.5997Z" fill="#184BFF"/>
<path d="M159.874 68.8592C169.078 59.6557 169.694 45.7285 160.961 36.5465L160.539 36.1133C151.366 26.941 137.142 27.4284 127.793 36.778L127.359 37.222C118.53 46.4648 118.111 60.0549 126.705 69.0899L127.128 69.5239C136.157 78.5528 150.038 78.2644 159.43 69.2928L159.874 68.8592ZM154.645 63.6302C158.556 59.7188 160.114 55.5468 160.092 51.7567C160.069 47.9392 158.443 44.2097 155.443 41.2091C152.442 38.2085 148.713 36.5828 144.895 36.5603C141.105 36.5381 136.933 38.0952 133.021 42.0066C129.086 45.9421 127.545 50.0999 127.581 53.8636C127.616 57.6578 129.257 61.372 132.268 64.3836L130.053 66.5991L129.727 66.2659C123.082 59.3267 122.07 48.8956 130.396 40.2099L130.806 39.791C139.668 30.9289 150.613 31.9481 157.658 38.9935L157.984 39.3263C164.733 46.3802 165.584 57.122 156.86 65.8458L156.442 66.256C147.616 74.7161 136.988 73.5344 130.053 66.5991L132.268 64.3836C135.28 67.3952 138.994 69.0356 142.788 69.0713C146.552 69.1067 150.709 67.5656 154.645 63.6302ZM162.09 71.0748C151.572 81.5924 135.406 82.2327 124.913 71.7395C114.419 61.2461 115.06 45.0802 125.577 34.5624C136.047 24.0929 152.257 23.4006 162.754 33.8978C173.251 44.3949 172.559 60.6053 162.09 71.0748Z" fill="#184BFF"/>
<path d="M67.5298 159.254C59.2093 167.574 45.719 167.574 37.3984 159.254C29.0778 150.933 29.0778 137.443 37.3984 129.122C45.719 120.802 59.2093 120.802 67.5298 129.122C75.8504 137.443 75.8504 150.933 67.5298 159.254Z" fill="white"/>
<path d="M65.3143 157.038C72.4112 149.941 72.4112 138.435 65.3143 131.338C58.2173 124.241 46.7109 124.241 39.614 131.338C32.517 138.435 32.517 149.941 39.614 157.038L37.3984 159.254C29.0778 150.933 29.0778 137.443 37.3984 129.122C45.719 120.802 59.2093 120.802 67.5298 129.122C75.8504 137.443 75.8504 150.933 67.5298 159.254C59.2093 167.574 45.719 167.574 37.3984 159.254L39.614 157.038C46.7109 164.135 58.2173 164.135 65.3143 157.038Z" fill="#184BFF"/>
<path d="M35.4046 161.248C26.2322 152.075 26.6754 137.896 36.0693 128.502C45.4189 119.152 59.6427 118.665 68.815 127.837C77.9874 137.01 77.5 151.234 68.1504 160.583C58.7564 169.977 44.577 170.42 35.4046 161.248ZM38.3291 158.323C45.3746 165.369 56.2307 166.477 65.1372 157.57C73.9994 148.708 72.9802 137.763 65.9348 130.718C58.8894 123.672 47.9446 122.653 39.0824 131.515C30.1759 140.422 31.2837 151.278 38.3291 158.323Z" fill="#184BFF"/>
<path d="M68.1504 160.583C77.354 151.379 77.9701 137.452 69.2378 128.27L68.8151 127.837C59.6427 118.665 45.4187 119.152 36.0692 128.502L35.6356 128.946C26.8064 138.188 26.387 151.779 34.9817 160.814L35.4045 161.248C44.4335 170.276 58.3145 169.988 67.7064 161.016L68.1504 160.583ZM62.9214 155.354C66.8328 151.442 68.3903 147.27 68.3681 143.48C68.3457 139.663 66.7199 135.933 63.7193 132.933C60.7187 129.932 56.9892 128.306 53.1717 128.284C49.3816 128.262 45.2092 129.819 41.2977 133.73C37.3623 137.666 35.8217 141.824 35.8571 145.587C35.8929 149.381 37.5332 153.096 40.5448 156.107L38.3293 158.323L38.003 157.99C31.3586 151.05 30.3462 140.619 38.672 131.934L39.0822 131.515C47.9444 122.652 58.8894 123.672 65.9349 130.717L66.2607 131.05C73.0098 138.104 73.8607 148.846 65.1369 157.569L64.718 157.98C55.8922 166.44 45.2646 165.258 38.3293 158.323L40.5448 156.107C43.5565 159.119 47.2706 160.759 51.0648 160.795C54.8285 160.83 58.9859 159.289 62.9214 155.354ZM70.366 162.798C59.8482 173.316 43.6823 173.956 33.1889 163.463C22.6956 152.97 23.3359 136.804 33.8536 126.286C44.3231 115.817 60.5335 115.124 71.0306 125.621C81.5277 136.119 80.8354 152.329 70.366 162.798Z" fill="#184BFF"/>
<path d="M129.122 159.963C120.801 151.643 120.801 138.152 129.122 129.832C137.442 121.511 150.933 121.511 159.253 129.832C167.574 138.152 167.574 151.643 159.253 159.963C150.933 168.284 137.442 168.284 129.122 159.963Z" fill="white"/>
<path d="M131.337 157.748C138.434 164.845 149.941 164.845 157.038 157.748C164.135 150.651 164.135 139.144 157.038 132.047C149.941 124.95 138.434 124.95 131.337 132.047L129.122 129.832C137.442 121.511 150.933 121.511 159.253 129.832C167.574 138.152 167.574 151.643 159.253 159.963C150.933 168.284 137.442 168.284 129.122 159.963C120.801 151.643 120.801 138.152 129.122 129.832L131.337 132.047C124.24 139.144 124.24 150.651 131.337 157.748Z" fill="#184BFF"/>
<path d="M127.128 127.837C136.3 118.665 150.48 119.108 159.874 128.502C169.223 137.851 169.711 152.075 160.538 161.248C151.366 170.42 137.142 169.933 127.793 160.583C118.399 151.189 117.956 137.01 127.128 127.837ZM130.053 130.762C123.007 137.807 121.899 148.663 130.806 157.57C139.668 166.432 150.613 165.413 157.658 158.367C164.704 151.322 165.723 140.377 156.861 131.515C147.954 122.608 137.098 123.716 130.053 130.762Z" fill="#184BFF"/>
<path d="M127.793 160.583C136.996 169.787 150.923 170.403 160.105 161.67L160.538 161.248C169.711 152.075 169.223 137.851 159.874 128.502L159.43 128.068C150.187 119.239 136.597 118.82 127.562 127.414L127.128 127.837C118.099 136.866 118.387 150.747 127.359 160.139L127.793 160.583ZM133.022 155.354C136.933 159.265 141.105 160.823 144.895 160.801C148.713 160.778 152.442 159.152 155.443 156.152C158.443 153.151 160.069 149.422 160.091 145.604C160.114 141.814 158.557 137.642 154.645 133.73C150.71 129.795 146.552 128.254 142.788 128.29C138.994 128.325 135.28 129.966 132.268 132.977L130.053 130.762L130.386 130.436C137.325 123.791 147.756 122.779 156.442 131.105L156.861 131.515C165.723 140.377 164.704 151.322 157.658 158.367L157.325 158.693C150.272 165.442 139.53 166.293 130.806 157.57L130.396 157.151C121.936 148.325 123.117 137.697 130.053 130.762L132.268 132.977C129.257 135.989 127.616 139.703 127.58 143.497C127.545 147.261 129.086 151.418 133.022 155.354ZM125.577 162.799C115.059 152.281 114.419 136.115 124.912 125.622C135.406 115.128 151.572 115.769 162.089 126.286C172.559 136.756 173.251 152.966 162.754 163.463C152.257 173.96 136.046 173.268 125.577 162.799Z" fill="#184BFF"/>
<path d="M37.3983 68.2395C29.0778 59.919 29.0778 46.4287 37.3983 38.1081C45.7189 29.7876 59.2092 29.7876 67.5298 38.1081C75.8503 46.4287 75.8503 59.919 67.5298 68.2395C59.2092 76.5601 45.7189 76.5601 37.3983 68.2395Z" fill="white"/>
<path d="M39.6139 66.024C46.7108 73.1209 58.2173 73.1209 65.3142 66.024C72.4112 58.927 72.4112 47.4206 65.3142 40.3237C58.2173 33.2267 46.7108 33.2267 39.6139 40.3237L37.3983 38.1081C45.7189 29.7876 59.2092 29.7876 67.5298 38.1081C75.8503 46.4287 75.8503 59.919 67.5298 68.2395C59.2092 76.5601 45.7189 76.5601 37.3983 68.2395C29.0778 59.919 29.0778 46.4287 37.3983 38.1081L39.6139 40.3237C32.5169 47.4206 32.5169 58.927 39.6139 66.024Z" fill="#184BFF"/>
<path d="M35.4045 36.1135C44.5769 26.9412 58.7564 27.3843 68.1503 36.7782C77.4999 46.1278 77.9873 60.3516 68.815 69.5239C59.6426 78.6963 45.4188 78.2089 36.0692 68.8593C26.6753 59.4654 26.2322 45.2859 35.4045 36.1135ZM38.3291 39.038C31.2836 46.0835 30.1759 56.9396 39.0823 65.8461C47.9445 74.7083 58.8893 73.6892 65.9347 66.6437C72.9802 59.5983 73.9993 48.6535 65.1372 39.7913C56.2307 30.8848 45.3745 31.9926 38.3291 39.038Z" fill="#184BFF"/>
<path d="M36.0689 68.8594C45.2725 78.0629 59.1997 78.6791 68.3817 69.9468L68.8149 69.524C77.9872 60.3517 77.4998 46.1277 68.1502 36.7781L67.7062 36.3445C58.4633 27.5154 44.8733 27.096 35.8383 35.6907L35.4043 36.1134C26.3754 45.1425 26.6638 59.0234 35.6354 68.4154L36.0689 68.8594ZM41.298 63.6303C45.2094 67.5418 49.3813 69.0992 53.1715 69.077C56.989 69.0546 60.7185 67.4288 63.7191 64.4283C66.7197 61.4277 68.3454 57.6981 68.3679 53.8806C68.3901 50.0905 66.833 45.9181 62.9216 42.0067C58.9861 38.0713 54.8283 36.5306 51.0646 36.5661C47.2704 36.6018 43.5562 38.2421 40.5446 41.2538L38.3291 39.0382L38.6623 38.7119C45.6015 32.0676 56.0326 31.0552 64.7183 39.3809L65.1372 39.7912C73.9993 48.6533 72.9801 59.5984 65.9347 66.6438L65.6019 66.9697C58.548 73.7188 47.8062 74.5696 39.0824 65.8459L38.6722 65.427C30.2121 56.6011 31.3938 45.9735 38.3291 39.0382L40.5446 41.2538C37.533 44.2654 35.8926 47.9795 35.8569 51.7737C35.8215 55.5374 37.3626 59.6949 41.298 63.6303ZM33.8534 71.0749C23.3358 60.5572 22.6955 44.3913 33.1887 33.8979C43.6821 23.4045 59.848 24.0449 70.3658 34.5626C80.8353 45.0321 81.5276 61.2424 71.0304 71.7396C60.5333 82.2366 44.3229 81.5444 33.8534 71.0749Z" fill="#184BFF"/>
<path d="M127.128 127.837C136.3 118.665 150.48 119.108 159.874 128.502C169.223 137.851 169.711 152.075 160.538 161.248C151.366 170.42 137.142 169.933 127.793 160.583C118.399 151.189 117.956 137.01 127.128 127.837ZM130.053 130.762C123.007 137.807 121.899 148.663 130.806 157.57C139.668 166.432 150.613 165.413 157.658 158.367C164.704 151.322 165.723 140.377 156.861 131.515C147.954 122.608 137.098 123.716 130.053 130.762Z" fill="#184BFF"/>
<path d="M127.793 160.583C136.996 169.787 150.923 170.403 160.105 161.67L160.538 161.248C169.711 152.075 169.223 137.851 159.874 128.502L159.43 128.068C150.187 119.239 136.597 118.82 127.562 127.414L127.128 127.837C118.099 136.866 118.387 150.747 127.359 160.139L127.793 160.583ZM133.022 155.354C136.933 159.265 141.105 160.823 144.895 160.801C148.713 160.778 152.442 159.152 155.443 156.152C158.443 153.151 160.069 149.422 160.091 145.604C160.114 141.814 158.557 137.642 154.645 133.73C150.71 129.795 146.552 128.254 142.788 128.29C138.994 128.325 135.28 129.966 132.268 132.977L130.053 130.762L130.386 130.436C137.325 123.791 147.756 122.779 156.442 131.105L156.861 131.515C165.723 140.377 164.704 151.322 157.658 158.367L157.325 158.693C150.272 165.442 139.53 166.293 130.806 157.57L130.396 157.151C121.936 148.325 123.117 137.697 130.053 130.762L132.268 132.977C129.257 135.989 127.616 139.703 127.58 143.497C127.545 147.261 129.086 151.418 133.022 155.354ZM125.577 162.799C115.059 152.281 114.419 136.115 124.912 125.622C135.406 115.128 151.572 115.769 162.089 126.286C172.559 136.756 173.251 152.966 162.754 163.463C152.257 173.96 136.046 173.268 125.577 162.799Z" fill="#184BFF"/>
<path d="M37.3983 68.2395C29.0778 59.919 29.0778 46.4287 37.3983 38.1081C45.7189 29.7876 59.2092 29.7876 67.5298 38.1081C75.8503 46.4287 75.8503 59.919 67.5298 68.2395C59.2092 76.5601 45.7189 76.5601 37.3983 68.2395Z" fill="white"/>
<path d="M39.6139 66.024C46.7108 73.1209 58.2173 73.1209 65.3142 66.024C72.4112 58.927 72.4112 47.4206 65.3142 40.3237C58.2173 33.2267 46.7108 33.2267 39.6139 40.3237L37.3983 38.1081C45.7189 29.7876 59.2092 29.7876 67.5298 38.1081C75.8503 46.4287 75.8503 59.919 67.5298 68.2395C59.2092 76.5601 45.7189 76.5601 37.3983 68.2395C29.0778 59.919 29.0778 46.4287 37.3983 38.1081L39.6139 40.3237C32.5169 47.4206 32.5169 58.927 39.6139 66.024Z" fill="#184BFF"/>
<path d="M35.4045 36.1135C44.5769 26.9412 58.7564 27.3843 68.1503 36.7782C77.4999 46.1278 77.9873 60.3516 68.815 69.5239C59.6426 78.6963 45.4188 78.2089 36.0692 68.8593C26.6753 59.4654 26.2322 45.2859 35.4045 36.1135ZM38.3291 39.038C31.2836 46.0835 30.1759 56.9396 39.0823 65.8461C47.9445 74.7083 58.8893 73.6892 65.9347 66.6437C72.9802 59.5983 73.9993 48.6535 65.1372 39.7913C56.2307 30.8848 45.3745 31.9926 38.3291 39.038Z" fill="#184BFF"/>
<path d="M36.0689 68.8594C45.2725 78.0629 59.1997 78.6791 68.3817 69.9468L68.8149 69.524C77.9872 60.3517 77.4998 46.1277 68.1502 36.7781L67.7062 36.3445C58.4633 27.5154 44.8733 27.096 35.8383 35.6907L35.4043 36.1134C26.3754 45.1425 26.6638 59.0234 35.6354 68.4154L36.0689 68.8594ZM41.298 63.6303C45.2094 67.5418 49.3813 69.0992 53.1715 69.077C56.989 69.0546 60.7185 67.4288 63.7191 64.4283C66.7197 61.4277 68.3454 57.6981 68.3679 53.8806C68.3901 50.0905 66.833 45.9181 62.9216 42.0067C58.9861 38.0713 54.8283 36.5306 51.0646 36.5661C47.2704 36.6018 43.5562 38.2421 40.5446 41.2538L38.3291 39.0382L38.6623 38.7119C45.6015 32.0676 56.0326 31.0552 64.7183 39.3809L65.1372 39.7912C73.9993 48.6533 72.9801 59.5984 65.9347 66.6438L65.6019 66.9697C58.548 73.7188 47.8062 74.5696 39.0824 65.8459L38.6722 65.427C30.2121 56.6011 31.3938 45.9735 38.3291 39.0382L40.5446 41.2538C37.533 44.2654 35.8926 47.9795 35.8569 51.7737C35.8215 55.5374 37.3626 59.6949 41.298 63.6303ZM33.8534 71.0749C23.3358 60.5572 22.6955 44.3913 33.1887 33.8979C43.6821 23.4045 59.848 24.0449 70.3658 34.5626C80.8353 45.0321 81.5276 61.2424 71.0304 71.7396C60.5333 82.2366 44.3229 81.5444 33.8534 71.0749Z" fill="#184BFF"/>
</svg>
