<svg width="172" height="183" viewBox="0 0 172 183" fill="none" xmlns="http://www.w3.org/2000/svg">
<path d="M37.8047 113.9H45.3965L69.9277 135.637V111.785H98.2656L107.289 119.78V113.195H119.131V130.273L160.157 166.628V111.081H172V180.304H156.774L119.131 146.057V182.418H103.905L81.7705 162.28V178.894H69.9277V151.506L37.8047 122.281V180.585H28.5V48.0605H37.8047V113.9ZM9.30469 180.585H0V48.0605H9.30469V180.585ZM81.7705 146.131L107.289 168.743V135.283L81.7705 112.067V146.131ZM34.3994 20.0049C42.4355 20.0049 48.3571 22.5427 55.4062 24.9395C62.3143 27.3361 68.0946 30.1552 76.2715 30.1553C81.9108 30.1553 87.1272 27.3356 91.6387 24.375V34.667C88.255 37.3456 81.6293 39.6015 76.8359 39.6016C68.7999 39.6016 62.8783 37.0637 55.8291 34.667C48.921 32.2703 43.1407 29.4512 34.9639 29.4512C29.3245 29.4512 24.2488 32.2708 19.7373 35.2314V24.9395C23.1208 22.2608 29.606 20.005 34.3994 20.0049ZM49.9082 0.125977C57.9442 0.125995 63.8659 2.66383 70.915 5.06055C77.8231 7.45724 83.6034 10.2764 91.7803 10.2764C97.4196 10.2764 102.636 7.45674 107.147 4.49609V14.7881C103.764 17.4668 97.1372 19.7227 92.3438 19.7227C84.308 19.7226 78.3869 17.1847 71.3379 14.7881C64.4297 12.3914 58.6487 9.57227 50.4717 9.57227C44.8325 9.57239 39.7575 12.392 35.2461 15.3525V5.06055C38.6297 2.38189 45.1148 0.125977 49.9082 0.125977Z" fill="#184BFF"/>
</svg>
