<svg width="176" height="170" viewBox="0 0 176 170" fill="none" xmlns="http://www.w3.org/2000/svg">
<path d="M37.335 15.1699C39.7215 16.2837 43.3803 18.8823 46.6152 22.1172C55.4934 30.9954 58.1037 41.5858 54.0625 51.499L85.2998 82.7354L93.7275 75.4082L99.0303 80.7119L90.7734 88.209L117.45 114.886C127.343 111.402 137.852 114.343 146 122.491C149.235 125.726 151.409 129.067 152.629 131.666L146.105 138.083C145.204 136.121 143.295 132.832 139.954 129.491C131.734 121.271 121.233 121.271 113.013 129.491C104.634 137.87 104.634 148.053 113.066 156.485C115.983 159.402 119.271 161.63 121.869 162.85L115.293 169.426C112.906 168.312 109.248 165.712 106.013 162.478C97.3114 153.776 94.6288 143.429 98.3301 133.688L70.8994 106.257L51.2803 124.073L55 127.793L28.2715 144.904L22.7559 139.389L47.1035 120.357L44.7461 117.999L65.0156 100.373L34.5586 69.917C24.8479 73.0666 14.607 70.0816 6.62891 62.1035C3.3939 58.8685 1.21976 55.5273 0 52.9287L6.52246 46.5117C7.42402 48.4739 9.33373 51.7624 12.6748 55.1035C20.8948 63.3233 31.3952 63.3234 39.6152 55.1035C47.9944 46.7243 47.9947 36.5416 39.5625 28.1094C36.6457 25.1926 33.3574 22.9649 30.7588 21.7451L37.335 15.1699ZM75.791 101.815L101.558 127.582C102.775 125.806 104.223 124.068 105.906 122.385C107.621 120.67 109.404 119.213 111.233 118.003L85.8818 92.6514L75.791 101.815ZM50.7295 57.5C49.5851 59.1067 48.2505 60.6812 46.7217 62.21C44.8501 64.0815 42.8958 65.644 40.8906 66.915L70.0078 96.0322L80.3066 87.0771L50.7295 57.5ZM175.109 13.9551C171.15 28.5214 161.958 44.5022 149.513 56.9473C137.068 69.3923 121.087 78.5851 106.521 82.5449L101.783 77.8076C114.794 74.2721 130.421 66.4229 144.704 52.1396C158.988 37.8561 166.837 22.2285 170.372 9.21777L175.109 13.9551ZM166.135 4.98047C153.124 8.51599 137.497 16.3652 123.214 30.6484C113.031 40.8312 106.12 51.6979 101.709 61.8115C104.77 59.2252 109.37 59.3721 112.254 62.2559C115.365 65.3671 115.365 70.3169 112.324 73.3574C109.213 76.4687 104.264 76.4686 101.152 73.3574C99.9141 72.1192 99.179 70.5647 98.9541 68.9463C98.425 70.5188 97.9558 72.0619 97.5459 73.5703L92.8076 68.833C96.7674 54.2667 105.96 38.2859 118.405 25.8408C130.85 13.3957 146.831 4.20296 161.397 0.243164L166.135 4.98047Z" fill="#184BFF"/>
</svg>
