<svg width="198" height="171" viewBox="0 0 198 171" fill="none" xmlns="http://www.w3.org/2000/svg">
<path d="M197.355 0.382762L197.355 34.5854L186.794 34.5854L186.794 10.7589L10.9092 10.7589L10.9092 34.5854L0.347961 34.5854L0.34796 0.382771L197.355 0.382762Z" fill="#184BFF"/>
<path d="M196.969 145.989L3.05176e-05 142.07L0.734759 105.139L11.2939 105.349L10.7821 131.076L186.632 134.575L187.144 108.847L197.703 109.057L196.969 145.989Z" fill="#184BFF"/>
<path d="M57.8085 170.028V159.083H138.527V170.028H57.8085Z" fill="#184BFF"/>
<path d="M30.7055 60.3462L25.3344 80.3892C26.7179 80.0934 28.4537 79.8657 30.3774 79.8657C35.6523 79.8658 40.2852 81.6971 43.6 85.0054C46.9156 88.3147 48.883 93.0717 48.8832 98.8647C48.8832 104.818 47.0727 109.627 43.8334 112.95C40.593 116.273 35.9661 118.063 30.4262 118.063C27.4757 118.063 24.5084 117.614 22.9184 117.101L22.6049 117V111.7L23.1948 111.889C24.6758 112.367 27.2012 112.808 30.1303 112.808L30.5258 112.804C34.5908 112.725 37.7392 111.418 39.8911 109.129C42.1159 106.762 43.3304 103.287 43.3305 98.8657C43.3304 94.6059 42.025 91.1758 39.7592 88.8149C37.495 86.4561 34.2303 85.1207 30.2289 85.1206C27.5284 85.1207 25.0761 85.6666 23.8178 86.0513L23.8139 86.063L23.7973 86.0571C23.7076 86.0847 23.6232 86.1106 23.5463 86.1362L22.9584 86.3325L22.9526 85.8315L19.5014 84.9077L26.392 59.1909L30.7055 60.3462ZM167.594 79.8657C170.713 79.8657 173.337 80.4684 174.77 80.98L175.074 81.0894L175.07 81.4106L175.013 86.3325L174.426 86.1362C173.276 85.753 170.653 85.1206 167.743 85.1206C163.742 85.1207 160.477 86.4564 158.213 88.8149C155.947 91.1758 154.641 94.6058 154.641 98.8657C154.641 103.287 155.856 106.762 158.081 109.129C160.302 111.492 163.585 112.808 167.842 112.808C170.771 112.808 173.296 112.368 174.777 111.89L175.367 111.7V117L175.053 117.101C173.463 117.614 170.496 118.063 167.545 118.063C162.006 118.063 157.379 116.274 154.139 112.951C150.9 109.628 149.089 104.819 149.089 98.8657C149.089 93.0724 151.056 88.3149 154.372 85.0054C157.686 81.6971 162.319 79.8658 167.594 79.8657ZM30.934 117.607C30.8575 117.608 30.7804 117.608 30.7036 117.609L30.935 117.607C31.0976 117.604 31.2595 117.599 31.4203 117.592L30.934 117.607ZM99.477 73.481C116.876 73.481 130.259 84.3978 130.259 102.373C130.259 108.438 129.033 113.18 127.917 117.04H120.779C121.783 114.172 123.121 108.879 123.122 103.035C123.122 87.7064 112.414 80.7583 99.477 80.7583C86.5395 80.7583 75.8325 87.8165 75.8325 102.814C75.8325 109.651 77.7283 115.496 78.6205 117.26H71.3715C70.4793 114.614 68.6948 108.879 68.6948 101.932C68.6948 84.8394 81.7436 73.481 99.477 73.481ZM165.338 113.097C165.762 113.154 166.197 113.197 166.642 113.224H166.655C166.205 113.197 165.766 113.154 165.338 113.097ZM154.622 103.179C154.662 103.362 154.706 103.543 154.75 103.722C154.703 103.533 154.658 103.341 154.617 103.147L154.622 103.179ZM149.546 98.3354L149.54 98.8657L149.549 98.2388C149.548 98.271 149.547 98.3032 149.546 98.3354ZM150.071 93.9185C149.988 94.2859 149.915 94.6597 149.851 95.0396C149.919 94.6368 149.997 94.2408 150.086 93.8521L150.071 93.9185ZM150.869 91.2681C150.838 91.3483 150.808 91.4292 150.779 91.5103C150.821 91.3957 150.864 91.2815 150.908 91.1685L150.869 91.2681ZM151.208 90.4399C151.181 90.502 151.156 90.5659 151.129 90.6284C151.172 90.5288 151.214 90.4289 151.258 90.3306L151.208 90.4399ZM151.787 89.2515C151.754 89.3131 151.722 89.3758 151.69 89.438C151.743 89.3347 151.798 89.2321 151.853 89.1304L151.787 89.2515ZM158.947 82.2671C158.919 82.2809 158.891 82.2961 158.864 82.3101C158.98 82.2511 159.097 82.1926 159.214 82.1362L158.947 82.2671ZM166.914 80.3286C166.764 80.3332 166.615 80.3395 166.466 80.3472C166.68 80.3361 166.895 80.3275 167.112 80.3228L166.914 80.3286ZM140.217 32.8716L143.657 36.3921L143.103 36.6694C142.019 37.2118 139.717 38.6178 137.66 40.6753C134.83 43.5047 133.467 46.7579 133.534 50.0269C133.601 53.2984 135.103 56.6465 138.115 59.6587C141.241 62.7846 144.556 64.3842 147.803 64.4849C151.044 64.585 154.297 63.1941 157.307 60.1841C159.378 58.113 160.852 56.0165 161.562 54.6313L161.844 54.0796L162.518 54.7524L165.415 53.0796L178.728 76.1362L174.862 78.3687L164.265 60.0142C163.366 61.2925 162.154 62.7699 160.814 64.1099C156.897 68.0271 152.359 70.0327 147.718 69.9741C143.078 69.9154 138.397 67.7947 134.188 63.5854C130.092 59.4889 128.119 54.7331 128.123 50.0483C128.128 45.3652 130.109 40.7948 133.839 37.0649C136.045 34.8593 138.326 33.4301 139.701 32.7788L139.993 32.6411L140.217 32.8716ZM78.2075 23.4038L59.8539 33.9995C61.132 34.8982 62.6081 36.1112 63.9477 37.4507C67.8648 41.3679 69.8704 45.9053 69.812 50.5464C69.7533 55.1862 67.6325 59.8673 63.4233 64.0767C59.3268 68.1729 54.5718 70.1465 49.8871 70.1421C45.2038 70.1375 40.6328 68.1562 36.9028 64.4263C34.697 62.2205 33.2679 59.9387 32.6166 58.564L32.4789 58.2729L32.7094 58.0483L36.2289 54.6079L36.5063 55.1616C37.0146 56.178 38.283 58.2648 40.1352 60.2173L40.5131 60.605C43.3425 63.4344 46.5957 64.7978 49.8647 64.731C53.1363 64.6638 56.4852 63.1631 59.4975 60.1509C62.6236 57.0248 64.2222 53.7083 64.3227 50.4614C64.4228 47.2202 63.0319 43.9677 60.0219 40.9575C57.951 38.8867 55.8542 37.4131 54.4692 36.7036L53.9174 36.4204L54.5912 35.7466L52.9184 32.8491L75.975 19.5376L78.2075 23.4038ZM159.397 64.8218C159.232 64.9678 159.066 65.1113 158.899 65.2505L159.398 64.8228C159.521 64.7138 159.644 64.6024 159.766 64.4897C159.644 64.6025 159.52 64.7128 159.397 64.8218ZM37.561 64.4399C37.6076 64.4846 37.6557 64.5277 37.7026 64.5718C37.5414 64.4201 37.3803 64.2661 37.2221 64.1079L37.561 64.4399ZM134.136 62.8872L134.508 63.2651C134.33 63.0872 134.157 62.9073 133.988 62.7271C134.037 62.7799 134.086 62.8345 134.136 62.8872ZM161.409 62.8325C161.478 62.7564 161.549 62.6813 161.618 62.605C161.655 62.5637 161.69 62.5213 161.727 62.48C161.622 62.5978 161.516 62.7153 161.409 62.8325ZM139.075 26.5552L137.918 30.8677L117.448 25.3813C117.716 26.9208 117.902 28.8232 117.902 30.7183C117.902 36.2581 116.111 40.8841 112.788 44.1245C109.465 47.3638 104.656 49.1732 98.7036 49.1733C92.9102 49.1733 88.1527 47.2069 84.8432 43.8911C81.5349 40.5763 79.7026 35.9433 79.7026 30.6685C79.7027 27.5493 80.3062 24.9252 80.8178 23.4927L80.9262 23.189L81.2485 23.1938L86.1703 23.2505L85.9741 23.8374C85.6147 24.9155 85.0371 27.2885 84.9662 29.979L84.9584 30.521C84.9586 34.522 86.2951 37.7852 88.6537 40.0493C91.0146 42.3151 94.4438 43.6215 98.7036 43.6216C103.124 43.6215 106.6 42.4079 108.967 40.1831C111.33 37.962 112.646 34.6792 112.646 30.4224C112.646 27.4933 112.206 24.968 111.728 23.4868L111.538 22.897L112.491 22.896L113.358 19.6646L139.075 26.5552ZM136.087 41.7505C135.997 41.8634 135.908 41.9773 135.822 42.0913C135.914 41.9696 136.009 41.8485 136.106 41.728L136.087 41.7505ZM112.74 34.0728C112.754 34.0046 112.769 33.9364 112.783 33.8677L112.79 33.8228C112.774 33.9066 112.757 33.9898 112.74 34.0728ZM132.466 60.9419L132.49 60.9741C132.613 61.1348 132.741 61.2936 132.871 61.4526C132.733 61.2832 132.597 61.1131 132.466 60.9419Z" fill="#184BFF"/>
<path d="M96.196 135.825L93.3793 159.083H86.5387L91.3673 135.825H96.196ZM111.165 135.825L108.348 159.083H101.507L106.336 135.825H111.165Z" fill="#184BFF"/>
</svg>
