<svg width="193" height="194" viewBox="0 0 193 194" fill="none" xmlns="http://www.w3.org/2000/svg">
<path d="M124.88 147.544C130.857 144.093 136.735 143.123 141.948 144.449C147.163 145.776 151.641 149.383 154.853 154.945C156.563 157.908 157.832 161.147 158.239 163.041L158.32 163.414L152.997 166.487L152.846 165.785C152.467 164.021 151.446 161.23 149.748 158.289C147.28 154.015 144.056 151.482 140.396 150.621C136.73 149.759 132.537 150.556 128.099 153.118C123.822 155.587 121.135 158.886 120.078 162.529C119.022 166.17 119.573 170.222 121.893 174.239C123.458 176.951 125.43 179.097 126.546 180.137L126.558 180.134L126.562 180.151C126.643 180.226 126.716 180.298 126.787 180.36L127.323 180.836L126.824 181.131L127.896 185.133L98.083 193.121L96.7432 188.122L119.981 181.896C118.883 180.678 117.646 179.068 116.531 177.137C113.474 171.841 112.626 166.128 114.026 160.882C115.427 155.634 119.063 150.902 124.88 147.544ZM63.5986 154.806C68.2996 152.086 74.2174 151.311 80.7051 153.049C87.3714 154.835 92.2134 158.305 94.9619 162.93C97.711 167.556 98.3273 173.273 96.665 179.477C95.7796 182.781 94.3864 185.969 93.335 187.596L93.1289 187.916L87.1924 186.325L87.582 185.722C88.5614 184.206 89.8126 181.511 90.6914 178.231C91.9686 173.464 91.4802 169.393 89.501 166.197C87.518 162.996 83.9898 160.593 79.0391 159.267C74.2686 157.988 70.0366 158.421 66.7129 160.25C63.3919 162.078 60.9165 165.333 59.7158 169.813C58.9055 172.838 58.7826 175.748 58.8359 177.272L58.8477 177.279L58.8369 177.297C58.8409 177.406 58.843 177.508 58.8486 177.602L58.8916 178.318L58.3301 178.175L56.2598 181.762L29.5293 166.329L32.1172 161.847L52.9502 173.874C53.0342 172.236 53.2989 170.224 53.876 168.07C55.4588 162.163 58.8994 157.525 63.5986 154.806ZM94.8232 183.366L95.1152 182.605C95.1307 182.564 95.1448 182.521 95.1602 182.479C95.0493 182.781 94.9375 183.078 94.8232 183.366ZM95.2334 182.274C95.3264 182.017 95.4177 181.755 95.5068 181.49C95.4178 181.755 95.3263 182.017 95.2334 182.274ZM95.5947 181.229C95.6296 181.122 95.6652 181.016 95.6992 180.909C95.6652 181.016 95.6295 181.122 95.5947 181.229ZM56.0684 181.047L57.6436 178.318L56.0684 181.046L30.2451 166.138L56.0684 181.047ZM95.8896 180.287C95.9171 180.195 95.9449 180.103 95.9717 180.011C95.9449 180.103 95.9171 180.195 95.8896 180.287ZM96.1592 179.341C96.147 179.386 96.1344 179.431 96.1221 179.477C96.1344 179.431 96.148 179.386 96.1602 179.341L96.3066 178.771C96.3159 178.733 96.323 178.695 96.332 178.657C96.2772 178.884 96.2204 179.112 96.1592 179.341ZM59.21 169.678C59.1543 169.885 59.1022 170.093 59.0527 170.299L59.2109 169.678C59.2494 169.534 59.289 169.391 59.3301 169.25C59.289 169.391 59.2485 169.534 59.21 169.678ZM162.105 98.1592C166.731 95.41 172.449 94.7929 178.652 96.4551C181.956 97.3404 185.145 98.7337 186.771 99.7852L187.092 99.9922L185.501 105.929L184.897 105.539C183.382 104.56 180.687 103.309 177.407 102.43C172.64 101.152 168.569 101.641 165.373 103.62C162.171 105.603 159.769 109.131 158.442 114.082C157.164 118.852 157.597 123.085 159.426 126.408C161.254 129.729 164.508 132.204 168.989 133.404C172.013 134.214 174.921 134.337 176.446 134.284L176.453 134.274L176.469 134.283C176.579 134.279 176.682 134.278 176.777 134.272L177.494 134.229L177.35 134.792L180.936 136.862L165.502 163.593L161.02 161.005L173.048 140.169C171.41 140.085 169.399 139.822 167.246 139.245C161.339 137.662 156.701 134.221 153.981 129.521C151.261 124.821 150.486 118.903 152.225 112.416C154.011 105.75 157.481 100.908 162.105 98.1592ZM84.0078 160.609C83.9633 160.586 83.9189 160.562 83.874 160.539L83.8262 160.516C83.887 160.547 83.9477 160.578 84.0078 160.609ZM11.2246 120.806C12.4423 119.707 14.0528 118.472 15.9844 117.356C21.2806 114.299 26.9933 113.451 32.2393 114.852C37.4867 116.252 42.2189 119.889 45.5771 125.705C49.0278 131.682 49.9985 137.56 48.6719 142.773C47.3448 147.988 43.7376 152.467 38.1758 155.678C35.2134 157.388 31.9738 158.658 30.0801 159.064L29.707 159.146L26.6338 153.822L27.3359 153.671C29.0999 153.292 31.8911 152.271 34.832 150.573L35.2275 150.34C39.2626 147.904 41.6664 144.767 42.5 141.222C43.3616 137.556 42.5654 133.362 40.0029 128.924C37.5336 124.647 34.2352 121.96 30.5918 120.903C26.9511 119.847 22.8994 120.398 18.8818 122.718C16.1695 124.284 14.0234 126.255 12.9834 127.37L12.9873 127.383L12.9668 127.388C12.8928 127.467 12.8231 127.542 12.7607 127.612L12.2852 128.148L11.9893 127.649L7.98828 128.722L0 98.9082L4.99902 97.5684L11.2246 120.806ZM80.3301 159.099C80.2545 159.075 80.1788 159.05 80.1025 159.026L80.0889 159.022C80.1697 159.047 80.25 159.073 80.3301 159.099ZM74.3408 158.019C73.8101 158.002 73.2884 158.009 72.7764 158.038C73.2887 158.009 73.8108 158.003 74.3418 158.02C74.4517 158.023 74.5622 158.027 74.6729 158.032C74.5618 158.027 74.4511 158.022 74.3408 158.019ZM81.3594 153.777C81.2996 153.76 81.2398 153.741 81.1797 153.724L81.0459 153.687C81.1508 153.716 81.2554 153.747 81.3594 153.777ZM146.783 153.593C146.771 153.581 146.759 153.569 146.747 153.558L146.688 153.504C146.72 153.533 146.752 153.563 146.783 153.593ZM141.818 144.957C141.665 144.918 141.512 144.881 141.357 144.846L141.343 144.843C141.502 144.879 141.661 144.917 141.818 144.957ZM48.251 142.282C48.2587 142.249 48.2679 142.216 48.2754 142.183L48.2783 142.168C48.2697 142.206 48.2598 142.244 48.251 142.282ZM158.166 133.857C158.223 133.909 158.282 133.959 158.34 134.01C158.238 133.92 158.138 133.83 158.038 133.738L158.166 133.857ZM82.0557 53.3516C83.7472 54.1973 87.2661 56.0543 90.6709 59.2549L91.3496 59.9131C97.9497 66.5135 99.2937 75.1964 95.9014 82.9932L133.718 120.81L129.364 125.163L92.6338 88.4326C92.0635 89.1602 91.4475 89.872 90.7852 90.5625L90.3555 91.002C89.8185 91.5389 89.2649 92.0449 88.7021 92.5264L125.353 129.177L120.999 133.53L83.4873 96.0186C75.5051 100.019 66.2851 99.0135 59.0459 91.7744C55.8978 88.6263 54.071 85.5356 52.6748 83.0225L52.2549 82.2656L57.5361 76.9844L58.2402 78.4326C59.0808 80.1632 60.819 83.0821 63.3516 85.7588L63.8682 86.29C67.5019 89.9236 71.2971 91.2262 74.8701 90.958C78.4781 90.687 82.0287 88.8004 85.0918 85.7373L85.6514 85.1582C88.3803 82.2317 90.0455 78.8873 90.3057 75.5068C90.5805 71.9355 89.3007 68.1698 85.7549 64.624C82.451 61.3202 78.7383 59.4333 77.5938 59.0518L75.834 58.4648L81.3174 52.9814L82.0557 53.3516ZM167.187 133.387C167.203 133.393 167.22 133.398 167.237 133.404C167.086 133.35 166.936 133.295 166.788 133.237L167.187 133.387ZM163.216 131.349C163.308 131.413 163.402 131.476 163.496 131.539C163.293 131.404 163.095 131.265 162.901 131.122L163.216 131.349ZM40.9766 129.607C40.9591 129.574 40.9425 129.54 40.9248 129.507L40.917 129.493C40.9372 129.531 40.9566 129.57 40.9766 129.607ZM158.47 125.662C158.507 125.745 158.548 125.827 158.587 125.909C158.511 125.748 158.436 125.586 158.366 125.422C158.4 125.502 158.434 125.583 158.47 125.662ZM129.364 123.542V123.541V123.542ZM157.325 117.069C157.303 117.25 157.285 117.43 157.269 117.609C157.285 117.43 157.304 117.25 157.326 117.069C157.351 116.864 157.379 116.658 157.41 116.45C157.379 116.658 157.35 116.864 157.325 117.069ZM159.016 110.754C158.986 110.825 158.959 110.897 158.93 110.969C158.991 110.817 159.052 110.666 159.116 110.518L159.016 110.754ZM86.9971 92.4434H86.998H86.9971ZM159.913 108.869C159.885 108.921 159.858 108.973 159.83 109.025C159.899 108.895 159.97 108.766 160.041 108.639L159.913 108.869ZM31.2764 32.9424L18.9912 54.2197C20.7955 54.3811 22.9807 54.744 25.1025 55.3125C31.3062 56.9748 35.9495 60.3677 38.5811 65.0615C41.2117 69.754 41.796 75.6823 40.0098 82.3486C38.2714 88.836 34.6416 93.5731 29.9355 96.2842C25.2308 98.9944 19.4931 99.6551 13.5859 98.0723C10.0927 97.1362 7.33542 95.6736 5.88477 94.6709L5.57812 94.459L5.67969 94.0996L7.21973 88.6055L7.81836 89C8.91791 89.7259 11.4009 91.086 14.3926 91.9727L14.9971 92.1436C19.4777 93.344 23.5332 92.8271 26.7764 90.8652C30.0222 88.9014 32.5137 85.4529 33.792 80.6826C35.1185 75.7318 34.8018 71.4754 33.0205 68.1572C31.2422 64.8449 27.9614 62.3858 23.1943 61.1084C19.9142 60.2295 16.9543 59.9651 15.1523 60.0557L14.4346 60.0918L14.7188 59.0234L11.3613 57.085L26.7939 30.3545L31.2764 32.9424ZM13.7217 97.5674C13.9005 97.6153 14.0794 97.6605 14.2578 97.7041L13.7217 97.5664C13.6379 97.5439 13.5546 97.5201 13.4717 97.4971L13.7217 97.5674ZM13.0869 97.3887L13.1738 97.4131C13.1045 97.393 13.0355 97.3721 12.9668 97.3516C13.0068 97.3635 13.0467 97.3769 13.0869 97.3887ZM176.544 96.5078C176.466 96.4928 176.388 96.4771 176.31 96.4629L176.257 96.4541C176.352 96.4713 176.448 96.4894 176.544 96.5078ZM162.15 35.0352L164.947 40.0088L164.244 40.1533C162.867 40.4351 159.867 41.3198 156.945 43.0068C152.928 45.3263 150.425 48.5596 149.52 52.2402C148.613 55.924 149.29 60.1244 151.76 64.4014C154.322 68.8398 157.555 71.6261 161.161 72.7129C164.761 73.7976 168.82 73.2154 173.094 70.748C176.034 69.0503 178.314 67.1449 179.524 65.8066L180.007 65.2734L180.558 66.2285L184.307 65.2256L192.295 95.0391L187.296 96.3789L180.937 72.6465C179.547 73.8082 177.745 75.0979 175.843 76.1963C170.281 79.4074 164.599 80.2912 159.419 78.833C154.241 77.3751 149.635 73.5968 146.185 67.6201C142.826 61.8035 142.043 55.8864 143.454 50.6416C144.864 45.3984 148.455 40.8742 153.751 37.8164C156.883 36.0083 159.867 35.0931 161.602 34.7764L161.969 34.709L162.15 35.0352ZM73.0928 92.1094C73.3422 92.1261 73.5912 92.1353 73.8398 92.1377C73.7156 92.1365 73.5913 92.1337 73.4668 92.1289C73.3425 92.1241 73.2182 92.1177 73.0938 92.1094H73.0928ZM62.5195 86.5488H62.5205H62.5195ZM87.3154 74.3975L82.9795 78.7334L82.5967 78.3506L82.5879 78.3799C82.3729 79.0248 81.8281 80.4294 80.5273 81.8359L80.2578 82.1172C78.7095 83.6654 76.9011 84.604 74.9541 84.6348C72.9983 84.6656 71.1149 83.7769 69.4326 82.0947L61.3809 74.0439L65.7832 69.6416L73.1729 77.0303C74.0532 77.9105 74.7003 78.2287 75.1709 78.2754C75.5755 78.3152 76.1007 78.1756 76.8271 77.4492L77.0264 77.2314C77.9763 76.0955 78.2358 74.2665 76.9443 72.8379L76.8047 72.6924L69.7686 65.6562L74.1709 61.2539L87.3154 74.3975ZM76.1055 83.334C75.8152 83.4062 75.523 83.4539 75.2295 83.4756C75.132 83.4828 75.0343 83.4867 74.9365 83.4883C75.3289 83.482 75.7195 83.4303 76.1064 83.334H76.1055ZM33.8779 82.2129C33.8845 82.1934 33.8919 82.1739 33.8984 82.1543L33.9023 82.1406C33.8944 82.1647 33.886 82.1889 33.8779 82.2129ZM80.2979 80.3174H80.2988H80.2979ZM73.7412 78.9521H73.7422H73.7412ZM72.3613 77.8408H72.3623H72.3613ZM35.0293 73.0303C35.0272 73.0108 35.0256 72.9911 35.0234 72.9717L35.0098 72.8672C35.0163 72.9214 35.0233 72.9758 35.0293 73.0303ZM149.021 70.9023C149.039 70.9263 149.059 70.9497 149.078 70.9736C149.044 70.9305 149.01 70.8873 148.976 70.8438L149.021 70.9023ZM153.672 68.0879C153.722 68.1482 153.774 68.2072 153.824 68.2666C153.76 68.1917 153.696 68.1165 153.633 68.04L153.672 68.0879ZM146.336 66.8232C146.434 67.0016 146.535 67.1801 146.638 67.3584L146.639 67.3574C146.514 67.1421 146.393 66.9265 146.276 66.7109L146.336 66.8232ZM144.303 62.083C144.336 62.1904 144.371 62.2978 144.406 62.4053C144.363 62.2728 144.321 62.1401 144.28 62.0078L144.303 62.083ZM12.0762 56.8936L14.8594 58.5H14.8604L12.0771 56.8926L12.0762 56.8936ZM143.38 57.4199C143.391 57.5476 143.404 57.6756 143.417 57.8037C143.399 57.6266 143.383 57.4498 143.369 57.2734L143.38 57.4199ZM82.2939 54.7607H82.2949L81.5439 54.377L82.2939 54.7607ZM95.5537 5.82422L71.8193 12.1826C72.9813 13.5727 74.2706 15.3746 75.3691 17.2773C78.5803 22.8393 79.465 28.5215 78.0068 33.7012C76.5489 38.8794 72.7698 43.4847 66.793 46.9355C60.9763 50.2937 55.0593 51.0768 49.8145 49.666C44.5715 48.2556 40.047 44.6651 36.9893 39.3691C35.1814 36.2377 34.266 33.2543 33.9492 31.5195L33.8818 31.1514L34.208 30.9697L39.1826 28.1729L39.3262 28.876C39.5904 30.1667 40.3848 32.8838 41.873 35.626L42.1797 36.1748C44.4991 40.192 47.7324 42.6946 51.4131 43.6006C55.0968 44.5071 59.2972 43.8305 63.5742 41.3613C68.0128 38.7987 70.7989 35.5647 71.8857 31.959C72.9705 28.3593 72.3884 24.3005 69.9209 20.0264C68.223 17.0856 66.3177 14.8058 64.9795 13.5957L64.4463 13.1133L65.4043 12.5596L64.4004 8.81348L94.2148 0.825195L95.5537 5.82422ZM61.332 43.0654C61.3494 43.0581 61.3673 43.0514 61.3848 43.0439L61.416 43.0303C61.3881 43.0422 61.3599 43.0536 61.332 43.0654ZM62.4561 42.5508C62.5066 42.5259 62.5578 42.5019 62.6084 42.4766L62.6211 42.4697C62.5662 42.4973 62.5109 42.5238 62.4561 42.5508ZM99.0225 6.50391L104.518 8.04395L104.122 8.64258C103.348 9.8154 101.853 12.5623 100.979 15.8213C99.779 20.302 100.295 24.3583 102.257 27.6016C104.221 30.8472 107.669 33.339 112.439 34.6172C117.39 35.9437 121.647 35.6268 124.965 33.8457C128.277 32.0674 130.736 28.7857 132.014 24.0186C132.892 20.7387 133.157 17.7795 133.066 15.9775L133.03 15.2598L134.096 15.5449L136.036 12.1855L162.767 27.6182L160.179 32.1006L138.901 19.8164C138.74 21.6206 138.378 23.8062 137.81 25.9277C136.147 32.1312 132.754 36.7738 128.061 39.4053C123.368 42.0359 117.44 42.6212 110.773 40.835C104.286 39.0966 99.549 35.4659 96.8379 30.7598C94.1277 26.055 93.4671 20.3172 95.0498 14.4102C95.9858 10.9171 97.4485 8.15963 98.4512 6.70898L98.6631 6.40234L99.0225 6.50391ZM113.927 40.9834V40.9824V40.9834ZM152.619 39.1348C152.565 39.1709 152.512 39.2086 152.458 39.2451C152.656 39.1109 152.856 38.9783 153.06 38.8486L152.619 39.1348ZM35.668 35.4404C35.6783 35.4665 35.6897 35.4924 35.7002 35.5186C35.6777 35.4624 35.6556 35.4062 35.6338 35.3506L35.668 35.4404ZM38.9512 29.5869C38.9682 29.6554 38.989 29.7254 39.0078 29.7979C38.9851 29.7105 38.9614 29.6264 38.9414 29.5449L38.9512 29.5869ZM134.62 15.6855L136.229 12.9014L162.052 27.8096L136.228 12.9004L134.62 15.6855ZM131.966 25.9277C131.968 25.9229 131.97 25.918 131.972 25.9131L131.979 25.8926C131.974 25.9043 131.97 25.9161 131.966 25.9277ZM132.251 25.0771C132.254 25.0684 132.257 25.0596 132.26 25.0508L132.262 25.043C132.258 25.0543 132.255 25.0658 132.251 25.0771ZM95.9102 13.332C95.8498 13.5223 95.7908 13.7155 95.7334 13.9111L95.9229 13.2939L95.9102 13.332ZM65.873 12.2881V12.2871L65.042 9.18359H65.041L65.873 12.2881Z" fill="#184BFF"/>
</svg>
