<svg width="138" height="160" viewBox="0 0 138 160" fill="none" xmlns="http://www.w3.org/2000/svg">
<path d="M42.275 81.9037L54.7585 83.2656L65.5926 159.592L52.6887 158.184L42.2284 82.3309L13.1343 153.869L0.230441 152.461L40.8909 52.9618L53.5143 54.339L42.275 81.9037ZM122.353 57.9126C132.339 59.0019 138.753 66.3754 137.607 76.877C137.223 80.3988 136.247 83.014 135.389 85.1235L130.303 84.5687C131.029 83.0927 132.095 80.2286 132.444 77.0269C133.345 68.7664 128.423 64.406 121.724 63.6752C115.026 62.9447 109.273 66.2052 108.393 74.2734C107.988 77.9872 108.63 81.2971 109.008 82.44L103.922 81.8852C103.552 80.0953 102.965 76.8556 103.398 72.8856C104.495 62.8325 112.243 56.8099 122.353 57.9126ZM42.7035 30.4937C47.8561 28.224 53.76 30.5175 55.9782 35.553C58.248 40.7056 55.9548 46.6101 50.8022 48.8798C45.7668 51.0977 39.8628 48.8043 37.593 43.6518C35.3749 38.6163 37.668 32.7119 42.7035 30.4937ZM123.669 46.6756C126.479 46.982 128.47 49.4606 128.17 52.2061C127.864 55.0153 125.385 57.0065 122.576 56.7001C119.83 56.4004 117.839 53.9216 118.146 51.1125C118.445 48.3671 120.924 46.3763 123.669 46.6756ZM125.233 11.1984L65.7337 36.4296L61.8645 27.6467L120.641 0.775631L125.233 11.1984ZM125.39 30.901C128.2 31.2075 130.191 33.686 129.891 36.4315C129.585 39.2406 127.106 41.231 124.297 40.9245C121.552 40.6248 119.56 38.1469 119.867 35.3379C120.166 32.5926 122.645 30.6017 125.39 30.901ZM127.111 15.1254C129.92 15.4319 131.912 17.9106 131.612 20.656C131.306 23.4653 128.827 25.4564 126.018 25.1499C123.272 24.8502 121.282 22.3716 121.589 19.5625C121.888 16.8172 124.366 14.8262 127.111 15.1254Z" fill="#184BFF"/>
</svg>
