<svg width="237" height="148" viewBox="0 0 237 148" fill="none" xmlns="http://www.w3.org/2000/svg">
<path d="M73.6172 137.94H163.542V124.37H172.158V147.101H65V124.37H73.6172V137.94ZM206.125 136.157C207.673 133.476 211.075 132.507 213.756 134.055C216.506 135.642 217.436 139.113 215.888 141.794C214.3 144.544 210.869 145.405 208.119 143.817C205.438 142.269 204.537 138.907 206.125 136.157ZM202.494 126.728L198.961 132.847L167.678 104.151L171.21 98.0322L202.494 126.728ZM12.9346 116.523C15.6159 114.975 18.9777 115.876 20.5654 118.626C22.1133 121.307 21.2515 124.738 18.5703 126.286C15.8205 127.873 12.3508 126.944 10.8027 124.263C9.21499 121.513 10.1845 118.111 12.9346 116.523ZM119.961 82.5459C126.037 82.5461 130.87 87.3792 130.87 93.4551C130.87 97.5816 128.534 101.173 125.07 102.98V124.249H115.127V103.075C111.61 101.3 109.19 97.6553 109.189 93.4551C109.189 87.3791 114.023 82.5459 119.961 82.5459ZM71.0391 107.451L30.5469 120.196L27.0146 114.077L67.5068 101.333L71.0391 107.451ZM231.096 78.3105C234.271 78.3105 236.812 80.8512 236.812 83.9473C236.811 87.1227 234.271 89.584 231.096 89.584C228 89.584 225.539 87.1227 225.539 83.9473C225.539 80.8512 228 78.3105 231.096 78.3105ZM217.68 77.5967V84.6621L176.239 75.4531V68.3877L217.68 77.5967ZM119.798 0.975586C141.175 0.975699 151.864 13.0598 151.864 37.1172V65.9199H172.158V73.2266H151.864V82.1563H141.843V73.2266H97.752V82.1563H87.7314V73.2266H68.248V65.9199H87.7314V37.1172C87.7314 13.0596 98.4203 0.975584 119.798 0.975586ZM60.5723 72.1982V79.2637L19.1318 70.0547V62.9893L60.5723 72.1982ZM5.71582 58.0674C8.8118 58.0674 11.2723 60.5278 11.2725 63.7031C11.2725 66.7992 8.81192 69.3398 5.71582 69.3398C2.54035 69.3398 -1.35334e-07 66.7992 0 63.7031C0.000187237 60.5278 2.54047 58.0674 5.71582 58.0674ZM119.798 10.6426C104.767 10.6426 97.752 18.9916 97.752 37.1172V65.9199H141.843V37.1172C141.843 19.2115 134.606 10.6427 119.798 10.6426ZM69.1338 43.499L65.6016 49.6182L34.3174 20.9229L37.8506 14.8037L69.1338 43.499ZM209.797 33.5732L169.305 46.3174L165.772 40.1992L206.265 27.4541L209.797 33.5732ZM218.241 21.3643C220.991 19.777 224.461 20.7069 226.009 23.3877C227.597 26.1377 226.627 29.5392 223.877 31.127C221.196 32.6749 217.834 31.7744 216.246 29.0244C214.698 26.3432 215.56 22.9123 218.241 21.3643ZM20.9238 5.85645C22.5115 3.10649 25.9424 2.24548 28.6924 3.83301C31.3737 5.38106 32.2743 8.74312 30.6865 11.4932C29.1384 14.1743 25.7369 15.1437 23.0557 13.5957C20.306 12.0079 19.3759 8.5376 20.9238 5.85645Z" fill="#184BFF"/>
</svg>
