<svg width="209" height="168" viewBox="0 0 209 168" fill="none" xmlns="http://www.w3.org/2000/svg">
<path d="M146.021 130.088C151.469 127.531 156.649 127.122 161.081 128.659C165.514 130.197 169.14 133.663 171.52 138.733C172.787 141.434 173.651 144.343 173.864 146.019L173.907 146.349L169.055 148.625L168.976 148.004C168.777 146.443 168.096 143.943 166.838 141.262C165.009 137.365 162.393 134.926 159.276 133.908C156.154 132.889 152.452 133.27 148.406 135.169C144.507 136.999 141.929 139.668 140.741 142.756C139.555 145.841 139.735 149.402 141.454 153.064C142.614 155.536 144.168 157.545 145.061 158.531L145.071 158.53L145.073 158.546C145.138 158.617 145.197 158.685 145.254 158.745L145.686 159.198L145.229 159.418L145.866 162.974L119.368 167.714L118.574 163.271L139.227 159.575C138.362 158.436 137.406 156.948 136.58 155.188C134.314 150.359 134 145.331 135.604 140.876C137.209 136.42 140.718 132.576 146.021 130.088ZM143.133 156.835C143.162 156.877 143.193 156.918 143.223 156.959C143.106 156.796 142.986 156.626 142.867 156.45L143.133 156.835ZM42.375 19.127C36.4195 29.5269 31.0834 43.0207 28.3896 58.9189C40.7174 63.3018 55.3545 66.2773 71.7666 66.2773C77.2867 66.2773 82.6059 65.9398 87.7041 65.3262V32.791H94.4717V64.333C110.125 61.6096 123.423 56.3284 133.7 50.4434V57.4668C133.095 57.8135 132.48 58.154 131.859 58.4922C146.058 61.0824 154.358 72.086 152.974 88.376C151.527 105.397 139.101 115.149 123.676 113.838C119.1 113.449 115.337 112.234 113.333 111.318L113.954 104.887C115.675 105.629 119.579 106.93 124.008 107.307C136.26 108.348 144.929 100.811 146.036 87.7861C147.181 74.3174 140.485 65.6235 127.495 64.5195C123.826 64.2077 120.523 64.3883 118.161 64.7695C110.754 67.603 102.746 69.8553 94.4717 71.3506V92.3389H120.036V99.1064H94.4717V120.131C108.965 122.75 122.644 127.685 133.7 134.015V141.038C123.423 135.153 110.125 129.872 94.4717 127.148V152.827H87.7041V126.155C82.6059 125.542 77.2868 125.203 71.7666 125.203C58.6454 125.203 46.6591 127.107 36.0801 130.109C38.0233 134.81 40.155 139.117 42.375 142.994H35.3516C33.3937 139.574 31.569 135.904 29.9053 132.036C22.3392 134.615 15.6088 137.731 9.83301 141.038V134.015C15.1697 130.959 21.1175 128.23 27.4727 125.928C24.394 117.555 22.0602 108.457 20.71 99.1064H0V92.3389H19.9121C19.5693 88.5918 19.3896 84.8226 19.3896 81.0605C19.3896 74.9797 19.8569 68.8801 20.7285 62.8857C16.8837 61.2293 13.2342 59.4141 9.83301 57.4668V50.4434C13.4676 52.5247 17.4809 54.5283 21.8418 56.3721C24.5415 42.6162 29.311 29.6777 35.3516 19.127H42.375ZM182.016 89.9219C186.238 87.8747 191.253 87.7616 196.521 89.6641C199.326 90.6773 201.993 92.1235 203.329 93.1572L203.593 93.3613L201.771 98.4014L201.276 98.0186C200.032 97.0556 197.782 95.7696 194.997 94.7637C190.949 93.3018 187.376 93.4255 184.452 94.9092C181.524 96.3959 179.175 99.2842 177.656 103.488C176.193 107.539 176.257 111.249 177.601 114.272C178.944 117.293 181.589 119.684 185.395 121.059C187.962 121.986 190.481 122.307 191.81 122.373L191.816 122.365L191.829 122.375C191.925 122.38 192.015 122.386 192.098 122.388L192.724 122.403L192.557 122.88L195.52 124.945L180.135 147.033L176.432 144.454L188.422 127.236C187.005 127.042 185.277 126.665 183.449 126.005C178.433 124.193 174.655 120.861 172.639 116.576C170.622 112.29 170.387 107.09 172.377 101.581C174.422 95.9204 177.794 91.9686 182.016 89.9219ZM173.038 144.24C173.002 144.1 172.964 143.955 172.923 143.809C172.894 143.706 172.865 143.603 172.834 143.498C172.908 143.753 172.976 144.001 173.038 144.24ZM172.546 142.57C172.478 142.362 172.407 142.15 172.332 141.937C172.325 141.917 172.318 141.897 172.311 141.877C172.393 142.111 172.471 142.343 172.546 142.57ZM27.7627 99.1064C28.9948 108.109 31.0852 116.396 33.6934 123.852C45.6609 120.192 58.7565 118.052 71.7666 118.052C77.0926 118.052 82.4327 118.412 87.7041 119.087V99.1064H27.7627ZM183.401 94.9775C183.261 95.0647 183.123 95.1563 182.985 95.25C183.131 95.1507 183.278 95.0539 183.427 94.9619L183.401 94.9775ZM194.766 94.1992L195.152 94.334L194.765 94.1982C194.61 94.1459 194.456 94.0967 194.303 94.0488C194.456 94.0968 194.611 94.1468 194.766 94.1992ZM27.4414 65.543C26.8594 70.5131 26.54 75.6918 26.54 81.0605C26.54 84.9205 26.7068 88.6822 27.0156 92.3389H87.7041V72.3955C82.4328 73.0701 77.0925 73.4287 71.7666 73.4287C56.45 73.4287 41.0147 70.4633 27.4414 65.543ZM186.716 35.0723L188.779 39.6025L188.158 39.6748C186.941 39.818 184.268 40.366 181.604 41.6162C177.943 43.335 175.53 45.9595 174.471 49.0908C173.411 52.225 173.689 55.9252 175.519 59.8242C177.418 63.8702 180.021 66.5296 183.074 67.7402C186.122 68.9487 189.692 68.7427 193.589 66.9141C196.27 65.6558 198.392 64.1682 199.542 63.0947L199.999 62.667L200.408 63.5391L203.74 62.9443L208.48 89.4414L204.037 90.2363L200.264 69.1426C198.97 70.0495 197.31 71.0375 195.575 71.8516C190.505 74.2312 185.502 74.5803 181.108 72.9307C176.716 71.2814 172.993 67.6576 170.436 62.209C167.947 56.9066 167.704 51.7073 169.317 47.2539C170.93 42.8019 174.384 39.1361 179.212 36.8701C182.067 35.5301 184.728 34.9538 186.259 34.8066L186.582 34.7764L186.716 35.0723ZM195.734 89.877C195.627 89.8413 195.519 89.8044 195.412 89.7705L195.398 89.7666C195.51 89.8019 195.622 89.8397 195.734 89.877ZM192.148 68.0068C192.322 67.9438 192.497 67.8799 192.671 67.8105L192.682 67.8057C192.504 67.8767 192.325 67.9425 192.148 68.0068ZM168.775 52.251C168.772 52.3139 168.77 52.3773 168.768 52.4404C168.772 52.3306 168.778 52.2206 168.784 52.1113L168.775 52.251ZM173.09 41.8818C172.999 41.9828 172.908 42.0839 172.819 42.1865C172.96 42.0235 173.105 41.8628 173.252 41.7041L173.09 41.8818ZM173.595 41.3447C173.54 41.4006 173.486 41.4572 173.432 41.5137C173.52 41.4213 173.61 41.3291 173.7 41.2383L173.595 41.3447ZM176.502 38.9297C176.442 38.9701 176.383 39.0118 176.324 39.0527C176.458 38.96 176.593 38.8676 176.73 38.7773L176.502 38.9297ZM138.628 7.3623L138.239 7.85449C137.48 8.81686 135.978 11.0934 134.979 13.8604L134.854 14.2158C133.615 17.8867 133.8 21.3199 135.22 24.1904C136.687 27.1558 139.499 29.5751 143.55 31.0381C147.754 32.5562 151.475 32.5964 154.49 31.2939C157.5 29.9932 159.88 27.3226 161.342 23.2744C162.348 20.4894 162.796 17.9377 162.851 16.3652L162.872 15.7383L163.776 16.0645L165.711 13.29L187.8 28.6748L185.221 32.377L167.637 20.1309C167.363 21.6869 166.888 23.5595 166.237 25.3613C164.335 30.6292 161.044 34.4134 156.771 36.3535C152.499 38.293 147.304 38.3627 141.644 36.3184C136.134 34.3287 132.285 30.8249 130.276 26.5352C128.269 22.2469 128.119 17.2123 129.931 12.1963C131.002 9.22984 132.477 6.94142 133.455 5.75488L133.662 5.50391L138.628 7.3623ZM178.535 37.7148C178.483 37.7421 178.432 37.7703 178.38 37.7979C178.573 37.6948 178.769 37.5934 178.967 37.4951L178.535 37.7148ZM149.618 37.373C149.654 37.3732 149.691 37.3741 149.728 37.374C149.882 37.3737 150.036 37.3713 150.189 37.3672C150 37.3722 149.81 37.3739 149.618 37.373ZM166.68 22.3672C166.703 22.2765 166.729 22.1866 166.751 22.0967C166.781 21.9772 166.809 21.858 166.837 21.7402C166.788 21.9467 166.734 22.1559 166.68 22.3672ZM134.973 12.625C134.957 12.6626 134.942 12.7005 134.926 12.7383C134.996 12.5689 135.069 12.4018 135.142 12.2373L134.973 12.625ZM131.003 4.77246L104.505 9.5127L103.711 5.06836L130.208 0.329102L131.003 4.77246Z" fill="#184BFF"/>
</svg>
