<svg width="117" height="172" viewBox="0 0 117 172" fill="none" xmlns="http://www.w3.org/2000/svg">
<path d="M75.5361 87C93.8838 87.0001 102.384 98.9627 107.256 123.462L117 172H110.262L100.829 124.842C96.1644 101.263 88.1826 94.4766 75.5361 94.4766C70.436 94.4766 66.3502 95.7011 63.3164 98.1025C67.029 104.524 68.0672 113.595 65.8242 124.957L61.8252 145.121L67.2432 172H60.5049L58.5 161.89L56.4951 172H49.7568L55.1738 145.121L51.1758 124.957C48.9329 113.595 49.9702 104.524 53.6826 98.1025C50.6489 95.7014 46.5637 94.4766 41.4639 94.4766C28.8174 94.4766 20.8356 101.263 16.1709 124.842L6.73828 172H0L9.74414 123.462C14.6162 98.9627 23.1162 87.0001 41.4639 87C48.4468 87 54.2195 88.8521 58.5 92.3828C62.7805 88.8521 68.5532 87 75.5361 87ZM58.5 104.874C56.4232 110.301 56.3004 117.801 58.2246 127.257L58.5 128.623L58.7754 127.257C60.6996 117.801 60.5768 110.301 58.5 104.874ZM58.5 0C79.9434 2.5073e-06 96 19.1538 96 43.5C96 67.9615 79.9434 87 58.5 87C37.0566 87 21 67.9615 21 43.5C21 19.1538 37.0566 0 58.5 0ZM56.5381 35.3633C55.2779 37.2477 52.4325 39.3669 50.167 40.042C46.3688 41.1737 43.2486 40.6742 39.6133 40.4072C36.0445 40.1204 32.9548 39.4519 29.0898 40.6035C28.7512 40.7044 28.4227 40.8284 28.1035 40.9717C28.0655 41.8004 28.0439 42.6432 28.0439 43.5C28.0439 66.6923 42.029 79.3848 58.5 79.3848C74.971 79.3848 88.9561 66.6923 88.9561 43.5C88.9561 37.9759 88.152 33.0344 86.707 28.7119C85.8471 29.2462 84.9629 29.6735 84.1523 29.915C80.354 31.0468 77.234 30.5472 73.5986 30.2803C70.0298 29.9935 66.9402 29.3259 63.0752 30.4775C60.4098 31.2718 58.3678 33.4687 56.6104 35.6602L56.5381 35.3633ZM58.5 7.5C44.0564 7.5 31.5254 17.4376 28.6592 35.4453C32.0038 34.676 34.8799 35.1111 38.1807 35.3535C41.7495 35.6403 44.8391 36.3079 48.7041 35.1562C51.3695 34.362 53.4779 32.1456 55.2354 29.9541L55.3066 30.249C56.5669 28.3648 59.3469 26.2668 61.6123 25.5918C65.4105 24.4601 68.5308 24.9596 72.166 25.2266C75.7348 25.5134 78.8245 26.1819 82.6895 25.0303C83.4335 24.8086 84.1322 24.4725 84.7939 24.0605C79.4476 13.2979 69.532 7.5 58.5 7.5Z" fill="#184BFF"/>
</svg>
