<svg width="131" height="149" viewBox="0 0 131 149" fill="none" xmlns="http://www.w3.org/2000/svg">
<path d="M131 148.513H0V140.143H131V148.513ZM45.7461 120.646V127.258L26.7617 124.513V115.53L45.7461 120.646ZM5.63379 114.781C8.69572 114.781 11.2069 117.339 11.207 120.521C11.207 123.64 8.69577 126.197 5.63379 126.197C2.51069 126.197 1.36334e-07 123.639 0 120.521C8.57691e-05 117.339 2.51074 114.781 5.63379 114.781ZM131 101.938H0V93.5684H131V101.938ZM104.238 79.8066L85.2539 82.5518V75.9395L104.238 70.8242V79.8066ZM125.366 70.0752C128.489 70.0753 131 72.6332 131 75.8145C131 78.9334 128.489 81.4911 125.366 81.4912C122.304 81.4912 119.793 78.9335 119.793 75.8145C119.793 72.6331 122.304 70.0752 125.366 70.0752ZM131 55.3633H0V46.9932H131V55.3633ZM45.7461 28.1143V34.7266L26.7617 31.9814V22.999L45.7461 28.1143ZM5.63379 22.25C8.69572 22.25 11.2069 24.8079 11.207 27.9893C11.207 31.1083 8.69577 33.666 5.63379 33.666C2.51069 33.6659 1.36334e-07 31.1082 0 27.9893C8.57691e-05 24.808 2.51074 22.2501 5.63379 22.25ZM131 8.78809H0V0.417969H131V8.78809Z" fill="#184BFF"/>
</svg>
