<svg width="193" height="137" viewBox="0 0 193 137" fill="none" xmlns="http://www.w3.org/2000/svg">
<path d="M116.346 69.9932C117.634 73.9856 118.792 81.5843 118.792 89.1826C118.792 101.496 115.337 111.959 108.926 119.856C110.545 120.606 112.305 121.241 114.199 121.749C134.302 127.136 152.765 117.149 157.725 98.6387C159.511 91.9709 159.431 86.2961 158.938 82.9639L167.704 83.2861C168.152 86.3926 168.263 93.1429 166.156 101.005C159.73 124.989 136.129 137.437 111.349 130.798C107.764 129.837 104.524 128.481 101.662 126.788C93.5907 132.749 82.8789 136.061 69.9824 136.061C40.3616 136.061 21.6876 115.97 21.6875 89.0537C21.6875 81.069 23.2326 74.3716 24.5205 70.7656L35.7246 70.8945C34.6943 73.9854 33.0205 80.9399 33.0205 88.667C33.0205 110.046 47.316 123.955 69.9824 123.955C78.9226 123.955 86.493 122.078 92.4404 118.502C87.1879 111.267 85.5265 101.771 88.3193 91.3477C89.7592 85.974 92.0882 81.2653 93.75 79.0439L103.141 79.4268C100.967 82.3642 98.7517 86.2503 97.2852 91.7236C95.0588 100.032 96.0322 107.07 99.7041 112.374C104.741 106.454 107.459 98.3791 107.459 88.4092C107.459 80.6822 106.3 73.9855 105.012 69.9932H116.346ZM99.8604 0.320312C120.668 0.320342 135.786 8.94077 143.304 23.4033C144.751 23.2471 146.241 23.167 147.771 23.167C173.424 23.1671 193 41.3001 193 66.1299C193 74.2692 191.146 80.7607 189.909 83.6455L181.357 81.6875C182.697 78.5966 184.242 73.1363 184.242 66.2334C184.242 47.0701 168.994 32.6456 148.183 32.6455C147.738 32.6455 147.298 32.6541 146.863 32.6699C148.053 37.1488 148.67 42.0089 148.67 47.1982C148.67 54.7966 147.511 62.3953 146.224 66.3877H134.891C136.178 62.3954 137.337 55.6986 137.337 47.9717C137.337 43.3588 136.756 39.151 135.632 35.375C128.308 39.1189 124.073 46.6177 124.073 57.2695C124.073 62.9359 125.207 67.2632 126.546 70.6631L117.377 68.6025C116.347 66.0268 115.316 60.8758 115.316 55.3125C115.316 42.0058 121.492 31.8107 131.638 26.7324C125.461 17.4459 114.493 12.4258 99.8604 12.4258C77.1939 12.4258 62.8984 26.3353 62.8984 47.7139C62.8985 55.441 64.5732 62.3955 65.6035 65.4863L54.3984 65.6152C54.285 65.2976 54.1719 64.9552 54.0557 64.5908L49.8408 65.5381C50.8453 62.9882 51.6953 59.7428 51.6953 55.4932C51.6953 43.6706 44.7404 37.0254 33.6133 37.0254C18.0044 37.0254 6.56836 47.8433 6.56836 62.2158C6.56839 67.3929 7.72692 71.4885 8.73145 73.8066L2.31836 75.2744C1.39112 73.1108 5.18106e-05 68.243 0 62.1387C-8.14009e-07 43.5163 14.6814 29.9162 33.9219 29.916C41.716 29.916 48.1525 32.6753 52.4453 37.4756C56.4612 15.6536 73.9832 0.320314 99.8604 0.320312Z" fill="#184BFF"/>
</svg>
