<svg width="167" height="121" viewBox="0 0 167 121" fill="none" xmlns="http://www.w3.org/2000/svg">
<path d="M166.977 99.7441C144.426 112.655 113.785 120.918 83.4883 120.918C53.1915 120.918 22.5504 112.655 0 99.7441V88.2109C20.1405 99.7444 48.7159 109.212 83.4883 109.212C118.261 109.212 146.836 99.7443 166.977 88.2109V99.7441ZM116.876 25.4551C118.979 29.7633 122.176 37.031 123.487 46.4482C127.03 71.8852 111.043 91.6187 84.5332 95.3105C58.3487 98.9569 37.3216 84.8735 33.6211 58.3027C32.3802 49.3918 33.2218 42.3376 34.0811 36.6025L47.417 34.7451L47.2451 35.5537C46.3889 39.8039 45.6513 47.0682 46.709 54.6631C49.6197 75.5635 64.938 83.1746 82.5029 80.7285C100.068 78.2824 112.701 66.6135 109.858 46.1992C108.55 36.8024 104.82 29.0636 103.135 26.4902L116.471 24.6328L116.876 25.4551ZM84.0928 27.4453C85.9777 28.7253 89.3176 31.1118 92.3779 35.0391C100.127 44.9838 98.4264 57.1014 88.4258 64.8945C78.5479 72.5919 66.4076 71.5658 58.3125 61.1777C55.5977 57.6939 54.1995 54.5068 53.1348 51.875L58.166 47.9551C58.7985 49.9056 60.3328 53.3935 62.8008 56.5605C69.1683 64.7315 77.3573 64.3569 83.9834 59.1934C90.6096 54.0298 92.9245 46.1169 86.7051 38.1357C83.8424 34.4623 80.3927 32.0608 79.0625 31.3662L84.0928 27.4453ZM83.4883 0.80957C113.785 0.809572 144.426 9.07197 166.977 21.9824V33.5166C146.836 21.9832 118.261 12.5147 83.4883 12.5146C48.7159 12.5147 20.1405 21.9832 0 33.5166V21.9824C22.5504 9.07191 53.1916 0.809597 83.4883 0.80957Z" fill="#184BFF"/>
</svg>
